<?xml version="1.0" encoding="utf-8" standalone="no"?>
<!DOCTYPE svg PUBLIC "-//W3C//DTD SVG 1.1//EN"
  "http://www.w3.org/Graphics/SVG/1.1/DTD/svg11.dtd">
<!-- Created with matplotlib (https://matplotlib.org/) -->
<svg height="705.171875pt" version="1.1" viewBox="0 0 716.4 705.171875" width="716.4pt" xmlns="http://www.w3.org/2000/svg" xmlns:xlink="http://www.w3.org/1999/xlink">
 <defs>
  <style type="text/css">
*{stroke-linecap:butt;stroke-linejoin:round;}
  </style>
 </defs>
 <g id="figure_1">
  <g id="patch_1">
   <path d="M 0 705.171875 
L 716.4 705.171875 
L 716.4 0 
L 0 0 
z
" style="fill:#ffffff;"/>
  </g>
  <g id="axes_1">
   <g id="patch_2">
    <path d="M 686.3375 352.585938 
C 686.3375 309.704195 677.890732 267.239423 661.480599 227.621859 
C 645.070467 188.004294 621.016106 152.004399 590.694135 121.682428 
C 560.372164 91.360457 524.372268 67.306096 484.754704 50.895963 
C 445.13714 34.485831 402.672368 26.039062 359.790625 26.039062 
C 316.908882 26.039062 274.44411 34.485831 234.826546 50.895963 
C 195.208982 67.306096 159.209086 91.360457 128.887115 121.682428 
C 98.565144 152.004399 74.510783 188.004294 58.100651 227.621859 
C 41.690518 267.239423 33.24375 309.704195 33.24375 352.585937 
C 33.24375 395.46768 41.690518 437.932452 58.100651 477.550016 
C 74.510783 517.167581 98.565144 553.167476 128.887115 583.489447 
C 159.209086 613.811418 195.208982 637.865779 234.826546 654.275912 
C 274.44411 670.686044 316.908882 679.132812 359.790625 679.132812 
C 402.672368 679.132812 445.13714 670.686044 484.754704 654.275912 
C 524.372268 637.865779 560.372164 613.811418 590.694135 583.489447 
C 621.016106 553.167476 645.070467 517.167581 661.480599 477.550016 
C 677.890732 437.932452 686.3375 395.46768 686.3375 352.585938 
M 359.790625 352.585938 
C 359.790625 352.585938 359.790625 352.585938 359.790625 352.585938 
C 359.790625 352.585938 359.790625 352.585938 359.790625 352.585938 
C 359.790625 352.585938 359.790625 352.585938 359.790625 352.585938 
C 359.790625 352.585938 359.790625 352.585938 359.790625 352.585938 
C 359.790625 352.585938 359.790625 352.585938 359.790625 352.585938 
C 359.790625 352.585938 359.790625 352.585938 359.790625 352.585938 
C 359.790625 352.585938 359.790625 352.585938 359.790625 352.585938 
C 359.790625 352.585938 359.790625 352.585938 359.790625 352.585938 
C 359.790625 352.585938 359.790625 352.585938 359.790625 352.585938 
C 359.790625 352.585938 359.790625 352.585938 359.790625 352.585938 
C 359.790625 352.585938 359.790625 352.585938 359.790625 352.585938 
C 359.790625 352.585938 359.790625 352.585938 359.790625 352.585938 
C 359.790625 352.585938 359.790625 352.585938 359.790625 352.585938 
C 359.790625 352.585938 359.790625 352.585938 359.790625 352.585938 
C 359.790625 352.585938 359.790625 352.585938 359.790625 352.585938 
C 359.790625 352.585938 359.790625 352.585938 359.790625 352.585938 
M 686.3375 352.585938 
z
" style="fill:#ffffff;"/>
   </g>
   <g id="matplotlib.axis_1">
    <g id="xtick_1">
     <g id="line2d_1">
      <path clip-path="url(#p00c9ca7d69)" d="M 359.790625 352.585938 
L 359.790625 26.039062 
" style="fill:none;stroke:#b0b0b0;stroke-linecap:square;stroke-width:0.8;"/>
     </g>
     <g id="text_1">
      <!-- 0° -->
      <defs>
       <path d="M 31.78125 66.40625 
Q 24.171875 66.40625 20.328125 58.90625 
Q 16.5 51.421875 16.5 36.375 
Q 16.5 21.390625 20.328125 13.890625 
Q 24.171875 6.390625 31.78125 6.390625 
Q 39.453125 6.390625 43.28125 13.890625 
Q 47.125 21.390625 47.125 36.375 
Q 47.125 51.421875 43.28125 58.90625 
Q 39.453125 66.40625 31.78125 66.40625 
z
M 31.78125 74.21875 
Q 44.046875 74.21875 50.515625 64.515625 
Q 56.984375 54.828125 56.984375 36.375 
Q 56.984375 17.96875 50.515625 8.265625 
Q 44.046875 -1.421875 31.78125 -1.421875 
Q 19.53125 -1.421875 13.0625 8.265625 
Q 6.59375 17.96875 6.59375 36.375 
Q 6.59375 54.828125 13.0625 64.515625 
Q 19.53125 74.21875 31.78125 74.21875 
z
" id="DejaVuSans-48"/>
       <path d="M 25 67.921875 
Q 21.09375 67.921875 18.40625 65.203125 
Q 15.71875 62.5 15.71875 58.59375 
Q 15.71875 54.734375 18.40625 52.078125 
Q 21.09375 49.421875 25 49.421875 
Q 28.90625 49.421875 31.59375 52.078125 
Q 34.28125 54.734375 34.28125 58.59375 
Q 34.28125 62.453125 31.5625 65.1875 
Q 28.859375 67.921875 25 67.921875 
z
M 25 74.21875 
Q 28.125 74.21875 31 73.015625 
Q 33.890625 71.828125 35.984375 69.578125 
Q 38.234375 67.390625 39.359375 64.59375 
Q 40.484375 61.8125 40.484375 58.59375 
Q 40.484375 52.15625 35.96875 47.6875 
Q 31.453125 43.21875 24.90625 43.21875 
Q 18.3125 43.21875 13.90625 47.609375 
Q 9.515625 52 9.515625 58.59375 
Q 9.515625 65.140625 14 69.671875 
Q 18.5 74.21875 25 74.21875 
z
" id="DejaVuSans-176"/>
      </defs>
      <g transform="translate(354.109375 14.798437)scale(0.1 -0.1)">
       <use xlink:href="#DejaVuSans-48"/>
       <use x="63.623047" xlink:href="#DejaVuSans-176"/>
      </g>
     </g>
    </g>
    <g id="xtick_2">
     <g id="line2d_2">
      <path clip-path="url(#p00c9ca7d69)" d="M 359.790625 352.585938 
L 590.694135 121.682428 
" style="fill:none;stroke:#b0b0b0;stroke-linecap:square;stroke-width:0.8;"/>
     </g>
     <g id="text_2">
      <!-- 45° -->
      <defs>
       <path d="M 37.796875 64.3125 
L 12.890625 25.390625 
L 37.796875 25.390625 
z
M 35.203125 72.90625 
L 47.609375 72.90625 
L 47.609375 25.390625 
L 58.015625 25.390625 
L 58.015625 17.1875 
L 47.609375 17.1875 
L 47.609375 0 
L 37.796875 0 
L 37.796875 17.1875 
L 4.890625 17.1875 
L 4.890625 26.703125 
z
" id="DejaVuSans-52"/>
       <path d="M 10.796875 72.90625 
L 49.515625 72.90625 
L 49.515625 64.59375 
L 19.828125 64.59375 
L 19.828125 46.734375 
Q 21.96875 47.46875 24.109375 47.828125 
Q 26.265625 48.1875 28.421875 48.1875 
Q 40.625 48.1875 47.75 41.5 
Q 54.890625 34.8125 54.890625 23.390625 
Q 54.890625 11.625 47.5625 5.09375 
Q 40.234375 -1.421875 26.90625 -1.421875 
Q 22.3125 -1.421875 17.546875 -0.640625 
Q 12.796875 0.140625 7.71875 1.703125 
L 7.71875 11.625 
Q 12.109375 9.234375 16.796875 8.0625 
Q 21.484375 6.890625 26.703125 6.890625 
Q 35.15625 6.890625 40.078125 11.328125 
Q 45.015625 15.765625 45.015625 23.390625 
Q 45.015625 31 40.078125 35.4375 
Q 35.15625 39.890625 26.703125 39.890625 
Q 22.75 39.890625 18.8125 39.015625 
Q 14.890625 38.140625 10.796875 36.28125 
z
" id="DejaVuSans-53"/>
      </defs>
      <g transform="translate(591.73113 114.542308)scale(0.1 -0.1)">
       <use xlink:href="#DejaVuSans-52"/>
       <use x="63.623047" xlink:href="#DejaVuSans-53"/>
       <use x="127.246094" xlink:href="#DejaVuSans-176"/>
      </g>
     </g>
    </g>
    <g id="xtick_3">
     <g id="line2d_3">
      <path clip-path="url(#p00c9ca7d69)" d="M 359.790625 352.585938 
L 686.3375 352.585938 
" style="fill:none;stroke:#b0b0b0;stroke-linecap:square;stroke-width:0.8;"/>
     </g>
     <g id="text_3">
      <!-- 90° -->
      <defs>
       <path d="M 10.984375 1.515625 
L 10.984375 10.5 
Q 14.703125 8.734375 18.5 7.8125 
Q 22.3125 6.890625 25.984375 6.890625 
Q 35.75 6.890625 40.890625 13.453125 
Q 46.046875 20.015625 46.78125 33.40625 
Q 43.953125 29.203125 39.59375 26.953125 
Q 35.25 24.703125 29.984375 24.703125 
Q 19.046875 24.703125 12.671875 31.3125 
Q 6.296875 37.9375 6.296875 49.421875 
Q 6.296875 60.640625 12.9375 67.421875 
Q 19.578125 74.21875 30.609375 74.21875 
Q 43.265625 74.21875 49.921875 64.515625 
Q 56.59375 54.828125 56.59375 36.375 
Q 56.59375 19.140625 48.40625 8.859375 
Q 40.234375 -1.421875 26.421875 -1.421875 
Q 22.703125 -1.421875 18.890625 -0.6875 
Q 15.09375 0.046875 10.984375 1.515625 
z
M 30.609375 32.421875 
Q 37.25 32.421875 41.125 36.953125 
Q 45.015625 41.5 45.015625 49.421875 
Q 45.015625 57.28125 41.125 61.84375 
Q 37.25 66.40625 30.609375 66.40625 
Q 23.96875 66.40625 20.09375 61.84375 
Q 16.21875 57.28125 16.21875 49.421875 
Q 16.21875 41.5 20.09375 36.953125 
Q 23.96875 32.421875 30.609375 32.421875 
z
" id="DejaVuSans-57"/>
      </defs>
      <g transform="translate(691.475 355.345312)scale(0.1 -0.1)">
       <use xlink:href="#DejaVuSans-57"/>
       <use x="63.623047" xlink:href="#DejaVuSans-48"/>
       <use x="127.246094" xlink:href="#DejaVuSans-176"/>
      </g>
     </g>
    </g>
    <g id="xtick_4">
     <g id="line2d_4">
      <path clip-path="url(#p00c9ca7d69)" d="M 359.790625 352.585938 
L 590.694135 583.489447 
" style="fill:none;stroke:#b0b0b0;stroke-linecap:square;stroke-width:0.8;"/>
     </g>
     <g id="text_4">
      <!-- 135° -->
      <defs>
       <path d="M 12.40625 8.296875 
L 28.515625 8.296875 
L 28.515625 63.921875 
L 10.984375 60.40625 
L 10.984375 69.390625 
L 28.421875 72.90625 
L 38.28125 72.90625 
L 38.28125 8.296875 
L 54.390625 8.296875 
L 54.390625 0 
L 12.40625 0 
z
" id="DejaVuSans-49"/>
       <path d="M 40.578125 39.3125 
Q 47.65625 37.796875 51.625 33 
Q 55.609375 28.21875 55.609375 21.1875 
Q 55.609375 10.40625 48.1875 4.484375 
Q 40.765625 -1.421875 27.09375 -1.421875 
Q 22.515625 -1.421875 17.65625 -0.515625 
Q 12.796875 0.390625 7.625 2.203125 
L 7.625 11.71875 
Q 11.71875 9.328125 16.59375 8.109375 
Q 21.484375 6.890625 26.8125 6.890625 
Q 36.078125 6.890625 40.9375 10.546875 
Q 45.796875 14.203125 45.796875 21.1875 
Q 45.796875 27.640625 41.28125 31.265625 
Q 36.765625 34.90625 28.71875 34.90625 
L 20.21875 34.90625 
L 20.21875 43.015625 
L 29.109375 43.015625 
Q 36.375 43.015625 40.234375 45.921875 
Q 44.09375 48.828125 44.09375 54.296875 
Q 44.09375 59.90625 40.109375 62.90625 
Q 36.140625 65.921875 28.71875 65.921875 
Q 24.65625 65.921875 20.015625 65.03125 
Q 15.375 64.15625 9.8125 62.3125 
L 9.8125 71.09375 
Q 15.4375 72.65625 20.34375 73.4375 
Q 25.25 74.21875 29.59375 74.21875 
Q 40.828125 74.21875 47.359375 69.109375 
Q 53.90625 64.015625 53.90625 55.328125 
Q 53.90625 49.265625 50.4375 45.09375 
Q 46.96875 40.921875 40.578125 39.3125 
z
" id="DejaVuSans-51"/>
      </defs>
      <g transform="translate(588.54988 596.148317)scale(0.1 -0.1)">
       <use xlink:href="#DejaVuSans-49"/>
       <use x="63.623047" xlink:href="#DejaVuSans-51"/>
       <use x="127.246094" xlink:href="#DejaVuSans-53"/>
       <use x="190.869141" xlink:href="#DejaVuSans-176"/>
      </g>
     </g>
    </g>
    <g id="xtick_5">
     <g id="line2d_5">
      <path clip-path="url(#p00c9ca7d69)" d="M 359.790625 352.585938 
L 359.790625 679.132812 
" style="fill:none;stroke:#b0b0b0;stroke-linecap:square;stroke-width:0.8;"/>
     </g>
     <g id="text_5">
      <!-- 180° -->
      <defs>
       <path d="M 31.78125 34.625 
Q 24.75 34.625 20.71875 30.859375 
Q 16.703125 27.09375 16.703125 20.515625 
Q 16.703125 13.921875 20.71875 10.15625 
Q 24.75 6.390625 31.78125 6.390625 
Q 38.8125 6.390625 42.859375 10.171875 
Q 46.921875 13.96875 46.921875 20.515625 
Q 46.921875 27.09375 42.890625 30.859375 
Q 38.875 34.625 31.78125 34.625 
z
M 21.921875 38.8125 
Q 15.578125 40.375 12.03125 44.71875 
Q 8.5 49.078125 8.5 55.328125 
Q 8.5 64.0625 14.71875 69.140625 
Q 20.953125 74.21875 31.78125 74.21875 
Q 42.671875 74.21875 48.875 69.140625 
Q 55.078125 64.0625 55.078125 55.328125 
Q 55.078125 49.078125 51.53125 44.71875 
Q 48 40.375 41.703125 38.8125 
Q 48.828125 37.15625 52.796875 32.3125 
Q 56.78125 27.484375 56.78125 20.515625 
Q 56.78125 9.90625 50.3125 4.234375 
Q 43.84375 -1.421875 31.78125 -1.421875 
Q 19.734375 -1.421875 13.25 4.234375 
Q 6.78125 9.90625 6.78125 20.515625 
Q 6.78125 27.484375 10.78125 32.3125 
Q 14.796875 37.15625 21.921875 38.8125 
z
M 18.3125 54.390625 
Q 18.3125 48.734375 21.84375 45.5625 
Q 25.390625 42.390625 31.78125 42.390625 
Q 38.140625 42.390625 41.71875 45.5625 
Q 45.3125 48.734375 45.3125 54.390625 
Q 45.3125 60.0625 41.71875 63.234375 
Q 38.140625 66.40625 31.78125 66.40625 
Q 25.390625 66.40625 21.84375 63.234375 
Q 18.3125 60.0625 18.3125 54.390625 
z
" id="DejaVuSans-56"/>
      </defs>
      <g transform="translate(347.746875 695.892187)scale(0.1 -0.1)">
       <use xlink:href="#DejaVuSans-49"/>
       <use x="63.623047" xlink:href="#DejaVuSans-56"/>
       <use x="127.246094" xlink:href="#DejaVuSans-48"/>
       <use x="190.869141" xlink:href="#DejaVuSans-176"/>
      </g>
     </g>
    </g>
    <g id="xtick_6">
     <g id="line2d_6">
      <path clip-path="url(#p00c9ca7d69)" d="M 359.790625 352.585938 
L 128.887115 583.489447 
" style="fill:none;stroke:#b0b0b0;stroke-linecap:square;stroke-width:0.8;"/>
     </g>
     <g id="text_6">
      <!-- 225° -->
      <defs>
       <path d="M 19.1875 8.296875 
L 53.609375 8.296875 
L 53.609375 0 
L 7.328125 0 
L 7.328125 8.296875 
Q 12.9375 14.109375 22.625 23.890625 
Q 32.328125 33.6875 34.8125 36.53125 
Q 39.546875 41.84375 41.421875 45.53125 
Q 43.3125 49.21875 43.3125 52.78125 
Q 43.3125 58.59375 39.234375 62.25 
Q 35.15625 65.921875 28.609375 65.921875 
Q 23.96875 65.921875 18.8125 64.3125 
Q 13.671875 62.703125 7.8125 59.421875 
L 7.8125 69.390625 
Q 13.765625 71.78125 18.9375 73 
Q 24.125 74.21875 28.421875 74.21875 
Q 39.75 74.21875 46.484375 68.546875 
Q 53.21875 62.890625 53.21875 53.421875 
Q 53.21875 48.921875 51.53125 44.890625 
Q 49.859375 40.875 45.40625 35.40625 
Q 44.1875 33.984375 37.640625 27.21875 
Q 31.109375 20.453125 19.1875 8.296875 
z
" id="DejaVuSans-50"/>
      </defs>
      <g transform="translate(106.94387 596.148317)scale(0.1 -0.1)">
       <use xlink:href="#DejaVuSans-50"/>
       <use x="63.623047" xlink:href="#DejaVuSans-50"/>
       <use x="127.246094" xlink:href="#DejaVuSans-53"/>
       <use x="190.869141" xlink:href="#DejaVuSans-176"/>
      </g>
     </g>
    </g>
    <g id="xtick_7">
     <g id="line2d_7">
      <path clip-path="url(#p00c9ca7d69)" d="M 359.790625 352.585938 
L 33.24375 352.585938 
" style="fill:none;stroke:#b0b0b0;stroke-linecap:square;stroke-width:0.8;"/>
     </g>
     <g id="text_7">
      <!-- 270° -->
      <defs>
       <path d="M 8.203125 72.90625 
L 55.078125 72.90625 
L 55.078125 68.703125 
L 28.609375 0 
L 18.3125 0 
L 43.21875 64.59375 
L 8.203125 64.59375 
z
" id="DejaVuSans-55"/>
      </defs>
      <g transform="translate(7.2 355.345313)scale(0.1 -0.1)">
       <use xlink:href="#DejaVuSans-50"/>
       <use x="63.623047" xlink:href="#DejaVuSans-55"/>
       <use x="127.246094" xlink:href="#DejaVuSans-48"/>
       <use x="190.869141" xlink:href="#DejaVuSans-176"/>
      </g>
     </g>
    </g>
    <g id="xtick_8">
     <g id="line2d_8">
      <path clip-path="url(#p00c9ca7d69)" d="M 359.790625 352.585938 
L 128.887115 121.682428 
" style="fill:none;stroke:#b0b0b0;stroke-linecap:square;stroke-width:0.8;"/>
     </g>
     <g id="text_8">
      <!-- 315° -->
      <g transform="translate(106.94387 114.542308)scale(0.1 -0.1)">
       <use xlink:href="#DejaVuSans-51"/>
       <use x="63.623047" xlink:href="#DejaVuSans-49"/>
       <use x="127.246094" xlink:href="#DejaVuSans-53"/>
       <use x="190.869141" xlink:href="#DejaVuSans-176"/>
      </g>
     </g>
    </g>
   </g>
   <g id="matplotlib.axis_2">
    <g id="ytick_1">
     <g id="line2d_9">
      <path clip-path="url(#p00c9ca7d69)" d="M 359.790625 260.785611 
L 362.99441 260.841533 
L 366.194292 261.009232 
L 369.386372 261.288503 
L 372.566761 261.679006 
L 375.731584 262.180264 
L 378.876986 262.791669 
L 381.999134 263.512473 
L 385.094224 264.3418 
L 388.158486 265.278639 
L 391.188186 266.321848 
L 394.179633 267.470157 
L 397.129182 268.722166 
L 400.033239 270.076351 
L 402.888268 271.53106 
L 405.690788 273.084523 
L 408.437386 274.734846 
L 411.124716 276.480018 
L 413.749503 278.317913 
L 416.308549 280.246293 
L 418.798737 282.262808 
L 421.217033 284.365 
L 423.56049 286.550309 
L 425.826253 288.816072 
L 428.011562 291.159529 
L 430.113755 293.577825 
L 432.130269 296.068013 
L 434.058649 298.62706 
L 435.896545 301.251846 
L 437.641717 303.939176 
L 439.29204 306.685774 
L 440.845502 309.488295 
L 442.300212 312.343323 
L 443.654396 315.247381 
L 444.906405 318.19693 
L 446.054714 321.188377 
L 447.097924 324.218077 
L 448.034762 327.282338 
L 448.864089 330.377429 
L 449.584894 333.499576 
L 450.196298 336.644978 
L 450.697557 339.809801 
L 451.08806 342.99019 
L 451.36733 346.18227 
L 451.535029 349.382152 
L 451.590951 352.585938 
L 451.535029 355.789723 
L 451.36733 358.989605 
L 451.08806 362.181685 
L 450.697557 365.362074 
L 450.196298 368.526897 
L 449.584894 371.672299 
L 448.864089 374.794446 
L 448.034762 377.889537 
L 447.097924 380.953798 
L 446.054714 383.983498 
L 444.906405 386.974945 
L 443.654396 389.924494 
L 442.300212 392.828552 
L 440.845502 395.68358 
L 439.29204 398.486101 
L 437.641717 401.232699 
L 435.896545 403.920029 
L 434.058649 406.544815 
L 432.130269 409.103862 
L 430.113755 411.59405 
L 428.011562 414.012346 
L 425.826253 416.355803 
L 423.56049 418.621566 
L 421.217033 420.806875 
L 418.798737 422.909067 
L 416.308549 424.925582 
L 413.749503 426.853962 
L 411.124716 428.691857 
L 408.437386 430.437029 
L 405.690788 432.087352 
L 402.888268 433.640815 
L 400.033239 435.095524 
L 397.129182 436.449709 
L 394.179633 437.701718 
L 391.188186 438.850027 
L 388.158486 439.893236 
L 385.094224 440.830075 
L 381.999134 441.659402 
L 378.876986 442.380206 
L 375.731584 442.991611 
L 372.566761 443.492869 
L 369.386372 443.883372 
L 366.194292 444.162643 
L 362.99441 444.330342 
L 359.790625 444.386264 
L 356.58684 444.330342 
L 353.386958 444.162643 
L 350.194878 443.883372 
L 347.014489 443.492869 
L 343.849666 442.991611 
L 340.704264 442.380206 
L 337.582116 441.659402 
L 334.487026 440.830075 
L 331.422764 439.893236 
L 328.393064 438.850027 
L 325.401617 437.701718 
L 322.452068 436.449709 
L 319.548011 435.095524 
L 316.692982 433.640815 
L 313.890462 432.087352 
L 311.143864 430.437029 
L 308.456534 428.691857 
L 305.831747 426.853962 
L 303.272701 424.925582 
L 300.782513 422.909067 
L 298.364217 420.806875 
L 296.02076 418.621566 
L 293.754997 416.355803 
L 291.569688 414.012346 
L 289.467495 411.59405 
L 287.450981 409.103862 
L 285.522601 406.544815 
L 283.684705 403.920029 
L 281.939533 401.232699 
L 280.28921 398.486101 
L 278.735748 395.68358 
L 277.281038 392.828552 
L 275.926854 389.924494 
L 274.674845 386.974945 
L 273.526536 383.983498 
L 272.483326 380.953798 
L 271.546488 377.889537 
L 270.717161 374.794446 
L 269.996356 371.672299 
L 269.384952 368.526897 
L 268.883693 365.362074 
L 268.49319 362.181685 
L 268.21392 358.989605 
L 268.046221 355.789723 
L 267.990299 352.585938 
L 268.046221 349.382152 
L 268.21392 346.18227 
L 268.49319 342.99019 
L 268.883693 339.809801 
L 269.384952 336.644978 
L 269.996356 333.499576 
L 270.717161 330.377429 
L 271.546488 327.282338 
L 272.483326 324.218077 
L 273.526536 321.188377 
L 274.674845 318.19693 
L 275.926854 315.247381 
L 277.281038 312.343323 
L 278.735748 309.488295 
L 280.28921 306.685774 
L 281.939533 303.939176 
L 283.684705 301.251846 
L 285.522601 298.62706 
L 287.450981 296.068013 
L 289.467495 293.577825 
L 291.569688 291.159529 
L 293.754997 288.816072 
L 296.02076 286.550309 
L 298.364217 284.365 
L 300.782513 282.262808 
L 303.272701 280.246293 
L 305.831747 278.317913 
L 308.456534 276.480018 
L 311.143864 274.734846 
L 313.890462 273.084523 
L 316.692982 271.53106 
L 319.548011 270.076351 
L 322.452068 268.722166 
L 325.401617 267.470157 
L 328.393064 266.321848 
L 331.422764 265.278639 
L 334.487026 264.3418 
L 337.582116 263.512473 
L 340.704264 262.791669 
L 343.849666 262.180264 
L 347.014489 261.679006 
L 350.194878 261.288503 
L 353.386958 261.009232 
L 356.58684 260.841533 
L 359.790625 260.785611 
L 359.790625 260.785611 
" style="fill:none;stroke:#b0b0b0;stroke-linecap:square;stroke-width:0.8;"/>
     </g>
     <g id="text_9">
      <!-- 3500 -->
      <g transform="translate(394.921089 265.693807)scale(0.1 -0.1)">
       <use xlink:href="#DejaVuSans-51"/>
       <use x="63.623047" xlink:href="#DejaVuSans-53"/>
       <use x="127.246094" xlink:href="#DejaVuSans-48"/>
       <use x="190.869141" xlink:href="#DejaVuSans-48"/>
      </g>
     </g>
    </g>
    <g id="ytick_2">
     <g id="line2d_10">
      <path clip-path="url(#p00c9ca7d69)" d="M 359.790625 195.21395 
L 365.282828 195.309816 
L 370.76834 195.5973 
L 376.240477 196.07605 
L 381.692573 196.745483 
L 387.117984 197.604784 
L 392.510101 198.652905 
L 397.862355 199.88857 
L 403.168224 201.310273 
L 408.421244 202.916283 
L 413.615015 204.704642 
L 418.743209 206.673171 
L 423.799579 208.819473 
L 428.777964 211.140932 
L 433.672298 213.63472 
L 438.476619 216.297798 
L 443.185073 219.126923 
L 447.791924 222.118647 
L 452.291559 225.269325 
L 456.678495 228.575119 
L 460.947389 232.032001 
L 465.093039 235.635759 
L 469.110394 239.382003 
L 472.994559 243.266169 
L 476.740804 247.283524 
L 480.344562 251.429174 
L 483.801444 255.698067 
L 487.107238 260.085004 
L 490.257916 264.584639 
L 493.24964 269.191489 
L 496.078764 273.899944 
L 498.741843 278.704264 
L 501.235631 283.598599 
L 503.55709 288.576983 
L 505.703391 293.633353 
L 507.671921 298.761548 
L 509.46028 303.955319 
L 511.066289 309.208339 
L 512.487992 314.514208 
L 513.723657 319.866461 
L 514.771779 325.258579 
L 515.63108 330.68399 
L 516.300513 336.136085 
L 516.779263 341.608223 
L 517.066746 347.093734 
L 517.162613 352.585938 
L 517.066746 358.078141 
L 516.779263 363.563652 
L 516.300513 369.03579 
L 515.63108 374.487885 
L 514.771779 379.913296 
L 513.723657 385.305414 
L 512.487992 390.657667 
L 511.066289 395.963536 
L 509.46028 401.216556 
L 507.671921 406.410327 
L 505.703391 411.538522 
L 503.55709 416.594892 
L 501.235631 421.573276 
L 498.741843 426.467611 
L 496.078764 431.271931 
L 493.24964 435.980386 
L 490.257916 440.587236 
L 487.107238 445.086871 
L 483.801444 449.473808 
L 480.344562 453.742701 
L 476.740804 457.888351 
L 472.994559 461.905706 
L 469.110394 465.789872 
L 465.093039 469.536116 
L 460.947389 473.139874 
L 456.678495 476.596756 
L 452.291559 479.90255 
L 447.791924 483.053228 
L 443.185073 486.044952 
L 438.476619 488.874077 
L 433.672298 491.537155 
L 428.777964 494.030943 
L 423.799579 496.352402 
L 418.743209 498.498704 
L 413.615015 500.467233 
L 408.421244 502.255592 
L 403.168224 503.861602 
L 397.862355 505.283305 
L 392.510101 506.51897 
L 387.117984 507.567091 
L 381.692573 508.426392 
L 376.240477 509.095825 
L 370.76834 509.574575 
L 365.282828 509.862059 
L 359.790625 509.957925 
L 354.298422 509.862059 
L 348.81291 509.574575 
L 343.340773 509.095825 
L 337.888677 508.426392 
L 332.463266 507.567091 
L 327.071149 506.51897 
L 321.718895 505.283305 
L 316.413026 503.861602 
L 311.160006 502.255592 
L 305.966235 500.467233 
L 300.838041 498.498704 
L 295.781671 496.352402 
L 290.803286 494.030943 
L 285.908952 491.537155 
L 281.104631 488.874077 
L 276.396177 486.044952 
L 271.789326 483.053228 
L 267.289691 479.90255 
L 262.902755 476.596756 
L 258.633861 473.139874 
L 254.488211 469.536116 
L 250.470856 465.789872 
L 246.586691 461.905706 
L 242.840446 457.888351 
L 239.236688 453.742701 
L 235.779806 449.473808 
L 232.474012 445.086871 
L 229.323334 440.587236 
L 226.33161 435.980386 
L 223.502486 431.271931 
L 220.839407 426.467611 
L 218.345619 421.573276 
L 216.02416 416.594892 
L 213.877859 411.538522 
L 211.909329 406.410327 
L 210.12097 401.216556 
L 208.514961 395.963536 
L 207.093258 390.657667 
L 205.857593 385.305414 
L 204.809471 379.913296 
L 203.95017 374.487885 
L 203.280737 369.03579 
L 202.801987 363.563652 
L 202.514504 358.078141 
L 202.418637 352.585938 
L 202.514504 347.093734 
L 202.801987 341.608223 
L 203.280737 336.136085 
L 203.95017 330.68399 
L 204.809471 325.258579 
L 205.857593 319.866461 
L 207.093258 314.514208 
L 208.514961 309.208339 
L 210.12097 303.955319 
L 211.909329 298.761548 
L 213.877859 293.633353 
L 216.02416 288.576983 
L 218.345619 283.598599 
L 220.839407 278.704264 
L 223.502486 273.899944 
L 226.33161 269.191489 
L 229.323334 264.584639 
L 232.474012 260.085004 
L 235.779806 255.698067 
L 239.236688 251.429174 
L 242.840446 247.283524 
L 246.586691 243.266169 
L 250.470856 239.382003 
L 254.488211 235.635759 
L 258.633861 232.032001 
L 262.902755 228.575119 
L 267.289691 225.269325 
L 271.789326 222.118647 
L 276.396177 219.126923 
L 281.104631 216.297798 
L 285.908952 213.63472 
L 290.803286 211.140932 
L 295.781671 208.819473 
L 300.838041 206.673171 
L 305.966235 204.704642 
L 311.160006 202.916283 
L 316.413026 201.310273 
L 321.718895 199.88857 
L 327.071149 198.652905 
L 332.463266 197.604784 
L 337.888677 196.745483 
L 343.340773 196.07605 
L 348.81291 195.5973 
L 354.298422 195.309816 
L 359.790625 195.21395 
L 359.790625 195.21395 
" style="fill:none;stroke:#b0b0b0;stroke-linecap:square;stroke-width:0.8;"/>
     </g>
     <g id="text_10">
      <!-- 6000 -->
      <defs>
       <path d="M 33.015625 40.375 
Q 26.375 40.375 22.484375 35.828125 
Q 18.609375 31.296875 18.609375 23.390625 
Q 18.609375 15.53125 22.484375 10.953125 
Q 26.375 6.390625 33.015625 6.390625 
Q 39.65625 6.390625 43.53125 10.953125 
Q 47.40625 15.53125 47.40625 23.390625 
Q 47.40625 31.296875 43.53125 35.828125 
Q 39.65625 40.375 33.015625 40.375 
z
M 52.59375 71.296875 
L 52.59375 62.3125 
Q 48.875 64.0625 45.09375 64.984375 
Q 41.3125 65.921875 37.59375 65.921875 
Q 27.828125 65.921875 22.671875 59.328125 
Q 17.53125 52.734375 16.796875 39.40625 
Q 19.671875 43.65625 24.015625 45.921875 
Q 28.375 48.1875 33.59375 48.1875 
Q 44.578125 48.1875 50.953125 41.515625 
Q 57.328125 34.859375 57.328125 23.390625 
Q 57.328125 12.15625 50.6875 5.359375 
Q 44.046875 -1.421875 33.015625 -1.421875 
Q 20.359375 -1.421875 13.671875 8.265625 
Q 6.984375 17.96875 6.984375 36.375 
Q 6.984375 53.65625 15.1875 63.9375 
Q 23.390625 74.21875 37.203125 74.21875 
Q 40.921875 74.21875 44.703125 73.484375 
Q 48.484375 72.75 52.59375 71.296875 
z
" id="DejaVuSans-54"/>
      </defs>
      <g transform="translate(420.014278 205.113491)scale(0.1 -0.1)">
       <use xlink:href="#DejaVuSans-54"/>
       <use x="63.623047" xlink:href="#DejaVuSans-48"/>
       <use x="127.246094" xlink:href="#DejaVuSans-48"/>
       <use x="190.869141" xlink:href="#DejaVuSans-48"/>
      </g>
     </g>
    </g>
    <g id="ytick_3">
     <g id="line2d_11">
      <path clip-path="url(#p00c9ca7d69)" d="M 359.790625 142.75662 
L 367.113563 142.884443 
L 374.427578 143.267754 
L 381.723761 143.906087 
L 388.993222 144.798665 
L 396.227104 145.944399 
L 403.416593 147.341894 
L 410.552931 148.989448 
L 417.627423 150.885052 
L 424.63145 153.026398 
L 431.556478 155.410876 
L 438.394071 158.035582 
L 445.135897 160.897318 
L 451.773743 163.992596 
L 458.299522 167.317647 
L 464.705284 170.868418 
L 470.983222 174.640584 
L 477.12569 178.62955 
L 483.125203 182.830454 
L 488.974452 187.238179 
L 494.66631 191.847355 
L 500.193843 196.652366 
L 505.550317 201.647358 
L 510.729204 206.826246 
L 515.724196 212.182719 
L 520.529207 217.710252 
L 525.138383 223.40211 
L 529.546109 229.251359 
L 533.747013 235.250872 
L 537.735978 241.39334 
L 541.508144 247.671279 
L 545.058916 254.07704 
L 548.383966 260.602819 
L 551.479245 267.240665 
L 554.34098 273.982492 
L 556.965686 280.820084 
L 559.350164 287.745113 
L 561.49151 294.749139 
L 563.387115 301.823631 
L 565.034668 308.959969 
L 566.432163 316.149459 
L 567.577898 323.383341 
L 568.470475 330.652801 
L 569.108809 337.948984 
L 569.49212 345.263 
L 569.619942 352.585938 
L 569.49212 359.908875 
L 569.108809 367.222891 
L 568.470475 374.519074 
L 567.577898 381.788534 
L 566.432163 389.022416 
L 565.034668 396.211906 
L 563.387115 403.348244 
L 561.49151 410.422736 
L 559.350164 417.426762 
L 556.965686 424.351791 
L 554.34098 431.189383 
L 551.479245 437.93121 
L 548.383966 444.569056 
L 545.058916 451.094835 
L 541.508144 457.500596 
L 537.735978 463.778535 
L 533.747013 469.921003 
L 529.546109 475.920516 
L 525.138383 481.769765 
L 520.529207 487.461623 
L 515.724196 492.989156 
L 510.729204 498.345629 
L 505.550317 503.524517 
L 500.193843 508.519509 
L 494.66631 513.32452 
L 488.974452 517.933696 
L 483.125203 522.341421 
L 477.12569 526.542325 
L 470.983222 530.531291 
L 464.705284 534.303457 
L 458.299522 537.854228 
L 451.773743 541.179279 
L 445.135897 544.274557 
L 438.394071 547.136293 
L 431.556478 549.760999 
L 424.63145 552.145477 
L 417.627423 554.286823 
L 410.552931 556.182427 
L 403.416593 557.829981 
L 396.227104 559.227476 
L 388.993222 560.37321 
L 381.723761 561.265788 
L 374.427578 561.904121 
L 367.113563 562.287432 
L 359.790625 562.415255 
L 352.467687 562.287432 
L 345.153672 561.904121 
L 337.857489 561.265788 
L 330.588028 560.37321 
L 323.354146 559.227476 
L 316.164657 557.829981 
L 309.028319 556.182427 
L 301.953827 554.286823 
L 294.9498 552.145477 
L 288.024772 549.760999 
L 281.187179 547.136293 
L 274.445353 544.274557 
L 267.807507 541.179279 
L 261.281728 537.854228 
L 254.875966 534.303457 
L 248.598028 530.531291 
L 242.45556 526.542325 
L 236.456047 522.341421 
L 230.606798 517.933696 
L 224.91494 513.32452 
L 219.387407 508.519509 
L 214.030933 503.524517 
L 208.852046 498.345629 
L 203.857054 492.989156 
L 199.052043 487.461623 
L 194.442867 481.769765 
L 190.035141 475.920516 
L 185.834237 469.921003 
L 181.845272 463.778535 
L 178.073106 457.500596 
L 174.522334 451.094835 
L 171.197284 444.569056 
L 168.102005 437.93121 
L 165.24027 431.189383 
L 162.615564 424.351791 
L 160.231086 417.426762 
L 158.08974 410.422736 
L 156.194135 403.348244 
L 154.546582 396.211906 
L 153.149087 389.022416 
L 152.003352 381.788534 
L 151.110775 374.519074 
L 150.472441 367.222891 
L 150.08913 359.908875 
L 149.961308 352.585938 
L 150.08913 345.263 
L 150.472441 337.948984 
L 151.110775 330.652801 
L 152.003352 323.383341 
L 153.149087 316.149459 
L 154.546582 308.959969 
L 156.194135 301.823631 
L 158.08974 294.749139 
L 160.231086 287.745113 
L 162.615564 280.820084 
L 165.24027 273.982492 
L 168.102005 267.240665 
L 171.197284 260.602819 
L 174.522334 254.07704 
L 178.073106 247.671279 
L 181.845272 241.39334 
L 185.834237 235.250872 
L 190.035141 229.251359 
L 194.442867 223.40211 
L 199.052043 217.710252 
L 203.857054 212.182719 
L 208.852046 206.826246 
L 214.030933 201.647358 
L 219.387407 196.652366 
L 224.91494 191.847355 
L 230.606798 187.238179 
L 236.456047 182.830454 
L 242.45556 178.62955 
L 248.598028 174.640584 
L 254.875966 170.868418 
L 261.281728 167.317647 
L 267.807507 163.992596 
L 274.445353 160.897318 
L 281.187179 158.035582 
L 288.024772 155.410876 
L 294.9498 153.026398 
L 301.953827 150.885052 
L 309.028319 148.989448 
L 316.164657 147.341894 
L 323.354146 145.944399 
L 330.588028 144.798665 
L 337.857489 143.906087 
L 345.153672 143.267754 
L 352.467687 142.884443 
L 359.790625 142.75662 
L 359.790625 142.75662 
" style="fill:none;stroke:#b0b0b0;stroke-linecap:square;stroke-width:0.8;"/>
     </g>
     <g id="text_11">
      <!-- 8000 -->
      <g transform="translate(440.088828 156.649238)scale(0.1 -0.1)">
       <use xlink:href="#DejaVuSans-56"/>
       <use x="63.623047" xlink:href="#DejaVuSans-48"/>
       <use x="127.246094" xlink:href="#DejaVuSans-48"/>
       <use x="190.869141" xlink:href="#DejaVuSans-48"/>
      </g>
     </g>
    </g>
    <g id="ytick_4">
     <g id="line2d_12">
      <path clip-path="url(#p00c9ca7d69)" d="M 359.790625 90.299291 
L 368.944297 90.459069 
L 378.086817 90.938208 
L 387.207045 91.736125 
L 396.293871 92.851847 
L 405.336223 94.284014 
L 414.323085 96.030883 
L 423.243508 98.090325 
L 432.086623 100.459831 
L 440.841656 103.136513 
L 449.497941 106.117111 
L 458.044932 109.397994 
L 466.472215 112.975163 
L 474.769523 116.844261 
L 482.926747 121.000574 
L 490.933948 125.439038 
L 498.781372 130.154246 
L 506.459456 135.140453 
L 513.958848 140.391583 
L 521.270409 145.901239 
L 528.385232 151.662709 
L 535.294648 157.668973 
L 541.99024 163.912714 
L 548.463849 170.386323 
L 554.707589 177.081915 
L 560.713853 183.991331 
L 566.475323 191.106154 
L 571.984979 198.417715 
L 577.23611 205.917106 
L 582.222316 213.595191 
L 586.937524 221.442614 
L 591.375988 229.449816 
L 595.532301 237.607039 
L 599.4014 245.904347 
L 602.978569 254.33163 
L 606.259451 262.878621 
L 609.240049 271.534906 
L 611.916732 280.28994 
L 614.286237 289.133055 
L 616.345679 298.053477 
L 618.092548 307.040339 
L 619.524716 316.082692 
L 620.640438 325.169517 
L 621.438354 334.289746 
L 621.917494 343.432266 
L 622.077272 352.585938 
L 621.917494 361.739609 
L 621.438354 370.882129 
L 620.640438 380.002358 
L 619.524716 389.089183 
L 618.092548 398.131536 
L 616.345679 407.118398 
L 614.286237 416.03882 
L 611.916732 424.881935 
L 609.240049 433.636969 
L 606.259451 442.293254 
L 602.978569 450.840245 
L 599.4014 459.267528 
L 595.532301 467.564836 
L 591.375988 475.722059 
L 586.937524 483.729261 
L 582.222316 491.576684 
L 577.23611 499.254769 
L 571.984979 506.75416 
L 566.475323 514.065721 
L 560.713853 521.180544 
L 554.707589 528.08996 
L 548.463849 534.785552 
L 541.99024 541.259161 
L 535.294648 547.502902 
L 528.385232 553.509166 
L 521.270409 559.270636 
L 513.958848 564.780292 
L 506.459456 570.031422 
L 498.781372 575.017629 
L 490.933948 579.732837 
L 482.926747 584.171301 
L 474.769523 588.327614 
L 466.472215 592.196712 
L 458.044932 595.773881 
L 449.497941 599.054764 
L 440.841656 602.035362 
L 432.086623 604.712044 
L 423.243508 607.08155 
L 414.323085 609.140992 
L 405.336223 610.887861 
L 396.293871 612.320028 
L 387.207045 613.43575 
L 378.086817 614.233667 
L 368.944297 614.712806 
L 359.790625 614.872584 
L 350.636953 614.712806 
L 341.494433 614.233667 
L 332.374205 613.43575 
L 323.287379 612.320028 
L 314.245027 610.887861 
L 305.258165 609.140992 
L 296.337742 607.08155 
L 287.494627 604.712044 
L 278.739594 602.035362 
L 270.083309 599.054764 
L 261.536318 595.773881 
L 253.109035 592.196712 
L 244.811727 588.327614 
L 236.654503 584.171301 
L 228.647302 579.732837 
L 220.799878 575.017629 
L 213.121794 570.031422 
L 205.622402 564.780292 
L 198.310841 559.270636 
L 191.196018 553.509166 
L 184.286602 547.502902 
L 177.59101 541.259161 
L 171.117401 534.785552 
L 164.873661 528.08996 
L 158.867397 521.180544 
L 153.105927 514.065721 
L 147.596271 506.75416 
L 142.34514 499.254769 
L 137.358934 491.576684 
L 132.643726 483.729261 
L 128.205262 475.722059 
L 124.048949 467.564836 
L 120.17985 459.267528 
L 116.602681 450.840245 
L 113.321799 442.293254 
L 110.341201 433.636969 
L 107.664518 424.881935 
L 105.295013 416.03882 
L 103.235571 407.118398 
L 101.488702 398.131536 
L 100.056534 389.089183 
L 98.940812 380.002358 
L 98.142896 370.882129 
L 97.663756 361.739609 
L 97.503978 352.585938 
L 97.663756 343.432266 
L 98.142896 334.289746 
L 98.940812 325.169517 
L 100.056534 316.082692 
L 101.488702 307.040339 
L 103.235571 298.053477 
L 105.295013 289.133055 
L 107.664518 280.28994 
L 110.341201 271.534906 
L 113.321799 262.878621 
L 116.602681 254.33163 
L 120.17985 245.904347 
L 124.048949 237.607039 
L 128.205262 229.449816 
L 132.643726 221.442614 
L 137.358934 213.595191 
L 142.34514 205.917106 
L 147.596271 198.417715 
L 153.105927 191.106154 
L 158.867397 183.991331 
L 164.873661 177.081915 
L 171.117401 170.386323 
L 177.59101 163.912714 
L 184.286602 157.668973 
L 191.196018 151.662709 
L 198.310841 145.901239 
L 205.622402 140.391583 
L 213.121794 135.140453 
L 220.799878 130.154246 
L 228.647302 125.439038 
L 236.654503 121.000574 
L 244.811727 116.844261 
L 253.109035 112.975163 
L 261.536318 109.397994 
L 270.083309 106.117111 
L 278.739594 103.136513 
L 287.494627 100.459831 
L 296.337742 98.090325 
L 305.258165 96.030883 
L 314.245027 94.284014 
L 323.287379 92.851847 
L 332.374205 91.736125 
L 341.494433 90.938208 
L 350.636953 90.459069 
L 359.790625 90.299291 
L 359.790625 90.299291 
" style="fill:none;stroke:#b0b0b0;stroke-linecap:square;stroke-width:0.8;"/>
     </g>
     <g id="text_12">
      <!-- 10000 -->
      <g transform="translate(460.163379 108.184986)scale(0.1 -0.1)">
       <use xlink:href="#DejaVuSans-49"/>
       <use x="63.623047" xlink:href="#DejaVuSans-48"/>
       <use x="127.246094" xlink:href="#DejaVuSans-48"/>
       <use x="190.869141" xlink:href="#DejaVuSans-48"/>
       <use x="254.492188" xlink:href="#DejaVuSans-48"/>
      </g>
     </g>
    </g>
    <g id="ytick_5">
     <g id="line2d_13">
      <path clip-path="url(#p00c9ca7d69)" d="M 359.790625 26.039062 
L 371.186947 26.237986 
L 382.569384 26.834514 
L 393.924068 27.82792 
L 405.237166 29.216994 
L 416.494895 31.000043 
L 427.683538 33.174895 
L 438.789464 35.7389 
L 449.799142 38.688935 
L 460.699159 42.021404 
L 471.476234 45.732249 
L 482.117237 49.816947 
L 492.609205 54.270523 
L 502.939353 59.08755 
L 513.095097 64.26216 
L 523.064063 69.788048 
L 532.834105 75.658482 
L 542.39332 81.866309 
L 551.730062 88.403966 
L 560.832956 95.263488 
L 569.69091 102.436518 
L 578.293133 109.914317 
L 586.629145 117.687774 
L 594.688789 125.747417 
L 602.462245 134.083429 
L 609.940044 142.685652 
L 617.113074 151.543607 
L 623.972596 160.6465 
L 630.510254 169.983242 
L 636.718081 179.542458 
L 642.588514 189.3125 
L 648.114402 199.281466 
L 653.289012 209.437209 
L 658.106039 219.767358 
L 662.559615 230.259325 
L 666.644314 240.900329 
L 670.355158 251.677404 
L 673.687628 262.57742 
L 676.637662 273.587098 
L 679.201667 284.693025 
L 681.376519 295.881668 
L 683.159568 307.139396 
L 684.548642 318.452494 
L 685.542048 329.807179 
L 686.138576 341.189616 
L 686.3375 352.585938 
L 686.138576 363.982259 
L 685.542048 375.364696 
L 684.548642 386.719381 
L 683.159568 398.032479 
L 681.376519 409.290207 
L 679.201667 420.47885 
L 676.637662 431.584777 
L 673.687628 442.594455 
L 670.355158 453.494471 
L 666.644314 464.271546 
L 662.559615 474.91255 
L 658.106039 485.404517 
L 653.289012 495.734666 
L 648.114402 505.890409 
L 642.588514 515.859375 
L 636.718081 525.629417 
L 630.510254 535.188633 
L 623.972596 544.525375 
L 617.113074 553.628268 
L 609.940044 562.486223 
L 602.462245 571.088446 
L 594.688789 579.424458 
L 586.629145 587.484101 
L 578.293133 595.257558 
L 569.69091 602.735357 
L 560.832956 609.908387 
L 551.730062 616.767909 
L 542.39332 623.305566 
L 532.834105 629.513393 
L 523.064063 635.383827 
L 513.095097 640.909715 
L 502.939353 646.084325 
L 492.609205 650.901352 
L 482.117237 655.354928 
L 471.476234 659.439626 
L 460.699159 663.150471 
L 449.799142 666.48294 
L 438.789464 669.432975 
L 427.683538 671.99698 
L 416.494895 674.171832 
L 405.237166 675.954881 
L 393.924068 677.343955 
L 382.569384 678.337361 
L 371.186947 678.933889 
L 359.790625 679.132812 
L 348.394303 678.933889 
L 337.011866 678.337361 
L 325.657182 677.343955 
L 314.344084 675.954881 
L 303.086355 674.171832 
L 291.897712 671.99698 
L 280.791786 669.432975 
L 269.782108 666.48294 
L 258.882091 663.150471 
L 248.105016 659.439626 
L 237.464013 655.354928 
L 226.972045 650.901352 
L 216.641897 646.084325 
L 206.486153 640.909715 
L 196.517188 635.383827 
L 186.747145 629.513393 
L 177.18793 623.305566 
L 167.851188 616.767909 
L 158.748294 609.908387 
L 149.89034 602.735357 
L 141.288117 595.257558 
L 132.952105 587.484101 
L 124.892461 579.424458 
L 117.119005 571.088446 
L 109.641206 562.486223 
L 102.468176 553.628268 
L 95.608654 544.525375 
L 89.070996 535.188633 
L 82.863169 525.629417 
L 76.992736 515.859375 
L 71.466848 505.890409 
L 66.292238 495.734666 
L 61.475211 485.404517 
L 57.021635 474.91255 
L 52.936936 464.271546 
L 49.226092 453.494471 
L 45.893622 442.594455 
L 42.943588 431.584777 
L 40.379583 420.47885 
L 38.204731 409.290207 
L 36.421682 398.032479 
L 35.032608 386.719381 
L 34.039202 375.364696 
L 33.442674 363.982259 
L 33.24375 352.585938 
L 33.442674 341.189616 
L 34.039202 329.807179 
L 35.032608 318.452494 
L 36.421682 307.139396 
L 38.204731 295.881668 
L 40.379583 284.693025 
L 42.943588 273.587098 
L 45.893622 262.57742 
L 49.226092 251.677404 
L 52.936936 240.900329 
L 57.021635 230.259325 
L 61.475211 219.767358 
L 66.292238 209.437209 
L 71.466848 199.281466 
L 76.992736 189.3125 
L 82.863169 179.542458 
L 89.070996 169.983242 
L 95.608654 160.6465 
L 102.468176 151.543607 
L 109.641206 142.685652 
L 117.119005 134.083429 
L 124.892461 125.747417 
L 132.952105 117.687774 
L 141.288117 109.914317 
L 149.89034 102.436518 
L 158.748294 95.263488 
L 167.851188 88.403966 
L 177.18793 81.866309 
L 186.747145 75.658482 
L 196.517187 69.788048 
L 206.486153 64.26216 
L 216.641897 59.08755 
L 226.972045 54.270523 
L 237.464013 49.816947 
L 248.105016 45.732249 
L 258.882091 42.021404 
L 269.782108 38.688935 
L 280.791786 35.7389 
L 291.897712 33.174895 
L 303.086355 31.000043 
L 314.344084 29.216994 
L 325.657182 27.82792 
L 337.011866 26.834514 
L 348.394303 26.237986 
L 359.790625 26.039062 
L 359.790625 26.039062 
" style="fill:none;stroke:#b0b0b0;stroke-linecap:square;stroke-width:0.8;"/>
     </g>
     <g id="text_13">
      <!-- 12450 -->
      <g transform="translate(484.754704 48.816276)scale(0.1 -0.1)">
       <use xlink:href="#DejaVuSans-49"/>
       <use x="63.623047" xlink:href="#DejaVuSans-50"/>
       <use x="127.246094" xlink:href="#DejaVuSans-52"/>
       <use x="190.869141" xlink:href="#DejaVuSans-53"/>
       <use x="254.492188" xlink:href="#DejaVuSans-48"/>
      </g>
     </g>
    </g>
   </g>
   <g id="line2d_14">
    <defs>
     <path d="M 0 1.5 
C 0.397805 1.5 0.77937 1.341951 1.06066 1.06066 
C 1.341951 0.77937 1.5 0.397805 1.5 0 
C 1.5 -0.397805 1.341951 -0.77937 1.06066 -1.06066 
C 0.77937 -1.341951 0.397805 -1.5 0 -1.5 
C -0.397805 -1.5 -0.77937 -1.341951 -1.06066 -1.06066 
C -1.341951 -0.77937 -1.5 -0.397805 -1.5 0 
C -1.5 0.397805 -1.341951 0.77937 -1.06066 1.06066 
C -0.77937 1.341951 -0.397805 1.5 0 1.5 
z
" id="mab06445f57" style="stroke:#000000;"/>
    </defs>
    <g clip-path="url(#p00c9ca7d69)">
     <use style="stroke:#000000;" x="372.310576" xlink:href="#mab06445f57" y="344.559924"/>
    </g>
   </g>
   <g id="line2d_15">
    <g clip-path="url(#p00c9ca7d69)">
     <use style="stroke:#000000;" x="373.817964" xlink:href="#mab06445f57" y="358.473021"/>
     <use style="stroke:#000000;" x="373.653155" xlink:href="#mab06445f57" y="345.248269"/>
     <use style="stroke:#000000;" x="373.653155" xlink:href="#mab06445f57" y="345.248269"/>
     <use style="stroke:#000000;" x="367.60743" xlink:href="#mab06445f57" y="357.645142"/>
     <use style="stroke:#000000;" x="364.517418" xlink:href="#mab06445f57" y="354.164597"/>
     <use style="stroke:#000000;" x="364.030958" xlink:href="#mab06445f57" y="358.257851"/>
     <use style="stroke:#000000;" x="365.297913" xlink:href="#mab06445f57" y="358.744745"/>
     <use style="stroke:#000000;" x="359.168204" xlink:href="#mab06445f57" y="335.601164"/>
     <use style="stroke:#000000;" x="358.605855" xlink:href="#mab06445f57" y="339.683258"/>
     <use style="stroke:#000000;" x="421.462512" xlink:href="#mab06445f57" y="328.810096"/>
     <use style="stroke:#000000;" x="360.971537" xlink:href="#mab06445f57" y="351.7574"/>
     <use style="stroke:#000000;" x="363.026459" xlink:href="#mab06445f57" y="330.130083"/>
     <use style="stroke:#000000;" x="371.595335" xlink:href="#mab06445f57" y="360.785987"/>
     <use style="stroke:#000000;" x="388.787601" xlink:href="#mab06445f57" y="325.8793"/>
     <use style="stroke:#000000;" x="373.75077" xlink:href="#mab06445f57" y="359.016426"/>
     <use style="stroke:#000000;" x="366.051787" xlink:href="#mab06445f57" y="358.862178"/>
     <use style="stroke:#000000;" x="359.261645" xlink:href="#mab06445f57" y="337.723695"/>
     <use style="stroke:#000000;" x="364.63827" xlink:href="#mab06445f57" y="357.784355"/>
     <use style="stroke:#000000;" x="382.097013" xlink:href="#mab06445f57" y="330.791803"/>
     <use style="stroke:#000000;" x="351.693465" xlink:href="#mab06445f57" y="296.036671"/>
     <use style="stroke:#000000;" x="378.937492" xlink:href="#mab06445f57" y="348.307591"/>
     <use style="stroke:#000000;" x="404.420644" xlink:href="#mab06445f57" y="342.321136"/>
     <use style="stroke:#000000;" x="383.127156" xlink:href="#mab06445f57" y="345.133597"/>
     <use style="stroke:#000000;" x="414.761833" xlink:href="#mab06445f57" y="353.255173"/>
     <use style="stroke:#000000;" x="406.387172" xlink:href="#mab06445f57" y="335.901594"/>
     <use style="stroke:#000000;" x="365.506582" xlink:href="#mab06445f57" y="333.955157"/>
     <use style="stroke:#000000;" x="359.583896" xlink:href="#mab06445f57" y="335.223792"/>
     <use style="stroke:#000000;" x="489.545999" xlink:href="#mab06445f57" y="272.076085"/>
     <use style="stroke:#000000;" x="460.215959" xlink:href="#mab06445f57" y="228.810201"/>
     <use style="stroke:#000000;" x="382.554144" xlink:href="#mab06445f57" y="355.893351"/>
     <use style="stroke:#000000;" x="404.644587" xlink:href="#mab06445f57" y="338.89518"/>
     <use style="stroke:#000000;" x="360.87031" xlink:href="#mab06445f57" y="339.98991"/>
     <use style="stroke:#000000;" x="366.052628" xlink:href="#mab06445f57" y="358.93523"/>
     <use style="stroke:#000000;" x="299.751856" xlink:href="#mab06445f57" y="371.677927"/>
     <use style="stroke:#000000;" x="332.906321" xlink:href="#mab06445f57" y="307.32777"/>
     <use style="stroke:#000000;" x="382.633424" xlink:href="#mab06445f57" y="354.802418"/>
     <use style="stroke:#000000;" x="367.139194" xlink:href="#mab06445f57" y="341.408618"/>
     <use style="stroke:#000000;" x="368.274679" xlink:href="#mab06445f57" y="342.108696"/>
     <use style="stroke:#000000;" x="361.381812" xlink:href="#mab06445f57" y="337.931561"/>
     <use style="stroke:#000000;" x="365.43287" xlink:href="#mab06445f57" y="359.184178"/>
     <use style="stroke:#000000;" x="364.63827" xlink:href="#mab06445f57" y="357.784355"/>
     <use style="stroke:#000000;" x="367.129954" xlink:href="#mab06445f57" y="341.339856"/>
     <use style="stroke:#000000;" x="359.790625" xlink:href="#mab06445f57" y="353.32034"/>
     <use style="stroke:#000000;" x="366.895877" xlink:href="#mab06445f57" y="341.12875"/>
     <use style="stroke:#000000;" x="360.266241" xlink:href="#mab06445f57" y="352.734722"/>
     <use style="stroke:#000000;" x="357.176881" xlink:href="#mab06445f57" y="340.780403"/>
     <use style="stroke:#000000;" x="366.689323" xlink:href="#mab06445f57" y="341.371112"/>
     <use style="stroke:#000000;" x="397.66952" xlink:href="#mab06445f57" y="339.098305"/>
     <use style="stroke:#000000;" x="405.739089" xlink:href="#mab06445f57" y="336.428138"/>
     <use style="stroke:#000000;" x="359.290128" xlink:href="#mab06445f57" y="332.054993"/>
     <use style="stroke:#000000;" x="425.320655" xlink:href="#mab06445f57" y="358.625071"/>
     <use style="stroke:#000000;" x="365.557244" xlink:href="#mab06445f57" y="359.250178"/>
     <use style="stroke:#000000;" x="360.851411" xlink:href="#mab06445f57" y="350.775532"/>
     <use style="stroke:#000000;" x="364.694694" xlink:href="#mab06445f57" y="359.590359"/>
     <use style="stroke:#000000;" x="369.785919" xlink:href="#mab06445f57" y="335.826008"/>
     <use style="stroke:#000000;" x="357.990755" xlink:href="#mab06445f57" y="331.96994"/>
     <use style="stroke:#000000;" x="391.674408" xlink:href="#mab06445f57" y="342.411635"/>
     <use style="stroke:#000000;" x="368.472791" xlink:href="#mab06445f57" y="340.350583"/>
     <use style="stroke:#000000;" x="364.63827" xlink:href="#mab06445f57" y="357.784355"/>
     <use style="stroke:#000000;" x="382.982085" xlink:href="#mab06445f57" y="343.765097"/>
     <use style="stroke:#000000;" x="358.726763" xlink:href="#mab06445f57" y="338.409865"/>
     <use style="stroke:#000000;" x="365.435616" xlink:href="#mab06445f57" y="359.043113"/>
     <use style="stroke:#000000;" x="406.122317" xlink:href="#mab06445f57" y="343.513501"/>
     <use style="stroke:#000000;" x="398.079071" xlink:href="#mab06445f57" y="355.822458"/>
     <use style="stroke:#000000;" x="414.731038" xlink:href="#mab06445f57" y="350.628252"/>
     <use style="stroke:#000000;" x="412.473575" xlink:href="#mab06445f57" y="333.450032"/>
     <use style="stroke:#000000;" x="358.834801" xlink:href="#mab06445f57" y="338.007872"/>
     <use style="stroke:#000000;" x="366.53389" xlink:href="#mab06445f57" y="358.46157"/>
     <use style="stroke:#000000;" x="384.436466" xlink:href="#mab06445f57" y="348.918386"/>
     <use style="stroke:#000000;" x="373.837178" xlink:href="#mab06445f57" y="344.925788"/>
     <use style="stroke:#000000;" x="401.160514" xlink:href="#mab06445f57" y="361.05641"/>
     <use style="stroke:#000000;" x="364.63827" xlink:href="#mab06445f57" y="357.784355"/>
     <use style="stroke:#000000;" x="418.675811" xlink:href="#mab06445f57" y="342.777783"/>
     <use style="stroke:#000000;" x="360.030224" xlink:href="#mab06445f57" y="352.96198"/>
     <use style="stroke:#000000;" x="375.24578" xlink:href="#mab06445f57" y="358.93291"/>
     <use style="stroke:#000000;" x="360.024413" xlink:href="#mab06445f57" y="353.02604"/>
     <use style="stroke:#000000;" x="403.201006" xlink:href="#mab06445f57" y="350.003512"/>
     <use style="stroke:#000000;" x="401.784863" xlink:href="#mab06445f57" y="360.318771"/>
     <use style="stroke:#000000;" x="359.585013" xlink:href="#mab06445f57" y="334.69917"/>
     <use style="stroke:#000000;" x="359.325241" xlink:href="#mab06445f57" y="352.291318"/>
     <use style="stroke:#000000;" x="367.402265" xlink:href="#mab06445f57" y="360.621766"/>
     <use style="stroke:#000000;" x="389.221623" xlink:href="#mab06445f57" y="326.318961"/>
     <use style="stroke:#000000;" x="359.050564" xlink:href="#mab06445f57" y="337.73271"/>
     <use style="stroke:#000000;" x="359.050564" xlink:href="#mab06445f57" y="337.73271"/>
     <use style="stroke:#000000;" x="402.604536" xlink:href="#mab06445f57" y="341.413068"/>
     <use style="stroke:#000000;" x="422.541921" xlink:href="#mab06445f57" y="335.758338"/>
     <use style="stroke:#000000;" x="363.163222" xlink:href="#mab06445f57" y="353.747739"/>
     <use style="stroke:#000000;" x="360.030224" xlink:href="#mab06445f57" y="352.96198"/>
     <use style="stroke:#000000;" x="392.259404" xlink:href="#mab06445f57" y="338.263481"/>
     <use style="stroke:#000000;" x="397.697817" xlink:href="#mab06445f57" y="339.903496"/>
     <use style="stroke:#000000;" x="359.48577" xlink:href="#mab06445f57" y="333.572599"/>
     <use style="stroke:#000000;" x="359.483559" xlink:href="#mab06445f57" y="334.33337"/>
     <use style="stroke:#000000;" x="425.26158" xlink:href="#mab06445f57" y="388.606061"/>
     <use style="stroke:#000000;" x="395.77122" xlink:href="#mab06445f57" y="333.773256"/>
     <use style="stroke:#000000;" x="384.27013" xlink:href="#mab06445f57" y="361.088004"/>
     <use style="stroke:#000000;" x="397.158707" xlink:href="#mab06445f57" y="362.500744"/>
     <use style="stroke:#000000;" x="418.796152" xlink:href="#mab06445f57" y="336.27781"/>
     <use style="stroke:#000000;" x="367.419922" xlink:href="#mab06445f57" y="361.06944"/>
     <use style="stroke:#000000;" x="398.239759" xlink:href="#mab06445f57" y="355.456438"/>
     <use style="stroke:#000000;" x="360.490989" xlink:href="#mab06445f57" y="349.652078"/>
     <use style="stroke:#000000;" x="359.565401" xlink:href="#mab06445f57" y="352.656631"/>
     <use style="stroke:#000000;" x="411.240079" xlink:href="#mab06445f57" y="347.811932"/>
     <use style="stroke:#000000;" x="366.072301" xlink:href="#mab06445f57" y="359.244216"/>
     <use style="stroke:#000000;" x="406.550244" xlink:href="#mab06445f57" y="343.938115"/>
     <use style="stroke:#000000;" x="422.732501" xlink:href="#mab06445f57" y="353.519258"/>
     <use style="stroke:#000000;" x="371.475648" xlink:href="#mab06445f57" y="357.614018"/>
    </g>
   </g>
   <g id="line2d_16">
    <defs>
     <path d="M 0 1.5 
C 0.397805 1.5 0.77937 1.341951 1.06066 1.06066 
C 1.341951 0.77937 1.5 0.397805 1.5 0 
C 1.5 -0.397805 1.341951 -0.77937 1.06066 -1.06066 
C 0.77937 -1.341951 0.397805 -1.5 0 -1.5 
C -0.397805 -1.5 -0.77937 -1.341951 -1.06066 -1.06066 
C -1.341951 -0.77937 -1.5 -0.397805 -1.5 0 
C -1.5 0.397805 -1.341951 0.77937 -1.06066 1.06066 
C -0.77937 1.341951 -0.397805 1.5 0 1.5 
z
" id="me8c5d9978e" style="stroke:#ff0000;"/>
    </defs>
    <g clip-path="url(#p00c9ca7d69)">
     <use style="fill:#ff0000;stroke:#ff0000;" x="372.617865" xlink:href="#me8c5d9978e" y="342.08628"/>
     <use style="fill:#ff0000;stroke:#ff0000;" x="404.35077" xlink:href="#me8c5d9978e" y="335.391746"/>
     <use style="fill:#ff0000;stroke:#ff0000;" x="419.862878" xlink:href="#me8c5d9978e" y="335.515988"/>
     <use style="fill:#ff0000;stroke:#ff0000;" x="425.97743" xlink:href="#me8c5d9978e" y="365.631064"/>
     <use style="fill:#ff0000;stroke:#ff0000;" x="359.261645" xlink:href="#me8c5d9978e" y="337.723695"/>
     <use style="fill:#ff0000;stroke:#ff0000;" x="409.889755" xlink:href="#me8c5d9978e" y="344.634311"/>
     <use style="fill:#ff0000;stroke:#ff0000;" x="404.485241" xlink:href="#me8c5d9978e" y="341.464432"/>
     <use style="fill:#ff0000;stroke:#ff0000;" x="393.668493" xlink:href="#me8c5d9978e" y="326.723046"/>
     <use style="fill:#ff0000;stroke:#ff0000;" x="404.108955" xlink:href="#me8c5d9978e" y="340.439789"/>
     <use style="fill:#ff0000;stroke:#ff0000;" x="420.371701" xlink:href="#me8c5d9978e" y="333.208962"/>
     <use style="fill:#ff0000;stroke:#ff0000;" x="365.557244" xlink:href="#me8c5d9978e" y="359.250178"/>
     <use style="fill:#ff0000;stroke:#ff0000;" x="382.554144" xlink:href="#me8c5d9978e" y="355.893351"/>
     <use style="fill:#ff0000;stroke:#ff0000;" x="404.332666" xlink:href="#me8c5d9978e" y="334.214295"/>
     <use style="fill:#ff0000;stroke:#ff0000;" x="381.187514" xlink:href="#me8c5d9978e" y="328.266382"/>
     <use style="fill:#ff0000;stroke:#ff0000;" x="458.801758" xlink:href="#me8c5d9978e" y="376.559405"/>
     <use style="fill:#ff0000;stroke:#ff0000;" x="383.996727" xlink:href="#me8c5d9978e" y="346.675518"/>
     <use style="fill:#ff0000;stroke:#ff0000;" x="381.292315" xlink:href="#me8c5d9978e" y="348.859291"/>
     <use style="fill:#ff0000;stroke:#ff0000;" x="148.826514" xlink:href="#me8c5d9978e" y="266.302075"/>
     <use style="fill:#ff0000;stroke:#ff0000;" x="243.86386" xlink:href="#me8c5d9978e" y="270.485686"/>
     <use style="fill:#ff0000;stroke:#ff0000;" x="411.867726" xlink:href="#me8c5d9978e" y="341.753768"/>
     <use style="fill:#ff0000;stroke:#ff0000;" x="418.27667" xlink:href="#me8c5d9978e" y="341.024831"/>
     <use style="fill:#ff0000;stroke:#ff0000;" x="396.227319" xlink:href="#me8c5d9978e" y="357.346426"/>
     <use style="fill:#ff0000;stroke:#ff0000;" x="396.227319" xlink:href="#me8c5d9978e" y="357.346426"/>
     <use style="fill:#ff0000;stroke:#ff0000;" x="424.217589" xlink:href="#me8c5d9978e" y="324.278423"/>
     <use style="fill:#ff0000;stroke:#ff0000;" x="405.739089" xlink:href="#me8c5d9978e" y="336.428138"/>
     <use style="fill:#ff0000;stroke:#ff0000;" x="436.802692" xlink:href="#me8c5d9978e" y="366.093343"/>
     <use style="fill:#ff0000;stroke:#ff0000;" x="396.610658" xlink:href="#me8c5d9978e" y="333.568426"/>
     <use style="fill:#ff0000;stroke:#ff0000;" x="370.997842" xlink:href="#me8c5d9978e" y="356.288195"/>
     <use style="fill:#ff0000;stroke:#ff0000;" x="375.199197" xlink:href="#me8c5d9978e" y="358.481215"/>
     <use style="fill:#ff0000;stroke:#ff0000;" x="367.115734" xlink:href="#me8c5d9978e" y="360.16994"/>
     <use style="fill:#ff0000;stroke:#ff0000;" x="397.904571" xlink:href="#me8c5d9978e" y="355.705433"/>
     <use style="fill:#ff0000;stroke:#ff0000;" x="397.904571" xlink:href="#me8c5d9978e" y="355.705433"/>
     <use style="fill:#ff0000;stroke:#ff0000;" x="367.8145" xlink:href="#me8c5d9978e" y="361.27764"/>
     <use style="fill:#ff0000;stroke:#ff0000;" x="406.689196" xlink:href="#me8c5d9978e" y="343.968487"/>
     <use style="fill:#ff0000;stroke:#ff0000;" x="425.646127" xlink:href="#me8c5d9978e" y="356.817622"/>
     <use style="fill:#ff0000;stroke:#ff0000;" x="359.483384" xlink:href="#me8c5d9978e" y="334.41207"/>
     <use style="fill:#ff0000;stroke:#ff0000;" x="397.555288" xlink:href="#me8c5d9978e" y="356.36101"/>
     <use style="fill:#ff0000;stroke:#ff0000;" x="391.99205" xlink:href="#me8c5d9978e" y="342.72443"/>
     <use style="fill:#ff0000;stroke:#ff0000;" x="411.806008" xlink:href="#me8c5d9978e" y="355.82855"/>
     <use style="fill:#ff0000;stroke:#ff0000;" x="358.726763" xlink:href="#me8c5d9978e" y="338.409865"/>
     <use style="fill:#ff0000;stroke:#ff0000;" x="384.081572" xlink:href="#me8c5d9978e" y="348.365016"/>
     <use style="fill:#ff0000;stroke:#ff0000;" x="384.083671" xlink:href="#me8c5d9978e" y="347.666782"/>
     <use style="fill:#ff0000;stroke:#ff0000;" x="408.764441" xlink:href="#me8c5d9978e" y="338.30062"/>
     <use style="fill:#ff0000;stroke:#ff0000;" x="372.535633" xlink:href="#me8c5d9978e" y="352.818553"/>
     <use style="fill:#ff0000;stroke:#ff0000;" x="392.994321" xlink:href="#me8c5d9978e" y="344.60358"/>
     <use style="fill:#ff0000;stroke:#ff0000;" x="403.201006" xlink:href="#me8c5d9978e" y="350.003512"/>
     <use style="fill:#ff0000;stroke:#ff0000;" x="425.360289" xlink:href="#me8c5d9978e" y="320.630619"/>
     <use style="fill:#ff0000;stroke:#ff0000;" x="372.5003" xlink:href="#me8c5d9978e" y="321.030783"/>
     <use style="fill:#ff0000;stroke:#ff0000;" x="424.073897" xlink:href="#me8c5d9978e" y="324.277464"/>
     <use style="fill:#ff0000;stroke:#ff0000;" x="396.889887" xlink:href="#me8c5d9978e" y="345.095071"/>
     <use style="fill:#ff0000;stroke:#ff0000;" x="412.326676" xlink:href="#me8c5d9978e" y="335.019986"/>
     <use style="fill:#ff0000;stroke:#ff0000;" x="413.482827" xlink:href="#me8c5d9978e" y="328.992453"/>
     <use style="fill:#ff0000;stroke:#ff0000;" x="390.790818" xlink:href="#me8c5d9978e" y="331.148385"/>
     <use style="fill:#ff0000;stroke:#ff0000;" x="374.134071" xlink:href="#me8c5d9978e" y="346.570958"/>
     <use style="fill:#ff0000;stroke:#ff0000;" x="410.749888" xlink:href="#me8c5d9978e" y="347.923335"/>
     <use style="fill:#ff0000;stroke:#ff0000;" x="414.736179" xlink:href="#me8c5d9978e" y="332.920406"/>
     <use style="fill:#ff0000;stroke:#ff0000;" x="399.982643" xlink:href="#me8c5d9978e" y="337.481978"/>
     <use style="fill:#ff0000;stroke:#ff0000;" x="401.784863" xlink:href="#me8c5d9978e" y="360.318771"/>
     <use style="fill:#ff0000;stroke:#ff0000;" x="407.831487" xlink:href="#me8c5d9978e" y="347.463354"/>
     <use style="fill:#ff0000;stroke:#ff0000;" x="363.427245" xlink:href="#me8c5d9978e" y="335.688142"/>
     <use style="fill:#ff0000;stroke:#ff0000;" x="375.345203" xlink:href="#me8c5d9978e" y="356.332753"/>
     <use style="fill:#ff0000;stroke:#ff0000;" x="404.677796" xlink:href="#me8c5d9978e" y="336.187928"/>
     <use style="fill:#ff0000;stroke:#ff0000;" x="359.325241" xlink:href="#me8c5d9978e" y="352.291318"/>
     <use style="fill:#ff0000;stroke:#ff0000;" x="359.561916" xlink:href="#me8c5d9978e" y="352.873216"/>
     <use style="fill:#ff0000;stroke:#ff0000;" x="414.673839" xlink:href="#me8c5d9978e" y="338.638616"/>
     <use style="fill:#ff0000;stroke:#ff0000;" x="359.050564" xlink:href="#me8c5d9978e" y="337.73271"/>
     <use style="fill:#ff0000;stroke:#ff0000;" x="382.904898" xlink:href="#me8c5d9978e" y="354.986511"/>
     <use style="fill:#ff0000;stroke:#ff0000;" x="406.622452" xlink:href="#me8c5d9978e" y="355.905225"/>
     <use style="fill:#ff0000;stroke:#ff0000;" x="423.153042" xlink:href="#me8c5d9978e" y="330.129772"/>
     <use style="fill:#ff0000;stroke:#ff0000;" x="404.278902" xlink:href="#me8c5d9978e" y="342.290125"/>
     <use style="fill:#ff0000;stroke:#ff0000;" x="422.412474" xlink:href="#me8c5d9978e" y="329.546273"/>
     <use style="fill:#ff0000;stroke:#ff0000;" x="359.790625" xlink:href="#me8c5d9978e" y="352.218736"/>
     <use style="fill:#ff0000;stroke:#ff0000;" x="413.295195" xlink:href="#me8c5d9978e" y="345.25234"/>
     <use style="fill:#ff0000;stroke:#ff0000;" x="509.950869" xlink:href="#me8c5d9978e" y="430.224127"/>
     <use style="fill:#ff0000;stroke:#ff0000;" x="158.180332" xlink:href="#me8c5d9978e" y="249.394235"/>
     <use style="fill:#ff0000;stroke:#ff0000;" x="159.627738" xlink:href="#me8c5d9978e" y="278.004126"/>
     <use style="fill:#ff0000;stroke:#ff0000;" x="186.132024" xlink:href="#me8c5d9978e" y="210.239466"/>
     <use style="fill:#ff0000;stroke:#ff0000;" x="182.238542" xlink:href="#me8c5d9978e" y="214.058001"/>
     <use style="fill:#ff0000;stroke:#ff0000;" x="177.234855" xlink:href="#me8c5d9978e" y="296.969334"/>
     <use style="fill:#ff0000;stroke:#ff0000;" x="416.255185" xlink:href="#me8c5d9978e" y="386.180758"/>
     <use style="fill:#ff0000;stroke:#ff0000;" x="391.05835" xlink:href="#me8c5d9978e" y="342.812456"/>
     <use style="fill:#ff0000;stroke:#ff0000;" x="360.015712" xlink:href="#me8c5d9978e" y="352.514809"/>
     <use style="fill:#ff0000;stroke:#ff0000;" x="409.932706" xlink:href="#me8c5d9978e" y="333.100744"/>
     <use style="fill:#ff0000;stroke:#ff0000;" x="424.301237" xlink:href="#me8c5d9978e" y="323.819397"/>
     <use style="fill:#ff0000;stroke:#ff0000;" x="383.75344" xlink:href="#me8c5d9978e" y="346.566034"/>
     <use style="fill:#ff0000;stroke:#ff0000;" x="421.696718" xlink:href="#me8c5d9978e" y="331.778483"/>
     <use style="fill:#ff0000;stroke:#ff0000;" x="168.942634" xlink:href="#me8c5d9978e" y="239.746368"/>
     <use style="fill:#ff0000;stroke:#ff0000;" x="262.176831" xlink:href="#me8c5d9978e" y="272.7861"/>
     <use style="fill:#ff0000;stroke:#ff0000;" x="245.550968" xlink:href="#me8c5d9978e" y="273.28775"/>
     <use style="fill:#ff0000;stroke:#ff0000;" x="164.559095" xlink:href="#me8c5d9978e" y="258.00034"/>
     <use style="fill:#ff0000;stroke:#ff0000;" x="173.012796" xlink:href="#me8c5d9978e" y="301.172065"/>
     <use style="fill:#ff0000;stroke:#ff0000;" x="245.796196" xlink:href="#me8c5d9978e" y="273.624539"/>
     <use style="fill:#ff0000;stroke:#ff0000;" x="409.527906" xlink:href="#me8c5d9978e" y="332.506171"/>
     <use style="fill:#ff0000;stroke:#ff0000;" x="417.914002" xlink:href="#me8c5d9978e" y="334.573258"/>
     <use style="fill:#ff0000;stroke:#ff0000;" x="411.244115" xlink:href="#me8c5d9978e" y="348.151305"/>
     <use style="fill:#ff0000;stroke:#ff0000;" x="510.577534" xlink:href="#me8c5d9978e" y="280.567459"/>
     <use style="fill:#ff0000;stroke:#ff0000;" x="425.374484" xlink:href="#me8c5d9978e" y="325.453395"/>
     <use style="fill:#ff0000;stroke:#ff0000;" x="413.597842" xlink:href="#me8c5d9978e" y="326.012911"/>
     <use style="fill:#ff0000;stroke:#ff0000;" x="356.533368" xlink:href="#me8c5d9978e" y="330.63686"/>
     <use style="fill:#ff0000;stroke:#ff0000;" x="242.93409" xlink:href="#me8c5d9978e" y="272.323058"/>
     <use style="fill:#ff0000;stroke:#ff0000;" x="626.141425" xlink:href="#me8c5d9978e" y="373.76374"/>
     <use style="fill:#ff0000;stroke:#ff0000;" x="148.888289" xlink:href="#me8c5d9978e" y="279.743816"/>
     <use style="fill:#ff0000;stroke:#ff0000;" x="383.838212" xlink:href="#me8c5d9978e" y="346.473277"/>
     <use style="fill:#ff0000;stroke:#ff0000;" x="390.790818" xlink:href="#me8c5d9978e" y="331.148385"/>
     <use style="fill:#ff0000;stroke:#ff0000;" x="244.259194" xlink:href="#me8c5d9978e" y="271.975661"/>
     <use style="fill:#ff0000;stroke:#ff0000;" x="403.071966" xlink:href="#me8c5d9978e" y="350.042951"/>
     <use style="fill:#ff0000;stroke:#ff0000;" x="384.619685" xlink:href="#me8c5d9978e" y="347.408526"/>
     <use style="fill:#ff0000;stroke:#ff0000;" x="222.055822" xlink:href="#me8c5d9978e" y="254.490834"/>
     <use style="fill:#ff0000;stroke:#ff0000;" x="299.383895" xlink:href="#me8c5d9978e" y="371.382275"/>
     <use style="fill:#ff0000;stroke:#ff0000;" x="373.662829" xlink:href="#me8c5d9978e" y="345.32295"/>
     <use style="fill:#ff0000;stroke:#ff0000;" x="176.904552" xlink:href="#me8c5d9978e" y="213.894379"/>
     <use style="fill:#ff0000;stroke:#ff0000;" x="255.418389" xlink:href="#me8c5d9978e" y="239.543823"/>
     <use style="fill:#ff0000;stroke:#ff0000;" x="177.454684" xlink:href="#me8c5d9978e" y="225.671621"/>
     <use style="fill:#ff0000;stroke:#ff0000;" x="250.705723" xlink:href="#me8c5d9978e" y="276.121411"/>
     <use style="fill:#ff0000;stroke:#ff0000;" x="396.092571" xlink:href="#me8c5d9978e" y="350.217007"/>
     <use style="fill:#ff0000;stroke:#ff0000;" x="262.161604" xlink:href="#me8c5d9978e" y="273.178307"/>
     <use style="fill:#ff0000;stroke:#ff0000;" x="393.087575" xlink:href="#me8c5d9978e" y="338.663022"/>
     <use style="fill:#ff0000;stroke:#ff0000;" x="301.856364" xlink:href="#me8c5d9978e" y="373.241113"/>
     <use style="fill:#ff0000;stroke:#ff0000;" x="358.836962" xlink:href="#me8c5d9978e" y="337.955162"/>
     <use style="fill:#ff0000;stroke:#ff0000;" x="374.984188" xlink:href="#me8c5d9978e" y="358.810399"/>
     <use style="fill:#ff0000;stroke:#ff0000;" x="377.06545" xlink:href="#me8c5d9978e" y="357.127027"/>
     <use style="fill:#ff0000;stroke:#ff0000;" x="249.920686" xlink:href="#me8c5d9978e" y="277.300158"/>
     <use style="fill:#ff0000;stroke:#ff0000;" x="244.596581" xlink:href="#me8c5d9978e" y="259.818702"/>
     <use style="fill:#ff0000;stroke:#ff0000;" x="182.47405" xlink:href="#me8c5d9978e" y="213.926927"/>
     <use style="fill:#ff0000;stroke:#ff0000;" x="147.765431" xlink:href="#me8c5d9978e" y="280.268302"/>
     <use style="fill:#ff0000;stroke:#ff0000;" x="148.709458" xlink:href="#me8c5d9978e" y="267.006805"/>
     <use style="fill:#ff0000;stroke:#ff0000;" x="369.842605" xlink:href="#me8c5d9978e" y="335.220482"/>
     <use style="fill:#ff0000;stroke:#ff0000;" x="374.29506" xlink:href="#me8c5d9978e" y="356.905369"/>
     <use style="fill:#ff0000;stroke:#ff0000;" x="377.063325" xlink:href="#me8c5d9978e" y="361.553122"/>
     <use style="fill:#ff0000;stroke:#ff0000;" x="421.318765" xlink:href="#me8c5d9978e" y="341.44229"/>
     <use style="fill:#ff0000;stroke:#ff0000;" x="380.952101" xlink:href="#me8c5d9978e" y="359.602391"/>
     <use style="fill:#ff0000;stroke:#ff0000;" x="399.087213" xlink:href="#me8c5d9978e" y="356.325713"/>
     <use style="fill:#ff0000;stroke:#ff0000;" x="423.756202" xlink:href="#me8c5d9978e" y="325.191995"/>
     <use style="fill:#ff0000;stroke:#ff0000;" x="424.250867" xlink:href="#me8c5d9978e" y="324.947947"/>
     <use style="fill:#ff0000;stroke:#ff0000;" x="423.468068" xlink:href="#me8c5d9978e" y="325.38539"/>
     <use style="fill:#ff0000;stroke:#ff0000;" x="238.133214" xlink:href="#me8c5d9978e" y="487.704158"/>
     <use style="fill:#ff0000;stroke:#ff0000;" x="190.903654" xlink:href="#me8c5d9978e" y="445.164705"/>
     <use style="fill:#ff0000;stroke:#ff0000;" x="358.942497" xlink:href="#me8c5d9978e" y="337.948665"/>
    </g>
   </g>
   <g id="line2d_17">
    <defs>
     <path d="M 0 1.5 
C 0.397805 1.5 0.77937 1.341951 1.06066 1.06066 
C 1.341951 0.77937 1.5 0.397805 1.5 0 
C 1.5 -0.397805 1.341951 -0.77937 1.06066 -1.06066 
C 0.77937 -1.341951 0.397805 -1.5 0 -1.5 
C -0.397805 -1.5 -0.77937 -1.341951 -1.06066 -1.06066 
C -1.341951 -0.77937 -1.5 -0.397805 -1.5 0 
C -1.5 0.397805 -1.341951 0.77937 -1.06066 1.06066 
C -0.77937 1.341951 -0.397805 1.5 0 1.5 
z
" id="md83fd7affd" style="stroke:#bfbf00;"/>
    </defs>
    <g clip-path="url(#p00c9ca7d69)">
     <use style="fill:#bfbf00;stroke:#bfbf00;" x="386.764435" xlink:href="#md83fd7affd" y="358.875883"/>
     <use style="fill:#bfbf00;stroke:#bfbf00;" x="359.315178" xlink:href="#md83fd7affd" y="352.134369"/>
     <use style="fill:#bfbf00;stroke:#bfbf00;" x="300.185026" xlink:href="#md83fd7affd" y="372.249157"/>
     <use style="fill:#bfbf00;stroke:#bfbf00;" x="382.239578" xlink:href="#md83fd7affd" y="358.792201"/>
     <use style="fill:#bfbf00;stroke:#bfbf00;" x="338.580504" xlink:href="#md83fd7affd" y="306.622375"/>
     <use style="fill:#bfbf00;stroke:#bfbf00;" x="251.419242" xlink:href="#md83fd7affd" y="279.246835"/>
     <use style="fill:#bfbf00;stroke:#bfbf00;" x="397.081386" xlink:href="#md83fd7affd" y="356.084682"/>
     <use style="fill:#bfbf00;stroke:#bfbf00;" x="390.054253" xlink:href="#md83fd7affd" y="348.979896"/>
     <use style="fill:#bfbf00;stroke:#bfbf00;" x="373.450589" xlink:href="#md83fd7affd" y="344.510687"/>
     <use style="fill:#bfbf00;stroke:#bfbf00;" x="412.889383" xlink:href="#md83fd7affd" y="330.746706"/>
     <use style="fill:#bfbf00;stroke:#bfbf00;" x="397.66952" xlink:href="#md83fd7affd" y="339.098305"/>
     <use style="fill:#bfbf00;stroke:#bfbf00;" x="358.183348" xlink:href="#md83fd7affd" y="332.427612"/>
     <use style="fill:#bfbf00;stroke:#bfbf00;" x="408.532213" xlink:href="#md83fd7affd" y="341.126677"/>
     <use style="fill:#bfbf00;stroke:#bfbf00;" x="272.520103" xlink:href="#md83fd7affd" y="260.177548"/>
     <use style="fill:#bfbf00;stroke:#bfbf00;" x="423.19104" xlink:href="#md83fd7affd" y="330.395565"/>
     <use style="fill:#bfbf00;stroke:#bfbf00;" x="358.852985" xlink:href="#md83fd7affd" y="336.141045"/>
     <use style="fill:#bfbf00;stroke:#bfbf00;" x="414.382788" xlink:href="#md83fd7affd" y="347.616142"/>
     <use style="fill:#bfbf00;stroke:#bfbf00;" x="419.684112" xlink:href="#md83fd7affd" y="332.21327"/>
     <use style="fill:#bfbf00;stroke:#bfbf00;" x="400.9339" xlink:href="#md83fd7affd" y="355.656416"/>
     <use style="fill:#bfbf00;stroke:#bfbf00;" x="243.628451" xlink:href="#md83fd7affd" y="271.504539"/>
     <use style="fill:#bfbf00;stroke:#bfbf00;" x="398.443136" xlink:href="#md83fd7affd" y="354.75831"/>
     <use style="fill:#bfbf00;stroke:#bfbf00;" x="484.465021" xlink:href="#md83fd7affd" y="466.082776"/>
     <use style="fill:#bfbf00;stroke:#bfbf00;" x="397.904571" xlink:href="#md83fd7affd" y="355.705433"/>
     <use style="fill:#bfbf00;stroke:#bfbf00;" x="403.53914" xlink:href="#md83fd7affd" y="334.286783"/>
     <use style="fill:#bfbf00;stroke:#bfbf00;" x="411.160091" xlink:href="#md83fd7affd" y="333.829063"/>
     <use style="fill:#bfbf00;stroke:#bfbf00;" x="398.516491" xlink:href="#md83fd7affd" y="356.501745"/>
     <use style="fill:#bfbf00;stroke:#bfbf00;" x="436.038441" xlink:href="#md83fd7affd" y="372.021887"/>
     <use style="fill:#bfbf00;stroke:#bfbf00;" x="359.314855" xlink:href="#md83fd7affd" y="351.83168"/>
     <use style="fill:#bfbf00;stroke:#bfbf00;" x="410.435506" xlink:href="#md83fd7affd" y="333.385961"/>
     <use style="fill:#bfbf00;stroke:#bfbf00;" x="421.42783" xlink:href="#md83fd7affd" y="352.724901"/>
     <use style="fill:#bfbf00;stroke:#bfbf00;" x="247.422205" xlink:href="#md83fd7affd" y="277.293595"/>
     <use style="fill:#bfbf00;stroke:#bfbf00;" x="403.981889" xlink:href="#md83fd7affd" y="334.189965"/>
     <use style="fill:#bfbf00;stroke:#bfbf00;" x="400.583185" xlink:href="#md83fd7affd" y="367.272949"/>
     <use style="fill:#bfbf00;stroke:#bfbf00;" x="395.805684" xlink:href="#md83fd7affd" y="332.946951"/>
     <use style="fill:#bfbf00;stroke:#bfbf00;" x="406.865268" xlink:href="#md83fd7affd" y="332.521931"/>
     <use style="fill:#bfbf00;stroke:#bfbf00;" x="423.295447" xlink:href="#md83fd7affd" y="354.219375"/>
     <use style="fill:#bfbf00;stroke:#bfbf00;" x="416.232546" xlink:href="#md83fd7affd" y="343.943195"/>
     <use style="fill:#bfbf00;stroke:#bfbf00;" x="414.521656" xlink:href="#md83fd7affd" y="348.325602"/>
     <use style="fill:#bfbf00;stroke:#bfbf00;" x="383.107205" xlink:href="#md83fd7affd" y="345.601492"/>
     <use style="fill:#bfbf00;stroke:#bfbf00;" x="396.178138" xlink:href="#md83fd7affd" y="333.307473"/>
     <use style="fill:#bfbf00;stroke:#bfbf00;" x="262.249263" xlink:href="#md83fd7affd" y="272.738983"/>
     <use style="fill:#bfbf00;stroke:#bfbf00;" x="395.730865" xlink:href="#md83fd7affd" y="350.314344"/>
     <use style="fill:#bfbf00;stroke:#bfbf00;" x="397.509651" xlink:href="#md83fd7affd" y="361.068389"/>
     <use style="fill:#bfbf00;stroke:#bfbf00;" x="367.383726" xlink:href="#md83fd7affd" y="360.530794"/>
     <use style="fill:#bfbf00;stroke:#bfbf00;" x="395.884066" xlink:href="#md83fd7affd" y="333.819491"/>
     <use style="fill:#bfbf00;stroke:#bfbf00;" x="366.195085" xlink:href="#md83fd7affd" y="359.235883"/>
     <use style="fill:#bfbf00;stroke:#bfbf00;" x="246.063616" xlink:href="#md83fd7affd" y="278.205478"/>
     <use style="fill:#bfbf00;stroke:#bfbf00;" x="375.004195" xlink:href="#md83fd7affd" y="359.035109"/>
     <use style="fill:#bfbf00;stroke:#bfbf00;" x="375.25234" xlink:href="#md83fd7affd" y="346.050132"/>
     <use style="fill:#bfbf00;stroke:#bfbf00;" x="398.329845" xlink:href="#md83fd7affd" y="344.16773"/>
     <use style="fill:#bfbf00;stroke:#bfbf00;" x="298.72105" xlink:href="#md83fd7affd" y="368.695527"/>
     <use style="fill:#bfbf00;stroke:#bfbf00;" x="359.688611" xlink:href="#md83fd7affd" y="333.858949"/>
     <use style="fill:#bfbf00;stroke:#bfbf00;" x="410.513145" xlink:href="#md83fd7affd" y="344.888454"/>
     <use style="fill:#bfbf00;stroke:#bfbf00;" x="397.986923" xlink:href="#md83fd7affd" y="344.195735"/>
     <use style="fill:#bfbf00;stroke:#bfbf00;" x="395.3356" xlink:href="#md83fd7affd" y="332.532061"/>
     <use style="fill:#bfbf00;stroke:#bfbf00;" x="419.522327" xlink:href="#md83fd7affd" y="341.10918"/>
     <use style="fill:#bfbf00;stroke:#bfbf00;" x="412.111726" xlink:href="#md83fd7affd" y="339.312252"/>
     <use style="fill:#bfbf00;stroke:#bfbf00;" x="395.608039" xlink:href="#md83fd7affd" y="347.552728"/>
     <use style="fill:#bfbf00;stroke:#bfbf00;" x="410.393776" xlink:href="#md83fd7affd" y="338.272706"/>
     <use style="fill:#bfbf00;stroke:#bfbf00;" x="389.965153" xlink:href="#md83fd7affd" y="356.683555"/>
     <use style="fill:#bfbf00;stroke:#bfbf00;" x="390.748916" xlink:href="#md83fd7affd" y="331.087917"/>
     <use style="fill:#bfbf00;stroke:#bfbf00;" x="408.094069" xlink:href="#md83fd7affd" y="333.088277"/>
     <use style="fill:#bfbf00;stroke:#bfbf00;" x="410.197901" xlink:href="#md83fd7affd" y="346.455491"/>
     <use style="fill:#bfbf00;stroke:#bfbf00;" x="403.981889" xlink:href="#md83fd7affd" y="334.189965"/>
     <use style="fill:#bfbf00;stroke:#bfbf00;" x="411.223539" xlink:href="#md83fd7affd" y="337.551812"/>
     <use style="fill:#bfbf00;stroke:#bfbf00;" x="420.371701" xlink:href="#md83fd7affd" y="333.208962"/>
     <use style="fill:#bfbf00;stroke:#bfbf00;" x="406.550244" xlink:href="#md83fd7affd" y="343.938115"/>
     <use style="fill:#bfbf00;stroke:#bfbf00;" x="373.75077" xlink:href="#md83fd7affd" y="359.016426"/>
     <use style="fill:#bfbf00;stroke:#bfbf00;" x="395.892801" xlink:href="#md83fd7affd" y="332.832868"/>
     <use style="fill:#bfbf00;stroke:#bfbf00;" x="302.013229" xlink:href="#md83fd7affd" y="373.212461"/>
     <use style="fill:#bfbf00;stroke:#bfbf00;" x="403.173238" xlink:href="#md83fd7affd" y="335.192609"/>
     <use style="fill:#bfbf00;stroke:#bfbf00;" x="410.268661" xlink:href="#md83fd7affd" y="354.554543"/>
     <use style="fill:#bfbf00;stroke:#bfbf00;" x="463.852119" xlink:href="#md83fd7affd" y="448.396397"/>
     <use style="fill:#bfbf00;stroke:#bfbf00;" x="384.619685" xlink:href="#md83fd7affd" y="347.408526"/>
     <use style="fill:#bfbf00;stroke:#bfbf00;" x="383.75344" xlink:href="#md83fd7affd" y="346.566034"/>
     <use style="fill:#bfbf00;stroke:#bfbf00;" x="410.586124" xlink:href="#md83fd7affd" y="346.388871"/>
     <use style="fill:#bfbf00;stroke:#bfbf00;" x="399.970575" xlink:href="#md83fd7affd" y="342.332806"/>
     <use style="fill:#bfbf00;stroke:#bfbf00;" x="422.693398" xlink:href="#md83fd7affd" y="332.11912"/>
     <use style="fill:#bfbf00;stroke:#bfbf00;" x="247.366342" xlink:href="#md83fd7affd" y="277.471417"/>
     <use style="fill:#bfbf00;stroke:#bfbf00;" x="248.419348" xlink:href="#md83fd7affd" y="275.872558"/>
     <use style="fill:#bfbf00;stroke:#bfbf00;" x="244.41907" xlink:href="#md83fd7affd" y="271.884208"/>
     <use style="fill:#bfbf00;stroke:#bfbf00;" x="246.432003" xlink:href="#md83fd7affd" y="276.934169"/>
     <use style="fill:#bfbf00;stroke:#bfbf00;" x="248.419348" xlink:href="#md83fd7affd" y="275.872558"/>
     <use style="fill:#bfbf00;stroke:#bfbf00;" x="246.432003" xlink:href="#md83fd7affd" y="276.934169"/>
     <use style="fill:#bfbf00;stroke:#bfbf00;" x="246.432003" xlink:href="#md83fd7affd" y="276.934169"/>
     <use style="fill:#bfbf00;stroke:#bfbf00;" x="246.871627" xlink:href="#md83fd7affd" y="277.741391"/>
     <use style="fill:#bfbf00;stroke:#bfbf00;" x="358.701323" xlink:href="#md83fd7affd" y="331.079773"/>
    </g>
   </g>
   <g id="line2d_18">
    <defs>
     <path d="M 0 1.5 
C 0.397805 1.5 0.77937 1.341951 1.06066 1.06066 
C 1.341951 0.77937 1.5 0.397805 1.5 0 
C 1.5 -0.397805 1.341951 -0.77937 1.06066 -1.06066 
C 0.77937 -1.341951 0.397805 -1.5 0 -1.5 
C -0.397805 -1.5 -0.77937 -1.341951 -1.06066 -1.06066 
C -1.341951 -0.77937 -1.5 -0.397805 -1.5 0 
C -1.5 0.397805 -1.341951 0.77937 -1.06066 1.06066 
C -0.77937 1.341951 -0.397805 1.5 0 1.5 
z
" id="m14e0407669" style="stroke:#008000;"/>
    </defs>
    <g clip-path="url(#p00c9ca7d69)">
     <use style="fill:#008000;stroke:#008000;" x="336.524769" xlink:href="#m14e0407669" y="304.956514"/>
     <use style="fill:#008000;stroke:#008000;" x="417.823354" xlink:href="#m14e0407669" y="327.069509"/>
     <use style="fill:#008000;stroke:#008000;" x="338.580504" xlink:href="#m14e0407669" y="306.622375"/>
     <use style="fill:#008000;stroke:#008000;" x="406.387172" xlink:href="#m14e0407669" y="335.901594"/>
     <use style="fill:#008000;stroke:#008000;" x="247.490256" xlink:href="#m14e0407669" y="277.569231"/>
     <use style="fill:#008000;stroke:#008000;" x="247.671746" xlink:href="#m14e0407669" y="278.814407"/>
     <use style="fill:#008000;stroke:#008000;" x="460.329327" xlink:href="#m14e0407669" y="472.220391"/>
     <use style="fill:#008000;stroke:#008000;" x="243.86386" xlink:href="#m14e0407669" y="270.485686"/>
     <use style="fill:#008000;stroke:#008000;" x="359.790625" xlink:href="#m14e0407669" y="352.717081"/>
     <use style="fill:#008000;stroke:#008000;" x="417.483896" xlink:href="#m14e0407669" y="347.547134"/>
     <use style="fill:#008000;stroke:#008000;" x="246.73559" xlink:href="#m14e0407669" y="277.519441"/>
     <use style="fill:#008000;stroke:#008000;" x="248.713514" xlink:href="#m14e0407669" y="277.161534"/>
     <use style="fill:#008000;stroke:#008000;" x="391.642831" xlink:href="#m14e0407669" y="356.153996"/>
     <use style="fill:#008000;stroke:#008000;" x="248.302038" xlink:href="#m14e0407669" y="277.114094"/>
     <use style="fill:#008000;stroke:#008000;" x="414.176198" xlink:href="#m14e0407669" y="343.226138"/>
     <use style="fill:#008000;stroke:#008000;" x="421.863501" xlink:href="#m14e0407669" y="356.779832"/>
     <use style="fill:#008000;stroke:#008000;" x="418.27667" xlink:href="#m14e0407669" y="341.024831"/>
     <use style="fill:#008000;stroke:#008000;" x="399.546733" xlink:href="#m14e0407669" y="216.863901"/>
     <use style="fill:#008000;stroke:#008000;" x="401.97009" xlink:href="#m14e0407669" y="339.656577"/>
     <use style="fill:#008000;stroke:#008000;" x="398.443136" xlink:href="#m14e0407669" y="354.75831"/>
     <use style="fill:#008000;stroke:#008000;" x="414.608754" xlink:href="#m14e0407669" y="334.153138"/>
     <use style="fill:#008000;stroke:#008000;" x="246.624586" xlink:href="#m14e0407669" y="277.877148"/>
     <use style="fill:#008000;stroke:#008000;" x="243.27455" xlink:href="#m14e0407669" y="272.152356"/>
     <use style="fill:#008000;stroke:#008000;" x="247.039002" xlink:href="#m14e0407669" y="277.205958"/>
     <use style="fill:#008000;stroke:#008000;" x="250.287343" xlink:href="#m14e0407669" y="274.622612"/>
     <use style="fill:#008000;stroke:#008000;" x="247.527776" xlink:href="#m14e0407669" y="281.454834"/>
     <use style="fill:#008000;stroke:#008000;" x="247.527776" xlink:href="#m14e0407669" y="281.454834"/>
     <use style="fill:#008000;stroke:#008000;" x="422.991904" xlink:href="#m14e0407669" y="336.335901"/>
     <use style="fill:#008000;stroke:#008000;" x="270.33221" xlink:href="#m14e0407669" y="271.316391"/>
     <use style="fill:#008000;stroke:#008000;" x="410.267704" xlink:href="#m14e0407669" y="357.046491"/>
     <use style="fill:#008000;stroke:#008000;" x="411.5365" xlink:href="#m14e0407669" y="337.407255"/>
     <use style="fill:#008000;stroke:#008000;" x="393.52296" xlink:href="#m14e0407669" y="358.235595"/>
     <use style="fill:#008000;stroke:#008000;" x="421.57317" xlink:href="#m14e0407669" y="335.202396"/>
     <use style="fill:#008000;stroke:#008000;" x="425.646127" xlink:href="#m14e0407669" y="356.817622"/>
     <use style="fill:#008000;stroke:#008000;" x="450.92437" xlink:href="#m14e0407669" y="491.961258"/>
     <use style="fill:#008000;stroke:#008000;" x="359.90155" xlink:href="#m14e0407669" y="352.515979"/>
     <use style="fill:#008000;stroke:#008000;" x="398.321557" xlink:href="#m14e0407669" y="355.755193"/>
     <use style="fill:#008000;stroke:#008000;" x="424.633322" xlink:href="#m14e0407669" y="333.047519"/>
     <use style="fill:#008000;stroke:#008000;" x="412.11605" xlink:href="#m14e0407669" y="335.384837"/>
     <use style="fill:#008000;stroke:#008000;" x="255.347667" xlink:href="#m14e0407669" y="277.152673"/>
     <use style="fill:#008000;stroke:#008000;" x="360.030224" xlink:href="#m14e0407669" y="352.96198"/>
     <use style="fill:#008000;stroke:#008000;" x="484.40454" xlink:href="#m14e0407669" y="466.382684"/>
     <use style="fill:#008000;stroke:#008000;" x="369.22429" xlink:href="#m14e0407669" y="328.140619"/>
     <use style="fill:#008000;stroke:#008000;" x="459.021009" xlink:href="#m14e0407669" y="571.937928"/>
     <use style="fill:#008000;stroke:#008000;" x="248.713514" xlink:href="#m14e0407669" y="277.161534"/>
     <use style="fill:#008000;stroke:#008000;" x="272.520103" xlink:href="#m14e0407669" y="260.177548"/>
     <use style="fill:#008000;stroke:#008000;" x="396.586444" xlink:href="#m14e0407669" y="351.119082"/>
     <use style="fill:#008000;stroke:#008000;" x="243.283922" xlink:href="#m14e0407669" y="257.481294"/>
     <use style="fill:#008000;stroke:#008000;" x="246.432003" xlink:href="#m14e0407669" y="276.934169"/>
     <use style="fill:#008000;stroke:#008000;" x="243.722361" xlink:href="#m14e0407669" y="270.095854"/>
     <use style="fill:#008000;stroke:#008000;" x="298.72105" xlink:href="#m14e0407669" y="368.695527"/>
     <use style="fill:#008000;stroke:#008000;" x="242.850289" xlink:href="#m14e0407669" y="268.834357"/>
     <use style="fill:#008000;stroke:#008000;" x="246.544152" xlink:href="#m14e0407669" y="277.475873"/>
     <use style="fill:#008000;stroke:#008000;" x="246.734648" xlink:href="#m14e0407669" y="278.234486"/>
     <use style="fill:#008000;stroke:#008000;" x="396.474535" xlink:href="#m14e0407669" y="355.13819"/>
     <use style="fill:#008000;stroke:#008000;" x="359.790625" xlink:href="#m14e0407669" y="351.772849"/>
     <use style="fill:#008000;stroke:#008000;" x="297.558171" xlink:href="#m14e0407669" y="369.523842"/>
     <use style="fill:#008000;stroke:#008000;" x="433.313024" xlink:href="#m14e0407669" y="236.932461"/>
     <use style="fill:#008000;stroke:#008000;" x="415.287158" xlink:href="#m14e0407669" y="223.246342"/>
     <use style="fill:#008000;stroke:#008000;" x="248.931766" xlink:href="#m14e0407669" y="258.283034"/>
     <use style="fill:#008000;stroke:#008000;" x="469.922653" xlink:href="#m14e0407669" y="459.045507"/>
     <use style="fill:#008000;stroke:#008000;" x="237.525252" xlink:href="#m14e0407669" y="482.294236"/>
     <use style="fill:#008000;stroke:#008000;" x="218.276924" xlink:href="#m14e0407669" y="239.35239"/>
     <use style="fill:#008000;stroke:#008000;" x="247.042889" xlink:href="#m14e0407669" y="278.100458"/>
     <use style="fill:#008000;stroke:#008000;" x="347.783824" xlink:href="#m14e0407669" y="313.772441"/>
     <use style="fill:#008000;stroke:#008000;" x="244.111884" xlink:href="#m14e0407669" y="271.591235"/>
     <use style="fill:#008000;stroke:#008000;" x="247.407945" xlink:href="#m14e0407669" y="279.264895"/>
     <use style="fill:#008000;stroke:#008000;" x="246.734648" xlink:href="#m14e0407669" y="278.234486"/>
     <use style="fill:#008000;stroke:#008000;" x="397.971925" xlink:href="#m14e0407669" y="356.412145"/>
     <use style="fill:#008000;stroke:#008000;" x="393.505736" xlink:href="#m14e0407669" y="353.590146"/>
     <use style="fill:#008000;stroke:#008000;" x="246.668044" xlink:href="#m14e0407669" y="277.242083"/>
     <use style="fill:#008000;stroke:#008000;" x="453.654692" xlink:href="#m14e0407669" y="362.351831"/>
     <use style="fill:#008000;stroke:#008000;" x="476.265385" xlink:href="#m14e0407669" y="435.409574"/>
     <use style="fill:#008000;stroke:#008000;" x="439.260797" xlink:href="#m14e0407669" y="231.344099"/>
     <use style="fill:#008000;stroke:#008000;" x="238.471037" xlink:href="#m14e0407669" y="474.33596"/>
     <use style="fill:#008000;stroke:#008000;" x="244.80883" xlink:href="#m14e0407669" y="273.809501"/>
     <use style="fill:#008000;stroke:#008000;" x="217.058633" xlink:href="#m14e0407669" y="430.673704"/>
     <use style="fill:#008000;stroke:#008000;" x="449.72597" xlink:href="#m14e0407669" y="394.064172"/>
     <use style="fill:#008000;stroke:#008000;" x="242.494368" xlink:href="#m14e0407669" y="479.398325"/>
     <use style="fill:#008000;stroke:#008000;" x="425.374484" xlink:href="#m14e0407669" y="325.453395"/>
     <use style="fill:#008000;stroke:#008000;" x="382.18667" xlink:href="#m14e0407669" y="227.710321"/>
     <use style="fill:#008000;stroke:#008000;" x="243.467426" xlink:href="#m14e0407669" y="272.612107"/>
     <use style="fill:#008000;stroke:#008000;" x="385.056036" xlink:href="#m14e0407669" y="374.132714"/>
     <use style="fill:#008000;stroke:#008000;" x="368.979922" xlink:href="#m14e0407669" y="327.628035"/>
     <use style="fill:#008000;stroke:#008000;" x="414.356062" xlink:href="#m14e0407669" y="348.227535"/>
     <use style="fill:#008000;stroke:#008000;" x="358.61263" xlink:href="#m14e0407669" y="338.997999"/>
     <use style="fill:#008000;stroke:#008000;" x="415.439687" xlink:href="#m14e0407669" y="338.351312"/>
     <use style="fill:#008000;stroke:#008000;" x="419.256546" xlink:href="#m14e0407669" y="335.118303"/>
     <use style="fill:#008000;stroke:#008000;" x="417.07784" xlink:href="#m14e0407669" y="339.31327"/>
     <use style="fill:#008000;stroke:#008000;" x="390.363248" xlink:href="#m14e0407669" y="329.832787"/>
     <use style="fill:#008000;stroke:#008000;" x="413.434686" xlink:href="#m14e0407669" y="335.715657"/>
     <use style="fill:#008000;stroke:#008000;" x="397.904571" xlink:href="#m14e0407669" y="355.705433"/>
     <use style="fill:#008000;stroke:#008000;" x="419.914335" xlink:href="#m14e0407669" y="345.534875"/>
     <use style="fill:#008000;stroke:#008000;" x="369.854557" xlink:href="#m14e0407669" y="322.902325"/>
     <use style="fill:#008000;stroke:#008000;" x="421.082526" xlink:href="#m14e0407669" y="348.506148"/>
     <use style="fill:#008000;stroke:#008000;" x="422.742742" xlink:href="#m14e0407669" y="332.186157"/>
    </g>
   </g>
   <g id="line2d_19">
    <defs>
     <path d="M 0 1.5 
C 0.397805 1.5 0.77937 1.341951 1.06066 1.06066 
C 1.341951 0.77937 1.5 0.397805 1.5 0 
C 1.5 -0.397805 1.341951 -0.77937 1.06066 -1.06066 
C 0.77937 -1.341951 0.397805 -1.5 0 -1.5 
C -0.397805 -1.5 -0.77937 -1.341951 -1.06066 -1.06066 
C -1.341951 -0.77937 -1.5 -0.397805 -1.5 0 
C -1.5 0.397805 -1.341951 0.77937 -1.06066 1.06066 
C -0.77937 1.341951 -0.397805 1.5 0 1.5 
z
" id="m89181ed4f2" style="stroke:#0000ff;"/>
    </defs>
    <g clip-path="url(#p00c9ca7d69)">
     <use style="fill:#0000ff;stroke:#0000ff;" x="408.500846" xlink:href="#m89181ed4f2" y="340.118863"/>
     <use style="fill:#0000ff;stroke:#0000ff;" x="406.522473" xlink:href="#m89181ed4f2" y="358.72154"/>
     <use style="fill:#0000ff;stroke:#0000ff;" x="246.73559" xlink:href="#m89181ed4f2" y="277.519441"/>
     <use style="fill:#0000ff;stroke:#0000ff;" x="221.918537" xlink:href="#m89181ed4f2" y="253.645581"/>
     <use style="fill:#0000ff;stroke:#0000ff;" x="400.425121" xlink:href="#m89181ed4f2" y="360.855934"/>
     <use style="fill:#0000ff;stroke:#0000ff;" x="425.646127" xlink:href="#m89181ed4f2" y="356.817622"/>
     <use style="fill:#0000ff;stroke:#0000ff;" x="403.53914" xlink:href="#m89181ed4f2" y="334.286783"/>
     <use style="fill:#0000ff;stroke:#0000ff;" x="402.708113" xlink:href="#m89181ed4f2" y="343.443049"/>
     <use style="fill:#0000ff;stroke:#0000ff;" x="414.737792" xlink:href="#m89181ed4f2" y="347.46683"/>
     <use style="fill:#0000ff;stroke:#0000ff;" x="490.324833" xlink:href="#m89181ed4f2" y="443.504941"/>
     <use style="fill:#0000ff;stroke:#0000ff;" x="402.395099" xlink:href="#m89181ed4f2" y="334.409451"/>
     <use style="fill:#0000ff;stroke:#0000ff;" x="360.030224" xlink:href="#m89181ed4f2" y="352.96198"/>
     <use style="fill:#0000ff;stroke:#0000ff;" x="429.691141" xlink:href="#m89181ed4f2" y="391.110797"/>
     <use style="fill:#0000ff;stroke:#0000ff;" x="245.929702" xlink:href="#m89181ed4f2" y="274.911945"/>
     <use style="fill:#0000ff;stroke:#0000ff;" x="359.67962" xlink:href="#m89181ed4f2" y="352.65577"/>
     <use style="fill:#0000ff;stroke:#0000ff;" x="243.300926" xlink:href="#m89181ed4f2" y="272.298892"/>
     <use style="fill:#0000ff;stroke:#0000ff;" x="246.432003" xlink:href="#m89181ed4f2" y="276.934169"/>
     <use style="fill:#0000ff;stroke:#0000ff;" x="462.318317" xlink:href="#m89181ed4f2" y="234.408437"/>
     <use style="fill:#0000ff;stroke:#0000ff;" x="243.781578" xlink:href="#m89181ed4f2" y="274.669723"/>
     <use style="fill:#0000ff;stroke:#0000ff;" x="262.249263" xlink:href="#m89181ed4f2" y="272.738983"/>
     <use style="fill:#0000ff;stroke:#0000ff;" x="237.200468" xlink:href="#m89181ed4f2" y="472.231836"/>
     <use style="fill:#0000ff;stroke:#0000ff;" x="246.734648" xlink:href="#m89181ed4f2" y="278.234486"/>
     <use style="fill:#0000ff;stroke:#0000ff;" x="398.079071" xlink:href="#m89181ed4f2" y="355.822458"/>
     <use style="fill:#0000ff;stroke:#0000ff;" x="403.477312" xlink:href="#m89181ed4f2" y="332.4512"/>
     <use style="fill:#0000ff;stroke:#0000ff;" x="406.979888" xlink:href="#m89181ed4f2" y="348.776943"/>
     <use style="fill:#0000ff;stroke:#0000ff;" x="394.626724" xlink:href="#m89181ed4f2" y="343.990651"/>
     <use style="fill:#0000ff;stroke:#0000ff;" x="240.370638" xlink:href="#m89181ed4f2" y="263.64711"/>
     <use style="fill:#0000ff;stroke:#0000ff;" x="246.769626" xlink:href="#m89181ed4f2" y="277.657909"/>
     <use style="fill:#0000ff;stroke:#0000ff;" x="244.588552" xlink:href="#m89181ed4f2" y="274.085397"/>
     <use style="fill:#0000ff;stroke:#0000ff;" x="506.041122" xlink:href="#m89181ed4f2" y="434.7134"/>
     <use style="fill:#0000ff;stroke:#0000ff;" x="236.785079" xlink:href="#m89181ed4f2" y="491.072811"/>
     <use style="fill:#0000ff;stroke:#0000ff;" x="246.432003" xlink:href="#m89181ed4f2" y="276.934169"/>
     <use style="fill:#0000ff;stroke:#0000ff;" x="187.239413" xlink:href="#m89181ed4f2" y="451.394989"/>
     <use style="fill:#0000ff;stroke:#0000ff;" x="418.214908" xlink:href="#m89181ed4f2" y="377.794552"/>
     <use style="fill:#0000ff;stroke:#0000ff;" x="394.342122" xlink:href="#m89181ed4f2" y="381.999169"/>
    </g>
   </g>
   <g id="line2d_20">
    <defs>
     <path d="M 0 1.5 
C 0.397805 1.5 0.77937 1.341951 1.06066 1.06066 
C 1.341951 0.77937 1.5 0.397805 1.5 0 
C 1.5 -0.397805 1.341951 -0.77937 1.06066 -1.06066 
C 0.77937 -1.341951 0.397805 -1.5 0 -1.5 
C -0.397805 -1.5 -0.77937 -1.341951 -1.06066 -1.06066 
C -1.341951 -0.77937 -1.5 -0.397805 -1.5 0 
C -1.5 0.397805 -1.341951 0.77937 -1.06066 1.06066 
C -0.77937 1.341951 -0.397805 1.5 0 1.5 
z
" id="m4d150e3329" style="stroke:#00bfbf;"/>
    </defs>
    <g clip-path="url(#p00c9ca7d69)">
     <use style="fill:#00bfbf;stroke:#00bfbf;" x="416.749285" xlink:href="#m4d150e3329" y="345.794738"/>
     <use style="fill:#00bfbf;stroke:#00bfbf;" x="411.244115" xlink:href="#m4d150e3329" y="348.151305"/>
     <use style="fill:#00bfbf;stroke:#00bfbf;" x="448.423053" xlink:href="#m4d150e3329" y="394.804484"/>
     <use style="fill:#00bfbf;stroke:#00bfbf;" x="376.962903" xlink:href="#m4d150e3329" y="360.506402"/>
     <use style="fill:#00bfbf;stroke:#00bfbf;" x="517.613113" xlink:href="#m4d150e3329" y="423.519826"/>
     <use style="fill:#00bfbf;stroke:#00bfbf;" x="406.635812" xlink:href="#m4d150e3329" y="348.155535"/>
     <use style="fill:#00bfbf;stroke:#00bfbf;" x="509.456164" xlink:href="#m4d150e3329" y="429.924544"/>
     <use style="fill:#00bfbf;stroke:#00bfbf;" x="237.373774" xlink:href="#m4d150e3329" y="472.259115"/>
     <use style="fill:#00bfbf;stroke:#00bfbf;" x="235.899297" xlink:href="#m4d150e3329" y="493.475313"/>
     <use style="fill:#00bfbf;stroke:#00bfbf;" x="374.881735" xlink:href="#m4d150e3329" y="359.054838"/>
    </g>
   </g>
   <g id="line2d_21">
    <defs>
     <path d="M 0 1.5 
C 0.397805 1.5 0.77937 1.341951 1.06066 1.06066 
C 1.341951 0.77937 1.5 0.397805 1.5 0 
C 1.5 -0.397805 1.341951 -0.77937 1.06066 -1.06066 
C 0.77937 -1.341951 0.397805 -1.5 0 -1.5 
C -0.397805 -1.5 -0.77937 -1.341951 -1.06066 -1.06066 
C -1.341951 -0.77937 -1.5 -0.397805 -1.5 0 
C -1.5 0.397805 -1.341951 0.77937 -1.06066 1.06066 
C -0.77937 1.341951 -0.397805 1.5 0 1.5 
z
" id="m0a3353984d" style="stroke:#bf00bf;"/>
    </defs>
    <g clip-path="url(#p00c9ca7d69)">
     <use style="fill:#bf00bf;stroke:#bf00bf;" x="360.150346" xlink:href="#m0a3353984d" y="353.03712"/>
    </g>
   </g>
   <g id="line2d_22">
    <g clip-path="url(#p00c9ca7d69)">
     <use style="fill:#bf00bf;stroke:#bf00bf;" x="358.726246" xlink:href="#m0a3353984d" y="352.432544"/>
     <use style="fill:#bf00bf;stroke:#bf00bf;" x="359.907417" xlink:href="#m0a3353984d" y="351.62253"/>
     <use style="fill:#bf00bf;stroke:#bf00bf;" x="422.69228" xlink:href="#m0a3353984d" y="341.988528"/>
     <use style="fill:#bf00bf;stroke:#bf00bf;" x="359.910004" xlink:href="#m0a3353984d" y="352.960818"/>
    </g>
   </g>
   <g id="line2d_23"/>
   <g id="patch_3">
    <path d="M 359.790625 26.039062 
C 316.908882 26.039062 274.44411 34.485831 234.826546 50.895963 
C 195.208982 67.306096 159.209086 91.360457 128.887115 121.682428 
C 98.565144 152.004399 74.510783 188.004294 58.100651 227.621859 
C 41.690518 267.239423 33.24375 309.704195 33.24375 352.585938 
C 33.24375 395.46768 41.690518 437.932452 58.100651 477.550016 
C 74.510783 517.167581 98.565144 553.167476 128.887115 583.489447 
C 159.209086 613.811418 195.208982 637.865779 234.826546 654.275912 
C 274.44411 670.686044 316.908882 679.132812 359.790625 679.132812 
C 402.672368 679.132812 445.13714 670.686044 484.754704 654.275912 
C 524.372268 637.865779 560.372164 613.811418 590.694135 583.489447 
C 621.016106 553.167476 645.070467 517.167581 661.480599 477.550016 
C 677.890732 437.932452 686.3375 395.46768 686.3375 352.585938 
C 686.3375 309.704195 677.890732 267.239423 661.480599 227.621859 
C 645.070467 188.004294 621.016106 152.004399 590.694135 121.682428 
C 560.372164 91.360457 524.372268 67.306096 484.754704 50.895963 
C 445.13714 34.485831 402.672368 26.039062 359.790625 26.039062 
" style="fill:none;stroke:#000000;stroke-linecap:square;stroke-linejoin:miter;stroke-width:0.8;"/>
   </g>
  </g>
 </g>
 <defs>
  <clipPath id="p00c9ca7d69">
   <path d="M 686.3375 352.585938 
C 686.3375 309.704195 677.890732 267.239423 661.480599 227.621859 
C 645.070467 188.004294 621.016106 152.004399 590.694135 121.682428 
C 560.372164 91.360457 524.372268 67.306096 484.754704 50.895963 
C 445.13714 34.485831 402.672368 26.039062 359.790625 26.039062 
C 316.908882 26.039062 274.44411 34.485831 234.826546 50.895963 
C 195.208982 67.306096 159.209086 91.360457 128.887115 121.682428 
C 98.565144 152.004399 74.510783 188.004294 58.100651 227.621859 
C 41.690518 267.239423 33.24375 309.704195 33.24375 352.585937 
C 33.24375 395.46768 41.690518 437.932452 58.100651 477.550016 
C 74.510783 517.167581 98.565144 553.167476 128.887115 583.489447 
C 159.209086 613.811418 195.208982 637.865779 234.826546 654.275912 
C 274.44411 670.686044 316.908882 679.132812 359.790625 679.132812 
C 402.672368 679.132812 445.13714 670.686044 484.754704 654.275912 
C 524.372268 637.865779 560.372164 613.811418 590.694135 583.489447 
C 621.016106 553.167476 645.070467 517.167581 661.480599 477.550016 
C 677.890732 437.932452 686.3375 395.46768 686.3375 352.585938 
M 359.790625 352.585938 
C 359.790625 352.585938 359.790625 352.585938 359.790625 352.585938 
C 359.790625 352.585938 359.790625 352.585938 359.790625 352.585938 
C 359.790625 352.585938 359.790625 352.585938 359.790625 352.585938 
C 359.790625 352.585938 359.790625 352.585938 359.790625 352.585938 
C 359.790625 352.585938 359.790625 352.585938 359.790625 352.585938 
C 359.790625 352.585938 359.790625 352.585938 359.790625 352.585938 
C 359.790625 352.585938 359.790625 352.585938 359.790625 352.585938 
C 359.790625 352.585938 359.790625 352.585938 359.790625 352.585938 
C 359.790625 352.585938 359.790625 352.585938 359.790625 352.585938 
C 359.790625 352.585938 359.790625 352.585938 359.790625 352.585938 
C 359.790625 352.585938 359.790625 352.585938 359.790625 352.585938 
C 359.790625 352.585938 359.790625 352.585938 359.790625 352.585938 
C 359.790625 352.585938 359.790625 352.585938 359.790625 352.585938 
C 359.790625 352.585938 359.790625 352.585938 359.790625 352.585938 
C 359.790625 352.585938 359.790625 352.585938 359.790625 352.585938 
C 359.790625 352.585938 359.790625 352.585938 359.790625 352.585938 
M 686.3375 352.585938 
z
"/>
  </clipPath>
 </defs>
</svg>
