<?xml version="1.0" encoding="utf-8" standalone="no"?>
<!DOCTYPE svg PUBLIC "-//W3C//DTD SVG 1.1//EN"
  "http://www.w3.org/Graphics/SVG/1.1/DTD/svg11.dtd">
<!-- Created with matplotlib (https://matplotlib.org/) -->
<svg height="705.171875pt" version="1.1" viewBox="0 0 716.4 705.171875" width="716.4pt" xmlns="http://www.w3.org/2000/svg" xmlns:xlink="http://www.w3.org/1999/xlink">
 <defs>
  <style type="text/css">
*{stroke-linecap:butt;stroke-linejoin:round;}
  </style>
 </defs>
 <g id="figure_1">
  <g id="patch_1">
   <path d="M 0 705.171875 
L 716.4 705.171875 
L 716.4 0 
L 0 0 
z
" style="fill:#ffffff;"/>
  </g>
  <g id="axes_1">
   <g id="patch_2">
    <path d="M 686.3375 352.585938 
C 686.3375 309.704195 677.890732 267.239423 661.480599 227.621859 
C 645.070467 188.004294 621.016106 152.004399 590.694135 121.682428 
C 560.372164 91.360457 524.372268 67.306096 484.754704 50.895963 
C 445.13714 34.485831 402.672368 26.039062 359.790625 26.039062 
C 316.908882 26.039062 274.44411 34.485831 234.826546 50.895963 
C 195.208982 67.306096 159.209086 91.360457 128.887115 121.682428 
C 98.565144 152.004399 74.510783 188.004294 58.100651 227.621859 
C 41.690518 267.239423 33.24375 309.704195 33.24375 352.585937 
C 33.24375 395.46768 41.690518 437.932452 58.100651 477.550016 
C 74.510783 517.167581 98.565144 553.167476 128.887115 583.489447 
C 159.209086 613.811418 195.208982 637.865779 234.826546 654.275912 
C 274.44411 670.686044 316.908882 679.132812 359.790625 679.132812 
C 402.672368 679.132812 445.13714 670.686044 484.754704 654.275912 
C 524.372268 637.865779 560.372164 613.811418 590.694135 583.489447 
C 621.016106 553.167476 645.070467 517.167581 661.480599 477.550016 
C 677.890732 437.932452 686.3375 395.46768 686.3375 352.585938 
M 359.790625 352.585938 
C 359.790625 352.585938 359.790625 352.585938 359.790625 352.585938 
C 359.790625 352.585938 359.790625 352.585938 359.790625 352.585938 
C 359.790625 352.585938 359.790625 352.585938 359.790625 352.585938 
C 359.790625 352.585938 359.790625 352.585938 359.790625 352.585938 
C 359.790625 352.585938 359.790625 352.585938 359.790625 352.585938 
C 359.790625 352.585938 359.790625 352.585938 359.790625 352.585938 
C 359.790625 352.585938 359.790625 352.585938 359.790625 352.585938 
C 359.790625 352.585938 359.790625 352.585938 359.790625 352.585938 
C 359.790625 352.585938 359.790625 352.585938 359.790625 352.585938 
C 359.790625 352.585938 359.790625 352.585938 359.790625 352.585938 
C 359.790625 352.585938 359.790625 352.585938 359.790625 352.585938 
C 359.790625 352.585938 359.790625 352.585938 359.790625 352.585938 
C 359.790625 352.585938 359.790625 352.585938 359.790625 352.585938 
C 359.790625 352.585938 359.790625 352.585938 359.790625 352.585938 
C 359.790625 352.585938 359.790625 352.585938 359.790625 352.585938 
C 359.790625 352.585938 359.790625 352.585938 359.790625 352.585938 
M 686.3375 352.585938 
z
" style="fill:#ffffff;"/>
   </g>
   <g id="matplotlib.axis_1">
    <g id="xtick_1">
     <g id="line2d_1">
      <path clip-path="url(#p8a739c2d51)" d="M 359.790625 352.585938 
L 359.790625 26.039062 
" style="fill:none;stroke:#b0b0b0;stroke-linecap:square;stroke-width:0.8;"/>
     </g>
     <g id="text_1">
      <!-- 0° -->
      <defs>
       <path d="M 31.78125 66.40625 
Q 24.171875 66.40625 20.328125 58.90625 
Q 16.5 51.421875 16.5 36.375 
Q 16.5 21.390625 20.328125 13.890625 
Q 24.171875 6.390625 31.78125 6.390625 
Q 39.453125 6.390625 43.28125 13.890625 
Q 47.125 21.390625 47.125 36.375 
Q 47.125 51.421875 43.28125 58.90625 
Q 39.453125 66.40625 31.78125 66.40625 
z
M 31.78125 74.21875 
Q 44.046875 74.21875 50.515625 64.515625 
Q 56.984375 54.828125 56.984375 36.375 
Q 56.984375 17.96875 50.515625 8.265625 
Q 44.046875 -1.421875 31.78125 -1.421875 
Q 19.53125 -1.421875 13.0625 8.265625 
Q 6.59375 17.96875 6.59375 36.375 
Q 6.59375 54.828125 13.0625 64.515625 
Q 19.53125 74.21875 31.78125 74.21875 
z
" id="DejaVuSans-48"/>
       <path d="M 25 67.921875 
Q 21.09375 67.921875 18.40625 65.203125 
Q 15.71875 62.5 15.71875 58.59375 
Q 15.71875 54.734375 18.40625 52.078125 
Q 21.09375 49.421875 25 49.421875 
Q 28.90625 49.421875 31.59375 52.078125 
Q 34.28125 54.734375 34.28125 58.59375 
Q 34.28125 62.453125 31.5625 65.1875 
Q 28.859375 67.921875 25 67.921875 
z
M 25 74.21875 
Q 28.125 74.21875 31 73.015625 
Q 33.890625 71.828125 35.984375 69.578125 
Q 38.234375 67.390625 39.359375 64.59375 
Q 40.484375 61.8125 40.484375 58.59375 
Q 40.484375 52.15625 35.96875 47.6875 
Q 31.453125 43.21875 24.90625 43.21875 
Q 18.3125 43.21875 13.90625 47.609375 
Q 9.515625 52 9.515625 58.59375 
Q 9.515625 65.140625 14 69.671875 
Q 18.5 74.21875 25 74.21875 
z
" id="DejaVuSans-176"/>
      </defs>
      <g transform="translate(354.109375 14.798437)scale(0.1 -0.1)">
       <use xlink:href="#DejaVuSans-48"/>
       <use x="63.623047" xlink:href="#DejaVuSans-176"/>
      </g>
     </g>
    </g>
    <g id="xtick_2">
     <g id="line2d_2">
      <path clip-path="url(#p8a739c2d51)" d="M 359.790625 352.585938 
L 590.694135 121.682428 
" style="fill:none;stroke:#b0b0b0;stroke-linecap:square;stroke-width:0.8;"/>
     </g>
     <g id="text_2">
      <!-- 45° -->
      <defs>
       <path d="M 37.796875 64.3125 
L 12.890625 25.390625 
L 37.796875 25.390625 
z
M 35.203125 72.90625 
L 47.609375 72.90625 
L 47.609375 25.390625 
L 58.015625 25.390625 
L 58.015625 17.1875 
L 47.609375 17.1875 
L 47.609375 0 
L 37.796875 0 
L 37.796875 17.1875 
L 4.890625 17.1875 
L 4.890625 26.703125 
z
" id="DejaVuSans-52"/>
       <path d="M 10.796875 72.90625 
L 49.515625 72.90625 
L 49.515625 64.59375 
L 19.828125 64.59375 
L 19.828125 46.734375 
Q 21.96875 47.46875 24.109375 47.828125 
Q 26.265625 48.1875 28.421875 48.1875 
Q 40.625 48.1875 47.75 41.5 
Q 54.890625 34.8125 54.890625 23.390625 
Q 54.890625 11.625 47.5625 5.09375 
Q 40.234375 -1.421875 26.90625 -1.421875 
Q 22.3125 -1.421875 17.546875 -0.640625 
Q 12.796875 0.140625 7.71875 1.703125 
L 7.71875 11.625 
Q 12.109375 9.234375 16.796875 8.0625 
Q 21.484375 6.890625 26.703125 6.890625 
Q 35.15625 6.890625 40.078125 11.328125 
Q 45.015625 15.765625 45.015625 23.390625 
Q 45.015625 31 40.078125 35.4375 
Q 35.15625 39.890625 26.703125 39.890625 
Q 22.75 39.890625 18.8125 39.015625 
Q 14.890625 38.140625 10.796875 36.28125 
z
" id="DejaVuSans-53"/>
      </defs>
      <g transform="translate(591.73113 114.542308)scale(0.1 -0.1)">
       <use xlink:href="#DejaVuSans-52"/>
       <use x="63.623047" xlink:href="#DejaVuSans-53"/>
       <use x="127.246094" xlink:href="#DejaVuSans-176"/>
      </g>
     </g>
    </g>
    <g id="xtick_3">
     <g id="line2d_3">
      <path clip-path="url(#p8a739c2d51)" d="M 359.790625 352.585938 
L 686.3375 352.585938 
" style="fill:none;stroke:#b0b0b0;stroke-linecap:square;stroke-width:0.8;"/>
     </g>
     <g id="text_3">
      <!-- 90° -->
      <defs>
       <path d="M 10.984375 1.515625 
L 10.984375 10.5 
Q 14.703125 8.734375 18.5 7.8125 
Q 22.3125 6.890625 25.984375 6.890625 
Q 35.75 6.890625 40.890625 13.453125 
Q 46.046875 20.015625 46.78125 33.40625 
Q 43.953125 29.203125 39.59375 26.953125 
Q 35.25 24.703125 29.984375 24.703125 
Q 19.046875 24.703125 12.671875 31.3125 
Q 6.296875 37.9375 6.296875 49.421875 
Q 6.296875 60.640625 12.9375 67.421875 
Q 19.578125 74.21875 30.609375 74.21875 
Q 43.265625 74.21875 49.921875 64.515625 
Q 56.59375 54.828125 56.59375 36.375 
Q 56.59375 19.140625 48.40625 8.859375 
Q 40.234375 -1.421875 26.421875 -1.421875 
Q 22.703125 -1.421875 18.890625 -0.6875 
Q 15.09375 0.046875 10.984375 1.515625 
z
M 30.609375 32.421875 
Q 37.25 32.421875 41.125 36.953125 
Q 45.015625 41.5 45.015625 49.421875 
Q 45.015625 57.28125 41.125 61.84375 
Q 37.25 66.40625 30.609375 66.40625 
Q 23.96875 66.40625 20.09375 61.84375 
Q 16.21875 57.28125 16.21875 49.421875 
Q 16.21875 41.5 20.09375 36.953125 
Q 23.96875 32.421875 30.609375 32.421875 
z
" id="DejaVuSans-57"/>
      </defs>
      <g transform="translate(691.475 355.345312)scale(0.1 -0.1)">
       <use xlink:href="#DejaVuSans-57"/>
       <use x="63.623047" xlink:href="#DejaVuSans-48"/>
       <use x="127.246094" xlink:href="#DejaVuSans-176"/>
      </g>
     </g>
    </g>
    <g id="xtick_4">
     <g id="line2d_4">
      <path clip-path="url(#p8a739c2d51)" d="M 359.790625 352.585938 
L 590.694135 583.489447 
" style="fill:none;stroke:#b0b0b0;stroke-linecap:square;stroke-width:0.8;"/>
     </g>
     <g id="text_4">
      <!-- 135° -->
      <defs>
       <path d="M 12.40625 8.296875 
L 28.515625 8.296875 
L 28.515625 63.921875 
L 10.984375 60.40625 
L 10.984375 69.390625 
L 28.421875 72.90625 
L 38.28125 72.90625 
L 38.28125 8.296875 
L 54.390625 8.296875 
L 54.390625 0 
L 12.40625 0 
z
" id="DejaVuSans-49"/>
       <path d="M 40.578125 39.3125 
Q 47.65625 37.796875 51.625 33 
Q 55.609375 28.21875 55.609375 21.1875 
Q 55.609375 10.40625 48.1875 4.484375 
Q 40.765625 -1.421875 27.09375 -1.421875 
Q 22.515625 -1.421875 17.65625 -0.515625 
Q 12.796875 0.390625 7.625 2.203125 
L 7.625 11.71875 
Q 11.71875 9.328125 16.59375 8.109375 
Q 21.484375 6.890625 26.8125 6.890625 
Q 36.078125 6.890625 40.9375 10.546875 
Q 45.796875 14.203125 45.796875 21.1875 
Q 45.796875 27.640625 41.28125 31.265625 
Q 36.765625 34.90625 28.71875 34.90625 
L 20.21875 34.90625 
L 20.21875 43.015625 
L 29.109375 43.015625 
Q 36.375 43.015625 40.234375 45.921875 
Q 44.09375 48.828125 44.09375 54.296875 
Q 44.09375 59.90625 40.109375 62.90625 
Q 36.140625 65.921875 28.71875 65.921875 
Q 24.65625 65.921875 20.015625 65.03125 
Q 15.375 64.15625 9.8125 62.3125 
L 9.8125 71.09375 
Q 15.4375 72.65625 20.34375 73.4375 
Q 25.25 74.21875 29.59375 74.21875 
Q 40.828125 74.21875 47.359375 69.109375 
Q 53.90625 64.015625 53.90625 55.328125 
Q 53.90625 49.265625 50.4375 45.09375 
Q 46.96875 40.921875 40.578125 39.3125 
z
" id="DejaVuSans-51"/>
      </defs>
      <g transform="translate(588.54988 596.148317)scale(0.1 -0.1)">
       <use xlink:href="#DejaVuSans-49"/>
       <use x="63.623047" xlink:href="#DejaVuSans-51"/>
       <use x="127.246094" xlink:href="#DejaVuSans-53"/>
       <use x="190.869141" xlink:href="#DejaVuSans-176"/>
      </g>
     </g>
    </g>
    <g id="xtick_5">
     <g id="line2d_5">
      <path clip-path="url(#p8a739c2d51)" d="M 359.790625 352.585938 
L 359.790625 679.132812 
" style="fill:none;stroke:#b0b0b0;stroke-linecap:square;stroke-width:0.8;"/>
     </g>
     <g id="text_5">
      <!-- 180° -->
      <defs>
       <path d="M 31.78125 34.625 
Q 24.75 34.625 20.71875 30.859375 
Q 16.703125 27.09375 16.703125 20.515625 
Q 16.703125 13.921875 20.71875 10.15625 
Q 24.75 6.390625 31.78125 6.390625 
Q 38.8125 6.390625 42.859375 10.171875 
Q 46.921875 13.96875 46.921875 20.515625 
Q 46.921875 27.09375 42.890625 30.859375 
Q 38.875 34.625 31.78125 34.625 
z
M 21.921875 38.8125 
Q 15.578125 40.375 12.03125 44.71875 
Q 8.5 49.078125 8.5 55.328125 
Q 8.5 64.0625 14.71875 69.140625 
Q 20.953125 74.21875 31.78125 74.21875 
Q 42.671875 74.21875 48.875 69.140625 
Q 55.078125 64.0625 55.078125 55.328125 
Q 55.078125 49.078125 51.53125 44.71875 
Q 48 40.375 41.703125 38.8125 
Q 48.828125 37.15625 52.796875 32.3125 
Q 56.78125 27.484375 56.78125 20.515625 
Q 56.78125 9.90625 50.3125 4.234375 
Q 43.84375 -1.421875 31.78125 -1.421875 
Q 19.734375 -1.421875 13.25 4.234375 
Q 6.78125 9.90625 6.78125 20.515625 
Q 6.78125 27.484375 10.78125 32.3125 
Q 14.796875 37.15625 21.921875 38.8125 
z
M 18.3125 54.390625 
Q 18.3125 48.734375 21.84375 45.5625 
Q 25.390625 42.390625 31.78125 42.390625 
Q 38.140625 42.390625 41.71875 45.5625 
Q 45.3125 48.734375 45.3125 54.390625 
Q 45.3125 60.0625 41.71875 63.234375 
Q 38.140625 66.40625 31.78125 66.40625 
Q 25.390625 66.40625 21.84375 63.234375 
Q 18.3125 60.0625 18.3125 54.390625 
z
" id="DejaVuSans-56"/>
      </defs>
      <g transform="translate(347.746875 695.892187)scale(0.1 -0.1)">
       <use xlink:href="#DejaVuSans-49"/>
       <use x="63.623047" xlink:href="#DejaVuSans-56"/>
       <use x="127.246094" xlink:href="#DejaVuSans-48"/>
       <use x="190.869141" xlink:href="#DejaVuSans-176"/>
      </g>
     </g>
    </g>
    <g id="xtick_6">
     <g id="line2d_6">
      <path clip-path="url(#p8a739c2d51)" d="M 359.790625 352.585938 
L 128.887115 583.489447 
" style="fill:none;stroke:#b0b0b0;stroke-linecap:square;stroke-width:0.8;"/>
     </g>
     <g id="text_6">
      <!-- 225° -->
      <defs>
       <path d="M 19.1875 8.296875 
L 53.609375 8.296875 
L 53.609375 0 
L 7.328125 0 
L 7.328125 8.296875 
Q 12.9375 14.109375 22.625 23.890625 
Q 32.328125 33.6875 34.8125 36.53125 
Q 39.546875 41.84375 41.421875 45.53125 
Q 43.3125 49.21875 43.3125 52.78125 
Q 43.3125 58.59375 39.234375 62.25 
Q 35.15625 65.921875 28.609375 65.921875 
Q 23.96875 65.921875 18.8125 64.3125 
Q 13.671875 62.703125 7.8125 59.421875 
L 7.8125 69.390625 
Q 13.765625 71.78125 18.9375 73 
Q 24.125 74.21875 28.421875 74.21875 
Q 39.75 74.21875 46.484375 68.546875 
Q 53.21875 62.890625 53.21875 53.421875 
Q 53.21875 48.921875 51.53125 44.890625 
Q 49.859375 40.875 45.40625 35.40625 
Q 44.1875 33.984375 37.640625 27.21875 
Q 31.109375 20.453125 19.1875 8.296875 
z
" id="DejaVuSans-50"/>
      </defs>
      <g transform="translate(106.94387 596.148317)scale(0.1 -0.1)">
       <use xlink:href="#DejaVuSans-50"/>
       <use x="63.623047" xlink:href="#DejaVuSans-50"/>
       <use x="127.246094" xlink:href="#DejaVuSans-53"/>
       <use x="190.869141" xlink:href="#DejaVuSans-176"/>
      </g>
     </g>
    </g>
    <g id="xtick_7">
     <g id="line2d_7">
      <path clip-path="url(#p8a739c2d51)" d="M 359.790625 352.585938 
L 33.24375 352.585938 
" style="fill:none;stroke:#b0b0b0;stroke-linecap:square;stroke-width:0.8;"/>
     </g>
     <g id="text_7">
      <!-- 270° -->
      <defs>
       <path d="M 8.203125 72.90625 
L 55.078125 72.90625 
L 55.078125 68.703125 
L 28.609375 0 
L 18.3125 0 
L 43.21875 64.59375 
L 8.203125 64.59375 
z
" id="DejaVuSans-55"/>
      </defs>
      <g transform="translate(7.2 355.345313)scale(0.1 -0.1)">
       <use xlink:href="#DejaVuSans-50"/>
       <use x="63.623047" xlink:href="#DejaVuSans-55"/>
       <use x="127.246094" xlink:href="#DejaVuSans-48"/>
       <use x="190.869141" xlink:href="#DejaVuSans-176"/>
      </g>
     </g>
    </g>
    <g id="xtick_8">
     <g id="line2d_8">
      <path clip-path="url(#p8a739c2d51)" d="M 359.790625 352.585938 
L 128.887115 121.682428 
" style="fill:none;stroke:#b0b0b0;stroke-linecap:square;stroke-width:0.8;"/>
     </g>
     <g id="text_8">
      <!-- 315° -->
      <g transform="translate(106.94387 114.542308)scale(0.1 -0.1)">
       <use xlink:href="#DejaVuSans-51"/>
       <use x="63.623047" xlink:href="#DejaVuSans-49"/>
       <use x="127.246094" xlink:href="#DejaVuSans-53"/>
       <use x="190.869141" xlink:href="#DejaVuSans-176"/>
      </g>
     </g>
    </g>
   </g>
   <g id="matplotlib.axis_2">
    <g id="ytick_1">
     <g id="line2d_9">
      <path clip-path="url(#p8a739c2d51)" d="M 359.790625 270.949219 
L 365.485315 271.148082 
L 371.15226 271.743702 
L 376.763853 272.733177 
L 382.292754 274.111687 
L 387.712027 275.872515 
L 392.99527 278.007084 
L 398.116743 280.504993 
L 403.051495 283.354074 
L 407.775484 286.540445 
L 412.265696 290.048583 
L 416.500255 293.861397 
L 420.45853 297.96031 
L 424.121237 302.325355 
L 427.470532 306.935264 
L 430.490097 311.767578 
L 433.165222 316.798755 
L 435.482873 322.004284 
L 437.431758 327.358804 
L 439.002384 332.836228 
L 440.187099 338.40987 
L 440.980129 344.052577 
L 441.377613 349.736857 
L 441.377613 355.435018 
L 440.980129 361.119298 
L 440.187099 366.762005 
L 439.002384 372.335647 
L 437.431758 377.813071 
L 435.482873 383.167591 
L 433.165222 388.37312 
L 430.490097 393.404297 
L 427.470532 398.236611 
L 424.121237 402.84652 
L 420.45853 407.211565 
L 416.500255 411.310478 
L 412.265696 415.123292 
L 407.775484 418.63143 
L 403.051495 421.817801 
L 398.116743 424.666882 
L 392.99527 427.164791 
L 387.712027 429.29936 
L 382.292754 431.060188 
L 376.763853 432.438698 
L 371.15226 433.428173 
L 365.485315 434.023793 
L 359.790625 434.222656 
L 354.095935 434.023793 
L 348.42899 433.428173 
L 342.817397 432.438698 
L 337.288496 431.060188 
L 331.869223 429.29936 
L 326.58598 427.164791 
L 321.464507 424.666882 
L 316.529755 421.817801 
L 311.805766 418.63143 
L 307.315554 415.123292 
L 303.080995 411.310478 
L 299.12272 407.211565 
L 295.460013 402.84652 
L 292.110718 398.236611 
L 289.091153 393.404297 
L 286.416028 388.37312 
L 284.098377 383.167591 
L 282.149492 377.813071 
L 280.578866 372.335647 
L 279.394151 366.762005 
L 278.601121 361.119298 
L 278.203637 355.435018 
L 278.203637 349.736857 
L 278.601121 344.052577 
L 279.394151 338.40987 
L 280.578866 332.836228 
L 282.149492 327.358804 
L 284.098377 322.004284 
L 286.416028 316.798755 
L 289.091153 311.767578 
L 292.110718 306.935264 
L 295.460013 302.325355 
L 299.12272 297.96031 
L 303.080995 293.861397 
L 307.315554 290.048583 
L 311.805766 286.540445 
L 316.529755 283.354074 
L 321.464507 280.504993 
L 326.58598 278.007084 
L 331.869223 275.872515 
L 337.288496 274.111687 
L 342.817397 272.733177 
L 348.42899 271.743702 
L 354.095935 271.148082 
L 359.790625 270.949219 
L 359.790625 270.949219 
" style="fill:none;stroke:#b0b0b0;stroke-linecap:square;stroke-width:0.8;"/>
     </g>
     <g id="text_9">
      <!-- 250 -->
      <g transform="translate(391.031645 275.083756)scale(0.1 -0.1)">
       <use xlink:href="#DejaVuSans-50"/>
       <use x="63.623047" xlink:href="#DejaVuSans-53"/>
       <use x="127.246094" xlink:href="#DejaVuSans-48"/>
      </g>
     </g>
    </g>
    <g id="ytick_2">
     <g id="line2d_10">
      <path clip-path="url(#p8a739c2d51)" d="M 359.790625 189.3125 
L 365.488786 189.411962 
L 371.180004 189.710226 
L 376.857347 190.206929 
L 382.513896 190.901466 
L 388.14276 191.79299 
L 393.737081 192.880416 
L 399.290045 194.162419 
L 404.794884 195.637436 
L 410.244892 197.303671 
L 415.633429 199.159093 
L 420.953931 201.201442 
L 426.199915 203.42823 
L 431.364989 205.836744 
L 436.442861 208.424049 
L 441.427344 211.186993 
L 446.312365 214.12221 
L 451.091973 217.226123 
L 455.760344 220.494952 
L 460.31179 223.924713 
L 464.740768 227.511228 
L 469.041879 231.250127 
L 473.209885 235.136856 
L 477.239707 239.166677 
L 481.126435 243.334683 
L 484.865335 247.635795 
L 488.45185 252.064772 
L 491.881611 256.616219 
L 495.150439 261.28459 
L 498.254353 266.064198 
L 501.18957 270.949219 
L 503.952514 275.933702 
L 506.539819 281.011573 
L 508.948332 286.176648 
L 511.17512 291.422631 
L 513.217469 296.743133 
L 515.072892 302.131671 
L 516.739126 307.581679 
L 518.214144 313.086518 
L 519.496146 318.639481 
L 520.583572 324.233803 
L 521.475097 329.862667 
L 522.169634 335.519216 
L 522.666337 341.196558 
L 522.964601 346.887777 
L 523.064063 352.585938 
L 522.964601 358.284098 
L 522.666337 363.975317 
L 522.169634 369.652659 
L 521.475097 375.309208 
L 520.583572 380.938072 
L 519.496146 386.532394 
L 518.214144 392.085357 
L 516.739126 397.590196 
L 515.072892 403.040204 
L 513.217469 408.428742 
L 511.17512 413.749244 
L 508.948332 418.995227 
L 506.539819 424.160302 
L 503.952514 429.238173 
L 501.18957 434.222656 
L 498.254353 439.107677 
L 495.150439 443.887285 
L 491.881611 448.555656 
L 488.45185 453.107103 
L 484.865335 457.53608 
L 481.126435 461.837192 
L 477.239707 466.005198 
L 473.209885 470.035019 
L 469.041879 473.921748 
L 464.740768 477.660647 
L 460.31179 481.247162 
L 455.760344 484.676923 
L 451.091973 487.945752 
L 446.312365 491.049665 
L 441.427344 493.984882 
L 436.442861 496.747826 
L 431.364989 499.335131 
L 426.199915 501.743645 
L 420.953931 503.970433 
L 415.633429 506.012782 
L 410.244892 507.868204 
L 404.794884 509.534439 
L 399.290045 511.009456 
L 393.737081 512.291459 
L 388.14276 513.378885 
L 382.513896 514.270409 
L 376.857347 514.964946 
L 371.180004 515.461649 
L 365.488786 515.759913 
L 359.790625 515.859375 
L 354.092464 515.759913 
L 348.401246 515.461649 
L 342.723903 514.964946 
L 337.067354 514.270409 
L 331.43849 513.378885 
L 325.844169 512.291459 
L 320.291205 511.009456 
L 314.786366 509.534439 
L 309.336358 507.868204 
L 303.947821 506.012782 
L 298.627319 503.970433 
L 293.381335 501.743645 
L 288.216261 499.335131 
L 283.138389 496.747826 
L 278.153906 493.984882 
L 273.268885 491.049665 
L 268.489277 487.945752 
L 263.820906 484.676923 
L 259.26946 481.247162 
L 254.840482 477.660647 
L 250.539371 473.921748 
L 246.371365 470.035019 
L 242.341543 466.005198 
L 238.454815 461.837192 
L 234.715915 457.53608 
L 231.1294 453.107103 
L 227.699639 448.555656 
L 224.430811 443.887285 
L 221.326897 439.107677 
L 218.39168 434.222656 
L 215.628736 429.238173 
L 213.041431 424.160302 
L 210.632918 418.995227 
L 208.40613 413.749244 
L 206.363781 408.428742 
L 204.508358 403.040204 
L 202.842124 397.590196 
L 201.367106 392.085357 
L 200.085104 386.532394 
L 198.997678 380.938072 
L 198.106153 375.309208 
L 197.411616 369.652659 
L 196.914913 363.975317 
L 196.616649 358.284098 
L 196.517188 352.585938 
L 196.616649 346.887777 
L 196.914913 341.196558 
L 197.411616 335.519216 
L 198.106153 329.862667 
L 198.997678 324.233803 
L 200.085104 318.639481 
L 201.367106 313.086518 
L 202.842124 307.581679 
L 204.508358 302.131671 
L 206.363781 296.743133 
L 208.40613 291.422631 
L 210.632918 286.176648 
L 213.041431 281.011573 
L 215.628736 275.933702 
L 218.39168 270.949219 
L 221.326897 266.064198 
L 224.430811 261.28459 
L 227.699639 256.616219 
L 231.1294 252.064772 
L 234.715915 247.635795 
L 238.454815 243.334683 
L 242.341543 239.166677 
L 246.371365 235.136856 
L 250.539371 231.250127 
L 254.840482 227.511228 
L 259.26946 223.924713 
L 263.820906 220.494952 
L 268.489277 217.226123 
L 273.268885 214.12221 
L 278.153906 211.186993 
L 283.138389 208.424049 
L 288.216261 205.836744 
L 293.381335 203.42823 
L 298.627319 201.201442 
L 303.947821 199.159093 
L 309.336358 197.303671 
L 314.786366 195.637436 
L 320.291205 194.162419 
L 325.844169 192.880416 
L 331.43849 191.79299 
L 337.067354 190.901466 
L 342.723903 190.206929 
L 348.401246 189.710226 
L 354.092464 189.411962 
L 359.790625 189.3125 
L 359.790625 189.3125 
" style="fill:none;stroke:#b0b0b0;stroke-linecap:square;stroke-width:0.8;"/>
     </g>
     <g id="text_10">
      <!-- 500 -->
      <g transform="translate(422.272664 199.661263)scale(0.1 -0.1)">
       <use xlink:href="#DejaVuSans-53"/>
       <use x="63.623047" xlink:href="#DejaVuSans-48"/>
       <use x="127.246094" xlink:href="#DejaVuSans-48"/>
      </g>
     </g>
    </g>
    <g id="ytick_3">
     <g id="line2d_11">
      <path clip-path="url(#p8a739c2d51)" d="M 359.790625 107.675781 
L 368.337866 107.824974 
L 376.874694 108.27237 
L 385.390707 109.017425 
L 393.875531 110.05923 
L 402.318827 111.396517 
L 410.71031 113.027656 
L 419.039754 114.95066 
L 427.297013 117.163185 
L 435.472025 119.662537 
L 443.554832 122.445671 
L 451.535584 125.509195 
L 459.40456 128.849377 
L 467.152171 132.462147 
L 474.768979 136.343105 
L 482.245703 140.487521 
L 489.573235 144.890346 
L 496.742646 149.546216 
L 503.745203 154.449459 
L 510.572373 159.594101 
L 517.215839 164.973873 
L 523.667506 170.582222 
L 529.919515 176.412315 
L 535.964248 182.457047 
L 541.79434 188.709056 
L 547.402689 195.160724 
L 552.782462 201.804189 
L 557.927104 208.63136 
L 562.830346 215.633916 
L 567.486217 222.803328 
L 571.889042 230.130859 
L 576.033458 237.607584 
L 579.914415 245.224391 
L 583.527186 252.972003 
L 586.867368 260.840978 
L 589.930892 268.821731 
L 592.714025 276.904537 
L 595.213377 285.07955 
L 597.425903 293.336808 
L 599.348907 301.666253 
L 600.980046 310.057735 
L 602.317332 318.501032 
L 603.359138 326.985855 
L 604.104192 335.501869 
L 604.551589 344.038696 
L 604.700781 352.585938 
L 604.551589 361.133179 
L 604.104192 369.670006 
L 603.359138 378.18602 
L 602.317332 386.670843 
L 600.980046 395.11414 
L 599.348907 403.505622 
L 597.425903 411.835067 
L 595.213377 420.092325 
L 592.714025 428.267338 
L 589.930892 436.350144 
L 586.867368 444.330897 
L 583.527186 452.199872 
L 579.914415 459.947484 
L 576.033458 467.564291 
L 571.889042 475.041016 
L 567.486217 482.368547 
L 562.830346 489.537959 
L 557.927104 496.540515 
L 552.782462 503.367686 
L 547.402689 510.011151 
L 541.79434 516.462819 
L 535.964248 522.714828 
L 529.919515 528.75956 
L 523.667506 534.589653 
L 517.215839 540.198002 
L 510.572373 545.577774 
L 503.745203 550.722416 
L 496.742646 555.625659 
L 489.573235 560.281529 
L 482.245703 564.684354 
L 474.768979 568.82877 
L 467.152171 572.709728 
L 459.40456 576.322498 
L 451.535584 579.66268 
L 443.554832 582.726204 
L 435.472025 585.509338 
L 427.297013 588.00869 
L 419.039754 590.221215 
L 410.71031 592.144219 
L 402.318827 593.775358 
L 393.875531 595.112645 
L 385.390707 596.15445 
L 376.874694 596.899505 
L 368.337866 597.346901 
L 359.790625 597.496094 
L 351.243384 597.346901 
L 342.706556 596.899505 
L 334.190543 596.15445 
L 325.705719 595.112645 
L 317.262423 593.775358 
L 308.87094 592.144219 
L 300.541496 590.221215 
L 292.284237 588.00869 
L 284.109225 585.509338 
L 276.026418 582.726204 
L 268.045666 579.66268 
L 260.17669 576.322498 
L 252.429079 572.709728 
L 244.812271 568.82877 
L 237.335547 564.684354 
L 230.008015 560.281529 
L 222.838604 555.625659 
L 215.836047 550.722416 
L 209.008877 545.577774 
L 202.365411 540.198002 
L 195.913744 534.589653 
L 189.661735 528.75956 
L 183.617002 522.714828 
L 177.78691 516.462819 
L 172.178561 510.011151 
L 166.798788 503.367686 
L 161.654146 496.540515 
L 156.750904 489.537959 
L 152.095033 482.368547 
L 147.692208 475.041016 
L 143.547792 467.564291 
L 139.666835 459.947484 
L 136.054064 452.199872 
L 132.713882 444.330897 
L 129.650358 436.350144 
L 126.867225 428.267338 
L 124.367873 420.092325 
L 122.155347 411.835067 
L 120.232343 403.505622 
L 118.601204 395.11414 
L 117.263918 386.670843 
L 116.222112 378.18602 
L 115.477058 369.670006 
L 115.029661 361.133179 
L 114.880469 352.585938 
L 115.029661 344.038696 
L 115.477058 335.501869 
L 116.222112 326.985855 
L 117.263918 318.501032 
L 118.601204 310.057735 
L 120.232343 301.666253 
L 122.155347 293.336808 
L 124.367873 285.07955 
L 126.867225 276.904537 
L 129.650358 268.821731 
L 132.713882 260.840978 
L 136.054064 252.972003 
L 139.666835 245.224391 
L 143.547792 237.607584 
L 147.692208 230.130859 
L 152.095033 222.803328 
L 156.750904 215.633916 
L 161.654146 208.63136 
L 166.798788 201.804189 
L 172.178561 195.160724 
L 177.78691 188.709056 
L 183.617002 182.457047 
L 189.661735 176.412315 
L 195.913744 170.582222 
L 202.365411 164.973873 
L 209.008877 159.594101 
L 215.836047 154.449459 
L 222.838604 149.546216 
L 230.008015 144.890346 
L 237.335547 140.487521 
L 244.812271 136.343105 
L 252.429079 132.462147 
L 260.17669 128.849377 
L 268.045666 125.509195 
L 276.026418 122.445671 
L 284.109225 119.662537 
L 292.284237 117.163185 
L 300.541496 114.95066 
L 308.87094 113.027656 
L 317.262423 111.396517 
L 325.705719 110.05923 
L 334.190543 109.017425 
L 342.706556 108.27237 
L 351.243384 107.824974 
L 359.790625 107.675781 
L 359.790625 107.675781 
" style="fill:none;stroke:#b0b0b0;stroke-linecap:square;stroke-width:0.8;"/>
     </g>
     <g id="text_11">
      <!-- 750 -->
      <g transform="translate(453.513684 124.238769)scale(0.1 -0.1)">
       <use xlink:href="#DejaVuSans-55"/>
       <use x="63.623047" xlink:href="#DejaVuSans-53"/>
       <use x="127.246094" xlink:href="#DejaVuSans-48"/>
      </g>
     </g>
    </g>
    <g id="ytick_4">
     <g id="line2d_12">
      <path clip-path="url(#p8a739c2d51)" d="M 359.790625 26.039062 
L 371.186947 26.237986 
L 382.569384 26.834514 
L 393.924068 27.82792 
L 405.237166 29.216994 
L 416.494895 31.000043 
L 427.683538 33.174895 
L 438.789464 35.7389 
L 449.799142 38.688935 
L 460.699159 42.021404 
L 471.476234 45.732249 
L 482.117237 49.816947 
L 492.609205 54.270523 
L 502.939353 59.08755 
L 513.095097 64.26216 
L 523.064063 69.788048 
L 532.834105 75.658482 
L 542.39332 81.866309 
L 551.730062 88.403966 
L 560.832956 95.263488 
L 569.69091 102.436518 
L 578.293133 109.914317 
L 586.629145 117.687774 
L 594.688789 125.747417 
L 602.462245 134.083429 
L 609.940044 142.685652 
L 617.113074 151.543607 
L 623.972596 160.6465 
L 630.510254 169.983242 
L 636.718081 179.542458 
L 642.588514 189.3125 
L 648.114402 199.281466 
L 653.289012 209.437209 
L 658.106039 219.767358 
L 662.559615 230.259325 
L 666.644314 240.900329 
L 670.355158 251.677404 
L 673.687628 262.57742 
L 676.637662 273.587098 
L 679.201667 284.693025 
L 681.376519 295.881668 
L 683.159568 307.139396 
L 684.548642 318.452494 
L 685.542048 329.807179 
L 686.138576 341.189616 
L 686.3375 352.585938 
L 686.138576 363.982259 
L 685.542048 375.364696 
L 684.548642 386.719381 
L 683.159568 398.032479 
L 681.376519 409.290207 
L 679.201667 420.47885 
L 676.637662 431.584777 
L 673.687628 442.594455 
L 670.355158 453.494471 
L 666.644314 464.271546 
L 662.559615 474.91255 
L 658.106039 485.404517 
L 653.289012 495.734666 
L 648.114402 505.890409 
L 642.588514 515.859375 
L 636.718081 525.629417 
L 630.510254 535.188633 
L 623.972596 544.525375 
L 617.113074 553.628268 
L 609.940044 562.486223 
L 602.462245 571.088446 
L 594.688789 579.424458 
L 586.629145 587.484101 
L 578.293133 595.257558 
L 569.69091 602.735357 
L 560.832956 609.908387 
L 551.730062 616.767909 
L 542.39332 623.305566 
L 532.834105 629.513393 
L 523.064063 635.383827 
L 513.095097 640.909715 
L 502.939353 646.084325 
L 492.609205 650.901352 
L 482.117237 655.354928 
L 471.476234 659.439626 
L 460.699159 663.150471 
L 449.799142 666.48294 
L 438.789464 669.432975 
L 427.683538 671.99698 
L 416.494895 674.171832 
L 405.237166 675.954881 
L 393.924068 677.343955 
L 382.569384 678.337361 
L 371.186947 678.933889 
L 359.790625 679.132812 
L 348.394303 678.933889 
L 337.011866 678.337361 
L 325.657182 677.343955 
L 314.344084 675.954881 
L 303.086355 674.171832 
L 291.897712 671.99698 
L 280.791786 669.432975 
L 269.782108 666.48294 
L 258.882091 663.150471 
L 248.105016 659.439626 
L 237.464013 655.354928 
L 226.972045 650.901352 
L 216.641897 646.084325 
L 206.486153 640.909715 
L 196.517187 635.383827 
L 186.747145 629.513393 
L 177.18793 623.305566 
L 167.851188 616.767909 
L 158.748294 609.908387 
L 149.89034 602.735357 
L 141.288117 595.257558 
L 132.952105 587.484101 
L 124.892461 579.424458 
L 117.119005 571.088446 
L 109.641206 562.486223 
L 102.468176 553.628268 
L 95.608654 544.525375 
L 89.070996 535.188633 
L 82.863169 525.629417 
L 76.992736 515.859375 
L 71.466848 505.890409 
L 66.292238 495.734666 
L 61.475211 485.404517 
L 57.021635 474.91255 
L 52.936936 464.271546 
L 49.226092 453.494471 
L 45.893622 442.594455 
L 42.943588 431.584777 
L 40.379583 420.47885 
L 38.204731 409.290207 
L 36.421682 398.032479 
L 35.032608 386.719381 
L 34.039202 375.364696 
L 33.442674 363.982259 
L 33.24375 352.585938 
L 33.442674 341.189616 
L 34.039202 329.807179 
L 35.032608 318.452494 
L 36.421682 307.139396 
L 38.204731 295.881668 
L 40.379583 284.693025 
L 42.943588 273.587098 
L 45.893622 262.57742 
L 49.226092 251.677404 
L 52.936936 240.900329 
L 57.021635 230.259325 
L 61.475211 219.767358 
L 66.292238 209.437209 
L 71.466848 199.281466 
L 76.992736 189.3125 
L 82.863169 179.542458 
L 89.070996 169.983242 
L 95.608654 160.6465 
L 102.468176 151.543607 
L 109.641206 142.685652 
L 117.119005 134.083429 
L 124.892461 125.747417 
L 132.952105 117.687774 
L 141.288117 109.914317 
L 149.89034 102.436518 
L 158.748294 95.263488 
L 167.851188 88.403966 
L 177.18793 81.866309 
L 186.747145 75.658482 
L 196.517187 69.788048 
L 206.486153 64.26216 
L 216.641897 59.08755 
L 226.972045 54.270523 
L 237.464013 49.816947 
L 248.105016 45.732249 
L 258.882091 42.021404 
L 269.782108 38.688935 
L 280.791786 35.7389 
L 291.897712 33.174895 
L 303.086355 31.000043 
L 314.344084 29.216994 
L 325.657182 27.82792 
L 337.011866 26.834514 
L 348.394303 26.237986 
L 359.790625 26.039062 
L 359.790625 26.039062 
" style="fill:none;stroke:#b0b0b0;stroke-linecap:square;stroke-width:0.8;"/>
     </g>
     <g id="text_12">
      <!-- 1000 -->
      <g transform="translate(484.754704 48.816276)scale(0.1 -0.1)">
       <use xlink:href="#DejaVuSans-49"/>
       <use x="63.623047" xlink:href="#DejaVuSans-48"/>
       <use x="127.246094" xlink:href="#DejaVuSans-48"/>
       <use x="190.869141" xlink:href="#DejaVuSans-48"/>
      </g>
     </g>
    </g>
   </g>
   <g id="line2d_13">
    <defs>
     <path d="M 0 1.5 
C 0.397805 1.5 0.77937 1.341951 1.06066 1.06066 
C 1.341951 0.77937 1.5 0.397805 1.5 0 
C 1.5 -0.397805 1.341951 -0.77937 1.06066 -1.06066 
C 0.77937 -1.341951 0.397805 -1.5 0 -1.5 
C -0.397805 -1.5 -0.77937 -1.341951 -1.06066 -1.06066 
C -1.341951 -0.77937 -1.5 -0.397805 -1.5 0 
C -1.5 0.397805 -1.341951 0.77937 -1.06066 1.06066 
C -0.77937 1.341951 -0.397805 1.5 0 1.5 
z
" id="m2480ba3440" style="stroke:#000000;"/>
    </defs>
    <g clip-path="url(#p8a739c2d51)">
     <use style="stroke:#000000;" x="515.664015" xlink:href="#m2480ba3440" y="252.662076"/>
    </g>
   </g>
   <g id="line2d_14">
    <g clip-path="url(#p8a739c2d51)">
     <use style="stroke:#000000;" x="534.43099" xlink:href="#m2480ba3440" y="425.880123"/>
     <use style="stroke:#000000;" x="532.379121" xlink:href="#m2480ba3440" y="261.231961"/>
     <use style="stroke:#000000;" x="532.379121" xlink:href="#m2480ba3440" y="261.231961"/>
     <use style="stroke:#000000;" x="457.109849" xlink:href="#m2480ba3440" y="415.57304"/>
     <use style="stroke:#000000;" x="418.639195" xlink:href="#m2480ba3440" y="372.240251"/>
     <use style="stroke:#000000;" x="412.582777" xlink:href="#m2480ba3440" y="423.201264"/>
     <use style="stroke:#000000;" x="428.356356" xlink:href="#m2480ba3440" y="429.263094"/>
     <use style="stroke:#000000;" x="352.041479" xlink:href="#m2480ba3440" y="141.125502"/>
     <use style="stroke:#000000;" x="345.040233" xlink:href="#m2480ba3440" y="191.947577"/>
     <use style="stroke:#000000;" x="1127.605615" xlink:href="#m2480ba3440" y="56.576706"/>
     <use style="stroke:#000000;" x="374.492975" xlink:href="#m2480ba3440" y="342.270642"/>
     <use style="stroke:#000000;" x="400.076761" xlink:href="#m2480ba3440" y="73.010545"/>
     <use style="stroke:#000000;" x="506.759265" xlink:href="#m2480ba3440" y="454.676552"/>
     <use style="stroke:#000000;" x="720.802975" xlink:href="#m2480ba3440" y="20.088302"/>
     <use style="stroke:#000000;" x="533.594427" xlink:href="#m2480ba3440" y="432.645518"/>
     <use style="stroke:#000000;" x="437.742095" xlink:href="#m2480ba3440" y="430.725127"/>
     <use style="stroke:#000000;" x="353.204825" xlink:href="#m2480ba3440" y="167.551024"/>
     <use style="stroke:#000000;" x="420.143809" xlink:href="#m2480ba3440" y="417.306237"/>
     <use style="stroke:#000000;" x="637.505161" xlink:href="#m2480ba3440" y="81.248966"/>
     <use style="stroke:#000000;" x="565.554337" xlink:href="#m2480ba3440" y="-1"/>
     <use style="stroke:#000000;" x="441.639632" xlink:href="#m2480ba3440" y="-1"/>
     <use style="stroke:#000000;" x="598.169123" xlink:href="#m2480ba3440" y="299.320524"/>
     <use style="stroke:#000000;" x="915.434367" xlink:href="#m2480ba3440" y="224.789159"/>
     <use style="stroke:#000000;" x="650.330441" xlink:href="#m2480ba3440" y="259.804301"/>
     <use style="stroke:#000000;" x="1044.182159" xlink:href="#m2480ba3440" y="360.917923"/>
     <use style="stroke:#000000;" x="939.917641" xlink:href="#m2480ba3440" y="144.865855"/>
     <use style="stroke:#000000;" x="430.954289" xlink:href="#m2480ba3440" y="120.632715"/>
     <use style="stroke:#000000;" x="357.216848" xlink:href="#m2480ba3440" y="136.427229"/>
     <use style="stroke:#000000;" x="640.051054" xlink:href="#m2480ba3440" y="-1"/>
     <use style="stroke:#000000;" x="884.440301" xlink:href="#m2480ba3440" y="-1"/>
     <use style="stroke:#000000;" x="643.19644" xlink:href="#m2480ba3440" y="393.763242"/>
     <use style="stroke:#000000;" x="918.222454" xlink:href="#m2480ba3440" y="182.136007"/>
     <use style="stroke:#000000;" x="373.232705" xlink:href="#m2480ba3440" y="195.765392"/>
     <use style="stroke:#000000;" x="437.752562" xlink:href="#m2480ba3440" y="431.634626"/>
     <use style="stroke:#000000;" x="-1" xlink:href="#m2480ba3440" y="515.960811"/>
     <use style="stroke:#000000;" x="244.917052" xlink:href="#m2480ba3440" y="-1"/>
     <use style="stroke:#000000;" x="644.18347" xlink:href="#m2480ba3440" y="380.18112"/>
     <use style="stroke:#000000;" x="451.280313" xlink:href="#m2480ba3440" y="213.428314"/>
     <use style="stroke:#000000;" x="465.417094" xlink:href="#m2480ba3440" y="222.144285"/>
     <use style="stroke:#000000;" x="379.600905" xlink:href="#m2480ba3440" y="170.138952"/>
     <use style="stroke:#000000;" x="430.036571" xlink:href="#m2480ba3440" y="434.734036"/>
     <use style="stroke:#000000;" x="420.143809" xlink:href="#m2480ba3440" y="417.306237"/>
     <use style="stroke:#000000;" x="451.165265" xlink:href="#m2480ba3440" y="212.572224"/>
     <use style="stroke:#000000;" x="359.790625" xlink:href="#m2480ba3440" y="361.72925"/>
     <use style="stroke:#000000;" x="448.251008" xlink:href="#m2480ba3440" y="209.943952"/>
     <use style="stroke:#000000;" x="365.712044" xlink:href="#m2480ba3440" y="354.438304"/>
     <use style="stroke:#000000;" x="327.249518" xlink:href="#m2480ba3440" y="205.607032"/>
     <use style="stroke:#000000;" x="445.679415" xlink:href="#m2480ba3440" y="212.961357"/>
     <use style="stroke:#000000;" x="831.382869" xlink:href="#m2480ba3440" y="184.664914"/>
     <use style="stroke:#000000;" x="931.849002" xlink:href="#m2480ba3440" y="151.421334"/>
     <use style="stroke:#000000;" x="353.559438" xlink:href="#m2480ba3440" y="96.975674"/>
     <use style="stroke:#000000;" x="1175.639499" xlink:href="#m2480ba3440" y="427.773144"/>
     <use style="stroke:#000000;" x="431.585027" xlink:href="#m2480ba3440" y="435.555735"/>
     <use style="stroke:#000000;" x="372.997416" xlink:href="#m2480ba3440" y="330.046395"/>
     <use style="stroke:#000000;" x="420.846289" xlink:href="#m2480ba3440" y="439.790983"/>
     <use style="stroke:#000000;" x="484.232041" xlink:href="#m2480ba3440" y="143.924821"/>
     <use style="stroke:#000000;" x="337.382239" xlink:href="#m2480ba3440" y="95.916773"/>
     <use style="stroke:#000000;" x="756.743721" xlink:href="#m2480ba3440" y="225.91587"/>
     <use style="stroke:#000000;" x="467.883586" xlink:href="#m2480ba3440" y="200.255777"/>
     <use style="stroke:#000000;" x="420.143809" xlink:href="#m2480ba3440" y="417.306237"/>
     <use style="stroke:#000000;" x="648.524306" xlink:href="#m2480ba3440" y="242.766471"/>
     <use style="stroke:#000000;" x="346.545543" xlink:href="#m2480ba3440" y="176.093831"/>
     <use style="stroke:#000000;" x="430.070769" xlink:href="#m2480ba3440" y="432.977769"/>
     <use style="stroke:#000000;" x="936.620197" xlink:href="#m2480ba3440" y="239.634103"/>
     <use style="stroke:#000000;" x="836.481774" xlink:href="#m2480ba3440" y="392.880621"/>
     <use style="stroke:#000000;" x="1043.798769" xlink:href="#m2480ba3440" y="328.212755"/>
     <use style="stroke:#000000;" x="1015.693351" xlink:href="#m2480ba3440" y="114.343918"/>
     <use style="stroke:#000000;" x="347.890616" xlink:href="#m2480ba3440" y="171.089027"/>
     <use style="stroke:#000000;" x="443.744277" xlink:href="#m2480ba3440" y="425.737562"/>
     <use style="stroke:#000000;" x="666.631348" xlink:href="#m2480ba3440" y="306.92492"/>
     <use style="stroke:#000000;" x="534.670205" xlink:href="#m2480ba3440" y="257.217073"/>
     <use style="stroke:#000000;" x="874.845748" xlink:href="#m2480ba3440" y="458.043325"/>
     <use style="stroke:#000000;" x="420.143809" xlink:href="#m2480ba3440" y="417.306237"/>
     <use style="stroke:#000000;" x="1092.911193" xlink:href="#m2480ba3440" y="230.474415"/>
     <use style="stroke:#000000;" x="362.773637" xlink:href="#m2480ba3440" y="357.267661"/>
     <use style="stroke:#000000;" x="552.207305" xlink:href="#m2480ba3440" y="431.60575"/>
     <use style="stroke:#000000;" x="362.701284" xlink:href="#m2480ba3440" y="358.065219"/>
     <use style="stroke:#000000;" x="900.249872" xlink:href="#m2480ba3440" y="320.43474"/>
     <use style="stroke:#000000;" x="882.618887" xlink:href="#m2480ba3440" y="448.859709"/>
     <use style="stroke:#000000;" x="357.230754" xlink:href="#m2480ba3440" y="129.895681"/>
     <use style="stroke:#000000;" x="353.996592" xlink:href="#m2480ba3440" y="348.91793"/>
     <use style="stroke:#000000;" x="454.555547" xlink:href="#m2480ba3440" y="452.632007"/>
     <use style="stroke:#000000;" x="726.206552" xlink:href="#m2480ba3440" y="25.562074"/>
     <use style="stroke:#000000;" x="350.576871" xlink:href="#m2480ba3440" y="167.663254"/>
     <use style="stroke:#000000;" x="350.576871" xlink:href="#m2480ba3440" y="167.663254"/>
     <use style="stroke:#000000;" x="892.823821" xlink:href="#m2480ba3440" y="213.483708"/>
     <use style="stroke:#000000;" x="1141.044264" xlink:href="#m2480ba3440" y="143.082319"/>
     <use style="stroke:#000000;" x="401.779454" xlink:href="#m2480ba3440" y="367.050365"/>
     <use style="stroke:#000000;" x="362.773637" xlink:href="#m2480ba3440" y="357.267661"/>
     <use style="stroke:#000000;" x="764.026922" xlink:href="#m2480ba3440" y="174.271349"/>
     <use style="stroke:#000000;" x="831.735171" xlink:href="#m2480ba3440" y="194.689545"/>
     <use style="stroke:#000000;" x="355.995179" xlink:href="#m2480ba3440" y="115.869879"/>
     <use style="stroke:#000000;" x="355.967657" xlink:href="#m2480ba3440" y="125.341467"/>
     <use style="stroke:#000000;" x="1174.904014" xlink:href="#m2480ba3440" y="801.036471"/>
     <use style="stroke:#000000;" x="807.749034" xlink:href="#m2480ba3440" y="118.368054"/>
     <use style="stroke:#000000;" x="664.56046" xlink:href="#m2480ba3440" y="458.436662"/>
     <use style="stroke:#000000;" x="825.023241" xlink:href="#m2480ba3440" y="476.025282"/>
     <use style="stroke:#000000;" x="1094.409432" xlink:href="#m2480ba3440" y="149.549749"/>
     <use style="stroke:#000000;" x="454.775372" xlink:href="#m2480ba3440" y="458.205543"/>
     <use style="stroke:#000000;" x="838.482347" xlink:href="#m2480ba3440" y="388.323671"/>
     <use style="stroke:#000000;" x="368.510158" xlink:href="#m2480ba3440" y="316.059381"/>
     <use style="stroke:#000000;" x="356.986589" xlink:href="#m2480ba3440" y="353.466077"/>
     <use style="stroke:#000000;" x="1000.336323" xlink:href="#m2480ba3440" y="293.149571"/>
     <use style="stroke:#000000;" x="437.997487" xlink:href="#m2480ba3440" y="435.48151"/>
     <use style="stroke:#000000;" x="941.947885" xlink:href="#m2480ba3440" y="244.920553"/>
     <use style="stroke:#000000;" x="1143.416979" xlink:href="#m2480ba3440" y="364.205775"/>
     <use style="stroke:#000000;" x="505.26916" xlink:href="#m2480ba3440" y="415.185544"/>
    </g>
   </g>
   <g id="line2d_15">
    <defs>
     <path d="M 0 1.5 
C 0.397805 1.5 0.77937 1.341951 1.06066 1.06066 
C 1.341951 0.77937 1.5 0.397805 1.5 0 
C 1.5 -0.397805 1.341951 -0.77937 1.06066 -1.06066 
C 0.77937 -1.341951 0.397805 -1.5 0 -1.5 
C -0.397805 -1.5 -0.77937 -1.341951 -1.06066 -1.06066 
C -1.341951 -0.77937 -1.5 -0.397805 -1.5 0 
C -1.5 0.397805 -1.341951 0.77937 -1.06066 1.06066 
C -0.77937 1.341951 -0.397805 1.5 0 1.5 
z
" id="m4cb452859e" style="stroke:#ff0000;"/>
    </defs>
    <g clip-path="url(#p8a739c2d51)">
     <use style="fill:#ff0000;stroke:#ff0000;" x="519.48976" xlink:href="#m4cb452859e" y="221.865203"/>
     <use style="fill:#ff0000;stroke:#ff0000;" x="914.564425" xlink:href="#m4cb452859e" y="138.518257"/>
     <use style="fill:#ff0000;stroke:#ff0000;" x="1107.690177" xlink:href="#m4cb452859e" y="140.065068"/>
     <use style="fill:#ff0000;stroke:#ff0000;" x="1183.816353" xlink:href="#m4cb452859e" y="514.997757"/>
     <use style="fill:#ff0000;stroke:#ff0000;" x="353.204825" xlink:href="#m4cb452859e" y="167.551024"/>
     <use style="fill:#ff0000;stroke:#ff0000;" x="983.52479" xlink:href="#m4cb452859e" y="253.588187"/>
     <use style="fill:#ff0000;stroke:#ff0000;" x="916.238588" xlink:href="#m4cb452859e" y="214.123194"/>
     <use style="fill:#ff0000;stroke:#ff0000;" x="781.570082" xlink:href="#m4cb452859e" y="30.592942"/>
     <use style="fill:#ff0000;stroke:#ff0000;" x="911.553837" xlink:href="#m4cb452859e" y="201.366386"/>
     <use style="fill:#ff0000;stroke:#ff0000;" x="1114.025017" xlink:href="#m4cb452859e" y="111.342589"/>
     <use style="fill:#ff0000;stroke:#ff0000;" x="431.585027" xlink:href="#m4cb452859e" y="435.555735"/>
     <use style="fill:#ff0000;stroke:#ff0000;" x="643.19644" xlink:href="#m4cb452859e" y="393.763242"/>
     <use style="fill:#ff0000;stroke:#ff0000;" x="914.33903" xlink:href="#m4cb452859e" y="123.858992"/>
     <use style="fill:#ff0000;stroke:#ff0000;" x="626.181897" xlink:href="#m4cb452859e" y="49.807476"/>
     <use style="fill:#ff0000;stroke:#ff0000;" x="1592.47923" xlink:href="#m4cb452859e" y="651.05561"/>
     <use style="fill:#ff0000;stroke:#ff0000;" x="661.156592" xlink:href="#m4cb452859e" y="279.001216"/>
     <use style="fill:#ff0000;stroke:#ff0000;" x="627.486661" xlink:href="#m4cb452859e" y="306.189191"/>
     <use style="fill:#ff0000;stroke:#ff0000;" x="-1" xlink:href="#m4cb452859e" y="82.990298"/>
     <use style="fill:#ff0000;stroke:#ff0000;" x="492.53799" xlink:href="#m4cb452859e" y="-1"/>
     <use style="fill:#ff0000;stroke:#ff0000;" x="1008.150532" xlink:href="#m4cb452859e" y="217.725426"/>
     <use style="fill:#ff0000;stroke:#ff0000;" x="1087.94189" xlink:href="#m4cb452859e" y="208.650164"/>
     <use style="fill:#ff0000;stroke:#ff0000;" x="813.427465" xlink:href="#m4cb452859e" y="411.854015"/>
     <use style="fill:#ff0000;stroke:#ff0000;" x="813.427465" xlink:href="#m4cb452859e" y="411.854015"/>
     <use style="fill:#ff0000;stroke:#ff0000;" x="1161.906325" xlink:href="#m4cb452859e" y="0.157385"/>
     <use style="fill:#ff0000;stroke:#ff0000;" x="931.849002" xlink:href="#m4cb452859e" y="151.421334"/>
     <use style="fill:#ff0000;stroke:#ff0000;" x="1318.590864" xlink:href="#m4cb452859e" y="520.75313"/>
     <use style="fill:#ff0000;stroke:#ff0000;" x="818.200031" xlink:href="#m4cb452859e" y="115.817924"/>
     <use style="fill:#ff0000;stroke:#ff0000;" x="499.320478" xlink:href="#m4cb452859e" y="398.679046"/>
     <use style="fill:#ff0000;stroke:#ff0000;" x="551.627352" xlink:href="#m4cb452859e" y="425.982139"/>
     <use style="fill:#ff0000;stroke:#ff0000;" x="450.988233" xlink:href="#m4cb452859e" y="447.006768"/>
     <use style="fill:#ff0000;stroke:#ff0000;" x="834.309255" xlink:href="#m4cb452859e" y="391.423658"/>
     <use style="fill:#ff0000;stroke:#ff0000;" x="834.309255" xlink:href="#m4cb452859e" y="391.423658"/>
     <use style="fill:#ff0000;stroke:#ff0000;" x="459.687871" xlink:href="#m4cb452859e" y="460.797633"/>
     <use style="fill:#ff0000;stroke:#ff0000;" x="943.677835" xlink:href="#m4cb452859e" y="245.29868"/>
     <use style="fill:#ff0000;stroke:#ff0000;" x="1179.69163" xlink:href="#m4cb452859e" y="405.270404"/>
     <use style="fill:#ff0000;stroke:#ff0000;" x="355.965473" xlink:href="#m4cb452859e" y="126.321284"/>
     <use style="fill:#ff0000;stroke:#ff0000;" x="829.960677" xlink:href="#m4cb452859e" y="399.585586"/>
     <use style="fill:#ff0000;stroke:#ff0000;" x="760.698366" xlink:href="#m4cb452859e" y="229.810164"/>
     <use style="fill:#ff0000;stroke:#ff0000;" x="1007.382146" xlink:href="#m4cb452859e" y="392.956469"/>
     <use style="fill:#ff0000;stroke:#ff0000;" x="346.545543" xlink:href="#m4cb452859e" y="176.093831"/>
     <use style="fill:#ff0000;stroke:#ff0000;" x="662.212919" xlink:href="#m4cb452859e" y="300.03546"/>
     <use style="fill:#ff0000;stroke:#ff0000;" x="662.239046" xlink:href="#m4cb452859e" y="291.342456"/>
     <use style="fill:#ff0000;stroke:#ff0000;" x="969.51464" xlink:href="#m4cb452859e" y="174.733732"/>
     <use style="fill:#ff0000;stroke:#ff0000;" x="518.46598" xlink:href="#m4cb452859e" y="355.482"/>
     <use style="fill:#ff0000;stroke:#ff0000;" x="773.176641" xlink:href="#m4cb452859e" y="253.205582"/>
     <use style="fill:#ff0000;stroke:#ff0000;" x="900.249872" xlink:href="#m4cb452859e" y="320.43474"/>
     <use style="fill:#ff0000;stroke:#ff0000;" x="1142.744312" xlink:href="#m4cb452859e" y="-1"/>
     <use style="fill:#ff0000;stroke:#ff0000;" x="1141.92194" xlink:href="#m4cb452859e" y="-1"/>
     <use style="fill:#ff0000;stroke:#ff0000;" x="1160.117363" xlink:href="#m4cb452859e" y="0.145446"/>
     <use style="fill:#ff0000;stroke:#ff0000;" x="821.676434" xlink:href="#m4cb452859e" y="259.324645"/>
     <use style="fill:#ff0000;stroke:#ff0000;" x="1013.864465" xlink:href="#m4cb452859e" y="133.889842"/>
     <use style="fill:#ff0000;stroke:#ff0000;" x="1028.258545" xlink:href="#m4cb452859e" y="58.847054"/>
     <use style="fill:#ff0000;stroke:#ff0000;" x="745.743034" xlink:href="#m4cb452859e" y="85.688407"/>
     <use style="fill:#ff0000;stroke:#ff0000;" x="538.366526" xlink:href="#m4cb452859e" y="277.699446"/>
     <use style="fill:#ff0000;stroke:#ff0000;" x="994.23345" xlink:href="#m4cb452859e" y="294.536535"/>
     <use style="fill:#ff0000;stroke:#ff0000;" x="1043.862778" xlink:href="#m4cb452859e" y="107.750073"/>
     <use style="fill:#ff0000;stroke:#ff0000;" x="860.181253" xlink:href="#m4cb452859e" y="164.541645"/>
     <use style="fill:#ff0000;stroke:#ff0000;" x="882.618887" xlink:href="#m4cb452859e" y="448.859709"/>
     <use style="fill:#ff0000;stroke:#ff0000;" x="957.899362" xlink:href="#m4cb452859e" y="288.809768"/>
     <use style="fill:#ff0000;stroke:#ff0000;" x="405.066544" xlink:href="#m4cb452859e" y="142.208379"/>
     <use style="fill:#ff0000;stroke:#ff0000;" x="553.445125" xlink:href="#m4cb452859e" y="399.233792"/>
     <use style="fill:#ff0000;stroke:#ff0000;" x="918.635908" xlink:href="#m4cb452859e" y="148.430716"/>
     <use style="fill:#ff0000;stroke:#ff0000;" x="353.996592" xlink:href="#m4cb452859e" y="348.91793"/>
     <use style="fill:#ff0000;stroke:#ff0000;" x="356.9432" xlink:href="#m4cb452859e" y="356.162557"/>
     <use style="fill:#ff0000;stroke:#ff0000;" x="1043.086636" xlink:href="#m4cb452859e" y="178.941781"/>
     <use style="fill:#ff0000;stroke:#ff0000;" x="350.576871" xlink:href="#m4cb452859e" y="167.663254"/>
     <use style="fill:#ff0000;stroke:#ff0000;" x="647.563328" xlink:href="#m4cb452859e" y="382.473075"/>
     <use style="fill:#ff0000;stroke:#ff0000;" x="942.84687" xlink:href="#m4cb452859e" y="393.911073"/>
     <use style="fill:#ff0000;stroke:#ff0000;" x="1148.652717" xlink:href="#m4cb452859e" y="73.006679"/>
     <use style="fill:#ff0000;stroke:#ff0000;" x="913.669668" xlink:href="#m4cb452859e" y="224.403075"/>
     <use style="fill:#ff0000;stroke:#ff0000;" x="1139.432643" xlink:href="#m4cb452859e" y="65.742113"/>
     <use style="fill:#ff0000;stroke:#ff0000;" x="359.790625" xlink:href="#m4cb452859e" y="348.014281"/>
     <use style="fill:#ff0000;stroke:#ff0000;" x="1025.922519" xlink:href="#m4cb452859e" y="261.282651"/>
     <use style="fill:#ff0000;stroke:#ff0000;" x="2229.285658" xlink:href="#m4cb452859e" y="1319.181402"/>
     <use style="fill:#ff0000;stroke:#ff0000;" x="-1" xlink:href="#m4cb452859e" y="172.688805"/>
     <use style="fill:#ff0000;stroke:#ff0000;" x="-1" xlink:href="#m4cb452859e" y="373.800631"/>
     <use style="fill:#ff0000;stroke:#ff0000;" x="1062.774403" xlink:href="#m4cb452859e" y="770.841457"/>
     <use style="fill:#ff0000;stroke:#ff0000;" x="749.073796" xlink:href="#m4cb452859e" y="230.906097"/>
     <use style="fill:#ff0000;stroke:#ff0000;" x="362.592958" xlink:href="#m4cb452859e" y="351.700392"/>
     <use style="fill:#ff0000;stroke:#ff0000;" x="984.059536" xlink:href="#m4cb452859e" y="109.995278"/>
     <use style="fill:#ff0000;stroke:#ff0000;" x="1155.892255" xlink:href="#m4cb452859e" y="-1"/>
     <use style="fill:#ff0000;stroke:#ff0000;" x="1154.823634" xlink:href="#m4cb452859e" y="-1"/>
     <use style="fill:#ff0000;stroke:#ff0000;" x="658.127666" xlink:href="#m4cb452859e" y="277.638139"/>
     <use style="fill:#ff0000;stroke:#ff0000;" x="1130.521478" xlink:href="#m4cb452859e" y="93.533129"/>
     <use style="fill:#ff0000;stroke:#ff0000;" x="870.898687" xlink:href="#m4cb452859e" y="-1"/>
     <use style="fill:#ff0000;stroke:#ff0000;" x="690.959948" xlink:href="#m4cb452859e" y="-1"/>
     <use style="fill:#ff0000;stroke:#ff0000;" x="979.019778" xlink:href="#m4cb452859e" y="102.592841"/>
     <use style="fill:#ff0000;stroke:#ff0000;" x="1083.42667" xlink:href="#m4cb452859e" y="128.328076"/>
     <use style="fill:#ff0000;stroke:#ff0000;" x="1000.386575" xlink:href="#m4cb452859e" y="297.374761"/>
     <use style="fill:#ff0000;stroke:#ff0000;" x="1438.931982" xlink:href="#m4cb452859e" y="-1"/>
     <use style="fill:#ff0000;stroke:#ff0000;" x="1206.274438" xlink:href="#m4cb452859e" y="-1"/>
     <use style="fill:#ff0000;stroke:#ff0000;" x="1176.309674" xlink:href="#m4cb452859e" y="14.785779"/>
     <use style="fill:#ff0000;stroke:#ff0000;" x="1029.690471" xlink:href="#m4cb452859e" y="21.751756"/>
     <use style="fill:#ff0000;stroke:#ff0000;" x="319.237776" xlink:href="#m4cb452859e" y="79.319929"/>
     <use style="fill:#ff0000;stroke:#ff0000;" x="162.769057" xlink:href="#m4cb452859e" y="-1"/>
     <use style="fill:#ff0000;stroke:#ff0000;" x="1344.105553" xlink:href="#m4cb452859e" y="-1"/>
     <use style="fill:#ff0000;stroke:#ff0000;" x="3675.858083" xlink:href="#m4cb452859e" y="616.249577"/>
     <use style="fill:#ff0000;stroke:#ff0000;" x="542.646698" xlink:href="#m4cb452859e" y="-1"/>
     <use style="fill:#ff0000;stroke:#ff0000;" x="-1" xlink:href="#m4cb452859e" y="88.980971"/>
     <use style="fill:#ff0000;stroke:#ff0000;" x="659.183085" xlink:href="#m4cb452859e" y="276.483316"/>
     <use style="fill:#ff0000;stroke:#ff0000;" x="745.743034" xlink:href="#m4cb452859e" y="85.688407"/>
     <use style="fill:#ff0000;stroke:#ff0000;" x="531.073295" xlink:href="#m4cb452859e" y="-1"/>
     <use style="fill:#ff0000;stroke:#ff0000;" x="243.747757" xlink:href="#m4cb452859e" y="-1"/>
     <use style="fill:#ff0000;stroke:#ff0000;" x="898.643317" xlink:href="#m4cb452859e" y="320.925756"/>
     <use style="fill:#ff0000;stroke:#ff0000;" x="668.912416" xlink:href="#m4cb452859e" y="288.12716"/>
     <use style="fill:#ff0000;stroke:#ff0000;" x="163.070878" xlink:href="#m4cb452859e" y="-1"/>
     <use style="fill:#ff0000;stroke:#ff0000;" x="-1" xlink:href="#m4cb452859e" y="449.329727"/>
     <use style="fill:#ff0000;stroke:#ff0000;" x="532.499559" xlink:href="#m4cb452859e" y="262.161739"/>
     <use style="fill:#ff0000;stroke:#ff0000;" x="138.527003" xlink:href="#m4cb452859e" y="-1"/>
     <use style="fill:#ff0000;stroke:#ff0000;" x="175.830497" xlink:href="#m4cb452859e" y="-1"/>
     <use style="fill:#ff0000;stroke:#ff0000;" x="811.749855" xlink:href="#m4cb452859e" y="323.092754"/>
     <use style="fill:#ff0000;stroke:#ff0000;" x="248.318022" xlink:href="#m4cb452859e" y="-1"/>
     <use style="fill:#ff0000;stroke:#ff0000;" x="413.966003" xlink:href="#m4cb452859e" y="-1"/>
     <use style="fill:#ff0000;stroke:#ff0000;" x="774.337655" xlink:href="#m4cb452859e" y="179.245635"/>
     <use style="fill:#ff0000;stroke:#ff0000;" x="-1" xlink:href="#m4cb452859e" y="473.111034"/>
     <use style="fill:#ff0000;stroke:#ff0000;" x="-1" xlink:href="#m4cb452859e" y="386.504339"/>
     <use style="fill:#ff0000;stroke:#ff0000;" x="347.917523" xlink:href="#m4cb452859e" y="170.43278"/>
     <use style="fill:#ff0000;stroke:#ff0000;" x="548.95049" xlink:href="#m4cb452859e" y="430.080483"/>
     <use style="fill:#ff0000;stroke:#ff0000;" x="574.862193" xlink:href="#m4cb452859e" y="409.122501"/>
     <use style="fill:#ff0000;stroke:#ff0000;" x="-1" xlink:href="#m4cb452859e" y="47.571823"/>
     <use style="fill:#ff0000;stroke:#ff0000;" x="39.563722" xlink:href="#m4cb452859e" y="-1"/>
     <use style="fill:#ff0000;stroke:#ff0000;" x="484.93778" xlink:href="#m4cb452859e" y="136.386016"/>
     <use style="fill:#ff0000;stroke:#ff0000;" x="540.370841" xlink:href="#m4cb452859e" y="406.362863"/>
     <use style="fill:#ff0000;stroke:#ff0000;" x="574.835741" xlink:href="#m4cb452859e" y="464.227386"/>
     <use style="fill:#ff0000;stroke:#ff0000;" x="1125.81597" xlink:href="#m4cb452859e" y="213.847522"/>
     <use style="fill:#ff0000;stroke:#ff0000;" x="623.251007" xlink:href="#m4cb452859e" y="439.940786"/>
     <use style="fill:#ff0000;stroke:#ff0000;" x="849.033146" xlink:href="#m4cb452859e" y="399.146142"/>
     <use style="fill:#ff0000;stroke:#ff0000;" x="1156.162058" xlink:href="#m4cb452859e" y="11.531347"/>
     <use style="fill:#ff0000;stroke:#ff0000;" x="1162.320632" xlink:href="#m4cb452859e" y="8.492958"/>
     <use style="fill:#ff0000;stroke:#ff0000;" x="1152.574786" xlink:href="#m4cb452859e" y="13.939121"/>
     <use style="fill:#ff0000;stroke:#ff0000;" x="-1" xlink:href="#m4cb452859e" y="1024.255496"/>
     <use style="fill:#ff0000;stroke:#ff0000;" x="-1" xlink:href="#m4cb452859e" y="393.814675"/>
     <use style="fill:#ff0000;stroke:#ff0000;" x="349.231432" xlink:href="#m4cb452859e" y="170.351894"/>
    </g>
   </g>
   <g id="line2d_16">
    <defs>
     <path d="M 0 1.5 
C 0.397805 1.5 0.77937 1.341951 1.06066 1.06066 
C 1.341951 0.77937 1.5 0.397805 1.5 0 
C 1.5 -0.397805 1.341951 -0.77937 1.06066 -1.06066 
C 0.77937 -1.341951 0.397805 -1.5 0 -1.5 
C -0.397805 -1.5 -0.77937 -1.341951 -1.06066 -1.06066 
C -1.341951 -0.77937 -1.5 -0.397805 -1.5 0 
C -1.5 0.397805 -1.341951 0.77937 -1.06066 1.06066 
C -0.77937 1.341951 -0.397805 1.5 0 1.5 
z
" id="mce6c47b600" style="stroke:#bfbf00;"/>
    </defs>
    <g clip-path="url(#p8a739c2d51)">
     <use style="fill:#bfbf00;stroke:#bfbf00;" x="695.61456" xlink:href="#mce6c47b600" y="430.895754"/>
     <use style="fill:#bfbf00;stroke:#bfbf00;" x="353.871309" xlink:href="#mce6c47b600" y="346.963907"/>
     <use style="fill:#bfbf00;stroke:#bfbf00;" x="-1" xlink:href="#mce6c47b600" y="467.683388"/>
     <use style="fill:#bfbf00;stroke:#bfbf00;" x="-1" xlink:href="#mce6c47b600" y="534.859929"/>
     <use style="fill:#bfbf00;stroke:#bfbf00;" x="639.280091" xlink:href="#mce6c47b600" y="429.853921"/>
     <use style="fill:#bfbf00;stroke:#bfbf00;" x="278.713756" xlink:href="#mce6c47b600" y="-1"/>
     <use style="fill:#bfbf00;stroke:#bfbf00;" x="71.188945" xlink:href="#mce6c47b600" y="-1"/>
     <use style="fill:#bfbf00;stroke:#bfbf00;" x="824.060596" xlink:href="#mce6c47b600" y="396.145308"/>
     <use style="fill:#bfbf00;stroke:#bfbf00;" x="736.572791" xlink:href="#mce6c47b600" y="307.690718"/>
     <use style="fill:#bfbf00;stroke:#bfbf00;" x="529.857175" xlink:href="#mce6c47b600" y="252.04907"/>
     <use style="fill:#bfbf00;stroke:#bfbf00;" x="1020.870168" xlink:href="#mce6c47b600" y="80.687501"/>
     <use style="fill:#bfbf00;stroke:#bfbf00;" x="831.382869" xlink:href="#mce6c47b600" y="184.664914"/>
     <use style="fill:#bfbf00;stroke:#bfbf00;" x="339.780025" xlink:href="#mce6c47b600" y="101.614782"/>
     <use style="fill:#bfbf00;stroke:#bfbf00;" x="966.623395" xlink:href="#mce6c47b600" y="209.918138"/>
     <use style="fill:#bfbf00;stroke:#bfbf00;" x="612.235132" xlink:href="#mce6c47b600" y="-1"/>
     <use style="fill:#bfbf00;stroke:#bfbf00;" x="983.224724" xlink:href="#mce6c47b600" y="-1"/>
     <use style="fill:#bfbf00;stroke:#bfbf00;" x="1149.125787" xlink:href="#mce6c47b600" y="76.315798"/>
     <use style="fill:#bfbf00;stroke:#bfbf00;" x="348.117012" xlink:href="#mce6c47b600" y="147.847028"/>
     <use style="fill:#bfbf00;stroke:#bfbf00;" x="1039.463058" xlink:href="#mce6c47b600" y="290.711983"/>
     <use style="fill:#bfbf00;stroke:#bfbf00;" x="1105.46454" xlink:href="#mce6c47b600" y="98.946226"/>
     <use style="fill:#bfbf00;stroke:#bfbf00;" x="872.024403" xlink:href="#mce6c47b600" y="390.813399"/>
     <use style="fill:#bfbf00;stroke:#bfbf00;" x="139.606008" xlink:href="#mce6c47b600" y="-1"/>
     <use style="fill:#bfbf00;stroke:#bfbf00;" x="133.209571" xlink:href="#mce6c47b600" y="-1"/>
     <use style="fill:#bfbf00;stroke:#bfbf00;" x="841.014382" xlink:href="#mce6c47b600" y="379.631979"/>
     <use style="fill:#bfbf00;stroke:#bfbf00;" x="1911.98685" xlink:href="#mce6c47b600" y="1765.621573"/>
     <use style="fill:#bfbf00;stroke:#bfbf00;" x="834.309255" xlink:href="#mce6c47b600" y="391.423658"/>
     <use style="fill:#bfbf00;stroke:#bfbf00;" x="904.459638" xlink:href="#mce6c47b600" y="124.761468"/>
     <use style="fill:#bfbf00;stroke:#bfbf00;" x="999.340474" xlink:href="#mce6c47b600" y="119.062849"/>
     <use style="fill:#bfbf00;stroke:#bfbf00;" x="841.927661" xlink:href="#mce6c47b600" y="401.337737"/>
     <use style="fill:#bfbf00;stroke:#bfbf00;" x="1309.075939" xlink:href="#mce6c47b600" y="594.563513"/>
     <use style="fill:#bfbf00;stroke:#bfbf00;" x="353.867289" xlink:href="#mce6c47b600" y="343.195427"/>
     <use style="fill:#bfbf00;stroke:#bfbf00;" x="990.319395" xlink:href="#mce6c47b600" y="113.546226"/>
     <use style="fill:#bfbf00;stroke:#bfbf00;" x="1127.173831" xlink:href="#mce6c47b600" y="354.31603"/>
     <use style="fill:#bfbf00;stroke:#bfbf00;" x="307.527567" xlink:href="#mce6c47b600" y="-1"/>
     <use style="fill:#bfbf00;stroke:#bfbf00;" x="567.235417" xlink:href="#mce6c47b600" y="-1"/>
     <use style="fill:#bfbf00;stroke:#bfbf00;" x="909.971864" xlink:href="#mce6c47b600" y="123.556074"/>
     <use style="fill:#bfbf00;stroke:#bfbf00;" x="867.657995" xlink:href="#mce6c47b600" y="535.439226"/>
     <use style="fill:#bfbf00;stroke:#bfbf00;" x="808.178109" xlink:href="#mce6c47b600" y="108.080558"/>
     <use style="fill:#bfbf00;stroke:#bfbf00;" x="945.869928" xlink:href="#mce6c47b600" y="102.789057"/>
     <use style="fill:#bfbf00;stroke:#bfbf00;" x="1150.42566" xlink:href="#mce6c47b600" y="372.922234"/>
     <use style="fill:#bfbf00;stroke:#bfbf00;" x="1062.492547" xlink:href="#mce6c47b600" y="244.98379"/>
     <use style="fill:#bfbf00;stroke:#bfbf00;" x="1041.191955" xlink:href="#mce6c47b600" y="299.544766"/>
     <use style="fill:#bfbf00;stroke:#bfbf00;" x="650.082042" xlink:href="#mce6c47b600" y="265.629585"/>
     <use style="fill:#bfbf00;stroke:#bfbf00;" x="812.815168" xlink:href="#mce6c47b600" y="112.569055"/>
     <use style="fill:#bfbf00;stroke:#bfbf00;" x="561.691592" xlink:href="#mce6c47b600" y="-1"/>
     <use style="fill:#bfbf00;stroke:#bfbf00;" x="247.504732" xlink:href="#mce6c47b600" y="-1"/>
     <use style="fill:#bfbf00;stroke:#bfbf00;" x="807.246618" xlink:href="#mce6c47b600" y="324.304596"/>
     <use style="fill:#bfbf00;stroke:#bfbf00;" x="829.392501" xlink:href="#mce6c47b600" y="458.19246"/>
     <use style="fill:#bfbf00;stroke:#bfbf00;" x="454.324738" xlink:href="#mce6c47b600" y="451.499401"/>
     <use style="fill:#bfbf00;stroke:#bfbf00;" x="809.153965" xlink:href="#mce6c47b600" y="118.943674"/>
     <use style="fill:#bfbf00;stroke:#bfbf00;" x="439.526146" xlink:href="#mce6c47b600" y="435.377753"/>
     <use style="fill:#bfbf00;stroke:#bfbf00;" x="-1" xlink:href="#mce6c47b600" y="138.236526"/>
     <use style="fill:#bfbf00;stroke:#bfbf00;" x="-1" xlink:href="#mce6c47b600" y="87.971745"/>
     <use style="fill:#bfbf00;stroke:#bfbf00;" x="549.199567" xlink:href="#mce6c47b600" y="432.878125"/>
     <use style="fill:#bfbf00;stroke:#bfbf00;" x="552.288978" xlink:href="#mce6c47b600" y="271.215156"/>
     <use style="fill:#bfbf00;stroke:#bfbf00;" x="839.603919" xlink:href="#mce6c47b600" y="247.77925"/>
     <use style="fill:#bfbf00;stroke:#bfbf00;" x="-1" xlink:href="#mce6c47b600" y="454.770633"/>
     <use style="fill:#bfbf00;stroke:#bfbf00;" x="-1" xlink:href="#mce6c47b600" y="324.863282"/>
     <use style="fill:#bfbf00;stroke:#bfbf00;" x="358.520549" xlink:href="#mce6c47b600" y="119.434928"/>
     <use style="fill:#bfbf00;stroke:#bfbf00;" x="991.286003" xlink:href="#mce6c47b600" y="256.75227"/>
     <use style="fill:#bfbf00;stroke:#bfbf00;" x="835.334536" xlink:href="#mce6c47b600" y="248.127919"/>
     <use style="fill:#bfbf00;stroke:#bfbf00;" x="802.325565" xlink:href="#mce6c47b600" y="102.91518"/>
     <use style="fill:#bfbf00;stroke:#bfbf00;" x="1103.45032" xlink:href="#mce6c47b600" y="209.700312"/>
     <use style="fill:#bfbf00;stroke:#bfbf00;" x="1011.188337" xlink:href="#mce6c47b600" y="187.32855"/>
     <use style="fill:#bfbf00;stroke:#bfbf00;" x="805.717426" xlink:href="#mce6c47b600" y="289.922474"/>
     <use style="fill:#bfbf00;stroke:#bfbf00;" x="989.799851" xlink:href="#mce6c47b600" y="174.386205"/>
     <use style="fill:#bfbf00;stroke:#bfbf00;" x="735.4635" xlink:href="#mce6c47b600" y="403.601274"/>
     <use style="fill:#bfbf00;stroke:#bfbf00;" x="745.221343" xlink:href="#mce6c47b600" y="84.935577"/>
     <use style="fill:#bfbf00;stroke:#bfbf00;" x="961.1685" xlink:href="#mce6c47b600" y="109.840066"/>
     <use style="fill:#bfbf00;stroke:#bfbf00;" x="987.361211" xlink:href="#mce6c47b600" y="276.26188"/>
     <use style="fill:#bfbf00;stroke:#bfbf00;" x="909.971864" xlink:href="#mce6c47b600" y="123.556074"/>
     <use style="fill:#bfbf00;stroke:#bfbf00;" x="1000.130403" xlink:href="#mce6c47b600" y="165.411069"/>
     <use style="fill:#bfbf00;stroke:#bfbf00;" x="1114.025017" xlink:href="#mce6c47b600" y="111.342589"/>
     <use style="fill:#bfbf00;stroke:#bfbf00;" x="941.947885" xlink:href="#mce6c47b600" y="244.920553"/>
     <use style="fill:#bfbf00;stroke:#bfbf00;" x="533.594427" xlink:href="#mce6c47b600" y="432.645518"/>
     <use style="fill:#bfbf00;stroke:#bfbf00;" x="809.262721" xlink:href="#mce6c47b600" y="106.660228"/>
     <use style="fill:#bfbf00;stroke:#bfbf00;" x="-1" xlink:href="#mce6c47b600" y="455.171383"/>
     <use style="fill:#bfbf00;stroke:#bfbf00;" x="-1" xlink:href="#mce6c47b600" y="474.633691"/>
     <use style="fill:#bfbf00;stroke:#bfbf00;" x="899.904161" xlink:href="#mce6c47b600" y="136.038992"/>
     <use style="fill:#bfbf00;stroke:#bfbf00;" x="988.242169" xlink:href="#mce6c47b600" y="377.095074"/>
     <use style="fill:#bfbf00;stroke:#bfbf00;" x="1655.356225" xlink:href="#mce6c47b600" y="1545.426162"/>
     <use style="fill:#bfbf00;stroke:#bfbf00;" x="668.912416" xlink:href="#mce6c47b600" y="288.12716"/>
     <use style="fill:#bfbf00;stroke:#bfbf00;" x="658.127666" xlink:href="#mce6c47b600" y="277.638139"/>
     <use style="fill:#bfbf00;stroke:#bfbf00;" x="992.194587" xlink:href="#mce6c47b600" y="275.432456"/>
     <use style="fill:#bfbf00;stroke:#bfbf00;" x="860.031008" xlink:href="#mce6c47b600" y="224.934453"/>
     <use style="fill:#bfbf00;stroke:#bfbf00;" x="1142.930151" xlink:href="#mce6c47b600" y="97.774059"/>
     <use style="fill:#bfbf00;stroke:#bfbf00;" x="826.031835" xlink:href="#mce6c47b600" y="-1"/>
     <use style="fill:#bfbf00;stroke:#bfbf00;" x="166.268141" xlink:href="#mce6c47b600" y="-1"/>
     <use style="fill:#bfbf00;stroke:#bfbf00;" x="346.22882" xlink:href="#mce6c47b600" y="84.83419"/>
    </g>
   </g>
   <g id="line2d_17">
    <defs>
     <path d="M 0 1.5 
C 0.397805 1.5 0.77937 1.341951 1.06066 1.06066 
C 1.341951 0.77937 1.5 0.397805 1.5 0 
C 1.5 -0.397805 1.341951 -0.77937 1.06066 -1.06066 
C 0.77937 -1.341951 0.397805 -1.5 0 -1.5 
C -0.397805 -1.5 -0.77937 -1.341951 -1.06066 -1.06066 
C -1.341951 -0.77937 -1.5 -0.397805 -1.5 0 
C -1.5 0.397805 -1.341951 0.77937 -1.06066 1.06066 
C -0.77937 1.341951 -0.397805 1.5 0 1.5 
z
" id="m4bbcde2ada" style="stroke:#008000;"/>
    </defs>
    <g clip-path="url(#p8a739c2d51)">
     <use style="fill:#008000;stroke:#008000;" x="950.287941" xlink:href="#m4bbcde2ada" y="-1"/>
     <use style="fill:#008000;stroke:#008000;" x="1082.298104" xlink:href="#m4bbcde2ada" y="34.906406"/>
     <use style="fill:#008000;stroke:#008000;" x="943.14286" xlink:href="#m4bbcde2ada" y="-1"/>
     <use style="fill:#008000;stroke:#008000;" x="602.112261" xlink:href="#m4bbcde2ada" y="-1"/>
     <use style="fill:#008000;stroke:#008000;" x="939.917641" xlink:href="#m4bbcde2ada" y="144.865855"/>
     <use style="fill:#008000;stroke:#008000;" x="542.580151" xlink:href="#m4bbcde2ada" y="-1"/>
     <use style="fill:#008000;stroke:#008000;" x="-1" xlink:href="#m4bbcde2ada" y="375.514586"/>
     <use style="fill:#008000;stroke:#008000;" x="1611.49746" xlink:href="#m4bbcde2ada" y="1842.03488"/>
     <use style="fill:#008000;stroke:#008000;" x="-1" xlink:href="#m4bbcde2ada" y="339.270004"/>
     <use style="fill:#008000;stroke:#008000;" x="-1" xlink:href="#m4bbcde2ada" y="98.295749"/>
     <use style="fill:#008000;stroke:#008000;" x="359.790625" xlink:href="#m4bbcde2ada" y="354.218672"/>
     <use style="fill:#008000;stroke:#008000;" x="1078.071844" xlink:href="#m4bbcde2ada" y="289.852834"/>
     <use style="fill:#008000;stroke:#008000;" x="368.886287" xlink:href="#m4bbcde2ada" y="-1"/>
     <use style="fill:#008000;stroke:#008000;" x="36.192638" xlink:href="#m4bbcde2ada" y="-1"/>
     <use style="fill:#008000;stroke:#008000;" x="756.350586" xlink:href="#m4bbcde2ada" y="397.008264"/>
     <use style="fill:#008000;stroke:#008000;" x="34.55288" xlink:href="#m4bbcde2ada" y="-1"/>
     <use style="fill:#008000;stroke:#008000;" x="442.119848" xlink:href="#m4bbcde2ada" y="-1"/>
     <use style="fill:#008000;stroke:#008000;" x="1036.891012" xlink:href="#m4bbcde2ada" y="236.056439"/>
     <use style="fill:#008000;stroke:#008000;" x="1132.597926" xlink:href="#m4bbcde2ada" y="404.79993"/>
     <use style="fill:#008000;stroke:#008000;" x="1087.94189" xlink:href="#m4bbcde2ada" y="208.650164"/>
     <use style="fill:#008000;stroke:#008000;" x="1056.315723" xlink:href="#m4bbcde2ada" y="-1"/>
     <use style="fill:#008000;stroke:#008000;" x="881.123631" xlink:href="#m4bbcde2ada" y="-1"/>
     <use style="fill:#008000;stroke:#008000;" x="884.924963" xlink:href="#m4bbcde2ada" y="191.615398"/>
     <use style="fill:#008000;stroke:#008000;" x="841.014382" xlink:href="#m4bbcde2ada" y="379.631979"/>
     <use style="fill:#008000;stroke:#008000;" x="1042.276329" xlink:href="#m4bbcde2ada" y="123.097587"/>
     <use style="fill:#008000;stroke:#008000;" x="671.844291" xlink:href="#m4bbcde2ada" y="-1"/>
     <use style="fill:#008000;stroke:#008000;" x="663.001023" xlink:href="#m4bbcde2ada" y="-1"/>
     <use style="fill:#008000;stroke:#008000;" x="1146.646545" xlink:href="#m4bbcde2ada" y="150.272987"/>
     <use style="fill:#008000;stroke:#008000;" x="791.471803" xlink:href="#m4bbcde2ada" y="-1"/>
     <use style="fill:#008000;stroke:#008000;" x="320.432307" xlink:href="#m4bbcde2ada" y="-1"/>
     <use style="fill:#008000;stroke:#008000;" x="988.230253" xlink:href="#m4bbcde2ada" y="408.119824"/>
     <use style="fill:#008000;stroke:#008000;" x="1004.02677" xlink:href="#m4bbcde2ada" y="163.611341"/>
     <use style="fill:#008000;stroke:#008000;" x="779.758192" xlink:href="#m4bbcde2ada" y="422.924169"/>
     <use style="fill:#008000;stroke:#008000;" x="1128.983309" xlink:href="#m4bbcde2ada" y="136.16084"/>
     <use style="fill:#008000;stroke:#008000;" x="1179.69163" xlink:href="#m4bbcde2ada" y="405.270404"/>
     <use style="fill:#008000;stroke:#008000;" x="1494.405748" xlink:href="#m4bbcde2ada" y="2087.808676"/>
     <use style="fill:#008000;stroke:#008000;" x="361.171645" xlink:href="#m4bbcde2ada" y="351.714958"/>
     <use style="fill:#008000;stroke:#008000;" x="839.500731" xlink:href="#m4bbcde2ada" y="392.043174"/>
     <use style="fill:#008000;stroke:#008000;" x="1167.0822" xlink:href="#m4bbcde2ada" y="109.332632"/>
     <use style="fill:#008000;stroke:#008000;" x="1011.242168" xlink:href="#m4bbcde2ada" y="138.43224"/>
     <use style="fill:#008000;stroke:#008000;" x="635.872867" xlink:href="#m4bbcde2ada" y="-1"/>
     <use style="fill:#008000;stroke:#008000;" x="-1" xlink:href="#m4bbcde2ada" y="93.829054"/>
     <use style="fill:#008000;stroke:#008000;" x="362.773637" xlink:href="#m4bbcde2ada" y="357.267661"/>
     <use style="fill:#008000;stroke:#008000;" x="1911.233862" xlink:href="#m4bbcde2ada" y="1769.355426"/>
     <use style="fill:#008000;stroke:#008000;" x="477.239755" xlink:href="#m4bbcde2ada" y="48.241717"/>
     <use style="fill:#008000;stroke:#008000;" x="1595.20891" xlink:href="#m4bbcde2ada" y="3083.518224"/>
     <use style="fill:#008000;stroke:#008000;" x="-1" xlink:href="#m4bbcde2ada" y="846.200403"/>
     <use style="fill:#008000;stroke:#008000;" x="360.435748" xlink:href="#m4bbcde2ada" y="-1"/>
     <use style="fill:#008000;stroke:#008000;" x="817.89857" xlink:href="#m4bbcde2ada" y="334.323591"/>
     <use style="fill:#008000;stroke:#008000;" x="268.911319" xlink:href="#m4bbcde2ada" y="-1"/>
     <use style="fill:#008000;stroke:#008000;" x="66.16453" xlink:href="#m4bbcde2ada" y="-1"/>
     <use style="fill:#008000;stroke:#008000;" x="816.505299" xlink:href="#m4bbcde2ada" y="384.361485"/>
     <use style="fill:#008000;stroke:#008000;" x="359.790625" xlink:href="#m4bbcde2ada" y="342.462984"/>
     <use style="fill:#008000;stroke:#008000;" x="-1" xlink:href="#m4bbcde2ada" y="445.373787"/>
     <use style="fill:#008000;stroke:#008000;" x="-1" xlink:href="#m4bbcde2ada" y="159.106866"/>
     <use style="fill:#008000;stroke:#008000;" x="162.926826" xlink:href="#m4bbcde2ada" y="-1"/>
     <use style="fill:#008000;stroke:#008000;" x="-1" xlink:href="#m4bbcde2ada" y="104.605922"/>
     <use style="fill:#008000;stroke:#008000;" x="1730.934377" xlink:href="#m4bbcde2ada" y="1678.007582"/>
     <use style="fill:#008000;stroke:#008000;" x="-1" xlink:href="#m4bbcde2ada" y="1851.268007"/>
     <use style="fill:#008000;stroke:#008000;" x="58.970115" xlink:href="#m4bbcde2ada" y="-1"/>
     <use style="fill:#008000;stroke:#008000;" x="835.147813" xlink:href="#m4bbcde2ada" y="400.222215"/>
     <use style="fill:#008000;stroke:#008000;" x="779.543755" xlink:href="#m4bbcde2ada" y="365.088339"/>
     <use style="fill:#008000;stroke:#008000;" x="75.458221" xlink:href="#m4bbcde2ada" y="-1"/>
     <use style="fill:#008000;stroke:#008000;" x="372.783066" xlink:href="#m4bbcde2ada" y="-1"/>
     <use style="fill:#008000;stroke:#008000;" x="1528.398256" xlink:href="#m4bbcde2ada" y="474.171314"/>
     <use style="fill:#008000;stroke:#008000;" x="1809.901392" xlink:href="#m4bbcde2ada" y="1383.740214"/>
     <use style="fill:#008000;stroke:#008000;" x="1558.79698" xlink:href="#m4bbcde2ada" y="-1"/>
     <use style="fill:#008000;stroke:#008000;" x="394.068226" xlink:href="#m4bbcde2ada" y="-1"/>
     <use style="fill:#008000;stroke:#008000;" x="-1" xlink:href="#m4bbcde2ada" y="477.10388"/>
     <use style="fill:#008000;stroke:#008000;" x="-1" xlink:href="#m4bbcde2ada" y="1101.940096"/>
     <use style="fill:#008000;stroke:#008000;" x="1479.48567" xlink:href="#m4bbcde2ada" y="868.98996"/>
     <use style="fill:#008000;stroke:#008000;" x="-1" xlink:href="#m4bbcde2ada" y="1478.626659"/>
     <use style="fill:#008000;stroke:#008000;" x="-1" xlink:href="#m4bbcde2ada" y="1005.822195"/>
     <use style="fill:#008000;stroke:#008000;" x="1176.309674" xlink:href="#m4bbcde2ada" y="14.785779"/>
     <use style="fill:#008000;stroke:#008000;" x="1169.334722" xlink:href="#m4bbcde2ada" y="-1"/>
     <use style="fill:#008000;stroke:#008000;" x="-1" xlink:href="#m4bbcde2ada" y="136.61344"/>
     <use style="fill:#008000;stroke:#008000;" x="674.344986" xlink:href="#m4bbcde2ada" y="620.8433"/>
     <use style="fill:#008000;stroke:#008000;" x="474.19737" xlink:href="#m4bbcde2ada" y="41.860048"/>
     <use style="fill:#008000;stroke:#008000;" x="1039.130311" xlink:href="#m4bbcde2ada" y="298.323825"/>
     <use style="fill:#008000;stroke:#008000;" x="345.124583" xlink:href="#m4bbcde2ada" y="183.416103"/>
     <use style="fill:#008000;stroke:#008000;" x="1052.621451" xlink:href="#m4bbcde2ada" y="175.364848"/>
     <use style="fill:#008000;stroke:#008000;" x="1100.141337" xlink:href="#m4bbcde2ada" y="135.113894"/>
     <use style="fill:#008000;stroke:#008000;" x="1073.016458" xlink:href="#m4bbcde2ada" y="187.341226"/>
     <use style="fill:#008000;stroke:#008000;" x="740.419784" xlink:href="#m4bbcde2ada" y="69.309217"/>
     <use style="fill:#008000;stroke:#008000;" x="1027.659187" xlink:href="#m4bbcde2ada" y="142.550947"/>
     <use style="fill:#008000;stroke:#008000;" x="834.309255" xlink:href="#m4bbcde2ada" y="391.423658"/>
     <use style="fill:#008000;stroke:#008000;" x="1108.330816" xlink:href="#m4bbcde2ada" y="264.800208"/>
     <use style="fill:#008000;stroke:#008000;" x="520.420951" xlink:href="#m4bbcde2ada" y="-1"/>
     <use style="fill:#008000;stroke:#008000;" x="517.049337" xlink:href="#m4bbcde2ada" y="-1"/>
     <use style="fill:#008000;stroke:#008000;" x="1122.874788" xlink:href="#m4bbcde2ada" y="301.792561"/>
     <use style="fill:#008000;stroke:#008000;" x="1143.544488" xlink:href="#m4bbcde2ada" y="98.608664"/>
    </g>
   </g>
   <g id="line2d_18">
    <defs>
     <path d="M 0 1.5 
C 0.397805 1.5 0.77937 1.341951 1.06066 1.06066 
C 1.341951 0.77937 1.5 0.397805 1.5 0 
C 1.5 -0.397805 1.341951 -0.77937 1.06066 -1.06066 
C 0.77937 -1.341951 0.397805 -1.5 0 -1.5 
C -0.397805 -1.5 -0.77937 -1.341951 -1.06066 -1.06066 
C -1.341951 -0.77937 -1.5 -0.397805 -1.5 0 
C -1.5 0.397805 -1.341951 0.77937 -1.06066 1.06066 
C -0.77937 1.341951 -0.397805 1.5 0 1.5 
z
" id="m0ec3cb8c31" style="stroke:#0000ff;"/>
    </defs>
    <g clip-path="url(#p8a739c2d51)">
     <use style="fill:#0000ff;stroke:#0000ff;" x="966.232881" xlink:href="#m0ec3cb8c31" y="197.370861"/>
     <use style="fill:#0000ff;stroke:#0000ff;" x="941.602134" xlink:href="#m0ec3cb8c31" y="428.974184"/>
     <use style="fill:#0000ff;stroke:#0000ff;" x="95.512738" xlink:href="#m0ec3cb8c31" y="-1"/>
     <use style="fill:#0000ff;stroke:#0000ff;" x="105.532951" xlink:href="#m0ec3cb8c31" y="-1"/>
     <use style="fill:#0000ff;stroke:#0000ff;" x="865.690101" xlink:href="#m0ec3cb8c31" y="455.547399"/>
     <use style="fill:#0000ff;stroke:#0000ff;" x="1179.69163" xlink:href="#m0ec3cb8c31" y="405.270404"/>
     <use style="fill:#0000ff;stroke:#0000ff;" x="904.459638" xlink:href="#m0ec3cb8c31" y="124.761468"/>
     <use style="fill:#0000ff;stroke:#0000ff;" x="894.113351" xlink:href="#m0ec3cb8c31" y="238.756972"/>
     <use style="fill:#0000ff;stroke:#0000ff;" x="1043.882854" xlink:href="#m0ec3cb8c31" y="288.853055"/>
     <use style="fill:#0000ff;stroke:#0000ff;" x="1984.941512" xlink:href="#m0ec3cb8c31" y="1484.527529"/>
     <use style="fill:#0000ff;stroke:#0000ff;" x="890.216328" xlink:href="#m0ec3cb8c31" y="126.288677"/>
     <use style="fill:#0000ff;stroke:#0000ff;" x="362.773637" xlink:href="#m0ec3cb8c31" y="357.267661"/>
     <use style="fill:#0000ff;stroke:#0000ff;" x="1230.052048" xlink:href="#m0ec3cb8c31" y="832.220436"/>
     <use style="fill:#0000ff;stroke:#0000ff;" x="-1" xlink:href="#m0ec3cb8c31" y="53.78272"/>
     <use style="fill:#0000ff;stroke:#0000ff;" x="-1" xlink:href="#m0ec3cb8c31" y="107.812969"/>
     <use style="fill:#0000ff;stroke:#0000ff;" x="358.408617" xlink:href="#m0ec3cb8c31" y="353.455348"/>
     <use style="fill:#0000ff;stroke:#0000ff;" x="-1" xlink:href="#m0ec3cb8c31" y="105.29176"/>
     <use style="fill:#0000ff;stroke:#0000ff;" x="68.171518" xlink:href="#m0ec3cb8c31" y="-1"/>
     <use style="fill:#0000ff;stroke:#0000ff;" x="836.481774" xlink:href="#m0ec3cb8c31" y="392.880621"/>
     <use style="fill:#0000ff;stroke:#0000ff;" x="903.689883" xlink:href="#m0ec3cb8c31" y="101.908459"/>
     <use style="fill:#0000ff;stroke:#0000ff;" x="947.296952" xlink:href="#m0ec3cb8c31" y="305.163959"/>
     <use style="fill:#0000ff;stroke:#0000ff;" x="793.500059" xlink:href="#m0ec3cb8c31" y="245.574616"/>
     <use style="fill:#0000ff;stroke:#0000ff;" x="320.087575" xlink:href="#m0ec3cb8c31" y="-1"/>
     <use style="fill:#0000ff;stroke:#0000ff;" x="-1" xlink:href="#m0ec3cb8c31" y="34.762642"/>
     <use style="fill:#0000ff;stroke:#0000ff;" x="2180.609315" xlink:href="#m0ec3cb8c31" y="1375.072842"/>
     <use style="fill:#0000ff;stroke:#0000ff;" x="-1" xlink:href="#m0ec3cb8c31" y="1831.717062"/>
     <use style="fill:#0000ff;stroke:#0000ff;" x="-1" xlink:href="#m0ec3cb8c31" y="1013.179952"/>
     <use style="fill:#0000ff;stroke:#0000ff;" x="1087.172953" xlink:href="#m0ec3cb8c31" y="666.433188"/>
     <use style="fill:#0000ff;stroke:#0000ff;" x="789.956765" xlink:href="#m0ec3cb8c31" y="718.780672"/>
    </g>
   </g>
   <g id="line2d_19">
    <defs>
     <path d="M 0 1.5 
C 0.397805 1.5 0.77937 1.341951 1.06066 1.06066 
C 1.341951 0.77937 1.5 0.397805 1.5 0 
C 1.5 -0.397805 1.341951 -0.77937 1.06066 -1.06066 
C 0.77937 -1.341951 0.397805 -1.5 0 -1.5 
C -0.397805 -1.5 -0.77937 -1.341951 -1.06066 -1.06066 
C -1.341951 -0.77937 -1.5 -0.397805 -1.5 0 
C -1.5 0.397805 -1.341951 0.77937 -1.06066 1.06066 
C -0.77937 1.341951 -0.397805 1.5 0 1.5 
z
" id="me4bf695826" style="stroke:#00bfbf;"/>
    </defs>
    <g clip-path="url(#p8a739c2d51)">
     <use style="fill:#00bfbf;stroke:#00bfbf;" x="1068.925941" xlink:href="#me4bf695826" y="268.035508"/>
     <use style="fill:#00bfbf;stroke:#00bfbf;" x="1000.386575" xlink:href="#me4bf695826" y="297.374761"/>
     <use style="fill:#00bfbf;stroke:#00bfbf;" x="1463.264357" xlink:href="#me4bf695826" y="878.206844"/>
     <use style="fill:#00bfbf;stroke:#00bfbf;" x="573.585489" xlink:href="#me4bf695826" y="451.195723"/>
     <use style="fill:#00bfbf;stroke:#00bfbf;" x="2324.680596" xlink:href="#me4bf695826" y="1235.712855"/>
     <use style="fill:#00bfbf;stroke:#00bfbf;" x="943.013206" xlink:href="#me4bf695826" y="297.427426"/>
     <use style="fill:#00bfbf;stroke:#00bfbf;" x="2223.126579" xlink:href="#me4bf695826" y="1315.451584"/>
     <use style="fill:#00bfbf;stroke:#00bfbf;" x="-1" xlink:href="#me4bf695826" y="1661.513842"/>
     <use style="fill:#00bfbf;stroke:#00bfbf;" x="-1" xlink:href="#me4bf695826" y="963.788979"/>
     <use style="fill:#00bfbf;stroke:#00bfbf;" x="547.674951" xlink:href="#me4bf695826" y="433.123751"/>
    </g>
   </g>
   <g id="line2d_20">
    <defs>
     <path d="M 0 1.5 
C 0.397805 1.5 0.77937 1.341951 1.06066 1.06066 
C 1.341951 0.77937 1.5 0.397805 1.5 0 
C 1.5 -0.397805 1.341951 -0.77937 1.06066 -1.06066 
C 0.77937 -1.341951 0.397805 -1.5 0 -1.5 
C -0.397805 -1.5 -0.77937 -1.341951 -1.06066 -1.06066 
C -1.341951 -0.77937 -1.5 -0.397805 -1.5 0 
C -1.5 0.397805 -1.341951 0.77937 -1.06066 1.06066 
C -0.77937 1.341951 -0.397805 1.5 0 1.5 
z
" id="mc380a24638" style="stroke:#bf00bf;"/>
    </defs>
    <g clip-path="url(#p8a739c2d51)">
     <use style="fill:#bf00bf;stroke:#bf00bf;" x="364.269147" xlink:href="#mc380a24638" y="358.203156"/>
    </g>
   </g>
   <g id="line2d_21">
    <g clip-path="url(#p8a739c2d51)">
     <use style="fill:#bf00bf;stroke:#bf00bf;" x="346.539108" xlink:href="#mc380a24638" y="350.676191"/>
     <use style="fill:#bf00bf;stroke:#bf00bf;" x="361.244681" xlink:href="#mc380a24638" y="340.591518"/>
     <use style="fill:#bf00bf;stroke:#bf00bf;" x="1142.916229" xlink:href="#mc380a24638" y="220.648184"/>
     <use style="fill:#bf00bf;stroke:#bf00bf;" x="361.276899" xlink:href="#mc380a24638" y="357.253205"/>
    </g>
   </g>
   <g id="line2d_22"/>
   <g id="patch_3">
    <path d="M 359.790625 26.039062 
C 316.908882 26.039062 274.44411 34.485831 234.826546 50.895963 
C 195.208982 67.306096 159.209086 91.360457 128.887115 121.682428 
C 98.565144 152.004399 74.510783 188.004294 58.100651 227.621859 
C 41.690518 267.239423 33.24375 309.704195 33.24375 352.585938 
C 33.24375 395.46768 41.690518 437.932452 58.100651 477.550016 
C 74.510783 517.167581 98.565144 553.167476 128.887115 583.489447 
C 159.209086 613.811418 195.208982 637.865779 234.826546 654.275912 
C 274.44411 670.686044 316.908882 679.132812 359.790625 679.132812 
C 402.672368 679.132812 445.13714 670.686044 484.754704 654.275912 
C 524.372268 637.865779 560.372164 613.811418 590.694135 583.489447 
C 621.016106 553.167476 645.070467 517.167581 661.480599 477.550016 
C 677.890732 437.932452 686.3375 395.46768 686.3375 352.585938 
C 686.3375 309.704195 677.890732 267.239423 661.480599 227.621859 
C 645.070467 188.004294 621.016106 152.004399 590.694135 121.682428 
C 560.372164 91.360457 524.372268 67.306096 484.754704 50.895963 
C 445.13714 34.485831 402.672368 26.039062 359.790625 26.039062 
" style="fill:none;stroke:#000000;stroke-linecap:square;stroke-linejoin:miter;stroke-width:0.8;"/>
   </g>
  </g>
 </g>
 <defs>
  <clipPath id="p8a739c2d51">
   <path d="M 686.3375 352.585938 
C 686.3375 309.704195 677.890732 267.239423 661.480599 227.621859 
C 645.070467 188.004294 621.016106 152.004399 590.694135 121.682428 
C 560.372164 91.360457 524.372268 67.306096 484.754704 50.895963 
C 445.13714 34.485831 402.672368 26.039062 359.790625 26.039062 
C 316.908882 26.039062 274.44411 34.485831 234.826546 50.895963 
C 195.208982 67.306096 159.209086 91.360457 128.887115 121.682428 
C 98.565144 152.004399 74.510783 188.004294 58.100651 227.621859 
C 41.690518 267.239423 33.24375 309.704195 33.24375 352.585937 
C 33.24375 395.46768 41.690518 437.932452 58.100651 477.550016 
C 74.510783 517.167581 98.565144 553.167476 128.887115 583.489447 
C 159.209086 613.811418 195.208982 637.865779 234.826546 654.275912 
C 274.44411 670.686044 316.908882 679.132812 359.790625 679.132812 
C 402.672368 679.132812 445.13714 670.686044 484.754704 654.275912 
C 524.372268 637.865779 560.372164 613.811418 590.694135 583.489447 
C 621.016106 553.167476 645.070467 517.167581 661.480599 477.550016 
C 677.890732 437.932452 686.3375 395.46768 686.3375 352.585938 
M 359.790625 352.585938 
C 359.790625 352.585938 359.790625 352.585938 359.790625 352.585938 
C 359.790625 352.585938 359.790625 352.585938 359.790625 352.585938 
C 359.790625 352.585938 359.790625 352.585938 359.790625 352.585938 
C 359.790625 352.585938 359.790625 352.585938 359.790625 352.585938 
C 359.790625 352.585938 359.790625 352.585938 359.790625 352.585938 
C 359.790625 352.585938 359.790625 352.585938 359.790625 352.585938 
C 359.790625 352.585938 359.790625 352.585938 359.790625 352.585938 
C 359.790625 352.585938 359.790625 352.585938 359.790625 352.585938 
C 359.790625 352.585938 359.790625 352.585938 359.790625 352.585938 
C 359.790625 352.585938 359.790625 352.585938 359.790625 352.585938 
C 359.790625 352.585938 359.790625 352.585938 359.790625 352.585938 
C 359.790625 352.585938 359.790625 352.585938 359.790625 352.585938 
C 359.790625 352.585938 359.790625 352.585938 359.790625 352.585938 
C 359.790625 352.585938 359.790625 352.585938 359.790625 352.585938 
C 359.790625 352.585938 359.790625 352.585938 359.790625 352.585938 
C 359.790625 352.585938 359.790625 352.585938 359.790625 352.585938 
M 686.3375 352.585938 
z
"/>
  </clipPath>
 </defs>
</svg>
