<?xml version="1.0" encoding="utf-8" standalone="no"?>
<!DOCTYPE svg PUBLIC "-//W3C//DTD SVG 1.1//EN"
  "http://www.w3.org/Graphics/SVG/1.1/DTD/svg11.dtd">
<!-- Created with matplotlib (https://matplotlib.org/) -->
<svg height="705.171875pt" version="1.1" viewBox="0 0 716.4 705.171875" width="716.4pt" xmlns="http://www.w3.org/2000/svg" xmlns:xlink="http://www.w3.org/1999/xlink">
 <defs>
  <style type="text/css">
*{stroke-linecap:butt;stroke-linejoin:round;}
  </style>
 </defs>
 <g id="figure_1">
  <g id="patch_1">
   <path d="M -0 705.171875 
L 716.4 705.171875 
L 716.4 0 
L -0 0 
z
" style="fill:#ffffff;"/>
  </g>
  <g id="axes_1">
   <g id="patch_2">
    <path d="M 686.3375 352.585938 
C 686.3375 309.704195 677.890732 267.239423 661.480599 227.621859 
C 645.070467 188.004294 621.016106 152.004399 590.694135 121.682428 
C 560.372164 91.360457 524.372268 67.306096 484.754704 50.895963 
C 445.13714 34.485831 402.672368 26.039062 359.790625 26.039062 
C 316.908882 26.039062 274.44411 34.485831 234.826546 50.895963 
C 195.208982 67.306096 159.209086 91.360457 128.887115 121.682428 
C 98.565144 152.004399 74.510783 188.004294 58.100651 227.621859 
C 41.690518 267.239423 33.24375 309.704195 33.24375 352.585937 
C 33.24375 395.46768 41.690518 437.932452 58.100651 477.550016 
C 74.510783 517.167581 98.565144 553.167476 128.887115 583.489447 
C 159.209086 613.811418 195.208982 637.865779 234.826546 654.275912 
C 274.44411 670.686044 316.908882 679.132812 359.790625 679.132812 
C 402.672368 679.132812 445.13714 670.686044 484.754704 654.275912 
C 524.372268 637.865779 560.372164 613.811418 590.694135 583.489447 
C 621.016106 553.167476 645.070467 517.167581 661.480599 477.550016 
C 677.890732 437.932452 686.3375 395.46768 686.3375 352.585938 
M 359.790625 352.585938 
C 359.790625 352.585938 359.790625 352.585938 359.790625 352.585938 
C 359.790625 352.585938 359.790625 352.585938 359.790625 352.585938 
C 359.790625 352.585938 359.790625 352.585938 359.790625 352.585938 
C 359.790625 352.585938 359.790625 352.585938 359.790625 352.585938 
C 359.790625 352.585938 359.790625 352.585938 359.790625 352.585938 
C 359.790625 352.585938 359.790625 352.585938 359.790625 352.585938 
C 359.790625 352.585938 359.790625 352.585938 359.790625 352.585938 
C 359.790625 352.585938 359.790625 352.585938 359.790625 352.585938 
C 359.790625 352.585938 359.790625 352.585938 359.790625 352.585938 
C 359.790625 352.585938 359.790625 352.585938 359.790625 352.585938 
C 359.790625 352.585938 359.790625 352.585938 359.790625 352.585938 
C 359.790625 352.585938 359.790625 352.585938 359.790625 352.585938 
C 359.790625 352.585938 359.790625 352.585938 359.790625 352.585938 
C 359.790625 352.585938 359.790625 352.585938 359.790625 352.585938 
C 359.790625 352.585938 359.790625 352.585938 359.790625 352.585938 
C 359.790625 352.585938 359.790625 352.585938 359.790625 352.585938 
M 686.3375 352.585938 
z
" style="fill:#ffffff;"/>
   </g>
   <g id="matplotlib.axis_1">
    <g id="xtick_1">
     <g id="line2d_1">
      <path clip-path="url(#p39979fa592)" d="M 359.790625 352.585938 
L 359.790625 26.039062 
" style="fill:none;stroke:#b0b0b0;stroke-linecap:square;stroke-width:0.8;"/>
     </g>
     <g id="text_1">
      <!-- 0° -->
      <defs>
       <path d="M 31.78125 66.40625 
Q 24.171875 66.40625 20.328125 58.90625 
Q 16.5 51.421875 16.5 36.375 
Q 16.5 21.390625 20.328125 13.890625 
Q 24.171875 6.390625 31.78125 6.390625 
Q 39.453125 6.390625 43.28125 13.890625 
Q 47.125 21.390625 47.125 36.375 
Q 47.125 51.421875 43.28125 58.90625 
Q 39.453125 66.40625 31.78125 66.40625 
z
M 31.78125 74.21875 
Q 44.046875 74.21875 50.515625 64.515625 
Q 56.984375 54.828125 56.984375 36.375 
Q 56.984375 17.96875 50.515625 8.265625 
Q 44.046875 -1.421875 31.78125 -1.421875 
Q 19.53125 -1.421875 13.0625 8.265625 
Q 6.59375 17.96875 6.59375 36.375 
Q 6.59375 54.828125 13.0625 64.515625 
Q 19.53125 74.21875 31.78125 74.21875 
z
" id="DejaVuSans-48"/>
       <path d="M 25 67.921875 
Q 21.09375 67.921875 18.40625 65.203125 
Q 15.71875 62.5 15.71875 58.59375 
Q 15.71875 54.734375 18.40625 52.078125 
Q 21.09375 49.421875 25 49.421875 
Q 28.90625 49.421875 31.59375 52.078125 
Q 34.28125 54.734375 34.28125 58.59375 
Q 34.28125 62.453125 31.5625 65.1875 
Q 28.859375 67.921875 25 67.921875 
z
M 25 74.21875 
Q 28.125 74.21875 31 73.015625 
Q 33.890625 71.828125 35.984375 69.578125 
Q 38.234375 67.390625 39.359375 64.59375 
Q 40.484375 61.8125 40.484375 58.59375 
Q 40.484375 52.15625 35.96875 47.6875 
Q 31.453125 43.21875 24.90625 43.21875 
Q 18.3125 43.21875 13.90625 47.609375 
Q 9.515625 52 9.515625 58.59375 
Q 9.515625 65.140625 14 69.671875 
Q 18.5 74.21875 25 74.21875 
z
" id="DejaVuSans-176"/>
      </defs>
      <g transform="translate(354.109375 14.798437)scale(0.1 -0.1)">
       <use xlink:href="#DejaVuSans-48"/>
       <use x="63.623047" xlink:href="#DejaVuSans-176"/>
      </g>
     </g>
    </g>
    <g id="xtick_2">
     <g id="line2d_2">
      <path clip-path="url(#p39979fa592)" d="M 359.790625 352.585938 
L 590.694135 121.682428 
" style="fill:none;stroke:#b0b0b0;stroke-linecap:square;stroke-width:0.8;"/>
     </g>
     <g id="text_2">
      <!-- 45° -->
      <defs>
       <path d="M 37.796875 64.3125 
L 12.890625 25.390625 
L 37.796875 25.390625 
z
M 35.203125 72.90625 
L 47.609375 72.90625 
L 47.609375 25.390625 
L 58.015625 25.390625 
L 58.015625 17.1875 
L 47.609375 17.1875 
L 47.609375 0 
L 37.796875 0 
L 37.796875 17.1875 
L 4.890625 17.1875 
L 4.890625 26.703125 
z
" id="DejaVuSans-52"/>
       <path d="M 10.796875 72.90625 
L 49.515625 72.90625 
L 49.515625 64.59375 
L 19.828125 64.59375 
L 19.828125 46.734375 
Q 21.96875 47.46875 24.109375 47.828125 
Q 26.265625 48.1875 28.421875 48.1875 
Q 40.625 48.1875 47.75 41.5 
Q 54.890625 34.8125 54.890625 23.390625 
Q 54.890625 11.625 47.5625 5.09375 
Q 40.234375 -1.421875 26.90625 -1.421875 
Q 22.3125 -1.421875 17.546875 -0.640625 
Q 12.796875 0.140625 7.71875 1.703125 
L 7.71875 11.625 
Q 12.109375 9.234375 16.796875 8.0625 
Q 21.484375 6.890625 26.703125 6.890625 
Q 35.15625 6.890625 40.078125 11.328125 
Q 45.015625 15.765625 45.015625 23.390625 
Q 45.015625 31 40.078125 35.4375 
Q 35.15625 39.890625 26.703125 39.890625 
Q 22.75 39.890625 18.8125 39.015625 
Q 14.890625 38.140625 10.796875 36.28125 
z
" id="DejaVuSans-53"/>
      </defs>
      <g transform="translate(591.73113 114.542308)scale(0.1 -0.1)">
       <use xlink:href="#DejaVuSans-52"/>
       <use x="63.623047" xlink:href="#DejaVuSans-53"/>
       <use x="127.246094" xlink:href="#DejaVuSans-176"/>
      </g>
     </g>
    </g>
    <g id="xtick_3">
     <g id="line2d_3">
      <path clip-path="url(#p39979fa592)" d="M 359.790625 352.585938 
L 686.3375 352.585938 
" style="fill:none;stroke:#b0b0b0;stroke-linecap:square;stroke-width:0.8;"/>
     </g>
     <g id="text_3">
      <!-- 90° -->
      <defs>
       <path d="M 10.984375 1.515625 
L 10.984375 10.5 
Q 14.703125 8.734375 18.5 7.8125 
Q 22.3125 6.890625 25.984375 6.890625 
Q 35.75 6.890625 40.890625 13.453125 
Q 46.046875 20.015625 46.78125 33.40625 
Q 43.953125 29.203125 39.59375 26.953125 
Q 35.25 24.703125 29.984375 24.703125 
Q 19.046875 24.703125 12.671875 31.3125 
Q 6.296875 37.9375 6.296875 49.421875 
Q 6.296875 60.640625 12.9375 67.421875 
Q 19.578125 74.21875 30.609375 74.21875 
Q 43.265625 74.21875 49.921875 64.515625 
Q 56.59375 54.828125 56.59375 36.375 
Q 56.59375 19.140625 48.40625 8.859375 
Q 40.234375 -1.421875 26.421875 -1.421875 
Q 22.703125 -1.421875 18.890625 -0.6875 
Q 15.09375 0.046875 10.984375 1.515625 
z
M 30.609375 32.421875 
Q 37.25 32.421875 41.125 36.953125 
Q 45.015625 41.5 45.015625 49.421875 
Q 45.015625 57.28125 41.125 61.84375 
Q 37.25 66.40625 30.609375 66.40625 
Q 23.96875 66.40625 20.09375 61.84375 
Q 16.21875 57.28125 16.21875 49.421875 
Q 16.21875 41.5 20.09375 36.953125 
Q 23.96875 32.421875 30.609375 32.421875 
z
" id="DejaVuSans-57"/>
      </defs>
      <g transform="translate(691.475 355.345312)scale(0.1 -0.1)">
       <use xlink:href="#DejaVuSans-57"/>
       <use x="63.623047" xlink:href="#DejaVuSans-48"/>
       <use x="127.246094" xlink:href="#DejaVuSans-176"/>
      </g>
     </g>
    </g>
    <g id="xtick_4">
     <g id="line2d_4">
      <path clip-path="url(#p39979fa592)" d="M 359.790625 352.585938 
L 590.694135 583.489447 
" style="fill:none;stroke:#b0b0b0;stroke-linecap:square;stroke-width:0.8;"/>
     </g>
     <g id="text_4">
      <!-- 135° -->
      <defs>
       <path d="M 12.40625 8.296875 
L 28.515625 8.296875 
L 28.515625 63.921875 
L 10.984375 60.40625 
L 10.984375 69.390625 
L 28.421875 72.90625 
L 38.28125 72.90625 
L 38.28125 8.296875 
L 54.390625 8.296875 
L 54.390625 0 
L 12.40625 0 
z
" id="DejaVuSans-49"/>
       <path d="M 40.578125 39.3125 
Q 47.65625 37.796875 51.625 33 
Q 55.609375 28.21875 55.609375 21.1875 
Q 55.609375 10.40625 48.1875 4.484375 
Q 40.765625 -1.421875 27.09375 -1.421875 
Q 22.515625 -1.421875 17.65625 -0.515625 
Q 12.796875 0.390625 7.625 2.203125 
L 7.625 11.71875 
Q 11.71875 9.328125 16.59375 8.109375 
Q 21.484375 6.890625 26.8125 6.890625 
Q 36.078125 6.890625 40.9375 10.546875 
Q 45.796875 14.203125 45.796875 21.1875 
Q 45.796875 27.640625 41.28125 31.265625 
Q 36.765625 34.90625 28.71875 34.90625 
L 20.21875 34.90625 
L 20.21875 43.015625 
L 29.109375 43.015625 
Q 36.375 43.015625 40.234375 45.921875 
Q 44.09375 48.828125 44.09375 54.296875 
Q 44.09375 59.90625 40.109375 62.90625 
Q 36.140625 65.921875 28.71875 65.921875 
Q 24.65625 65.921875 20.015625 65.03125 
Q 15.375 64.15625 9.8125 62.3125 
L 9.8125 71.09375 
Q 15.4375 72.65625 20.34375 73.4375 
Q 25.25 74.21875 29.59375 74.21875 
Q 40.828125 74.21875 47.359375 69.109375 
Q 53.90625 64.015625 53.90625 55.328125 
Q 53.90625 49.265625 50.4375 45.09375 
Q 46.96875 40.921875 40.578125 39.3125 
z
" id="DejaVuSans-51"/>
      </defs>
      <g transform="translate(588.54988 596.148317)scale(0.1 -0.1)">
       <use xlink:href="#DejaVuSans-49"/>
       <use x="63.623047" xlink:href="#DejaVuSans-51"/>
       <use x="127.246094" xlink:href="#DejaVuSans-53"/>
       <use x="190.869141" xlink:href="#DejaVuSans-176"/>
      </g>
     </g>
    </g>
    <g id="xtick_5">
     <g id="line2d_5">
      <path clip-path="url(#p39979fa592)" d="M 359.790625 352.585938 
L 359.790625 679.132812 
" style="fill:none;stroke:#b0b0b0;stroke-linecap:square;stroke-width:0.8;"/>
     </g>
     <g id="text_5">
      <!-- 180° -->
      <defs>
       <path d="M 31.78125 34.625 
Q 24.75 34.625 20.71875 30.859375 
Q 16.703125 27.09375 16.703125 20.515625 
Q 16.703125 13.921875 20.71875 10.15625 
Q 24.75 6.390625 31.78125 6.390625 
Q 38.8125 6.390625 42.859375 10.171875 
Q 46.921875 13.96875 46.921875 20.515625 
Q 46.921875 27.09375 42.890625 30.859375 
Q 38.875 34.625 31.78125 34.625 
z
M 21.921875 38.8125 
Q 15.578125 40.375 12.03125 44.71875 
Q 8.5 49.078125 8.5 55.328125 
Q 8.5 64.0625 14.71875 69.140625 
Q 20.953125 74.21875 31.78125 74.21875 
Q 42.671875 74.21875 48.875 69.140625 
Q 55.078125 64.0625 55.078125 55.328125 
Q 55.078125 49.078125 51.53125 44.71875 
Q 48 40.375 41.703125 38.8125 
Q 48.828125 37.15625 52.796875 32.3125 
Q 56.78125 27.484375 56.78125 20.515625 
Q 56.78125 9.90625 50.3125 4.234375 
Q 43.84375 -1.421875 31.78125 -1.421875 
Q 19.734375 -1.421875 13.25 4.234375 
Q 6.78125 9.90625 6.78125 20.515625 
Q 6.78125 27.484375 10.78125 32.3125 
Q 14.796875 37.15625 21.921875 38.8125 
z
M 18.3125 54.390625 
Q 18.3125 48.734375 21.84375 45.5625 
Q 25.390625 42.390625 31.78125 42.390625 
Q 38.140625 42.390625 41.71875 45.5625 
Q 45.3125 48.734375 45.3125 54.390625 
Q 45.3125 60.0625 41.71875 63.234375 
Q 38.140625 66.40625 31.78125 66.40625 
Q 25.390625 66.40625 21.84375 63.234375 
Q 18.3125 60.0625 18.3125 54.390625 
z
" id="DejaVuSans-56"/>
      </defs>
      <g transform="translate(347.746875 695.892187)scale(0.1 -0.1)">
       <use xlink:href="#DejaVuSans-49"/>
       <use x="63.623047" xlink:href="#DejaVuSans-56"/>
       <use x="127.246094" xlink:href="#DejaVuSans-48"/>
       <use x="190.869141" xlink:href="#DejaVuSans-176"/>
      </g>
     </g>
    </g>
    <g id="xtick_6">
     <g id="line2d_6">
      <path clip-path="url(#p39979fa592)" d="M 359.790625 352.585938 
L 128.887115 583.489447 
" style="fill:none;stroke:#b0b0b0;stroke-linecap:square;stroke-width:0.8;"/>
     </g>
     <g id="text_6">
      <!-- 225° -->
      <defs>
       <path d="M 19.1875 8.296875 
L 53.609375 8.296875 
L 53.609375 0 
L 7.328125 0 
L 7.328125 8.296875 
Q 12.9375 14.109375 22.625 23.890625 
Q 32.328125 33.6875 34.8125 36.53125 
Q 39.546875 41.84375 41.421875 45.53125 
Q 43.3125 49.21875 43.3125 52.78125 
Q 43.3125 58.59375 39.234375 62.25 
Q 35.15625 65.921875 28.609375 65.921875 
Q 23.96875 65.921875 18.8125 64.3125 
Q 13.671875 62.703125 7.8125 59.421875 
L 7.8125 69.390625 
Q 13.765625 71.78125 18.9375 73 
Q 24.125 74.21875 28.421875 74.21875 
Q 39.75 74.21875 46.484375 68.546875 
Q 53.21875 62.890625 53.21875 53.421875 
Q 53.21875 48.921875 51.53125 44.890625 
Q 49.859375 40.875 45.40625 35.40625 
Q 44.1875 33.984375 37.640625 27.21875 
Q 31.109375 20.453125 19.1875 8.296875 
z
" id="DejaVuSans-50"/>
      </defs>
      <g transform="translate(106.94387 596.148317)scale(0.1 -0.1)">
       <use xlink:href="#DejaVuSans-50"/>
       <use x="63.623047" xlink:href="#DejaVuSans-50"/>
       <use x="127.246094" xlink:href="#DejaVuSans-53"/>
       <use x="190.869141" xlink:href="#DejaVuSans-176"/>
      </g>
     </g>
    </g>
    <g id="xtick_7">
     <g id="line2d_7">
      <path clip-path="url(#p39979fa592)" d="M 359.790625 352.585938 
L 33.24375 352.585938 
" style="fill:none;stroke:#b0b0b0;stroke-linecap:square;stroke-width:0.8;"/>
     </g>
     <g id="text_7">
      <!-- 270° -->
      <defs>
       <path d="M 8.203125 72.90625 
L 55.078125 72.90625 
L 55.078125 68.703125 
L 28.609375 0 
L 18.3125 0 
L 43.21875 64.59375 
L 8.203125 64.59375 
z
" id="DejaVuSans-55"/>
      </defs>
      <g transform="translate(7.2 355.345313)scale(0.1 -0.1)">
       <use xlink:href="#DejaVuSans-50"/>
       <use x="63.623047" xlink:href="#DejaVuSans-55"/>
       <use x="127.246094" xlink:href="#DejaVuSans-48"/>
       <use x="190.869141" xlink:href="#DejaVuSans-176"/>
      </g>
     </g>
    </g>
    <g id="xtick_8">
     <g id="line2d_8">
      <path clip-path="url(#p39979fa592)" d="M 359.790625 352.585938 
L 128.887115 121.682428 
" style="fill:none;stroke:#b0b0b0;stroke-linecap:square;stroke-width:0.8;"/>
     </g>
     <g id="text_8">
      <!-- 315° -->
      <g transform="translate(106.94387 114.542308)scale(0.1 -0.1)">
       <use xlink:href="#DejaVuSans-51"/>
       <use x="63.623047" xlink:href="#DejaVuSans-49"/>
       <use x="127.246094" xlink:href="#DejaVuSans-53"/>
       <use x="190.869141" xlink:href="#DejaVuSans-176"/>
      </g>
     </g>
    </g>
   </g>
   <g id="matplotlib.axis_2">
    <g id="ytick_1">
     <g id="line2d_9">
      <path clip-path="url(#p39979fa592)" d="M 359.790625 259.28683 
L 363.046717 259.343666 
L 366.298842 259.514102 
L 369.543037 259.797933 
L 372.775351 260.194811 
L 375.991845 260.704253 
L 379.1886 261.32564 
L 382.361722 262.058213 
L 385.507344 262.90108 
L 388.621635 263.853214 
L 391.700799 264.913455 
L 394.741086 266.080512 
L 397.738791 267.352962 
L 400.690262 268.729255 
L 403.591903 270.207715 
L 406.440179 271.786541 
L 409.231619 273.463807 
L 411.962824 275.237472 
L 414.630464 277.105374 
L 417.231291 279.065238 
L 419.762135 281.114675 
L 422.219913 283.251189 
L 424.601631 285.472176 
L 426.904386 287.774932 
L 429.125374 290.156649 
L 431.261888 292.614427 
L 433.311325 295.145272 
L 435.271188 297.746098 
L 437.13909 300.413739 
L 438.912755 303.144943 
L 440.590022 305.936384 
L 442.168847 308.78466 
L 443.647307 311.686301 
L 445.023601 314.637772 
L 446.296051 317.635477 
L 447.463108 320.675764 
L 448.523349 323.754928 
L 449.475483 326.869218 
L 450.31835 330.014841 
L 451.050923 333.187962 
L 451.672309 336.384718 
L 452.181752 339.601211 
L 452.57863 342.833525 
L 452.86246 346.077721 
L 453.032897 349.329846 
L 453.089732 352.585938 
L 453.032897 355.842029 
L 452.86246 359.094154 
L 452.57863 362.33835 
L 452.181752 365.570664 
L 451.672309 368.787157 
L 451.050923 371.983913 
L 450.31835 375.157034 
L 449.475483 378.302657 
L 448.523349 381.416947 
L 447.463108 384.496111 
L 446.296051 387.536398 
L 445.023601 390.534103 
L 443.647307 393.485574 
L 442.168847 396.387215 
L 440.590022 399.235491 
L 438.912755 402.026932 
L 437.13909 404.758136 
L 435.271188 407.425777 
L 433.311325 410.026603 
L 431.261888 412.557448 
L 429.125374 415.015226 
L 426.904386 417.396943 
L 424.601631 419.699699 
L 422.219913 421.920686 
L 419.762135 424.0572 
L 417.231291 426.106637 
L 414.630464 428.066501 
L 411.962824 429.934403 
L 409.231619 431.708068 
L 406.440179 433.385334 
L 403.591903 434.96416 
L 400.690262 436.44262 
L 397.738791 437.818913 
L 394.741086 439.091363 
L 391.700799 440.25842 
L 388.621635 441.318661 
L 385.507344 442.270795 
L 382.361722 443.113662 
L 379.1886 443.846235 
L 375.991845 444.467622 
L 372.775351 444.977064 
L 369.543037 445.373942 
L 366.298842 445.657773 
L 363.046717 445.828209 
L 359.790625 445.885045 
L 356.534533 445.828209 
L 353.282408 445.657773 
L 350.038213 445.373942 
L 346.805899 444.977064 
L 343.589405 444.467622 
L 340.39265 443.846235 
L 337.219528 443.113662 
L 334.073906 442.270795 
L 330.959615 441.318661 
L 327.880451 440.25842 
L 324.840164 439.091363 
L 321.842459 437.818913 
L 318.890988 436.44262 
L 315.989347 434.96416 
L 313.141071 433.385334 
L 310.349631 431.708068 
L 307.618426 429.934403 
L 304.950786 428.066501 
L 302.349959 426.106637 
L 299.819115 424.0572 
L 297.361337 421.920686 
L 294.979619 419.699699 
L 292.676864 417.396943 
L 290.455876 415.015226 
L 288.319362 412.557448 
L 286.269925 410.026603 
L 284.310062 407.425777 
L 282.44216 404.758136 
L 280.668495 402.026932 
L 278.991228 399.235491 
L 277.412403 396.387215 
L 275.933943 393.485574 
L 274.557649 390.534103 
L 273.285199 387.536398 
L 272.118142 384.496111 
L 271.057901 381.416947 
L 270.105767 378.302657 
L 269.2629 375.157034 
L 268.530327 371.983913 
L 267.908941 368.787157 
L 267.399498 365.570664 
L 267.00262 362.33835 
L 266.71879 359.094154 
L 266.548353 355.842029 
L 266.491518 352.585938 
L 266.548353 349.329846 
L 266.71879 346.077721 
L 267.00262 342.833525 
L 267.399498 339.601211 
L 267.908941 336.384718 
L 268.530327 333.187962 
L 269.2629 330.014841 
L 270.105767 326.869218 
L 271.057901 323.754928 
L 272.118142 320.675764 
L 273.285199 317.635477 
L 274.557649 314.637772 
L 275.933943 311.686301 
L 277.412403 308.78466 
L 278.991228 305.936384 
L 280.668495 303.144943 
L 282.44216 300.413739 
L 284.310062 297.746098 
L 286.269925 295.145272 
L 288.319362 292.614427 
L 290.455876 290.156649 
L 292.676864 287.774932 
L 294.979619 285.472176 
L 297.361337 283.251189 
L 299.819115 281.114675 
L 302.349959 279.065238 
L 304.950786 277.105374 
L 307.618426 275.237472 
L 310.349631 273.463807 
L 313.141071 271.786541 
L 315.989347 270.207715 
L 318.890988 268.729255 
L 321.842459 267.352962 
L 324.840164 266.080512 
L 327.880451 264.913455 
L 330.959615 263.853214 
L 334.073906 262.90108 
L 337.219528 262.058213 
L 340.39265 261.32564 
L 343.589405 260.704253 
L 346.805899 260.194811 
L 350.038213 259.797933 
L 353.282408 259.514102 
L 356.534533 259.343666 
L 359.790625 259.28683 
L 359.790625 259.28683 
" style="fill:none;stroke:#b0b0b0;stroke-linecap:square;stroke-width:0.8;"/>
     </g>
     <g id="text_9">
      <!-- 1000 -->
      <g transform="translate(395.494648 264.309115)scale(0.1 -0.1)">
       <use xlink:href="#DejaVuSans-49"/>
       <use x="63.623047" xlink:href="#DejaVuSans-48"/>
       <use x="127.246094" xlink:href="#DejaVuSans-48"/>
       <use x="190.869141" xlink:href="#DejaVuSans-48"/>
      </g>
     </g>
    </g>
    <g id="ytick_2">
     <g id="line2d_10">
      <path clip-path="url(#p39979fa592)" d="M 359.790625 165.987723 
L 366.302809 166.101394 
L 372.807058 166.442267 
L 379.29545 167.009928 
L 385.760077 167.803684 
L 392.193065 168.822569 
L 398.586575 170.065342 
L 404.932819 171.530488 
L 411.224063 173.216222 
L 417.452644 175.12049 
L 423.610973 177.240972 
L 429.691546 179.575086 
L 435.686956 182.119986 
L 441.589898 184.872573 
L 447.39318 187.829493 
L 453.089732 190.987144 
L 458.672613 194.341677 
L 464.135022 197.889007 
L 469.470303 201.624811 
L 474.671957 205.544538 
L 479.733645 209.643412 
L 484.649201 213.91644 
L 489.412636 218.358415 
L 494.018147 222.963926 
L 498.460122 227.727361 
L 502.73315 232.642917 
L 506.832024 237.704606 
L 510.751751 242.906259 
L 514.487556 248.24154 
L 518.034885 253.703949 
L 521.389419 259.28683 
L 524.547069 264.983382 
L 527.503989 270.786664 
L 530.256576 276.689606 
L 532.801477 282.685016 
L 535.13559 288.76559 
L 537.256073 294.923918 
L 539.160341 301.152499 
L 540.846075 307.443744 
L 542.311221 313.789987 
L 543.553993 320.183498 
L 544.572878 326.616485 
L 545.366635 333.081113 
L 545.934295 339.569504 
L 546.275169 346.073754 
L 546.388839 352.585938 
L 546.275169 359.098121 
L 545.934295 365.602371 
L 545.366635 372.090762 
L 544.572878 378.55539 
L 543.553993 384.988377 
L 542.311221 391.381888 
L 540.846075 397.728131 
L 539.160341 404.019376 
L 537.256073 410.247957 
L 535.13559 416.406285 
L 532.801477 422.486859 
L 530.256576 428.482269 
L 527.503989 434.385211 
L 524.547069 440.188493 
L 521.389419 445.885045 
L 518.034885 451.467926 
L 514.487556 456.930335 
L 510.751751 462.265616 
L 506.832024 467.467269 
L 502.73315 472.528958 
L 498.460122 477.444514 
L 494.018147 482.207949 
L 489.412636 486.81346 
L 484.649201 491.255435 
L 479.733645 495.528463 
L 474.671957 499.627337 
L 469.470303 503.547064 
L 464.135022 507.282868 
L 458.672613 510.830198 
L 453.089732 514.184731 
L 447.39318 517.342382 
L 441.589898 520.299302 
L 435.686956 523.051889 
L 429.691546 525.596789 
L 423.610973 527.930903 
L 417.452644 530.051385 
L 411.224063 531.955653 
L 404.932819 533.641387 
L 398.586575 535.106533 
L 392.193065 536.349306 
L 385.760077 537.368191 
L 379.29545 538.161947 
L 372.807058 538.729608 
L 366.302809 539.070481 
L 359.790625 539.184152 
L 353.278441 539.070481 
L 346.774192 538.729608 
L 340.2858 538.161947 
L 333.821173 537.368191 
L 327.388185 536.349306 
L 320.994675 535.106533 
L 314.648431 533.641387 
L 308.357187 531.955653 
L 302.128606 530.051385 
L 295.970277 527.930903 
L 289.889704 525.596789 
L 283.894294 523.051889 
L 277.991352 520.299302 
L 272.18807 517.342382 
L 266.491518 514.184731 
L 260.908637 510.830198 
L 255.446228 507.282868 
L 250.110947 503.547064 
L 244.909293 499.627337 
L 239.847605 495.528463 
L 234.932049 491.255435 
L 230.168614 486.81346 
L 225.563103 482.207949 
L 221.121128 477.444514 
L 216.8481 472.528958 
L 212.749226 467.467269 
L 208.829499 462.265616 
L 205.093694 456.930335 
L 201.546365 451.467926 
L 198.191831 445.885045 
L 195.034181 440.188493 
L 192.077261 434.385211 
L 189.324674 428.482269 
L 186.779773 422.486859 
L 184.44566 416.406285 
L 182.325177 410.247957 
L 180.420909 404.019376 
L 178.735175 397.728131 
L 177.270029 391.381888 
L 176.027257 384.988377 
L 175.008372 378.55539 
L 174.214615 372.090762 
L 173.646955 365.602371 
L 173.306081 359.098121 
L 173.192411 352.585938 
L 173.306081 346.073754 
L 173.646955 339.569504 
L 174.214615 333.081113 
L 175.008372 326.616485 
L 176.027257 320.183498 
L 177.270029 313.789987 
L 178.735175 307.443744 
L 180.420909 301.152499 
L 182.325177 294.923918 
L 184.44566 288.76559 
L 186.779773 282.685016 
L 189.324674 276.689606 
L 192.077261 270.786664 
L 195.034181 264.983382 
L 198.191831 259.28683 
L 201.546365 253.703949 
L 205.093694 248.24154 
L 208.829499 242.906259 
L 212.749226 237.704606 
L 216.8481 232.642917 
L 221.121128 227.727361 
L 225.563103 222.963926 
L 230.168614 218.358415 
L 234.932049 213.91644 
L 239.847605 209.643412 
L 244.909293 205.544538 
L 250.110947 201.624811 
L 255.446228 197.889007 
L 260.908637 194.341677 
L 266.491518 190.987144 
L 272.18807 187.829493 
L 277.991352 184.872573 
L 283.894294 182.119986 
L 289.889704 179.575086 
L 295.970277 177.240972 
L 302.128606 175.12049 
L 308.357187 173.216222 
L 314.648431 171.530488 
L 320.994675 170.065342 
L 327.388185 168.822569 
L 333.821173 167.803684 
L 340.2858 167.009928 
L 346.774192 166.442267 
L 353.278441 166.101394 
L 359.790625 165.987723 
L 359.790625 165.987723 
" style="fill:none;stroke:#b0b0b0;stroke-linecap:square;stroke-width:0.8;"/>
     </g>
     <g id="text_10">
      <!-- 2000 -->
      <g transform="translate(431.19867 178.111979)scale(0.1 -0.1)">
       <use xlink:href="#DejaVuSans-50"/>
       <use x="63.623047" xlink:href="#DejaVuSans-48"/>
       <use x="127.246094" xlink:href="#DejaVuSans-48"/>
       <use x="190.869141" xlink:href="#DejaVuSans-48"/>
      </g>
     </g>
    </g>
    <g id="ytick_3">
     <g id="line2d_11">
      <path clip-path="url(#p39979fa592)" d="M 359.790625 72.688616 
L 369.558901 72.859122 
L 379.315275 73.370432 
L 389.047862 74.221923 
L 398.744803 75.412558 
L 408.394285 76.940885 
L 417.98455 78.805044 
L 427.503916 81.002763 
L 436.940783 83.531364 
L 446.283654 86.387766 
L 455.521147 89.56849 
L 464.642007 93.06966 
L 473.635122 96.887011 
L 482.489535 101.015891 
L 491.194458 105.451271 
L 499.739286 110.187747 
L 508.113608 115.219547 
L 516.307221 120.540542 
L 524.310143 126.144248 
L 532.112623 132.023838 
L 539.705155 138.17215 
L 547.078489 144.581691 
L 554.223642 151.244654 
L 561.131908 158.15292 
L 567.794871 165.298073 
L 574.204413 172.671407 
L 580.352724 180.26394 
L 586.232315 188.06642 
L 591.836021 196.069342 
L 597.157016 204.262955 
L 602.188816 212.637277 
L 606.925291 221.182105 
L 611.360671 229.887028 
L 615.489552 238.741441 
L 619.306902 247.734555 
L 622.808073 256.855416 
L 625.988796 266.092908 
L 628.845199 275.43578 
L 631.3738 284.872647 
L 633.571518 294.392012 
L 635.435677 303.982278 
L 636.964005 313.631759 
L 638.15464 323.328701 
L 639.006131 333.061287 
L 639.517441 342.817662 
L 639.687946 352.585938 
L 639.517441 362.354213 
L 639.006131 372.110588 
L 638.15464 381.843174 
L 636.964005 391.540116 
L 635.435677 401.189597 
L 633.571518 410.779863 
L 631.3738 420.299228 
L 628.845199 429.736095 
L 625.988796 439.078967 
L 622.808073 448.316459 
L 619.306902 457.43732 
L 615.489552 466.430434 
L 611.360671 475.284847 
L 606.925291 483.98977 
L 602.188816 492.534598 
L 597.157016 500.90892 
L 591.836021 509.102533 
L 586.232315 517.105455 
L 580.352724 524.907935 
L 574.204413 532.500468 
L 567.794871 539.873802 
L 561.131908 547.018955 
L 554.223642 553.927221 
L 547.078489 560.590184 
L 539.705155 566.999725 
L 532.112623 573.148037 
L 524.310143 579.027627 
L 516.307221 584.631333 
L 508.113608 589.952328 
L 499.739286 594.984128 
L 491.194458 599.720604 
L 482.489535 604.155984 
L 473.635122 608.284864 
L 464.642007 612.102215 
L 455.521147 615.603385 
L 446.283654 618.784109 
L 436.940783 621.640511 
L 427.503916 624.169112 
L 417.98455 626.366831 
L 408.394285 628.23099 
L 398.744803 629.759317 
L 389.047862 630.949952 
L 379.315275 631.801443 
L 369.558901 632.312753 
L 359.790625 632.483259 
L 350.022349 632.312753 
L 340.265975 631.801443 
L 330.533388 630.949952 
L 320.836447 629.759317 
L 311.186965 628.23099 
L 301.5967 626.366831 
L 292.077334 624.169112 
L 282.640467 621.640511 
L 273.297596 618.784109 
L 264.060103 615.603385 
L 254.939243 612.102215 
L 245.946128 608.284864 
L 237.091715 604.155984 
L 228.386792 599.720604 
L 219.841964 594.984128 
L 211.467642 589.952328 
L 203.274029 584.631333 
L 195.271107 579.027627 
L 187.468627 573.148037 
L 179.876095 566.999725 
L 172.502761 560.590184 
L 165.357608 553.927221 
L 158.449342 547.018955 
L 151.786379 539.873802 
L 145.376837 532.500468 
L 139.228526 524.907935 
L 133.348935 517.105455 
L 127.745229 509.102533 
L 122.424234 500.90892 
L 117.392434 492.534598 
L 112.655959 483.98977 
L 108.220579 475.284847 
L 104.091698 466.430434 
L 100.274348 457.43732 
L 96.773177 448.316459 
L 93.592454 439.078967 
L 90.736051 429.736095 
L 88.20745 420.299228 
L 86.009732 410.779863 
L 84.145573 401.189597 
L 82.617245 391.540116 
L 81.42661 381.843174 
L 80.575119 372.110588 
L 80.063809 362.354213 
L 79.893304 352.585938 
L 80.063809 342.817662 
L 80.575119 333.061287 
L 81.42661 323.328701 
L 82.617245 313.631759 
L 84.145573 303.982278 
L 86.009732 294.392012 
L 88.20745 284.872647 
L 90.736051 275.43578 
L 93.592454 266.092908 
L 96.773177 256.855416 
L 100.274348 247.734555 
L 104.091698 238.741441 
L 108.220579 229.887028 
L 112.655959 221.182105 
L 117.392434 212.637277 
L 122.424234 204.262955 
L 127.745229 196.069342 
L 133.348935 188.06642 
L 139.228526 180.26394 
L 145.376837 172.671407 
L 151.786379 165.298073 
L 158.449342 158.15292 
L 165.357608 151.244654 
L 172.502761 144.581691 
L 179.876095 138.17215 
L 187.468627 132.023838 
L 195.271107 126.144248 
L 203.274029 120.540542 
L 211.467642 115.219547 
L 219.841964 110.187747 
L 228.386792 105.451271 
L 237.091715 101.015891 
L 245.946128 96.887011 
L 254.939243 93.06966 
L 264.060103 89.56849 
L 273.297596 86.387766 
L 282.640467 83.531364 
L 292.077334 81.002763 
L 301.5967 78.805044 
L 311.186965 76.940885 
L 320.836447 75.412558 
L 330.533388 74.221923 
L 340.265975 73.370432 
L 350.022349 72.859122 
L 359.790625 72.688616 
L 359.790625 72.688616 
" style="fill:none;stroke:#b0b0b0;stroke-linecap:square;stroke-width:0.8;"/>
     </g>
     <g id="text_11">
      <!-- 3000 -->
      <g transform="translate(466.902693 91.914844)scale(0.1 -0.1)">
       <use xlink:href="#DejaVuSans-51"/>
       <use x="63.623047" xlink:href="#DejaVuSans-48"/>
       <use x="127.246094" xlink:href="#DejaVuSans-48"/>
       <use x="190.869141" xlink:href="#DejaVuSans-48"/>
      </g>
     </g>
    </g>
    <g id="ytick_4">
     <g id="line2d_12">
      <path clip-path="url(#p39979fa592)" d="M 359.790625 26.039062 
L 371.186947 26.237986 
L 382.569384 26.834514 
L 393.924068 27.82792 
L 405.237166 29.216994 
L 416.494895 31.000043 
L 427.683538 33.174895 
L 438.789464 35.7389 
L 449.799142 38.688935 
L 460.699159 42.021404 
L 471.476234 45.732249 
L 482.117237 49.816947 
L 492.609205 54.270523 
L 502.939353 59.08755 
L 513.095097 64.26216 
L 523.064062 69.788048 
L 532.834105 75.658482 
L 542.39332 81.866309 
L 551.730062 88.403966 
L 560.832956 95.263488 
L 569.69091 102.436518 
L 578.293133 109.914317 
L 586.629145 117.687774 
L 594.688789 125.747417 
L 602.462245 134.083429 
L 609.940044 142.685652 
L 617.113074 151.543607 
L 623.972596 160.6465 
L 630.510254 169.983242 
L 636.718081 179.542458 
L 642.588514 189.3125 
L 648.114402 199.281466 
L 653.289012 209.437209 
L 658.106039 219.767358 
L 662.559615 230.259325 
L 666.644314 240.900329 
L 670.355158 251.677404 
L 673.687628 262.57742 
L 676.637662 273.587098 
L 679.201667 284.693025 
L 681.376519 295.881668 
L 683.159568 307.139396 
L 684.548642 318.452494 
L 685.542048 329.807179 
L 686.138576 341.189616 
L 686.3375 352.585938 
L 686.138576 363.982259 
L 685.542048 375.364696 
L 684.548642 386.719381 
L 683.159568 398.032479 
L 681.376519 409.290207 
L 679.201667 420.47885 
L 676.637662 431.584777 
L 673.687628 442.594455 
L 670.355158 453.494471 
L 666.644314 464.271546 
L 662.559615 474.91255 
L 658.106039 485.404517 
L 653.289012 495.734666 
L 648.114402 505.890409 
L 642.588514 515.859375 
L 636.718081 525.629417 
L 630.510254 535.188633 
L 623.972596 544.525375 
L 617.113074 553.628268 
L 609.940044 562.486223 
L 602.462245 571.088446 
L 594.688789 579.424458 
L 586.629145 587.484101 
L 578.293133 595.257558 
L 569.69091 602.735357 
L 560.832956 609.908387 
L 551.730062 616.767909 
L 542.39332 623.305566 
L 532.834105 629.513393 
L 523.064062 635.383827 
L 513.095097 640.909715 
L 502.939353 646.084325 
L 492.609205 650.901352 
L 482.117237 655.354928 
L 471.476234 659.439626 
L 460.699159 663.150471 
L 449.799142 666.48294 
L 438.789464 669.432975 
L 427.683538 671.99698 
L 416.494895 674.171832 
L 405.237166 675.954881 
L 393.924068 677.343955 
L 382.569384 678.337361 
L 371.186947 678.933889 
L 359.790625 679.132812 
L 348.394303 678.933889 
L 337.011866 678.337361 
L 325.657182 677.343955 
L 314.344084 675.954881 
L 303.086355 674.171832 
L 291.897712 671.99698 
L 280.791786 669.432975 
L 269.782108 666.48294 
L 258.882091 663.150471 
L 248.105016 659.439626 
L 237.464013 655.354928 
L 226.972045 650.901352 
L 216.641897 646.084325 
L 206.486153 640.909715 
L 196.517187 635.383827 
L 186.747145 629.513393 
L 177.18793 623.305566 
L 167.851188 616.767909 
L 158.748294 609.908387 
L 149.89034 602.735357 
L 141.288117 595.257558 
L 132.952105 587.484101 
L 124.892461 579.424458 
L 117.119005 571.088446 
L 109.641206 562.486223 
L 102.468176 553.628268 
L 95.608654 544.525375 
L 89.070996 535.188633 
L 82.863169 525.629417 
L 76.992736 515.859375 
L 71.466848 505.890409 
L 66.292238 495.734666 
L 61.475211 485.404517 
L 57.021635 474.91255 
L 52.936936 464.271546 
L 49.226092 453.494471 
L 45.893622 442.594455 
L 42.943588 431.584777 
L 40.379583 420.47885 
L 38.204731 409.290207 
L 36.421682 398.032479 
L 35.032608 386.719381 
L 34.039202 375.364696 
L 33.442674 363.982259 
L 33.24375 352.585938 
L 33.442674 341.189616 
L 34.039202 329.807179 
L 35.032608 318.452494 
L 36.421682 307.139396 
L 38.204731 295.881668 
L 40.379583 284.693025 
L 42.943588 273.587098 
L 45.893622 262.57742 
L 49.226092 251.677404 
L 52.936936 240.900329 
L 57.021635 230.259325 
L 61.475211 219.767358 
L 66.292238 209.437209 
L 71.466848 199.281466 
L 76.992736 189.3125 
L 82.863169 179.542458 
L 89.070996 169.983242 
L 95.608654 160.6465 
L 102.468176 151.543607 
L 109.641206 142.685652 
L 117.119005 134.083429 
L 124.892461 125.747417 
L 132.952105 117.687774 
L 141.288117 109.914317 
L 149.89034 102.436518 
L 158.748294 95.263488 
L 167.851188 88.403966 
L 177.18793 81.866309 
L 186.747145 75.658482 
L 196.517187 69.788048 
L 206.486153 64.26216 
L 216.641897 59.08755 
L 226.972045 54.270523 
L 237.464013 49.816947 
L 248.105016 45.732249 
L 258.882091 42.021404 
L 269.782108 38.688935 
L 280.791786 35.7389 
L 291.897712 33.174895 
L 303.086355 31.000043 
L 314.344084 29.216994 
L 325.657182 27.82792 
L 337.011866 26.834514 
L 348.394303 26.237986 
L 359.790625 26.039062 
L 359.790625 26.039062 
" style="fill:none;stroke:#b0b0b0;stroke-linecap:square;stroke-width:0.8;"/>
     </g>
     <g id="text_12">
      <!-- 3500 -->
      <g transform="translate(484.754704 48.816276)scale(0.1 -0.1)">
       <use xlink:href="#DejaVuSans-51"/>
       <use x="63.623047" xlink:href="#DejaVuSans-53"/>
       <use x="127.246094" xlink:href="#DejaVuSans-48"/>
       <use x="190.869141" xlink:href="#DejaVuSans-48"/>
      </g>
     </g>
    </g>
   </g>
   <g id="line2d_13">
    <defs>
     <path d="M 0 1.5 
C 0.397805 1.5 0.77937 1.341951 1.06066 1.06066 
C 1.341951 0.77937 1.5 0.397805 1.5 0 
C 1.5 -0.397805 1.341951 -0.77937 1.06066 -1.06066 
C 0.77937 -1.341951 0.397805 -1.5 0 -1.5 
C -0.397805 -1.5 -0.77937 -1.341951 -1.06066 -1.06066 
C -1.341951 -0.77937 -1.5 -0.397805 -1.5 0 
C -1.5 0.397805 -1.341951 0.77937 -1.06066 1.06066 
C -0.77937 1.341951 -0.397805 1.5 0 1.5 
z
" id="m01e9f735ed" style="stroke:#000000;"/>
    </defs>
    <g clip-path="url(#p39979fa592)">
     <use style="stroke:#000000;" x="404.325879" xlink:href="#m01e9f735ed" y="324.036263"/>
    </g>
   </g>
   <g id="line2d_14">
    <g clip-path="url(#p39979fa592)">
     <use style="stroke:#000000;" x="409.687872" xlink:href="#m01e9f735ed" y="373.527133"/>
     <use style="stroke:#000000;" x="409.101624" xlink:href="#m01e9f735ed" y="326.484801"/>
     <use style="stroke:#000000;" x="409.101624" xlink:href="#m01e9f735ed" y="326.484801"/>
     <use style="stroke:#000000;" x="387.596118" xlink:href="#m01e9f735ed" y="370.582252"/>
     <use style="stroke:#000000;" x="376.604502" xlink:href="#m01e9f735ed" y="358.201456"/>
     <use style="stroke:#000000;" x="374.874097" xlink:href="#m01e9f735ed" y="372.761745"/>
     <use style="stroke:#000000;" x="379.380834" xlink:href="#m01e9f735ed" y="374.493696"/>
     <use style="stroke:#000000;" x="357.576583" xlink:href="#m01e9f735ed" y="292.16867"/>
     <use style="stroke:#000000;" x="355.576227" xlink:href="#m01e9f735ed" y="306.689263"/>
     <use style="stroke:#000000;" x="579.166336" xlink:href="#m01e9f735ed" y="268.011871"/>
     <use style="stroke:#000000;" x="363.991296" xlink:href="#m01e9f735ed" y="349.63871"/>
     <use style="stroke:#000000;" x="371.30095" xlink:href="#m01e9f735ed" y="272.707254"/>
     <use style="stroke:#000000;" x="401.781665" xlink:href="#m01e9f735ed" y="381.754685"/>
     <use style="stroke:#000000;" x="462.937011" xlink:href="#m01e9f735ed" y="257.586613"/>
     <use style="stroke:#000000;" x="409.448854" xlink:href="#m01e9f735ed" y="375.460103"/>
     <use style="stroke:#000000;" x="382.062473" xlink:href="#m01e9f735ed" y="374.91142"/>
     <use style="stroke:#000000;" x="357.908968" xlink:href="#m01e9f735ed" y="299.718819"/>
     <use style="stroke:#000000;" x="377.034392" xlink:href="#m01e9f735ed" y="371.077452"/>
     <use style="stroke:#000000;" x="439.137635" xlink:href="#m01e9f735ed" y="275.061089"/>
     <use style="stroke:#000000;" x="330.987871" xlink:href="#m01e9f735ed" y="151.43212"/>
     <use style="stroke:#000000;" x="427.898767" xlink:href="#m01e9f735ed" y="337.367248"/>
     <use style="stroke:#000000;" x="518.54598" xlink:href="#m01e9f735ed" y="316.072572"/>
     <use style="stroke:#000000;" x="442.802001" xlink:href="#m01e9f735ed" y="326.076899"/>
     <use style="stroke:#000000;" x="555.331063" xlink:href="#m01e9f735ed" y="354.966505"/>
     <use style="stroke:#000000;" x="525.541201" xlink:href="#m01e9f735ed" y="293.237342"/>
     <use style="stroke:#000000;" x="380.1231" xlink:href="#m01e9f735ed" y="286.313588"/>
     <use style="stroke:#000000;" x="359.05526" xlink:href="#m01e9f735ed" y="290.826306"/>
     <use style="stroke:#000000;" x="821.349027" xlink:href="#m01e9f735ed" y="66.200891"/>
     <use style="stroke:#000000;" x="775.793392" xlink:href="#m01e9f735ed" y="-1"/>
     <use style="stroke:#000000;" x="664.033382" xlink:href="#m01e9f735ed" y="-1"/>
     <use style="stroke:#000000;" x="440.763715" xlink:href="#m01e9f735ed" y="364.350882"/>
     <use style="stroke:#000000;" x="519.342576" xlink:href="#m01e9f735ed" y="303.885957"/>
     <use style="stroke:#000000;" x="363.631219" xlink:href="#m01e9f735ed" y="307.780067"/>
     <use style="stroke:#000000;" x="382.065464" xlink:href="#m01e9f735ed" y="375.171277"/>
     <use style="stroke:#000000;" x="146.224148" xlink:href="#m01e9f735ed" y="420.498872"/>
     <use style="stroke:#000000;" x="264.159316" xlink:href="#m01e9f735ed" y="191.596171"/>
     <use style="stroke:#000000;" x="441.045724" xlink:href="#m01e9f735ed" y="360.470275"/>
     <use style="stroke:#000000;" x="385.930536" xlink:href="#m01e9f735ed" y="312.826616"/>
     <use style="stroke:#000000;" x="389.969616" xlink:href="#m01e9f735ed" y="315.316894"/>
     <use style="stroke:#000000;" x="365.450705" xlink:href="#m01e9f735ed" y="300.458227"/>
     <use style="stroke:#000000;" x="379.860895" xlink:href="#m01e9f735ed" y="376.056823"/>
     <use style="stroke:#000000;" x="377.034392" xlink:href="#m01e9f735ed" y="371.077452"/>
     <use style="stroke:#000000;" x="385.897665" xlink:href="#m01e9f735ed" y="312.582019"/>
     <use style="stroke:#000000;" x="359.790625" xlink:href="#m01e9f735ed" y="355.198312"/>
     <use style="stroke:#000000;" x="385.06502" xlink:href="#m01e9f735ed" y="311.831084"/>
     <use style="stroke:#000000;" x="361.482459" xlink:href="#m01e9f735ed" y="353.115185"/>
     <use style="stroke:#000000;" x="350.493166" xlink:href="#m01e9f735ed" y="310.591964"/>
     <use style="stroke:#000000;" x="384.330279" xlink:href="#m01e9f735ed" y="312.6932"/>
     <use style="stroke:#000000;" x="494.531266" xlink:href="#m01e9f735ed" y="304.608502"/>
     <use style="stroke:#000000;" x="523.235876" xlink:href="#m01e9f735ed" y="295.110337"/>
     <use style="stroke:#000000;" x="358.010286" xlink:href="#m01e9f735ed" y="279.554434"/>
     <use style="stroke:#000000;" x="592.890303" xlink:href="#m01e9f735ed" y="374.067996"/>
     <use style="stroke:#000000;" x="380.303311" xlink:href="#m01e9f735ed" y="376.291594"/>
     <use style="stroke:#000000;" x="363.563994" xlink:href="#m01e9f735ed" y="346.146068"/>
     <use style="stroke:#000000;" x="377.2351" xlink:href="#m01e9f735ed" y="377.501665"/>
     <use style="stroke:#000000;" x="395.345315" xlink:href="#m01e9f735ed" y="292.968476"/>
     <use style="stroke:#000000;" x="353.388229" xlink:href="#m01e9f735ed" y="279.251891"/>
     <use style="stroke:#000000;" x="473.205795" xlink:href="#m01e9f735ed" y="316.39449"/>
     <use style="stroke:#000000;" x="390.674328" xlink:href="#m01e9f735ed" y="309.063034"/>
     <use style="stroke:#000000;" x="377.034392" xlink:href="#m01e9f735ed" y="371.077452"/>
     <use style="stroke:#000000;" x="442.285963" xlink:href="#m01e9f735ed" y="321.208947"/>
     <use style="stroke:#000000;" x="356.006316" xlink:href="#m01e9f735ed" y="302.159621"/>
     <use style="stroke:#000000;" x="379.870666" xlink:href="#m01e9f735ed" y="375.555032"/>
     <use style="stroke:#000000;" x="524.599074" xlink:href="#m01e9f735ed" y="320.313985"/>
     <use style="stroke:#000000;" x="495.988096" xlink:href="#m01e9f735ed" y="364.098704"/>
     <use style="stroke:#000000;" x="555.221523" xlink:href="#m01e9f735ed" y="345.622171"/>
     <use style="stroke:#000000;" x="547.191404" xlink:href="#m01e9f735ed" y="284.516789"/>
     <use style="stroke:#000000;" x="356.390623" xlink:href="#m01e9f735ed" y="300.729677"/>
     <use style="stroke:#000000;" x="383.777383" xlink:href="#m01e9f735ed" y="373.486402"/>
     <use style="stroke:#000000;" x="447.459403" xlink:href="#m01e9f735ed" y="339.539933"/>
     <use style="stroke:#000000;" x="409.756219" xlink:href="#m01e9f735ed" y="325.337691"/>
     <use style="stroke:#000000;" x="506.949232" xlink:href="#m01e9f735ed" y="382.71662"/>
     <use style="stroke:#000000;" x="377.034392" xlink:href="#m01e9f735ed" y="371.077452"/>
     <use style="stroke:#000000;" x="569.253644" xlink:href="#m01e9f735ed" y="317.696931"/>
     <use style="stroke:#000000;" x="360.642914" xlink:href="#m01e9f735ed" y="353.923573"/>
     <use style="stroke:#000000;" x="414.766819" xlink:href="#m01e9f735ed" y="375.163027"/>
     <use style="stroke:#000000;" x="360.622242" xlink:href="#m01e9f735ed" y="354.151447"/>
     <use style="stroke:#000000;" x="514.207553" xlink:href="#m01e9f735ed" y="343.399881"/>
     <use style="stroke:#000000;" x="509.170128" xlink:href="#m01e9f735ed" y="380.092729"/>
     <use style="stroke:#000000;" x="359.059233" xlink:href="#m01e9f735ed" y="288.96015"/>
     <use style="stroke:#000000;" x="358.135187" xlink:href="#m01e9f735ed" y="351.537935"/>
     <use style="stroke:#000000;" x="386.866317" xlink:href="#m01e9f735ed" y="381.170529"/>
     <use style="stroke:#000000;" x="464.48089" xlink:href="#m01e9f735ed" y="259.150548"/>
     <use style="stroke:#000000;" x="357.158124" xlink:href="#m01e9f735ed" y="299.750885"/>
     <use style="stroke:#000000;" x="357.158124" xlink:href="#m01e9f735ed" y="299.750885"/>
     <use style="stroke:#000000;" x="512.085824" xlink:href="#m01e9f735ed" y="312.842443"/>
     <use style="stroke:#000000;" x="583.00595" xlink:href="#m01e9f735ed" y="292.727761"/>
     <use style="stroke:#000000;" x="371.787433" xlink:href="#m01e9f735ed" y="356.718631"/>
     <use style="stroke:#000000;" x="360.642914" xlink:href="#m01e9f735ed" y="353.923573"/>
     <use style="stroke:#000000;" x="475.28671" xlink:href="#m01e9f735ed" y="301.638912"/>
     <use style="stroke:#000000;" x="494.631924" xlink:href="#m01e9f735ed" y="307.472682"/>
     <use style="stroke:#000000;" x="358.706212" xlink:href="#m01e9f735ed" y="284.952778"/>
     <use style="stroke:#000000;" x="358.698348" xlink:href="#m01e9f735ed" y="287.658946"/>
     <use style="stroke:#000000;" x="592.680165" xlink:href="#m01e9f735ed" y="480.714661"/>
     <use style="stroke:#000000;" x="487.778742" xlink:href="#m01e9f735ed" y="285.666542"/>
     <use style="stroke:#000000;" x="446.867721" xlink:href="#m01e9f735ed" y="382.829002"/>
     <use style="stroke:#000000;" x="492.71423" xlink:href="#m01e9f735ed" y="387.854322"/>
     <use style="stroke:#000000;" x="569.681713" xlink:href="#m01e9f735ed" y="294.575598"/>
     <use style="stroke:#000000;" x="386.929124" xlink:href="#m01e9f735ed" y="382.762968"/>
     <use style="stroke:#000000;" x="496.559689" xlink:href="#m01e9f735ed" y="362.796718"/>
     <use style="stroke:#000000;" x="362.28192" xlink:href="#m01e9f735ed" y="342.149778"/>
     <use style="stroke:#000000;" x="358.989472" xlink:href="#m01e9f735ed" y="352.837406"/>
     <use style="stroke:#000000;" x="542.803681" xlink:href="#m01e9f735ed" y="335.604118"/>
     <use style="stroke:#000000;" x="382.135443" xlink:href="#m01e9f735ed" y="376.270387"/>
     <use style="stroke:#000000;" x="526.121271" xlink:href="#m01e9f735ed" y="321.824399"/>
     <use style="stroke:#000000;" x="583.683869" xlink:href="#m01e9f735ed" y="355.905891"/>
     <use style="stroke:#000000;" x="401.355921" xlink:href="#m01e9f735ed" y="370.471539"/>
    </g>
   </g>
   <g id="line2d_15">
    <defs>
     <path d="M 0 1.5 
C 0.397805 1.5 0.77937 1.341951 1.06066 1.06066 
C 1.341951 0.77937 1.5 0.397805 1.5 0 
C 1.5 -0.397805 1.341951 -0.77937 1.06066 -1.06066 
C 0.77937 -1.341951 0.397805 -1.5 0 -1.5 
C -0.397805 -1.5 -0.77937 -1.341951 -1.06066 -1.06066 
C -1.341951 -0.77937 -1.5 -0.397805 -1.5 0 
C -1.5 0.397805 -1.341951 0.77937 -1.06066 1.06066 
C -0.77937 1.341951 -0.397805 1.5 0 1.5 
z
" id="mafe1eb0772" style="stroke:#ff0000;"/>
    </defs>
    <g clip-path="url(#p39979fa592)">
     <use style="fill:#ff0000;stroke:#ff0000;" x="405.418949" xlink:href="#mafe1eb0772" y="315.237156"/>
     <use style="fill:#ff0000;stroke:#ff0000;" x="518.297425" xlink:href="#mafe1eb0772" y="291.423743"/>
     <use style="fill:#ff0000;stroke:#ff0000;" x="573.476211" xlink:href="#mafe1eb0772" y="291.865689"/>
     <use style="fill:#ff0000;stroke:#ff0000;" x="595.226547" xlink:href="#mafe1eb0772" y="398.989314"/>
     <use style="fill:#ff0000;stroke:#ff0000;" x="357.908968" xlink:href="#mafe1eb0772" y="299.718819"/>
     <use style="fill:#ff0000;stroke:#ff0000;" x="538.000387" xlink:href="#mafe1eb0772" y="324.300866"/>
     <use style="fill:#ff0000;stroke:#ff0000;" x="518.775757" xlink:href="#mafe1eb0772" y="313.025154"/>
     <use style="fill:#ff0000;stroke:#ff0000;" x="480.299041" xlink:href="#mafe1eb0772" y="260.587939"/>
     <use style="fill:#ff0000;stroke:#ff0000;" x="517.437257" xlink:href="#mafe1eb0772" y="309.380351"/>
     <use style="fill:#ff0000;stroke:#ff0000;" x="575.286166" xlink:href="#mafe1eb0772" y="283.659267"/>
     <use style="fill:#ff0000;stroke:#ff0000;" x="380.303311" xlink:href="#mafe1eb0772" y="376.291594"/>
     <use style="fill:#ff0000;stroke:#ff0000;" x="440.763715" xlink:href="#mafe1eb0772" y="364.350882"/>
     <use style="fill:#ff0000;stroke:#ff0000;" x="518.233026" xlink:href="#mafe1eb0772" y="287.235382"/>
     <use style="fill:#ff0000;stroke:#ff0000;" x="435.902417" xlink:href="#mafe1eb0772" y="266.077806"/>
     <use style="fill:#ff0000;stroke:#ff0000;" x="711.987369" xlink:href="#mafe1eb0772" y="437.862987"/>
     <use style="fill:#ff0000;stroke:#ff0000;" x="445.895187" xlink:href="#mafe1eb0772" y="331.561731"/>
     <use style="fill:#ff0000;stroke:#ff0000;" x="436.275207" xlink:href="#mafe1eb0772" y="339.329724"/>
     <use style="fill:#ff0000;stroke:#ff0000;" x="-1" xlink:href="#mafe1eb0772" y="184.037101"/>
     <use style="fill:#ff0000;stroke:#ff0000;" x="-1" xlink:href="#mafe1eb0772" y="82.423021"/>
     <use style="fill:#ff0000;stroke:#ff0000;" x="545.036313" xlink:href="#mafe1eb0772" y="314.054363"/>
     <use style="fill:#ff0000;stroke:#ff0000;" x="567.833844" xlink:href="#mafe1eb0772" y="311.461431"/>
     <use style="fill:#ff0000;stroke:#ff0000;" x="489.401151" xlink:href="#mafe1eb0772" y="369.519674"/>
     <use style="fill:#ff0000;stroke:#ff0000;" x="489.401151" xlink:href="#mafe1eb0772" y="369.519674"/>
     <use style="fill:#ff0000;stroke:#ff0000;" x="588.966539" xlink:href="#mafe1eb0772" y="251.892065"/>
     <use style="fill:#ff0000;stroke:#ff0000;" x="523.235876" xlink:href="#mafe1eb0772" y="295.110337"/>
     <use style="fill:#ff0000;stroke:#ff0000;" x="633.73355" xlink:href="#mafe1eb0772" y="400.633707"/>
     <use style="fill:#ff0000;stroke:#ff0000;" x="490.764741" xlink:href="#mafe1eb0772" y="284.937934"/>
     <use style="fill:#ff0000;stroke:#ff0000;" x="399.656297" xlink:href="#mafe1eb0772" y="365.755397"/>
     <use style="fill:#ff0000;stroke:#ff0000;" x="414.601118" xlink:href="#mafe1eb0772" y="373.556281"/>
     <use style="fill:#ff0000;stroke:#ff0000;" x="385.847084" xlink:href="#mafe1eb0772" y="379.563318"/>
     <use style="fill:#ff0000;stroke:#ff0000;" x="495.367376" xlink:href="#mafe1eb0772" y="363.682429"/>
     <use style="fill:#ff0000;stroke:#ff0000;" x="495.367376" xlink:href="#mafe1eb0772" y="363.682429"/>
     <use style="fill:#ff0000;stroke:#ff0000;" x="388.332695" xlink:href="#mafe1eb0772" y="383.503565"/>
     <use style="fill:#ff0000;stroke:#ff0000;" x="526.615542" xlink:href="#mafe1eb0772" y="321.932435"/>
     <use style="fill:#ff0000;stroke:#ff0000;" x="594.048055" xlink:href="#mafe1eb0772" y="367.638642"/>
     <use style="fill:#ff0000;stroke:#ff0000;" x="358.697724" xlink:href="#mafe1eb0772" y="287.938894"/>
     <use style="fill:#ff0000;stroke:#ff0000;" x="494.124926" xlink:href="#mafe1eb0772" y="366.014409"/>
     <use style="fill:#ff0000;stroke:#ff0000;" x="474.335694" xlink:href="#mafe1eb0772" y="317.507145"/>
     <use style="fill:#ff0000;stroke:#ff0000;" x="544.816774" xlink:href="#mafe1eb0772" y="364.120375"/>
     <use style="fill:#ff0000;stroke:#ff0000;" x="356.006316" xlink:href="#mafe1eb0772" y="302.159621"/>
     <use style="fill:#ff0000;stroke:#ff0000;" x="446.196995" xlink:href="#mafe1eb0772" y="337.571515"/>
     <use style="fill:#ff0000;stroke:#ff0000;" x="446.204459" xlink:href="#mafe1eb0772" y="335.0878"/>
     <use style="fill:#ff0000;stroke:#ff0000;" x="533.997486" xlink:href="#mafe1eb0772" y="301.771022"/>
     <use style="fill:#ff0000;stroke:#ff0000;" x="405.126441" xlink:href="#mafe1eb0772" y="353.413384"/>
     <use style="fill:#ff0000;stroke:#ff0000;" x="477.900915" xlink:href="#mafe1eb0772" y="324.19155"/>
     <use style="fill:#ff0000;stroke:#ff0000;" x="514.207553" xlink:href="#mafe1eb0772" y="343.399881"/>
     <use style="fill:#ff0000;stroke:#ff0000;" x="593.031286" xlink:href="#mafe1eb0772" y="238.916305"/>
     <use style="fill:#ff0000;stroke:#ff0000;" x="405.000756" xlink:href="#mafe1eb0772" y="240.339744"/>
     <use style="fill:#ff0000;stroke:#ff0000;" x="588.455407" xlink:href="#mafe1eb0772" y="251.888654"/>
     <use style="fill:#ff0000;stroke:#ff0000;" x="491.757999" xlink:href="#mafe1eb0772" y="325.939854"/>
     <use style="fill:#ff0000;stroke:#ff0000;" x="546.668865" xlink:href="#mafe1eb0772" y="290.101339"/>
     <use style="fill:#ff0000;stroke:#ff0000;" x="550.781459" xlink:href="#mafe1eb0772" y="268.660542"/>
     <use style="fill:#ff0000;stroke:#ff0000;" x="470.062742" xlink:href="#mafe1eb0772" y="276.3295"/>
     <use style="fill:#ff0000;stroke:#ff0000;" x="410.812311" xlink:href="#mafe1eb0772" y="331.189797"/>
     <use style="fill:#ff0000;stroke:#ff0000;" x="541.060003" xlink:href="#mafe1eb0772" y="336.000394"/>
     <use style="fill:#ff0000;stroke:#ff0000;" x="555.239811" xlink:href="#mafe1eb0772" y="282.632833"/>
     <use style="fill:#ff0000;stroke:#ff0000;" x="502.759376" xlink:href="#mafe1eb0772" y="298.858997"/>
     <use style="fill:#ff0000;stroke:#ff0000;" x="509.170128" xlink:href="#mafe1eb0772" y="380.092729"/>
     <use style="fill:#ff0000;stroke:#ff0000;" x="530.678835" xlink:href="#mafe1eb0772" y="334.364175"/>
     <use style="fill:#ff0000;stroke:#ff0000;" x="372.726602" xlink:href="#mafe1eb0772" y="292.478064"/>
     <use style="fill:#ff0000;stroke:#ff0000;" x="415.120482" xlink:href="#mafe1eb0772" y="365.913896"/>
     <use style="fill:#ff0000;stroke:#ff0000;" x="519.460706" xlink:href="#mafe1eb0772" y="294.255874"/>
     <use style="fill:#ff0000;stroke:#ff0000;" x="358.135187" xlink:href="#mafe1eb0772" y="351.537935"/>
     <use style="fill:#ff0000;stroke:#ff0000;" x="358.977075" xlink:href="#mafe1eb0772" y="353.607829"/>
     <use style="fill:#ff0000;stroke:#ff0000;" x="555.018057" xlink:href="#mafe1eb0772" y="302.973321"/>
     <use style="fill:#ff0000;stroke:#ff0000;" x="357.158124" xlink:href="#mafe1eb0772" y="299.750885"/>
     <use style="fill:#ff0000;stroke:#ff0000;" x="442.011397" xlink:href="#mafe1eb0772" y="361.12512"/>
     <use style="fill:#ff0000;stroke:#ff0000;" x="526.378124" xlink:href="#mafe1eb0772" y="364.393119"/>
     <use style="fill:#ff0000;stroke:#ff0000;" x="585.179794" xlink:href="#mafe1eb0772" y="272.706149"/>
     <use style="fill:#ff0000;stroke:#ff0000;" x="518.04178" xlink:href="#mafe1eb0772" y="315.962262"/>
     <use style="fill:#ff0000;stroke:#ff0000;" x="582.545487" xlink:href="#mafe1eb0772" y="270.630559"/>
     <use style="fill:#ff0000;stroke:#ff0000;" x="359.790625" xlink:href="#mafe1eb0772" y="351.27975"/>
     <use style="fill:#ff0000;stroke:#ff0000;" x="550.114023" xlink:href="#mafe1eb0772" y="326.499284"/>
     <use style="fill:#ff0000;stroke:#ff0000;" x="893.932063" xlink:href="#mafe1eb0772" y="628.75607"/>
     <use style="fill:#ff0000;stroke:#ff0000;" x="-1" xlink:href="#mafe1eb0772" y="168.710523"/>
     <use style="fill:#ff0000;stroke:#ff0000;" x="-1" xlink:href="#mafe1eb0772" y="262.461063"/>
     <use style="fill:#ff0000;stroke:#ff0000;" x="560.643133" xlink:href="#mafe1eb0772" y="472.087515"/>
     <use style="fill:#ff0000;stroke:#ff0000;" x="471.014388" xlink:href="#mafe1eb0772" y="317.820269"/>
     <use style="fill:#ff0000;stroke:#ff0000;" x="360.591292" xlink:href="#mafe1eb0772" y="352.332924"/>
     <use style="fill:#ff0000;stroke:#ff0000;" x="538.153171" xlink:href="#mafe1eb0772" y="283.27432"/>
     <use style="fill:#ff0000;stroke:#ff0000;" x="589.264086" xlink:href="#mafe1eb0772" y="250.259245"/>
     <use style="fill:#ff0000;stroke:#ff0000;" x="445.02978" xlink:href="#mafe1eb0772" y="331.172281"/>
     <use style="fill:#ff0000;stroke:#ff0000;" x="579.99944" xlink:href="#mafe1eb0772" y="278.570849"/>
     <use style="fill:#ff0000;stroke:#ff0000;" x="-1" xlink:href="#mafe1eb0772" y="67.018947"/>
     <use style="fill:#ff0000;stroke:#ff0000;" x="-1" xlink:href="#mafe1eb0772" y="63.919646"/>
     <use style="fill:#ff0000;stroke:#ff0000;" x="12.564416" xlink:href="#mafe1eb0772" y="68.726516"/>
     <use style="fill:#ff0000;stroke:#ff0000;" x="-1" xlink:href="#mafe1eb0772" y="69.135794"/>
     <use style="fill:#ff0000;stroke:#ff0000;" x="-1" xlink:href="#mafe1eb0772" y="87.785476"/>
     <use style="fill:#ff0000;stroke:#ff0000;" x="536.71324" xlink:href="#mafe1eb0772" y="281.159338"/>
     <use style="fill:#ff0000;stroke:#ff0000;" x="566.543781" xlink:href="#mafe1eb0772" y="288.512263"/>
     <use style="fill:#ff0000;stroke:#ff0000;" x="542.818039" xlink:href="#mafe1eb0772" y="336.811316"/>
     <use style="fill:#ff0000;stroke:#ff0000;" x="896.161202" xlink:href="#mafe1eb0772" y="96.40592"/>
     <use style="fill:#ff0000;stroke:#ff0000;" x="593.081782" xlink:href="#mafe1eb0772" y="256.071606"/>
     <use style="fill:#ff0000;stroke:#ff0000;" x="551.190581" xlink:href="#mafe1eb0772" y="258.061886"/>
     <use style="fill:#ff0000;stroke:#ff0000;" x="348.204097" xlink:href="#mafe1eb0772" y="274.509935"/>
     <use style="fill:#ff0000;stroke:#ff0000;" x="-1" xlink:href="#mafe1eb0772" y="95.253351"/>
     <use style="fill:#ff0000;stroke:#ff0000;" x="-1" xlink:href="#mafe1eb0772" y="81.608224"/>
     <use style="fill:#ff0000;stroke:#ff0000;" x="1307.23847" xlink:href="#mafe1eb0772" y="427.918406"/>
     <use style="fill:#ff0000;stroke:#ff0000;" x="-1" xlink:href="#mafe1eb0772" y="170.192532"/>
     <use style="fill:#ff0000;stroke:#ff0000;" x="-1" xlink:href="#mafe1eb0772" y="204.077237"/>
     <use style="fill:#ff0000;stroke:#ff0000;" x="445.331328" xlink:href="#mafe1eb0772" y="330.842331"/>
     <use style="fill:#ff0000;stroke:#ff0000;" x="470.062742" xlink:href="#mafe1eb0772" y="276.3295"/>
     <use style="fill:#ff0000;stroke:#ff0000;" x="-1" xlink:href="#mafe1eb0772" y="86.103905"/>
     <use style="fill:#ff0000;stroke:#ff0000;" x="-1" xlink:href="#mafe1eb0772" y="90.506219"/>
     <use style="fill:#ff0000;stroke:#ff0000;" x="513.748537" xlink:href="#mafe1eb0772" y="343.540171"/>
     <use style="fill:#ff0000;stroke:#ff0000;" x="448.111137" xlink:href="#mafe1eb0772" y="334.169144"/>
     <use style="fill:#ff0000;stroke:#ff0000;" x="-1" xlink:href="#mafe1eb0772" y="77.467751"/>
     <use style="fill:#ff0000;stroke:#ff0000;" x="-1" xlink:href="#mafe1eb0772" y="198.877306"/>
     <use style="fill:#ff0000;stroke:#ff0000;" x="144.915255" xlink:href="#mafe1eb0772" y="419.447195"/>
     <use style="fill:#ff0000;stroke:#ff0000;" x="409.136035" xlink:href="#mafe1eb0772" y="326.750452"/>
     <use style="fill:#ff0000;stroke:#ff0000;" x="-1" xlink:href="#mafe1eb0772" y="52.791999"/>
     <use style="fill:#ff0000;stroke:#ff0000;" x="-1" xlink:href="#mafe1eb0772" y="94.473384"/>
     <use style="fill:#ff0000;stroke:#ff0000;" x="488.921834" xlink:href="#mafe1eb0772" y="344.159314"/>
     <use style="fill:#ff0000;stroke:#ff0000;" x="12.51025" xlink:href="#mafe1eb0772" y="70.121652"/>
     <use style="fill:#ff0000;stroke:#ff0000;" x="478.232634" xlink:href="#mafe1eb0772" y="303.060137"/>
     <use style="fill:#ff0000;stroke:#ff0000;" x="153.710181" xlink:href="#mafe1eb0772" y="426.059348"/>
     <use style="fill:#ff0000;stroke:#ff0000;" x="356.39831" xlink:href="#mafe1eb0772" y="300.542178"/>
     <use style="fill:#ff0000;stroke:#ff0000;" x="413.836301" xlink:href="#mafe1eb0772" y="374.727236"/>
     <use style="fill:#ff0000;stroke:#ff0000;" x="421.239645" xlink:href="#mafe1eb0772" y="368.739241"/>
     <use style="fill:#ff0000;stroke:#ff0000;" x="-1" xlink:href="#mafe1eb0772" y="103.639307"/>
     <use style="fill:#ff0000;stroke:#ff0000;" x="-1" xlink:href="#mafe1eb0772" y="168.490374"/>
     <use style="fill:#ff0000;stroke:#ff0000;" x="395.546955" xlink:href="#mafe1eb0772" y="290.814531"/>
     <use style="fill:#ff0000;stroke:#ff0000;" x="411.384972" xlink:href="#mafe1eb0772" y="367.950773"/>
     <use style="fill:#ff0000;stroke:#ff0000;" x="421.232087" xlink:href="#mafe1eb0772" y="384.483494"/>
     <use style="fill:#ff0000;stroke:#ff0000;" x="578.655009" xlink:href="#mafe1eb0772" y="312.94639"/>
     <use style="fill:#ff0000;stroke:#ff0000;" x="435.06502" xlink:href="#mafe1eb0772" y="377.544466"/>
     <use style="fill:#ff0000;stroke:#ff0000;" x="499.574203" xlink:href="#mafe1eb0772" y="365.888853"/>
     <use style="fill:#ff0000;stroke:#ff0000;" x="587.32532" xlink:href="#mafe1eb0772" y="255.141769"/>
     <use style="fill:#ff0000;stroke:#ff0000;" x="589.084913" xlink:href="#mafe1eb0772" y="254.273658"/>
     <use style="fill:#ff0000;stroke:#ff0000;" x="586.300385" xlink:href="#mafe1eb0772" y="255.829704"/>
     <use style="fill:#ff0000;stroke:#ff0000;" x="-1" xlink:href="#mafe1eb0772" y="770.195312"/>
     <use style="fill:#ff0000;stroke:#ff0000;" x="-1" xlink:href="#mafe1eb0772" y="528.79415"/>
     <use style="fill:#ff0000;stroke:#ff0000;" x="356.773713" xlink:href="#mafe1eb0772" y="300.519068"/>
    </g>
   </g>
   <g id="line2d_16">
    <defs>
     <path d="M 0 1.5 
C 0.397805 1.5 0.77937 1.341951 1.06066 1.06066 
C 1.341951 0.77937 1.5 0.397805 1.5 0 
C 1.5 -0.397805 1.341951 -0.77937 1.06066 -1.06066 
C 0.77937 -1.341951 0.397805 -1.5 0 -1.5 
C -0.397805 -1.5 -0.77937 -1.341951 -1.06066 -1.06066 
C -1.341951 -0.77937 -1.5 -0.397805 -1.5 0 
C -1.5 0.397805 -1.341951 0.77937 -1.06066 1.06066 
C -0.77937 1.341951 -0.397805 1.5 0 1.5 
z
" id="m2ed6934bfe" style="stroke:#bfbf00;"/>
    </defs>
    <g clip-path="url(#p39979fa592)">
     <use style="fill:#bfbf00;stroke:#bfbf00;" x="455.740321" xlink:href="#m2ed6934bfe" y="374.960171"/>
     <use style="fill:#bfbf00;stroke:#bfbf00;" x="358.099392" xlink:href="#m2ed6934bfe" y="350.979643"/>
     <use style="fill:#bfbf00;stroke:#bfbf00;" x="147.764994" xlink:href="#m2ed6934bfe" y="422.530819"/>
     <use style="fill:#bfbf00;stroke:#bfbf00;" x="439.644758" xlink:href="#m2ed6934bfe" y="374.662504"/>
     <use style="fill:#bfbf00;stroke:#bfbf00;" x="284.343196" xlink:href="#m2ed6934bfe" y="189.086979"/>
     <use style="fill:#bfbf00;stroke:#bfbf00;" x="-1" xlink:href="#m2ed6934bfe" y="99.466614"/>
     <use style="fill:#bfbf00;stroke:#bfbf00;" x="-1" xlink:href="#m2ed6934bfe" y="104.738687"/>
     <use style="fill:#bfbf00;stroke:#bfbf00;" x="492.439188" xlink:href="#m2ed6934bfe" y="365.031472"/>
     <use style="fill:#bfbf00;stroke:#bfbf00;" x="467.442673" xlink:href="#m2ed6934bfe" y="339.758732"/>
     <use style="fill:#bfbf00;stroke:#bfbf00;" x="408.381068" xlink:href="#m2ed6934bfe" y="323.861118"/>
     <use style="fill:#bfbf00;stroke:#bfbf00;" x="548.670494" xlink:href="#m2ed6934bfe" y="274.90067"/>
     <use style="fill:#bfbf00;stroke:#bfbf00;" x="494.531266" xlink:href="#m2ed6934bfe" y="304.608502"/>
     <use style="fill:#bfbf00;stroke:#bfbf00;" x="354.073311" xlink:href="#m2ed6934bfe" y="280.879893"/>
     <use style="fill:#bfbf00;stroke:#bfbf00;" x="533.171416" xlink:href="#m2ed6934bfe" y="311.823709"/>
     <use style="fill:#bfbf00;stroke:#bfbf00;" x="49.35691" xlink:href="#m2ed6934bfe" y="23.876095"/>
     <use style="fill:#bfbf00;stroke:#bfbf00;" x="585.314957" xlink:href="#m2ed6934bfe" y="273.651612"/>
     <use style="fill:#bfbf00;stroke:#bfbf00;" x="356.455307" xlink:href="#m2ed6934bfe" y="294.089106"/>
     <use style="fill:#bfbf00;stroke:#bfbf00;" x="553.982749" xlink:href="#m2ed6934bfe" y="334.907665"/>
     <use style="fill:#bfbf00;stroke:#bfbf00;" x="572.840315" xlink:href="#m2ed6934bfe" y="280.117449"/>
     <use style="fill:#bfbf00;stroke:#bfbf00;" x="506.143133" xlink:href="#m2ed6934bfe" y="363.508069"/>
     <use style="fill:#bfbf00;stroke:#bfbf00;" x="-1" xlink:href="#m2ed6934bfe" y="92.207572"/>
     <use style="fill:#bfbf00;stroke:#bfbf00;" x="-1" xlink:href="#m2ed6934bfe" y="92.354628"/>
     <use style="fill:#bfbf00;stroke:#bfbf00;" x="497.283127" xlink:href="#m2ed6934bfe" y="360.313378"/>
     <use style="fill:#bfbf00;stroke:#bfbf00;" x="803.275261" xlink:href="#m2ed6934bfe" y="756.310405"/>
     <use style="fill:#bfbf00;stroke:#bfbf00;" x="495.367376" xlink:href="#m2ed6934bfe" y="363.682429"/>
     <use style="fill:#bfbf00;stroke:#bfbf00;" x="515.410343" xlink:href="#m2ed6934bfe" y="287.493232"/>
     <use style="fill:#bfbf00;stroke:#bfbf00;" x="542.519153" xlink:href="#m2ed6934bfe" y="285.865055"/>
     <use style="fill:#bfbf00;stroke:#bfbf00;" x="497.544064" xlink:href="#m2ed6934bfe" y="366.515023"/>
     <use style="fill:#bfbf00;stroke:#bfbf00;" x="631.015" xlink:href="#m2ed6934bfe" y="421.722388"/>
     <use style="fill:#bfbf00;stroke:#bfbf00;" x="358.098243" xlink:href="#m2ed6934bfe" y="349.902935"/>
     <use style="fill:#bfbf00;stroke:#bfbf00;" x="539.941702" xlink:href="#m2ed6934bfe" y="284.288877"/>
     <use style="fill:#bfbf00;stroke:#bfbf00;" x="579.04297" xlink:href="#m2ed6934bfe" y="353.08025"/>
     <use style="fill:#bfbf00;stroke:#bfbf00;" x="-1" xlink:href="#m2ed6934bfe" y="101.632065"/>
     <use style="fill:#bfbf00;stroke:#bfbf00;" x="-1" xlink:href="#m2ed6934bfe" y="98.904451"/>
     <use style="fill:#bfbf00;stroke:#bfbf00;" x="516.985265" xlink:href="#m2ed6934bfe" y="287.148834"/>
     <use style="fill:#bfbf00;stroke:#bfbf00;" x="504.895588" xlink:href="#m2ed6934bfe" y="404.829734"/>
     <use style="fill:#bfbf00;stroke:#bfbf00;" x="487.901335" xlink:href="#m2ed6934bfe" y="282.727258"/>
     <use style="fill:#bfbf00;stroke:#bfbf00;" x="527.241854" xlink:href="#m2ed6934bfe" y="281.2154"/>
     <use style="fill:#bfbf00;stroke:#bfbf00;" x="585.686349" xlink:href="#m2ed6934bfe" y="358.396308"/>
     <use style="fill:#bfbf00;stroke:#bfbf00;" x="560.562603" xlink:href="#m2ed6934bfe" y="321.842467"/>
     <use style="fill:#bfbf00;stroke:#bfbf00;" x="554.476719" xlink:href="#m2ed6934bfe" y="337.431317"/>
     <use style="fill:#bfbf00;stroke:#bfbf00;" x="442.73103" xlink:href="#m2ed6934bfe" y="327.741265"/>
     <use style="fill:#bfbf00;stroke:#bfbf00;" x="489.226209" xlink:href="#m2ed6934bfe" y="284.009685"/>
     <use style="fill:#bfbf00;stroke:#bfbf00;" x="12.822065" xlink:href="#m2ed6934bfe" y="68.558913"/>
     <use style="fill:#bfbf00;stroke:#bfbf00;" x="487.635194" xlink:href="#m2ed6934bfe" y="344.505554"/>
     <use style="fill:#bfbf00;stroke:#bfbf00;" x="493.962589" xlink:href="#m2ed6934bfe" y="382.75923"/>
     <use style="fill:#bfbf00;stroke:#bfbf00;" x="386.800372" xlink:href="#m2ed6934bfe" y="380.846927"/>
     <use style="fill:#bfbf00;stroke:#bfbf00;" x="488.180151" xlink:href="#m2ed6934bfe" y="285.831005"/>
     <use style="fill:#bfbf00;stroke:#bfbf00;" x="382.572203" xlink:href="#m2ed6934bfe" y="376.240742"/>
     <use style="fill:#bfbf00;stroke:#bfbf00;" x="-1" xlink:href="#m2ed6934bfe" y="117.51577"/>
     <use style="fill:#bfbf00;stroke:#bfbf00;" x="-1" xlink:href="#m2ed6934bfe" y="115.431425"/>
     <use style="fill:#bfbf00;stroke:#bfbf00;" x="413.907466" xlink:href="#m2ed6934bfe" y="375.526563"/>
     <use style="fill:#bfbf00;stroke:#bfbf00;" x="414.790155" xlink:href="#m2ed6934bfe" y="329.337143"/>
     <use style="fill:#bfbf00;stroke:#bfbf00;" x="496.880138" xlink:href="#m2ed6934bfe" y="322.64117"/>
     <use style="fill:#bfbf00;stroke:#bfbf00;" x="142.557423" xlink:href="#m2ed6934bfe" y="409.890048"/>
     <use style="fill:#bfbf00;stroke:#bfbf00;" x="359.427746" xlink:href="#m2ed6934bfe" y="285.971363"/>
     <use style="fill:#bfbf00;stroke:#bfbf00;" x="540.217876" xlink:href="#m2ed6934bfe" y="325.20489"/>
     <use style="fill:#bfbf00;stroke:#bfbf00;" x="495.660314" xlink:href="#m2ed6934bfe" y="322.740789"/>
     <use style="fill:#bfbf00;stroke:#bfbf00;" x="486.229179" xlink:href="#m2ed6934bfe" y="281.251435"/>
     <use style="fill:#bfbf00;stroke:#bfbf00;" x="572.264824" xlink:href="#m2ed6934bfe" y="311.761473"/>
     <use style="fill:#bfbf00;stroke:#bfbf00;" x="545.904257" xlink:href="#m2ed6934bfe" y="305.369541"/>
     <use style="fill:#bfbf00;stroke:#bfbf00;" x="487.198282" xlink:href="#m2ed6934bfe" y="334.682091"/>
     <use style="fill:#bfbf00;stroke:#bfbf00;" x="539.793261" xlink:href="#m2ed6934bfe" y="301.671728"/>
     <use style="fill:#bfbf00;stroke:#bfbf00;" x="467.125732" xlink:href="#m2ed6934bfe" y="367.161748"/>
     <use style="fill:#bfbf00;stroke:#bfbf00;" x="469.913687" xlink:href="#m2ed6934bfe" y="276.114406"/>
     <use style="fill:#bfbf00;stroke:#bfbf00;" x="531.612875" xlink:href="#m2ed6934bfe" y="283.229974"/>
     <use style="fill:#bfbf00;stroke:#bfbf00;" x="539.096507" xlink:href="#m2ed6934bfe" y="330.779064"/>
     <use style="fill:#bfbf00;stroke:#bfbf00;" x="516.985265" xlink:href="#m2ed6934bfe" y="287.148834"/>
     <use style="fill:#bfbf00;stroke:#bfbf00;" x="542.744847" xlink:href="#m2ed6934bfe" y="299.107404"/>
     <use style="fill:#bfbf00;stroke:#bfbf00;" x="575.286166" xlink:href="#m2ed6934bfe" y="283.659267"/>
     <use style="fill:#bfbf00;stroke:#bfbf00;" x="526.121271" xlink:href="#m2ed6934bfe" y="321.824399"/>
     <use style="fill:#bfbf00;stroke:#bfbf00;" x="409.448854" xlink:href="#m2ed6934bfe" y="375.460103"/>
     <use style="fill:#bfbf00;stroke:#bfbf00;" x="488.211224" xlink:href="#m2ed6934bfe" y="282.321449"/>
     <use style="fill:#bfbf00;stroke:#bfbf00;" x="154.268172" xlink:href="#m2ed6934bfe" y="425.957427"/>
     <use style="fill:#bfbf00;stroke:#bfbf00;" x="514.108778" xlink:href="#m2ed6934bfe" y="290.715382"/>
     <use style="fill:#bfbf00;stroke:#bfbf00;" x="539.348209" xlink:href="#m2ed6934bfe" y="359.588548"/>
     <use style="fill:#bfbf00;stroke:#bfbf00;" x="729.952225" xlink:href="#m2ed6934bfe" y="693.39743"/>
     <use style="fill:#bfbf00;stroke:#bfbf00;" x="448.111137" xlink:href="#m2ed6934bfe" y="334.169144"/>
     <use style="fill:#bfbf00;stroke:#bfbf00;" x="445.02978" xlink:href="#m2ed6934bfe" y="331.172281"/>
     <use style="fill:#bfbf00;stroke:#bfbf00;" x="540.477471" xlink:href="#m2ed6934bfe" y="330.542086"/>
     <use style="fill:#bfbf00;stroke:#bfbf00;" x="502.716449" xlink:href="#m2ed6934bfe" y="316.114085"/>
     <use style="fill:#bfbf00;stroke:#bfbf00;" x="583.544775" xlink:href="#m2ed6934bfe" y="279.782544"/>
     <use style="fill:#bfbf00;stroke:#bfbf00;" x="-1" xlink:href="#m2ed6934bfe" y="97.58574"/>
     <use style="fill:#bfbf00;stroke:#bfbf00;" x="-1" xlink:href="#m2ed6934bfe" y="105.85058"/>
     <use style="fill:#bfbf00;stroke:#bfbf00;" x="355.915824" xlink:href="#m2ed6934bfe" y="276.085438"/>
    </g>
   </g>
   <g id="line2d_17">
    <defs>
     <path d="M 0 1.5 
C 0.397805 1.5 0.77937 1.341951 1.06066 1.06066 
C 1.341951 0.77937 1.5 0.397805 1.5 0 
C 1.5 -0.397805 1.341951 -0.77937 1.06066 -1.06066 
C 0.77937 -1.341951 0.397805 -1.5 0 -1.5 
C -0.397805 -1.5 -0.77937 -1.341951 -1.06066 -1.06066 
C -1.341951 -0.77937 -1.5 -0.397805 -1.5 0 
C -1.5 0.397805 -1.341951 0.77937 -1.06066 1.06066 
C -0.77937 1.341951 -0.397805 1.5 0 1.5 
z
" id="mc490b8a900" style="stroke:#008000;"/>
    </defs>
    <g clip-path="url(#p39979fa592)">
     <use style="fill:#008000;stroke:#008000;" x="277.030652" xlink:href="#mc490b8a900" y="183.161276"/>
     <use style="fill:#008000;stroke:#008000;" x="566.221333" xlink:href="#mc490b8a900" y="261.820357"/>
     <use style="fill:#008000;stroke:#008000;" x="284.343196" xlink:href="#mc490b8a900" y="189.086979"/>
     <use style="fill:#008000;stroke:#008000;" x="525.541201" xlink:href="#mc490b8a900" y="293.237342"/>
     <use style="fill:#008000;stroke:#008000;" x="-1" xlink:href="#mc490b8a900" y="99.939745"/>
     <use style="fill:#008000;stroke:#008000;" x="-1" xlink:href="#mc490b8a900" y="124.759302"/>
     <use style="fill:#008000;stroke:#008000;" x="717.421149" xlink:href="#mc490b8a900" y="778.142778"/>
     <use style="fill:#008000;stroke:#008000;" x="-1" xlink:href="#mc490b8a900" y="108.611138"/>
     <use style="fill:#008000;stroke:#008000;" x="-1" xlink:href="#mc490b8a900" y="97.12951"/>
     <use style="fill:#008000;stroke:#008000;" x="359.790625" xlink:href="#mc490b8a900" y="353.052433"/>
     <use style="fill:#008000;stroke:#008000;" x="565.01383" xlink:href="#mc490b8a900" y="334.662194"/>
     <use style="fill:#008000;stroke:#008000;" x="-1" xlink:href="#mc490b8a900" y="102.527282"/>
     <use style="fill:#008000;stroke:#008000;" x="-1" xlink:href="#mc490b8a900" y="103.261733"/>
     <use style="fill:#008000;stroke:#008000;" x="473.093471" xlink:href="#mc490b8a900" y="365.278031"/>
     <use style="fill:#008000;stroke:#008000;" x="-1" xlink:href="#mc490b8a900" y="103.856974"/>
     <use style="fill:#008000;stroke:#008000;" x="-1" xlink:href="#mc490b8a900" y="98.386619"/>
     <use style="fill:#008000;stroke:#008000;" x="553.247878" xlink:href="#mc490b8a900" y="319.291795"/>
     <use style="fill:#008000;stroke:#008000;" x="580.592711" xlink:href="#mc490b8a900" y="367.504221"/>
     <use style="fill:#008000;stroke:#008000;" x="567.833844" xlink:href="#mc490b8a900" y="311.461431"/>
     <use style="fill:#008000;stroke:#008000;" x="520.698381" xlink:href="#mc490b8a900" y="-1"/>
     <use style="fill:#008000;stroke:#008000;" x="503.758525" xlink:href="#mc490b8a900" y="-1"/>
     <use style="fill:#008000;stroke:#008000;" x="509.829007" xlink:href="#mc490b8a900" y="306.594355"/>
     <use style="fill:#008000;stroke:#008000;" x="497.283127" xlink:href="#mc490b8a900" y="360.313378"/>
     <use style="fill:#008000;stroke:#008000;" x="554.78654" xlink:href="#mc490b8a900" y="287.017837"/>
     <use style="fill:#008000;stroke:#008000;" x="-1" xlink:href="#mc490b8a900" y="100.825064"/>
     <use style="fill:#008000;stroke:#008000;" x="-1" xlink:href="#mc490b8a900" y="111.618214"/>
     <use style="fill:#008000;stroke:#008000;" x="584.606602" xlink:href="#mc490b8a900" y="294.782237"/>
     <use style="fill:#008000;stroke:#008000;" x="41.574262" xlink:href="#mc490b8a900" y="63.49855"/>
     <use style="fill:#008000;stroke:#008000;" x="539.344804" xlink:href="#mc490b8a900" y="368.452762"/>
     <use style="fill:#008000;stroke:#008000;" x="543.858095" xlink:href="#mc490b8a900" y="298.593196"/>
     <use style="fill:#008000;stroke:#008000;" x="479.781358" xlink:href="#mc490b8a900" y="372.682575"/>
     <use style="fill:#008000;stroke:#008000;" x="579.559963" xlink:href="#mc490b8a900" y="290.750195"/>
     <use style="fill:#008000;stroke:#008000;" x="594.048055" xlink:href="#mc490b8a900" y="367.638642"/>
     <use style="fill:#008000;stroke:#008000;" x="683.966374" xlink:href="#mc490b8a900" y="848.363863"/>
     <use style="fill:#008000;stroke:#008000;" x="360.185202" xlink:href="#mc490b8a900" y="352.337086"/>
     <use style="fill:#008000;stroke:#008000;" x="496.850655" xlink:href="#mc490b8a900" y="363.859434"/>
     <use style="fill:#008000;stroke:#008000;" x="590.445361" xlink:href="#mc490b8a900" y="283.084993"/>
     <use style="fill:#008000;stroke:#008000;" x="545.919637" xlink:href="#mc490b8a900" y="291.399167"/>
     <use style="fill:#008000;stroke:#008000;" x="-1" xlink:href="#mc490b8a900" y="88.243954"/>
     <use style="fill:#008000;stroke:#008000;" x="-1" xlink:href="#mc490b8a900" y="92.027998"/>
     <use style="fill:#008000;stroke:#008000;" x="360.642914" xlink:href="#mc490b8a900" y="353.923573"/>
     <use style="fill:#008000;stroke:#008000;" x="803.060121" xlink:href="#mc490b8a900" y="757.37722"/>
     <use style="fill:#008000;stroke:#008000;" x="393.347519" xlink:href="#mc490b8a900" y="265.630446"/>
     <use style="fill:#008000;stroke:#008000;" x="712.767278" xlink:href="#mc490b8a900" y="1132.852305"/>
     <use style="fill:#008000;stroke:#008000;" x="-1" xlink:href="#mc490b8a900" y="132.404155"/>
     <use style="fill:#008000;stroke:#008000;" x="-1" xlink:href="#mc490b8a900" y="59.801488"/>
     <use style="fill:#008000;stroke:#008000;" x="49.35691" xlink:href="#mc490b8a900" y="23.876095"/>
     <use style="fill:#008000;stroke:#008000;" x="490.678609" xlink:href="#mc490b8a900" y="347.368124"/>
     <use style="fill:#008000;stroke:#008000;" x="-1" xlink:href="#mc490b8a900" y="47.04888"/>
     <use style="fill:#008000;stroke:#008000;" x="-1" xlink:href="#mc490b8a900" y="152.52546"/>
     <use style="fill:#008000;stroke:#008000;" x="142.557423" xlink:href="#mc490b8a900" y="409.890048"/>
     <use style="fill:#008000;stroke:#008000;" x="-1" xlink:href="#mc490b8a900" y="153.301238"/>
     <use style="fill:#008000;stroke:#008000;" x="-1" xlink:href="#mc490b8a900" y="109.351846"/>
     <use style="fill:#008000;stroke:#008000;" x="490.280532" xlink:href="#mc490b8a900" y="361.664665"/>
     <use style="fill:#008000;stroke:#008000;" x="359.790625" xlink:href="#mc490b8a900" y="349.693665"/>
     <use style="fill:#008000;stroke:#008000;" x="138.420895" xlink:href="#mc490b8a900" y="412.836482"/>
     <use style="fill:#008000;stroke:#008000;" x="562.131023" xlink:href="#mc490b8a900" y="-1"/>
     <use style="fill:#008000;stroke:#008000;" x="51.565097" xlink:href="#mc490b8a900" y="-1"/>
     <use style="fill:#008000;stroke:#008000;" x="-1" xlink:href="#mc490b8a900" y="10.070919"/>
     <use style="fill:#008000;stroke:#008000;" x="-1" xlink:href="#mc490b8a900" y="47.616195"/>
     <use style="fill:#008000;stroke:#008000;" x="751.545983" xlink:href="#mc490b8a900" y="731.277836"/>
     <use style="fill:#008000;stroke:#008000;" x="-1" xlink:href="#mc490b8a900" y="806.561541"/>
     <use style="fill:#008000;stroke:#008000;" x="-1" xlink:href="#mc490b8a900" y="101.88961"/>
     <use style="fill:#008000;stroke:#008000;" x="317.080718" xlink:href="#mc490b8a900" y="214.520787"/>
     <use style="fill:#008000;stroke:#008000;" x="-1" xlink:href="#mc490b8a900" y="85.102659"/>
     <use style="fill:#008000;stroke:#008000;" x="-1" xlink:href="#mc490b8a900" y="109.489949"/>
     <use style="fill:#008000;stroke:#008000;" x="495.606964" xlink:href="#mc490b8a900" y="366.196303"/>
     <use style="fill:#008000;stroke:#008000;" x="479.720091" xlink:href="#mc490b8a900" y="356.158052"/>
     <use style="fill:#008000;stroke:#008000;" x="-1" xlink:href="#mc490b8a900" y="106.208279"/>
     <use style="fill:#008000;stroke:#008000;" x="-1" xlink:href="#mc490b8a900" y="101.683421"/>
     <use style="fill:#008000;stroke:#008000;" x="693.67852" xlink:href="#mc490b8a900" y="387.324616"/>
     <use style="fill:#008000;stroke:#008000;" x="774.107987" xlink:href="#mc490b8a900" y="647.201445"/>
     <use style="fill:#008000;stroke:#008000;" x="656.565187" xlink:href="#mc490b8a900" y="-1"/>
     <use style="fill:#008000;stroke:#008000;" x="578.281503" xlink:href="#mc490b8a900" y="-1"/>
     <use style="fill:#008000;stroke:#008000;" x="-1" xlink:href="#mc490b8a900" y="700.035203"/>
     <use style="fill:#008000;stroke:#008000;" x="-1" xlink:href="#mc490b8a900" y="607.236669"/>
     <use style="fill:#008000;stroke:#008000;" x="679.703495" xlink:href="#mc490b8a900" y="500.129944"/>
     <use style="fill:#008000;stroke:#008000;" x="-1" xlink:href="#mc490b8a900" y="780.431091"/>
     <use style="fill:#008000;stroke:#008000;" x="-1" xlink:href="#mc490b8a900" y="756.158111"/>
     <use style="fill:#008000;stroke:#008000;" x="593.081782" xlink:href="#mc490b8a900" y="256.071606"/>
     <use style="fill:#008000;stroke:#008000;" x="479.494595" xlink:href="#mc490b8a900" y="-1"/>
     <use style="fill:#008000;stroke:#008000;" x="159.512888" xlink:href="#mc490b8a900" y="-1"/>
     <use style="fill:#008000;stroke:#008000;" x="-1" xlink:href="#mc490b8a900" y="50.956131"/>
     <use style="fill:#008000;stroke:#008000;" x="-1" xlink:href="#mc490b8a900" y="106.100304"/>
     <use style="fill:#008000;stroke:#008000;" x="449.6633" xlink:href="#mc490b8a900" y="429.230898"/>
     <use style="fill:#008000;stroke:#008000;" x="392.478266" xlink:href="#mc490b8a900" y="263.807112"/>
     <use style="fill:#008000;stroke:#008000;" x="553.887678" xlink:href="#mc490b8a900" y="337.082477"/>
     <use style="fill:#008000;stroke:#008000;" x="355.600327" xlink:href="#mc490b8a900" y="304.251699"/>
     <use style="fill:#008000;stroke:#008000;" x="557.742289" xlink:href="#mc490b8a900" y="301.951341"/>
     <use style="fill:#008000;stroke:#008000;" x="571.3194" xlink:href="#mc490b8a900" y="290.451068"/>
     <use style="fill:#008000;stroke:#008000;" x="563.569434" xlink:href="#mc490b8a900" y="305.373163"/>
     <use style="fill:#008000;stroke:#008000;" x="468.541813" xlink:href="#mc490b8a900" y="271.649732"/>
     <use style="fill:#008000;stroke:#008000;" x="550.610214" xlink:href="#mc490b8a900" y="292.57594"/>
     <use style="fill:#008000;stroke:#008000;" x="495.367376" xlink:href="#mc490b8a900" y="363.682429"/>
     <use style="fill:#008000;stroke:#008000;" x="573.659251" xlink:href="#mc490b8a900" y="327.5043"/>
     <use style="fill:#008000;stroke:#008000;" x="395.589468" xlink:href="#mc490b8a900" y="246.997086"/>
     <use style="fill:#008000;stroke:#008000;" x="577.814672" xlink:href="#mc490b8a900" y="338.073544"/>
     <use style="fill:#008000;stroke:#008000;" x="583.7203" xlink:href="#mc490b8a900" y="280.021002"/>
    </g>
   </g>
   <g id="line2d_18">
    <defs>
     <path d="M 0 1.5 
C 0.397805 1.5 0.77937 1.341951 1.06066 1.06066 
C 1.341951 0.77937 1.5 0.397805 1.5 0 
C 1.5 -0.397805 1.341951 -0.77937 1.06066 -1.06066 
C 0.77937 -1.341951 0.397805 -1.5 0 -1.5 
C -0.397805 -1.5 -0.77937 -1.341951 -1.06066 -1.06066 
C -1.341951 -0.77937 -1.5 -0.397805 -1.5 0 
C -1.5 0.397805 -1.341951 0.77937 -1.06066 1.06066 
C -0.77937 1.341951 -0.397805 1.5 0 1.5 
z
" id="mee8933c547" style="stroke:#0000ff;"/>
    </defs>
    <g clip-path="url(#p39979fa592)">
     <use style="fill:#0000ff;stroke:#0000ff;" x="533.059841" xlink:href="#mee8933c547" y="308.238773"/>
     <use style="fill:#0000ff;stroke:#0000ff;" x="526.022485" xlink:href="#mee8933c547" y="374.411151"/>
     <use style="fill:#0000ff;stroke:#0000ff;" x="-1" xlink:href="#mee8933c547" y="106.583586"/>
     <use style="fill:#0000ff;stroke:#0000ff;" x="-1" xlink:href="#mee8933c547" y="78.502283"/>
     <use style="fill:#0000ff;stroke:#0000ff;" x="504.333332" xlink:href="#mee8933c547" y="382.003498"/>
     <use style="fill:#0000ff;stroke:#0000ff;" x="594.048055" xlink:href="#mee8933c547" y="367.638642"/>
     <use style="fill:#0000ff;stroke:#0000ff;" x="515.410343" xlink:href="#mee8933c547" y="287.493232"/>
     <use style="fill:#0000ff;stroke:#0000ff;" x="512.454261" xlink:href="#mee8933c547" y="320.063376"/>
     <use style="fill:#0000ff;stroke:#0000ff;" x="555.245547" xlink:href="#mee8933c547" y="334.376543"/>
     <use style="fill:#0000ff;stroke:#0000ff;" x="824.11945" xlink:href="#mee8933c547" y="675.997821"/>
     <use style="fill:#0000ff;stroke:#0000ff;" x="511.340826" xlink:href="#mee8933c547" y="287.929577"/>
     <use style="fill:#0000ff;stroke:#0000ff;" x="360.642914" xlink:href="#mee8933c547" y="353.923573"/>
     <use style="fill:#0000ff;stroke:#0000ff;" x="608.436746" xlink:href="#mee8933c547" y="489.624366"/>
     <use style="fill:#0000ff;stroke:#0000ff;" x="-1" xlink:href="#mee8933c547" y="104.255973"/>
     <use style="fill:#0000ff;stroke:#0000ff;" x="-1" xlink:href="#mee8933c547" y="106.517282"/>
     <use style="fill:#0000ff;stroke:#0000ff;" x="359.395766" xlink:href="#mee8933c547" y="352.834341"/>
     <use style="fill:#0000ff;stroke:#0000ff;" x="-1" xlink:href="#mee8933c547" y="103.989149"/>
     <use style="fill:#0000ff;stroke:#0000ff;" x="-1" xlink:href="#mee8933c547" y="75.121441"/>
     <use style="fill:#0000ff;stroke:#0000ff;" x="385.43843" xlink:href="#mee8933c547" y="-1"/>
     <use style="fill:#0000ff;stroke:#0000ff;" x="361.971827" xlink:href="#mee8933c547" y="-1"/>
     <use style="fill:#0000ff;stroke:#0000ff;" x="-1" xlink:href="#mee8933c547" y="65.870736"/>
     <use style="fill:#0000ff;stroke:#0000ff;" x="-1" xlink:href="#mee8933c547" y="70.003968"/>
     <use style="fill:#0000ff;stroke:#0000ff;" x="12.822065" xlink:href="#mee8933c547" y="68.558913"/>
     <use style="fill:#0000ff;stroke:#0000ff;" x="-1" xlink:href="#mee8933c547" y="178.640185"/>
     <use style="fill:#0000ff;stroke:#0000ff;" x="-1" xlink:href="#mee8933c547" y="109.313637"/>
     <use style="fill:#0000ff;stroke:#0000ff;" x="495.988096" xlink:href="#mee8933c547" y="364.098704"/>
     <use style="fill:#0000ff;stroke:#0000ff;" x="515.190413" xlink:href="#mee8933c547" y="280.963801"/>
     <use style="fill:#0000ff;stroke:#0000ff;" x="527.649576" xlink:href="#mee8933c547" y="339.036801"/>
     <use style="fill:#0000ff;stroke:#0000ff;" x="483.707606" xlink:href="#mee8933c547" y="322.011274"/>
     <use style="fill:#0000ff;stroke:#0000ff;" x="-1" xlink:href="#mee8933c547" y="69.553648"/>
     <use style="fill:#0000ff;stroke:#0000ff;" x="-1" xlink:href="#mee8933c547" y="103.452074"/>
     <use style="fill:#0000ff;stroke:#0000ff;" x="880.024536" xlink:href="#mee8933c547" y="644.725053"/>
     <use style="fill:#0000ff;stroke:#0000ff;" x="-1" xlink:href="#mee8933c547" y="829.136973"/>
     <use style="fill:#0000ff;stroke:#0000ff;" x="-1" xlink:href="#mee8933c547" y="623.445715"/>
     <use style="fill:#0000ff;stroke:#0000ff;" x="567.614147" xlink:href="#mee8933c547" y="442.256581"/>
     <use style="fill:#0000ff;stroke:#0000ff;" x="482.695236" xlink:href="#mee8933c547" y="457.213004"/>
    </g>
   </g>
   <g id="line2d_19">
    <defs>
     <path d="M 0 1.5 
C 0.397805 1.5 0.77937 1.341951 1.06066 1.06066 
C 1.341951 0.77937 1.5 0.397805 1.5 0 
C 1.5 -0.397805 1.341951 -0.77937 1.06066 -1.06066 
C 0.77937 -1.341951 0.397805 -1.5 0 -1.5 
C -0.397805 -1.5 -0.77937 -1.341951 -1.06066 -1.06066 
C -1.341951 -0.77937 -1.5 -0.397805 -1.5 0 
C -1.5 0.397805 -1.341951 0.77937 -1.06066 1.06066 
C -0.77937 1.341951 -0.397805 1.5 0 1.5 
z
" id="mc72213b07f" style="stroke:#00bfbf;"/>
    </defs>
    <g clip-path="url(#p39979fa592)">
     <use style="fill:#00bfbf;stroke:#00bfbf;" x="562.400715" xlink:href="#mc72213b07f" y="328.428672"/>
     <use style="fill:#00bfbf;stroke:#00bfbf;" x="542.818039" xlink:href="#mc72213b07f" y="336.811316"/>
     <use style="fill:#00bfbf;stroke:#00bfbf;" x="675.068834" xlink:href="#mc72213b07f" y="502.763339"/>
     <use style="fill:#00bfbf;stroke:#00bfbf;" x="420.874872" xlink:href="#mc72213b07f" y="380.760162"/>
     <use style="fill:#00bfbf;stroke:#00bfbf;" x="921.187759" xlink:href="#mc72213b07f" y="604.907914"/>
     <use style="fill:#00bfbf;stroke:#00bfbf;" x="526.425648" xlink:href="#mc72213b07f" y="336.826363"/>
     <use style="fill:#00bfbf;stroke:#00bfbf;" x="892.172326" xlink:href="#mc72213b07f" y="627.690408"/>
     <use style="fill:#00bfbf;stroke:#00bfbf;" x="-1" xlink:href="#mc72213b07f" y="766.663268"/>
     <use style="fill:#00bfbf;stroke:#00bfbf;" x="-1" xlink:href="#mc72213b07f" y="776.463965"/>
     <use style="fill:#00bfbf;stroke:#00bfbf;" x="413.471861" xlink:href="#mc72213b07f" y="375.596741"/>
    </g>
   </g>
   <g id="line2d_20">
    <defs>
     <path d="M 0 1.5 
C 0.397805 1.5 0.77937 1.341951 1.06066 1.06066 
C 1.341951 0.77937 1.5 0.397805 1.5 0 
C 1.5 -0.397805 1.341951 -0.77937 1.06066 -1.06066 
C 0.77937 -1.341951 0.397805 -1.5 0 -1.5 
C -0.397805 -1.5 -0.77937 -1.341951 -1.06066 -1.06066 
C -1.341951 -0.77937 -1.5 -0.397805 -1.5 0 
C -1.5 0.397805 -1.341951 0.77937 -1.06066 1.06066 
C -0.77937 1.341951 -0.397805 1.5 0 1.5 
z
" id="maa88995732" style="stroke:#bf00bf;"/>
    </defs>
    <g clip-path="url(#p39979fa592)">
     <use style="fill:#bf00bf;stroke:#bf00bf;" x="361.070203" xlink:href="#maa88995732" y="354.190857"/>
    </g>
   </g>
   <g id="line2d_21">
    <g clip-path="url(#p39979fa592)">
     <use style="fill:#bf00bf;stroke:#bf00bf;" x="356.004477" xlink:href="#maa88995732" y="352.040296"/>
     <use style="fill:#bf00bf;stroke:#bf00bf;" x="360.20607" xlink:href="#maa88995732" y="349.15896"/>
     <use style="fill:#bf00bf;stroke:#bf00bf;" x="583.540798" xlink:href="#maa88995732" y="314.889436"/>
     <use style="fill:#bf00bf;stroke:#bf00bf;" x="360.215275" xlink:href="#maa88995732" y="353.919442"/>
    </g>
   </g>
   <g id="line2d_22"/>
   <g id="patch_3">
    <path d="M 359.790625 26.039062 
C 316.908882 26.039062 274.44411 34.485831 234.826546 50.895963 
C 195.208982 67.306096 159.209086 91.360457 128.887115 121.682428 
C 98.565144 152.004399 74.510783 188.004294 58.100651 227.621859 
C 41.690518 267.239423 33.24375 309.704195 33.24375 352.585938 
C 33.24375 395.46768 41.690518 437.932452 58.100651 477.550016 
C 74.510783 517.167581 98.565144 553.167476 128.887115 583.489447 
C 159.209086 613.811418 195.208982 637.865779 234.826546 654.275912 
C 274.44411 670.686044 316.908882 679.132812 359.790625 679.132812 
C 402.672368 679.132812 445.13714 670.686044 484.754704 654.275912 
C 524.372268 637.865779 560.372164 613.811418 590.694135 583.489447 
C 621.016106 553.167476 645.070467 517.167581 661.480599 477.550016 
C 677.890732 437.932452 686.3375 395.46768 686.3375 352.585938 
C 686.3375 309.704195 677.890732 267.239423 661.480599 227.621859 
C 645.070467 188.004294 621.016106 152.004399 590.694135 121.682428 
C 560.372164 91.360457 524.372268 67.306096 484.754704 50.895963 
C 445.13714 34.485831 402.672368 26.039062 359.790625 26.039062 
" style="fill:none;stroke:#000000;stroke-linecap:square;stroke-linejoin:miter;stroke-width:0.8;"/>
   </g>
  </g>
 </g>
 <defs>
  <clipPath id="p39979fa592">
   <path d="M 686.3375 352.585938 
C 686.3375 309.704195 677.890732 267.239423 661.480599 227.621859 
C 645.070467 188.004294 621.016106 152.004399 590.694135 121.682428 
C 560.372164 91.360457 524.372268 67.306096 484.754704 50.895963 
C 445.13714 34.485831 402.672368 26.039062 359.790625 26.039062 
C 316.908882 26.039062 274.44411 34.485831 234.826546 50.895963 
C 195.208982 67.306096 159.209086 91.360457 128.887115 121.682428 
C 98.565144 152.004399 74.510783 188.004294 58.100651 227.621859 
C 41.690518 267.239423 33.24375 309.704195 33.24375 352.585937 
C 33.24375 395.46768 41.690518 437.932452 58.100651 477.550016 
C 74.510783 517.167581 98.565144 553.167476 128.887115 583.489447 
C 159.209086 613.811418 195.208982 637.865779 234.826546 654.275912 
C 274.44411 670.686044 316.908882 679.132812 359.790625 679.132812 
C 402.672368 679.132812 445.13714 670.686044 484.754704 654.275912 
C 524.372268 637.865779 560.372164 613.811418 590.694135 583.489447 
C 621.016106 553.167476 645.070467 517.167581 661.480599 477.550016 
C 677.890732 437.932452 686.3375 395.46768 686.3375 352.585938 
M 359.790625 352.585938 
C 359.790625 352.585938 359.790625 352.585938 359.790625 352.585938 
C 359.790625 352.585938 359.790625 352.585938 359.790625 352.585938 
C 359.790625 352.585938 359.790625 352.585938 359.790625 352.585938 
C 359.790625 352.585938 359.790625 352.585938 359.790625 352.585938 
C 359.790625 352.585938 359.790625 352.585938 359.790625 352.585938 
C 359.790625 352.585938 359.790625 352.585938 359.790625 352.585938 
C 359.790625 352.585938 359.790625 352.585938 359.790625 352.585938 
C 359.790625 352.585938 359.790625 352.585938 359.790625 352.585938 
C 359.790625 352.585938 359.790625 352.585938 359.790625 352.585938 
C 359.790625 352.585938 359.790625 352.585938 359.790625 352.585938 
C 359.790625 352.585938 359.790625 352.585938 359.790625 352.585938 
C 359.790625 352.585938 359.790625 352.585938 359.790625 352.585938 
C 359.790625 352.585938 359.790625 352.585938 359.790625 352.585938 
C 359.790625 352.585938 359.790625 352.585938 359.790625 352.585938 
C 359.790625 352.585938 359.790625 352.585938 359.790625 352.585938 
C 359.790625 352.585938 359.790625 352.585938 359.790625 352.585938 
M 686.3375 352.585938 
z
"/>
  </clipPath>
 </defs>
</svg>
