<?xml version="1.0" encoding="utf-8" standalone="no"?>
<!DOCTYPE svg PUBLIC "-//W3C//DTD SVG 1.1//EN"
  "http://www.w3.org/Graphics/SVG/1.1/DTD/svg11.dtd">
<!-- Created with matplotlib (https://matplotlib.org/) -->
<svg height="705.171875pt" version="1.1" viewBox="0 0 716.4 705.171875" width="716.4pt" xmlns="http://www.w3.org/2000/svg" xmlns:xlink="http://www.w3.org/1999/xlink">
 <defs>
  <style type="text/css">
*{stroke-linecap:butt;stroke-linejoin:round;}
  </style>
 </defs>
 <g id="figure_1">
  <g id="patch_1">
   <path d="M -0 705.171875 
L 716.4 705.171875 
L 716.4 0 
L -0 0 
z
" style="fill:#ffffff;"/>
  </g>
  <g id="axes_1">
   <g id="patch_2">
    <path d="M 686.3375 352.585938 
C 686.3375 309.704195 677.890732 267.239423 661.480599 227.621859 
C 645.070467 188.004294 621.016106 152.004399 590.694135 121.682428 
C 560.372164 91.360457 524.372268 67.306096 484.754704 50.895963 
C 445.13714 34.485831 402.672368 26.039062 359.790625 26.039062 
C 316.908882 26.039062 274.44411 34.485831 234.826546 50.895963 
C 195.208982 67.306096 159.209086 91.360457 128.887115 121.682428 
C 98.565144 152.004399 74.510783 188.004294 58.100651 227.621859 
C 41.690518 267.239423 33.24375 309.704195 33.24375 352.585937 
C 33.24375 395.46768 41.690518 437.932452 58.100651 477.550016 
C 74.510783 517.167581 98.565144 553.167476 128.887115 583.489447 
C 159.209086 613.811418 195.208982 637.865779 234.826546 654.275912 
C 274.44411 670.686044 316.908882 679.132812 359.790625 679.132812 
C 402.672368 679.132812 445.13714 670.686044 484.754704 654.275912 
C 524.372268 637.865779 560.372164 613.811418 590.694135 583.489447 
C 621.016106 553.167476 645.070467 517.167581 661.480599 477.550016 
C 677.890732 437.932452 686.3375 395.46768 686.3375 352.585938 
M 359.790625 352.585938 
C 359.790625 352.585938 359.790625 352.585938 359.790625 352.585938 
C 359.790625 352.585938 359.790625 352.585938 359.790625 352.585938 
C 359.790625 352.585938 359.790625 352.585938 359.790625 352.585938 
C 359.790625 352.585938 359.790625 352.585938 359.790625 352.585938 
C 359.790625 352.585938 359.790625 352.585938 359.790625 352.585938 
C 359.790625 352.585938 359.790625 352.585938 359.790625 352.585938 
C 359.790625 352.585938 359.790625 352.585938 359.790625 352.585938 
C 359.790625 352.585938 359.790625 352.585938 359.790625 352.585938 
C 359.790625 352.585938 359.790625 352.585938 359.790625 352.585938 
C 359.790625 352.585938 359.790625 352.585938 359.790625 352.585938 
C 359.790625 352.585938 359.790625 352.585938 359.790625 352.585938 
C 359.790625 352.585938 359.790625 352.585938 359.790625 352.585938 
C 359.790625 352.585938 359.790625 352.585938 359.790625 352.585938 
C 359.790625 352.585938 359.790625 352.585938 359.790625 352.585938 
C 359.790625 352.585938 359.790625 352.585938 359.790625 352.585938 
C 359.790625 352.585938 359.790625 352.585938 359.790625 352.585938 
M 686.3375 352.585938 
z
" style="fill:#ffffff;"/>
   </g>
   <g id="matplotlib.axis_1">
    <g id="xtick_1">
     <g id="line2d_1">
      <path clip-path="url(#pc53caf48a3)" d="M 359.790625 352.585938 
L 359.790625 26.039062 
" style="fill:none;stroke:#b0b0b0;stroke-linecap:square;stroke-width:0.8;"/>
     </g>
     <g id="text_1">
      <!-- 0° -->
      <defs>
       <path d="M 31.78125 66.40625 
Q 24.171875 66.40625 20.328125 58.90625 
Q 16.5 51.421875 16.5 36.375 
Q 16.5 21.390625 20.328125 13.890625 
Q 24.171875 6.390625 31.78125 6.390625 
Q 39.453125 6.390625 43.28125 13.890625 
Q 47.125 21.390625 47.125 36.375 
Q 47.125 51.421875 43.28125 58.90625 
Q 39.453125 66.40625 31.78125 66.40625 
z
M 31.78125 74.21875 
Q 44.046875 74.21875 50.515625 64.515625 
Q 56.984375 54.828125 56.984375 36.375 
Q 56.984375 17.96875 50.515625 8.265625 
Q 44.046875 -1.421875 31.78125 -1.421875 
Q 19.53125 -1.421875 13.0625 8.265625 
Q 6.59375 17.96875 6.59375 36.375 
Q 6.59375 54.828125 13.0625 64.515625 
Q 19.53125 74.21875 31.78125 74.21875 
z
" id="DejaVuSans-48"/>
       <path d="M 25 67.921875 
Q 21.09375 67.921875 18.40625 65.203125 
Q 15.71875 62.5 15.71875 58.59375 
Q 15.71875 54.734375 18.40625 52.078125 
Q 21.09375 49.421875 25 49.421875 
Q 28.90625 49.421875 31.59375 52.078125 
Q 34.28125 54.734375 34.28125 58.59375 
Q 34.28125 62.453125 31.5625 65.1875 
Q 28.859375 67.921875 25 67.921875 
z
M 25 74.21875 
Q 28.125 74.21875 31 73.015625 
Q 33.890625 71.828125 35.984375 69.578125 
Q 38.234375 67.390625 39.359375 64.59375 
Q 40.484375 61.8125 40.484375 58.59375 
Q 40.484375 52.15625 35.96875 47.6875 
Q 31.453125 43.21875 24.90625 43.21875 
Q 18.3125 43.21875 13.90625 47.609375 
Q 9.515625 52 9.515625 58.59375 
Q 9.515625 65.140625 14 69.671875 
Q 18.5 74.21875 25 74.21875 
z
" id="DejaVuSans-176"/>
      </defs>
      <g transform="translate(354.109375 14.798437)scale(0.1 -0.1)">
       <use xlink:href="#DejaVuSans-48"/>
       <use x="63.623047" xlink:href="#DejaVuSans-176"/>
      </g>
     </g>
    </g>
    <g id="xtick_2">
     <g id="line2d_2">
      <path clip-path="url(#pc53caf48a3)" d="M 359.790625 352.585938 
L 590.694135 121.682428 
" style="fill:none;stroke:#b0b0b0;stroke-linecap:square;stroke-width:0.8;"/>
     </g>
     <g id="text_2">
      <!-- 45° -->
      <defs>
       <path d="M 37.796875 64.3125 
L 12.890625 25.390625 
L 37.796875 25.390625 
z
M 35.203125 72.90625 
L 47.609375 72.90625 
L 47.609375 25.390625 
L 58.015625 25.390625 
L 58.015625 17.1875 
L 47.609375 17.1875 
L 47.609375 0 
L 37.796875 0 
L 37.796875 17.1875 
L 4.890625 17.1875 
L 4.890625 26.703125 
z
" id="DejaVuSans-52"/>
       <path d="M 10.796875 72.90625 
L 49.515625 72.90625 
L 49.515625 64.59375 
L 19.828125 64.59375 
L 19.828125 46.734375 
Q 21.96875 47.46875 24.109375 47.828125 
Q 26.265625 48.1875 28.421875 48.1875 
Q 40.625 48.1875 47.75 41.5 
Q 54.890625 34.8125 54.890625 23.390625 
Q 54.890625 11.625 47.5625 5.09375 
Q 40.234375 -1.421875 26.90625 -1.421875 
Q 22.3125 -1.421875 17.546875 -0.640625 
Q 12.796875 0.140625 7.71875 1.703125 
L 7.71875 11.625 
Q 12.109375 9.234375 16.796875 8.0625 
Q 21.484375 6.890625 26.703125 6.890625 
Q 35.15625 6.890625 40.078125 11.328125 
Q 45.015625 15.765625 45.015625 23.390625 
Q 45.015625 31 40.078125 35.4375 
Q 35.15625 39.890625 26.703125 39.890625 
Q 22.75 39.890625 18.8125 39.015625 
Q 14.890625 38.140625 10.796875 36.28125 
z
" id="DejaVuSans-53"/>
      </defs>
      <g transform="translate(591.73113 114.542308)scale(0.1 -0.1)">
       <use xlink:href="#DejaVuSans-52"/>
       <use x="63.623047" xlink:href="#DejaVuSans-53"/>
       <use x="127.246094" xlink:href="#DejaVuSans-176"/>
      </g>
     </g>
    </g>
    <g id="xtick_3">
     <g id="line2d_3">
      <path clip-path="url(#pc53caf48a3)" d="M 359.790625 352.585938 
L 686.3375 352.585938 
" style="fill:none;stroke:#b0b0b0;stroke-linecap:square;stroke-width:0.8;"/>
     </g>
     <g id="text_3">
      <!-- 90° -->
      <defs>
       <path d="M 10.984375 1.515625 
L 10.984375 10.5 
Q 14.703125 8.734375 18.5 7.8125 
Q 22.3125 6.890625 25.984375 6.890625 
Q 35.75 6.890625 40.890625 13.453125 
Q 46.046875 20.015625 46.78125 33.40625 
Q 43.953125 29.203125 39.59375 26.953125 
Q 35.25 24.703125 29.984375 24.703125 
Q 19.046875 24.703125 12.671875 31.3125 
Q 6.296875 37.9375 6.296875 49.421875 
Q 6.296875 60.640625 12.9375 67.421875 
Q 19.578125 74.21875 30.609375 74.21875 
Q 43.265625 74.21875 49.921875 64.515625 
Q 56.59375 54.828125 56.59375 36.375 
Q 56.59375 19.140625 48.40625 8.859375 
Q 40.234375 -1.421875 26.421875 -1.421875 
Q 22.703125 -1.421875 18.890625 -0.6875 
Q 15.09375 0.046875 10.984375 1.515625 
z
M 30.609375 32.421875 
Q 37.25 32.421875 41.125 36.953125 
Q 45.015625 41.5 45.015625 49.421875 
Q 45.015625 57.28125 41.125 61.84375 
Q 37.25 66.40625 30.609375 66.40625 
Q 23.96875 66.40625 20.09375 61.84375 
Q 16.21875 57.28125 16.21875 49.421875 
Q 16.21875 41.5 20.09375 36.953125 
Q 23.96875 32.421875 30.609375 32.421875 
z
" id="DejaVuSans-57"/>
      </defs>
      <g transform="translate(691.475 355.345312)scale(0.1 -0.1)">
       <use xlink:href="#DejaVuSans-57"/>
       <use x="63.623047" xlink:href="#DejaVuSans-48"/>
       <use x="127.246094" xlink:href="#DejaVuSans-176"/>
      </g>
     </g>
    </g>
    <g id="xtick_4">
     <g id="line2d_4">
      <path clip-path="url(#pc53caf48a3)" d="M 359.790625 352.585938 
L 590.694135 583.489447 
" style="fill:none;stroke:#b0b0b0;stroke-linecap:square;stroke-width:0.8;"/>
     </g>
     <g id="text_4">
      <!-- 135° -->
      <defs>
       <path d="M 12.40625 8.296875 
L 28.515625 8.296875 
L 28.515625 63.921875 
L 10.984375 60.40625 
L 10.984375 69.390625 
L 28.421875 72.90625 
L 38.28125 72.90625 
L 38.28125 8.296875 
L 54.390625 8.296875 
L 54.390625 0 
L 12.40625 0 
z
" id="DejaVuSans-49"/>
       <path d="M 40.578125 39.3125 
Q 47.65625 37.796875 51.625 33 
Q 55.609375 28.21875 55.609375 21.1875 
Q 55.609375 10.40625 48.1875 4.484375 
Q 40.765625 -1.421875 27.09375 -1.421875 
Q 22.515625 -1.421875 17.65625 -0.515625 
Q 12.796875 0.390625 7.625 2.203125 
L 7.625 11.71875 
Q 11.71875 9.328125 16.59375 8.109375 
Q 21.484375 6.890625 26.8125 6.890625 
Q 36.078125 6.890625 40.9375 10.546875 
Q 45.796875 14.203125 45.796875 21.1875 
Q 45.796875 27.640625 41.28125 31.265625 
Q 36.765625 34.90625 28.71875 34.90625 
L 20.21875 34.90625 
L 20.21875 43.015625 
L 29.109375 43.015625 
Q 36.375 43.015625 40.234375 45.921875 
Q 44.09375 48.828125 44.09375 54.296875 
Q 44.09375 59.90625 40.109375 62.90625 
Q 36.140625 65.921875 28.71875 65.921875 
Q 24.65625 65.921875 20.015625 65.03125 
Q 15.375 64.15625 9.8125 62.3125 
L 9.8125 71.09375 
Q 15.4375 72.65625 20.34375 73.4375 
Q 25.25 74.21875 29.59375 74.21875 
Q 40.828125 74.21875 47.359375 69.109375 
Q 53.90625 64.015625 53.90625 55.328125 
Q 53.90625 49.265625 50.4375 45.09375 
Q 46.96875 40.921875 40.578125 39.3125 
z
" id="DejaVuSans-51"/>
      </defs>
      <g transform="translate(588.54988 596.148317)scale(0.1 -0.1)">
       <use xlink:href="#DejaVuSans-49"/>
       <use x="63.623047" xlink:href="#DejaVuSans-51"/>
       <use x="127.246094" xlink:href="#DejaVuSans-53"/>
       <use x="190.869141" xlink:href="#DejaVuSans-176"/>
      </g>
     </g>
    </g>
    <g id="xtick_5">
     <g id="line2d_5">
      <path clip-path="url(#pc53caf48a3)" d="M 359.790625 352.585938 
L 359.790625 679.132812 
" style="fill:none;stroke:#b0b0b0;stroke-linecap:square;stroke-width:0.8;"/>
     </g>
     <g id="text_5">
      <!-- 180° -->
      <defs>
       <path d="M 31.78125 34.625 
Q 24.75 34.625 20.71875 30.859375 
Q 16.703125 27.09375 16.703125 20.515625 
Q 16.703125 13.921875 20.71875 10.15625 
Q 24.75 6.390625 31.78125 6.390625 
Q 38.8125 6.390625 42.859375 10.171875 
Q 46.921875 13.96875 46.921875 20.515625 
Q 46.921875 27.09375 42.890625 30.859375 
Q 38.875 34.625 31.78125 34.625 
z
M 21.921875 38.8125 
Q 15.578125 40.375 12.03125 44.71875 
Q 8.5 49.078125 8.5 55.328125 
Q 8.5 64.0625 14.71875 69.140625 
Q 20.953125 74.21875 31.78125 74.21875 
Q 42.671875 74.21875 48.875 69.140625 
Q 55.078125 64.0625 55.078125 55.328125 
Q 55.078125 49.078125 51.53125 44.71875 
Q 48 40.375 41.703125 38.8125 
Q 48.828125 37.15625 52.796875 32.3125 
Q 56.78125 27.484375 56.78125 20.515625 
Q 56.78125 9.90625 50.3125 4.234375 
Q 43.84375 -1.421875 31.78125 -1.421875 
Q 19.734375 -1.421875 13.25 4.234375 
Q 6.78125 9.90625 6.78125 20.515625 
Q 6.78125 27.484375 10.78125 32.3125 
Q 14.796875 37.15625 21.921875 38.8125 
z
M 18.3125 54.390625 
Q 18.3125 48.734375 21.84375 45.5625 
Q 25.390625 42.390625 31.78125 42.390625 
Q 38.140625 42.390625 41.71875 45.5625 
Q 45.3125 48.734375 45.3125 54.390625 
Q 45.3125 60.0625 41.71875 63.234375 
Q 38.140625 66.40625 31.78125 66.40625 
Q 25.390625 66.40625 21.84375 63.234375 
Q 18.3125 60.0625 18.3125 54.390625 
z
" id="DejaVuSans-56"/>
      </defs>
      <g transform="translate(347.746875 695.892187)scale(0.1 -0.1)">
       <use xlink:href="#DejaVuSans-49"/>
       <use x="63.623047" xlink:href="#DejaVuSans-56"/>
       <use x="127.246094" xlink:href="#DejaVuSans-48"/>
       <use x="190.869141" xlink:href="#DejaVuSans-176"/>
      </g>
     </g>
    </g>
    <g id="xtick_6">
     <g id="line2d_6">
      <path clip-path="url(#pc53caf48a3)" d="M 359.790625 352.585938 
L 128.887115 583.489447 
" style="fill:none;stroke:#b0b0b0;stroke-linecap:square;stroke-width:0.8;"/>
     </g>
     <g id="text_6">
      <!-- 225° -->
      <defs>
       <path d="M 19.1875 8.296875 
L 53.609375 8.296875 
L 53.609375 0 
L 7.328125 0 
L 7.328125 8.296875 
Q 12.9375 14.109375 22.625 23.890625 
Q 32.328125 33.6875 34.8125 36.53125 
Q 39.546875 41.84375 41.421875 45.53125 
Q 43.3125 49.21875 43.3125 52.78125 
Q 43.3125 58.59375 39.234375 62.25 
Q 35.15625 65.921875 28.609375 65.921875 
Q 23.96875 65.921875 18.8125 64.3125 
Q 13.671875 62.703125 7.8125 59.421875 
L 7.8125 69.390625 
Q 13.765625 71.78125 18.9375 73 
Q 24.125 74.21875 28.421875 74.21875 
Q 39.75 74.21875 46.484375 68.546875 
Q 53.21875 62.890625 53.21875 53.421875 
Q 53.21875 48.921875 51.53125 44.890625 
Q 49.859375 40.875 45.40625 35.40625 
Q 44.1875 33.984375 37.640625 27.21875 
Q 31.109375 20.453125 19.1875 8.296875 
z
" id="DejaVuSans-50"/>
      </defs>
      <g transform="translate(106.94387 596.148317)scale(0.1 -0.1)">
       <use xlink:href="#DejaVuSans-50"/>
       <use x="63.623047" xlink:href="#DejaVuSans-50"/>
       <use x="127.246094" xlink:href="#DejaVuSans-53"/>
       <use x="190.869141" xlink:href="#DejaVuSans-176"/>
      </g>
     </g>
    </g>
    <g id="xtick_7">
     <g id="line2d_7">
      <path clip-path="url(#pc53caf48a3)" d="M 359.790625 352.585938 
L 33.24375 352.585938 
" style="fill:none;stroke:#b0b0b0;stroke-linecap:square;stroke-width:0.8;"/>
     </g>
     <g id="text_7">
      <!-- 270° -->
      <defs>
       <path d="M 8.203125 72.90625 
L 55.078125 72.90625 
L 55.078125 68.703125 
L 28.609375 0 
L 18.3125 0 
L 43.21875 64.59375 
L 8.203125 64.59375 
z
" id="DejaVuSans-55"/>
      </defs>
      <g transform="translate(7.2 355.345313)scale(0.1 -0.1)">
       <use xlink:href="#DejaVuSans-50"/>
       <use x="63.623047" xlink:href="#DejaVuSans-55"/>
       <use x="127.246094" xlink:href="#DejaVuSans-48"/>
       <use x="190.869141" xlink:href="#DejaVuSans-176"/>
      </g>
     </g>
    </g>
    <g id="xtick_8">
     <g id="line2d_8">
      <path clip-path="url(#pc53caf48a3)" d="M 359.790625 352.585938 
L 128.887115 121.682428 
" style="fill:none;stroke:#b0b0b0;stroke-linecap:square;stroke-width:0.8;"/>
     </g>
     <g id="text_8">
      <!-- 315° -->
      <g transform="translate(106.94387 114.542308)scale(0.1 -0.1)">
       <use xlink:href="#DejaVuSans-51"/>
       <use x="63.623047" xlink:href="#DejaVuSans-49"/>
       <use x="127.246094" xlink:href="#DejaVuSans-53"/>
       <use x="190.869141" xlink:href="#DejaVuSans-176"/>
      </g>
     </g>
    </g>
   </g>
   <g id="matplotlib.axis_2">
    <g id="ytick_1">
     <g id="line2d_9">
      <path clip-path="url(#pc53caf48a3)" d="M 359.790625 259.28683 
L 363.046717 259.343666 
L 366.298842 259.514102 
L 369.543037 259.797933 
L 372.775351 260.194811 
L 375.991845 260.704253 
L 379.1886 261.32564 
L 382.361722 262.058213 
L 385.507344 262.90108 
L 388.621635 263.853214 
L 391.700799 264.913455 
L 394.741086 266.080512 
L 397.738791 267.352962 
L 400.690262 268.729255 
L 403.591903 270.207715 
L 406.440179 271.786541 
L 409.231619 273.463807 
L 411.962824 275.237472 
L 414.630464 277.105374 
L 417.231291 279.065238 
L 419.762135 281.114675 
L 422.219913 283.251189 
L 424.601631 285.472176 
L 426.904386 287.774932 
L 429.125374 290.156649 
L 431.261888 292.614427 
L 433.311325 295.145272 
L 435.271188 297.746098 
L 437.13909 300.413739 
L 438.912755 303.144943 
L 440.590022 305.936384 
L 442.168847 308.78466 
L 443.647307 311.686301 
L 445.023601 314.637772 
L 446.296051 317.635477 
L 447.463108 320.675764 
L 448.523349 323.754928 
L 449.475483 326.869218 
L 450.31835 330.014841 
L 451.050923 333.187962 
L 451.672309 336.384718 
L 452.181752 339.601211 
L 452.57863 342.833525 
L 452.86246 346.077721 
L 453.032897 349.329846 
L 453.089732 352.585938 
L 453.032897 355.842029 
L 452.86246 359.094154 
L 452.57863 362.33835 
L 452.181752 365.570664 
L 451.672309 368.787157 
L 451.050923 371.983913 
L 450.31835 375.157034 
L 449.475483 378.302657 
L 448.523349 381.416947 
L 447.463108 384.496111 
L 446.296051 387.536398 
L 445.023601 390.534103 
L 443.647307 393.485574 
L 442.168847 396.387215 
L 440.590022 399.235491 
L 438.912755 402.026932 
L 437.13909 404.758136 
L 435.271188 407.425777 
L 433.311325 410.026603 
L 431.261888 412.557448 
L 429.125374 415.015226 
L 426.904386 417.396943 
L 424.601631 419.699699 
L 422.219913 421.920686 
L 419.762135 424.0572 
L 417.231291 426.106637 
L 414.630464 428.066501 
L 411.962824 429.934403 
L 409.231619 431.708068 
L 406.440179 433.385334 
L 403.591903 434.96416 
L 400.690262 436.44262 
L 397.738791 437.818913 
L 394.741086 439.091363 
L 391.700799 440.25842 
L 388.621635 441.318661 
L 385.507344 442.270795 
L 382.361722 443.113662 
L 379.1886 443.846235 
L 375.991845 444.467622 
L 372.775351 444.977064 
L 369.543037 445.373942 
L 366.298842 445.657773 
L 363.046717 445.828209 
L 359.790625 445.885045 
L 356.534533 445.828209 
L 353.282408 445.657773 
L 350.038213 445.373942 
L 346.805899 444.977064 
L 343.589405 444.467622 
L 340.39265 443.846235 
L 337.219528 443.113662 
L 334.073906 442.270795 
L 330.959615 441.318661 
L 327.880451 440.25842 
L 324.840164 439.091363 
L 321.842459 437.818913 
L 318.890988 436.44262 
L 315.989347 434.96416 
L 313.141071 433.385334 
L 310.349631 431.708068 
L 307.618426 429.934403 
L 304.950786 428.066501 
L 302.349959 426.106637 
L 299.819115 424.0572 
L 297.361337 421.920686 
L 294.979619 419.699699 
L 292.676864 417.396943 
L 290.455876 415.015226 
L 288.319362 412.557448 
L 286.269925 410.026603 
L 284.310062 407.425777 
L 282.44216 404.758136 
L 280.668495 402.026932 
L 278.991228 399.235491 
L 277.412403 396.387215 
L 275.933943 393.485574 
L 274.557649 390.534103 
L 273.285199 387.536398 
L 272.118142 384.496111 
L 271.057901 381.416947 
L 270.105767 378.302657 
L 269.2629 375.157034 
L 268.530327 371.983913 
L 267.908941 368.787157 
L 267.399498 365.570664 
L 267.00262 362.33835 
L 266.71879 359.094154 
L 266.548353 355.842029 
L 266.491518 352.585938 
L 266.548353 349.329846 
L 266.71879 346.077721 
L 267.00262 342.833525 
L 267.399498 339.601211 
L 267.908941 336.384718 
L 268.530327 333.187962 
L 269.2629 330.014841 
L 270.105767 326.869218 
L 271.057901 323.754928 
L 272.118142 320.675764 
L 273.285199 317.635477 
L 274.557649 314.637772 
L 275.933943 311.686301 
L 277.412403 308.78466 
L 278.991228 305.936384 
L 280.668495 303.144943 
L 282.44216 300.413739 
L 284.310062 297.746098 
L 286.269925 295.145272 
L 288.319362 292.614427 
L 290.455876 290.156649 
L 292.676864 287.774932 
L 294.979619 285.472176 
L 297.361337 283.251189 
L 299.819115 281.114675 
L 302.349959 279.065238 
L 304.950786 277.105374 
L 307.618426 275.237472 
L 310.349631 273.463807 
L 313.141071 271.786541 
L 315.989347 270.207715 
L 318.890988 268.729255 
L 321.842459 267.352962 
L 324.840164 266.080512 
L 327.880451 264.913455 
L 330.959615 263.853214 
L 334.073906 262.90108 
L 337.219528 262.058213 
L 340.39265 261.32564 
L 343.589405 260.704253 
L 346.805899 260.194811 
L 350.038213 259.797933 
L 353.282408 259.514102 
L 356.534533 259.343666 
L 359.790625 259.28683 
L 359.790625 259.28683 
" style="fill:none;stroke:#b0b0b0;stroke-linecap:square;stroke-width:0.8;"/>
     </g>
     <g id="text_9">
      <!-- 1000 -->
      <g transform="translate(395.494648 264.309115)scale(0.1 -0.1)">
       <use xlink:href="#DejaVuSans-49"/>
       <use x="63.623047" xlink:href="#DejaVuSans-48"/>
       <use x="127.246094" xlink:href="#DejaVuSans-48"/>
       <use x="190.869141" xlink:href="#DejaVuSans-48"/>
      </g>
     </g>
    </g>
    <g id="ytick_2">
     <g id="line2d_10">
      <path clip-path="url(#pc53caf48a3)" d="M 359.790625 165.987723 
L 366.302809 166.101394 
L 372.807058 166.442267 
L 379.29545 167.009928 
L 385.760077 167.803684 
L 392.193065 168.822569 
L 398.586575 170.065342 
L 404.932819 171.530488 
L 411.224063 173.216222 
L 417.452644 175.12049 
L 423.610973 177.240972 
L 429.691546 179.575086 
L 435.686956 182.119986 
L 441.589898 184.872573 
L 447.39318 187.829493 
L 453.089732 190.987144 
L 458.672613 194.341677 
L 464.135022 197.889007 
L 469.470303 201.624811 
L 474.671957 205.544538 
L 479.733645 209.643412 
L 484.649201 213.91644 
L 489.412636 218.358415 
L 494.018147 222.963926 
L 498.460122 227.727361 
L 502.73315 232.642917 
L 506.832024 237.704606 
L 510.751751 242.906259 
L 514.487556 248.24154 
L 518.034885 253.703949 
L 521.389419 259.28683 
L 524.547069 264.983382 
L 527.503989 270.786664 
L 530.256576 276.689606 
L 532.801477 282.685016 
L 535.13559 288.76559 
L 537.256073 294.923918 
L 539.160341 301.152499 
L 540.846075 307.443744 
L 542.311221 313.789987 
L 543.553993 320.183498 
L 544.572878 326.616485 
L 545.366635 333.081113 
L 545.934295 339.569504 
L 546.275169 346.073754 
L 546.388839 352.585938 
L 546.275169 359.098121 
L 545.934295 365.602371 
L 545.366635 372.090762 
L 544.572878 378.55539 
L 543.553993 384.988377 
L 542.311221 391.381888 
L 540.846075 397.728131 
L 539.160341 404.019376 
L 537.256073 410.247957 
L 535.13559 416.406285 
L 532.801477 422.486859 
L 530.256576 428.482269 
L 527.503989 434.385211 
L 524.547069 440.188493 
L 521.389419 445.885045 
L 518.034885 451.467926 
L 514.487556 456.930335 
L 510.751751 462.265616 
L 506.832024 467.467269 
L 502.73315 472.528958 
L 498.460122 477.444514 
L 494.018147 482.207949 
L 489.412636 486.81346 
L 484.649201 491.255435 
L 479.733645 495.528463 
L 474.671957 499.627337 
L 469.470303 503.547064 
L 464.135022 507.282868 
L 458.672613 510.830198 
L 453.089732 514.184731 
L 447.39318 517.342382 
L 441.589898 520.299302 
L 435.686956 523.051889 
L 429.691546 525.596789 
L 423.610973 527.930903 
L 417.452644 530.051385 
L 411.224063 531.955653 
L 404.932819 533.641387 
L 398.586575 535.106533 
L 392.193065 536.349306 
L 385.760077 537.368191 
L 379.29545 538.161947 
L 372.807058 538.729608 
L 366.302809 539.070481 
L 359.790625 539.184152 
L 353.278441 539.070481 
L 346.774192 538.729608 
L 340.2858 538.161947 
L 333.821173 537.368191 
L 327.388185 536.349306 
L 320.994675 535.106533 
L 314.648431 533.641387 
L 308.357187 531.955653 
L 302.128606 530.051385 
L 295.970277 527.930903 
L 289.889704 525.596789 
L 283.894294 523.051889 
L 277.991352 520.299302 
L 272.18807 517.342382 
L 266.491518 514.184731 
L 260.908637 510.830198 
L 255.446228 507.282868 
L 250.110947 503.547064 
L 244.909293 499.627337 
L 239.847605 495.528463 
L 234.932049 491.255435 
L 230.168614 486.81346 
L 225.563103 482.207949 
L 221.121128 477.444514 
L 216.8481 472.528958 
L 212.749226 467.467269 
L 208.829499 462.265616 
L 205.093694 456.930335 
L 201.546365 451.467926 
L 198.191831 445.885045 
L 195.034181 440.188493 
L 192.077261 434.385211 
L 189.324674 428.482269 
L 186.779773 422.486859 
L 184.44566 416.406285 
L 182.325177 410.247957 
L 180.420909 404.019376 
L 178.735175 397.728131 
L 177.270029 391.381888 
L 176.027257 384.988377 
L 175.008372 378.55539 
L 174.214615 372.090762 
L 173.646955 365.602371 
L 173.306081 359.098121 
L 173.192411 352.585938 
L 173.306081 346.073754 
L 173.646955 339.569504 
L 174.214615 333.081113 
L 175.008372 326.616485 
L 176.027257 320.183498 
L 177.270029 313.789987 
L 178.735175 307.443744 
L 180.420909 301.152499 
L 182.325177 294.923918 
L 184.44566 288.76559 
L 186.779773 282.685016 
L 189.324674 276.689606 
L 192.077261 270.786664 
L 195.034181 264.983382 
L 198.191831 259.28683 
L 201.546365 253.703949 
L 205.093694 248.24154 
L 208.829499 242.906259 
L 212.749226 237.704606 
L 216.8481 232.642917 
L 221.121128 227.727361 
L 225.563103 222.963926 
L 230.168614 218.358415 
L 234.932049 213.91644 
L 239.847605 209.643412 
L 244.909293 205.544538 
L 250.110947 201.624811 
L 255.446228 197.889007 
L 260.908637 194.341677 
L 266.491518 190.987144 
L 272.18807 187.829493 
L 277.991352 184.872573 
L 283.894294 182.119986 
L 289.889704 179.575086 
L 295.970277 177.240972 
L 302.128606 175.12049 
L 308.357187 173.216222 
L 314.648431 171.530488 
L 320.994675 170.065342 
L 327.388185 168.822569 
L 333.821173 167.803684 
L 340.2858 167.009928 
L 346.774192 166.442267 
L 353.278441 166.101394 
L 359.790625 165.987723 
L 359.790625 165.987723 
" style="fill:none;stroke:#b0b0b0;stroke-linecap:square;stroke-width:0.8;"/>
     </g>
     <g id="text_10">
      <!-- 2000 -->
      <g transform="translate(431.19867 178.111979)scale(0.1 -0.1)">
       <use xlink:href="#DejaVuSans-50"/>
       <use x="63.623047" xlink:href="#DejaVuSans-48"/>
       <use x="127.246094" xlink:href="#DejaVuSans-48"/>
       <use x="190.869141" xlink:href="#DejaVuSans-48"/>
      </g>
     </g>
    </g>
    <g id="ytick_3">
     <g id="line2d_11">
      <path clip-path="url(#pc53caf48a3)" d="M 359.790625 72.688616 
L 369.558901 72.859122 
L 379.315275 73.370432 
L 389.047862 74.221923 
L 398.744803 75.412558 
L 408.394285 76.940885 
L 417.98455 78.805044 
L 427.503916 81.002763 
L 436.940783 83.531364 
L 446.283654 86.387766 
L 455.521147 89.56849 
L 464.642007 93.06966 
L 473.635122 96.887011 
L 482.489535 101.015891 
L 491.194458 105.451271 
L 499.739286 110.187747 
L 508.113608 115.219547 
L 516.307221 120.540542 
L 524.310143 126.144248 
L 532.112623 132.023838 
L 539.705155 138.17215 
L 547.078489 144.581691 
L 554.223642 151.244654 
L 561.131908 158.15292 
L 567.794871 165.298073 
L 574.204413 172.671407 
L 580.352724 180.26394 
L 586.232315 188.06642 
L 591.836021 196.069342 
L 597.157016 204.262955 
L 602.188816 212.637277 
L 606.925291 221.182105 
L 611.360671 229.887028 
L 615.489552 238.741441 
L 619.306902 247.734555 
L 622.808073 256.855416 
L 625.988796 266.092908 
L 628.845199 275.43578 
L 631.3738 284.872647 
L 633.571518 294.392012 
L 635.435677 303.982278 
L 636.964005 313.631759 
L 638.15464 323.328701 
L 639.006131 333.061287 
L 639.517441 342.817662 
L 639.687946 352.585938 
L 639.517441 362.354213 
L 639.006131 372.110588 
L 638.15464 381.843174 
L 636.964005 391.540116 
L 635.435677 401.189597 
L 633.571518 410.779863 
L 631.3738 420.299228 
L 628.845199 429.736095 
L 625.988796 439.078967 
L 622.808073 448.316459 
L 619.306902 457.43732 
L 615.489552 466.430434 
L 611.360671 475.284847 
L 606.925291 483.98977 
L 602.188816 492.534598 
L 597.157016 500.90892 
L 591.836021 509.102533 
L 586.232315 517.105455 
L 580.352724 524.907935 
L 574.204413 532.500468 
L 567.794871 539.873802 
L 561.131908 547.018955 
L 554.223642 553.927221 
L 547.078489 560.590184 
L 539.705155 566.999725 
L 532.112623 573.148037 
L 524.310143 579.027627 
L 516.307221 584.631333 
L 508.113608 589.952328 
L 499.739286 594.984128 
L 491.194458 599.720604 
L 482.489535 604.155984 
L 473.635122 608.284864 
L 464.642007 612.102215 
L 455.521147 615.603385 
L 446.283654 618.784109 
L 436.940783 621.640511 
L 427.503916 624.169112 
L 417.98455 626.366831 
L 408.394285 628.23099 
L 398.744803 629.759317 
L 389.047862 630.949952 
L 379.315275 631.801443 
L 369.558901 632.312753 
L 359.790625 632.483259 
L 350.022349 632.312753 
L 340.265975 631.801443 
L 330.533388 630.949952 
L 320.836447 629.759317 
L 311.186965 628.23099 
L 301.5967 626.366831 
L 292.077334 624.169112 
L 282.640467 621.640511 
L 273.297596 618.784109 
L 264.060103 615.603385 
L 254.939243 612.102215 
L 245.946128 608.284864 
L 237.091715 604.155984 
L 228.386792 599.720604 
L 219.841964 594.984128 
L 211.467642 589.952328 
L 203.274029 584.631333 
L 195.271107 579.027627 
L 187.468627 573.148037 
L 179.876095 566.999725 
L 172.502761 560.590184 
L 165.357608 553.927221 
L 158.449342 547.018955 
L 151.786379 539.873802 
L 145.376837 532.500468 
L 139.228526 524.907935 
L 133.348935 517.105455 
L 127.745229 509.102533 
L 122.424234 500.90892 
L 117.392434 492.534598 
L 112.655959 483.98977 
L 108.220579 475.284847 
L 104.091698 466.430434 
L 100.274348 457.43732 
L 96.773177 448.316459 
L 93.592454 439.078967 
L 90.736051 429.736095 
L 88.20745 420.299228 
L 86.009732 410.779863 
L 84.145573 401.189597 
L 82.617245 391.540116 
L 81.42661 381.843174 
L 80.575119 372.110588 
L 80.063809 362.354213 
L 79.893304 352.585938 
L 80.063809 342.817662 
L 80.575119 333.061287 
L 81.42661 323.328701 
L 82.617245 313.631759 
L 84.145573 303.982278 
L 86.009732 294.392012 
L 88.20745 284.872647 
L 90.736051 275.43578 
L 93.592454 266.092908 
L 96.773177 256.855416 
L 100.274348 247.734555 
L 104.091698 238.741441 
L 108.220579 229.887028 
L 112.655959 221.182105 
L 117.392434 212.637277 
L 122.424234 204.262955 
L 127.745229 196.069342 
L 133.348935 188.06642 
L 139.228526 180.26394 
L 145.376837 172.671407 
L 151.786379 165.298073 
L 158.449342 158.15292 
L 165.357608 151.244654 
L 172.502761 144.581691 
L 179.876095 138.17215 
L 187.468627 132.023838 
L 195.271107 126.144248 
L 203.274029 120.540542 
L 211.467642 115.219547 
L 219.841964 110.187747 
L 228.386792 105.451271 
L 237.091715 101.015891 
L 245.946128 96.887011 
L 254.939243 93.06966 
L 264.060103 89.56849 
L 273.297596 86.387766 
L 282.640467 83.531364 
L 292.077334 81.002763 
L 301.5967 78.805044 
L 311.186965 76.940885 
L 320.836447 75.412558 
L 330.533388 74.221923 
L 340.265975 73.370432 
L 350.022349 72.859122 
L 359.790625 72.688616 
L 359.790625 72.688616 
" style="fill:none;stroke:#b0b0b0;stroke-linecap:square;stroke-width:0.8;"/>
     </g>
     <g id="text_11">
      <!-- 3000 -->
      <g transform="translate(466.902693 91.914844)scale(0.1 -0.1)">
       <use xlink:href="#DejaVuSans-51"/>
       <use x="63.623047" xlink:href="#DejaVuSans-48"/>
       <use x="127.246094" xlink:href="#DejaVuSans-48"/>
       <use x="190.869141" xlink:href="#DejaVuSans-48"/>
      </g>
     </g>
    </g>
    <g id="ytick_4">
     <g id="line2d_12">
      <path clip-path="url(#pc53caf48a3)" d="M 359.790625 26.039062 
L 371.186947 26.237986 
L 382.569384 26.834514 
L 393.924068 27.82792 
L 405.237166 29.216994 
L 416.494895 31.000043 
L 427.683538 33.174895 
L 438.789464 35.7389 
L 449.799142 38.688935 
L 460.699159 42.021404 
L 471.476234 45.732249 
L 482.117237 49.816947 
L 492.609205 54.270523 
L 502.939353 59.08755 
L 513.095097 64.26216 
L 523.064062 69.788048 
L 532.834105 75.658482 
L 542.39332 81.866309 
L 551.730062 88.403966 
L 560.832956 95.263488 
L 569.69091 102.436518 
L 578.293133 109.914317 
L 586.629145 117.687774 
L 594.688789 125.747417 
L 602.462245 134.083429 
L 609.940044 142.685652 
L 617.113074 151.543607 
L 623.972596 160.6465 
L 630.510254 169.983242 
L 636.718081 179.542458 
L 642.588514 189.3125 
L 648.114402 199.281466 
L 653.289012 209.437209 
L 658.106039 219.767358 
L 662.559615 230.259325 
L 666.644314 240.900329 
L 670.355158 251.677404 
L 673.687628 262.57742 
L 676.637662 273.587098 
L 679.201667 284.693025 
L 681.376519 295.881668 
L 683.159568 307.139396 
L 684.548642 318.452494 
L 685.542048 329.807179 
L 686.138576 341.189616 
L 686.3375 352.585938 
L 686.138576 363.982259 
L 685.542048 375.364696 
L 684.548642 386.719381 
L 683.159568 398.032479 
L 681.376519 409.290207 
L 679.201667 420.47885 
L 676.637662 431.584777 
L 673.687628 442.594455 
L 670.355158 453.494471 
L 666.644314 464.271546 
L 662.559615 474.91255 
L 658.106039 485.404517 
L 653.289012 495.734666 
L 648.114402 505.890409 
L 642.588514 515.859375 
L 636.718081 525.629417 
L 630.510254 535.188633 
L 623.972596 544.525375 
L 617.113074 553.628268 
L 609.940044 562.486223 
L 602.462245 571.088446 
L 594.688789 579.424458 
L 586.629145 587.484101 
L 578.293133 595.257558 
L 569.69091 602.735357 
L 560.832956 609.908387 
L 551.730062 616.767909 
L 542.39332 623.305566 
L 532.834105 629.513393 
L 523.064062 635.383827 
L 513.095097 640.909715 
L 502.939353 646.084325 
L 492.609205 650.901352 
L 482.117237 655.354928 
L 471.476234 659.439626 
L 460.699159 663.150471 
L 449.799142 666.48294 
L 438.789464 669.432975 
L 427.683538 671.99698 
L 416.494895 674.171832 
L 405.237166 675.954881 
L 393.924068 677.343955 
L 382.569384 678.337361 
L 371.186947 678.933889 
L 359.790625 679.132812 
L 348.394303 678.933889 
L 337.011866 678.337361 
L 325.657182 677.343955 
L 314.344084 675.954881 
L 303.086355 674.171832 
L 291.897712 671.99698 
L 280.791786 669.432975 
L 269.782108 666.48294 
L 258.882091 663.150471 
L 248.105016 659.439626 
L 237.464013 655.354928 
L 226.972045 650.901352 
L 216.641897 646.084325 
L 206.486153 640.909715 
L 196.517187 635.383827 
L 186.747145 629.513393 
L 177.18793 623.305566 
L 167.851188 616.767909 
L 158.748294 609.908387 
L 149.89034 602.735357 
L 141.288117 595.257558 
L 132.952105 587.484101 
L 124.892461 579.424458 
L 117.119005 571.088446 
L 109.641206 562.486223 
L 102.468176 553.628268 
L 95.608654 544.525375 
L 89.070996 535.188633 
L 82.863169 525.629417 
L 76.992736 515.859375 
L 71.466848 505.890409 
L 66.292238 495.734666 
L 61.475211 485.404517 
L 57.021635 474.91255 
L 52.936936 464.271546 
L 49.226092 453.494471 
L 45.893622 442.594455 
L 42.943588 431.584777 
L 40.379583 420.47885 
L 38.204731 409.290207 
L 36.421682 398.032479 
L 35.032608 386.719381 
L 34.039202 375.364696 
L 33.442674 363.982259 
L 33.24375 352.585938 
L 33.442674 341.189616 
L 34.039202 329.807179 
L 35.032608 318.452494 
L 36.421682 307.139396 
L 38.204731 295.881668 
L 40.379583 284.693025 
L 42.943588 273.587098 
L 45.893622 262.57742 
L 49.226092 251.677404 
L 52.936936 240.900329 
L 57.021635 230.259325 
L 61.475211 219.767358 
L 66.292238 209.437209 
L 71.466848 199.281466 
L 76.992736 189.3125 
L 82.863169 179.542458 
L 89.070996 169.983242 
L 95.608654 160.6465 
L 102.468176 151.543607 
L 109.641206 142.685652 
L 117.119005 134.083429 
L 124.892461 125.747417 
L 132.952105 117.687774 
L 141.288117 109.914317 
L 149.89034 102.436518 
L 158.748294 95.263488 
L 167.851188 88.403966 
L 177.18793 81.866309 
L 186.747145 75.658482 
L 196.517187 69.788048 
L 206.486153 64.26216 
L 216.641897 59.08755 
L 226.972045 54.270523 
L 237.464013 49.816947 
L 248.105016 45.732249 
L 258.882091 42.021404 
L 269.782108 38.688935 
L 280.791786 35.7389 
L 291.897712 33.174895 
L 303.086355 31.000043 
L 314.344084 29.216994 
L 325.657182 27.82792 
L 337.011866 26.834514 
L 348.394303 26.237986 
L 359.790625 26.039062 
L 359.790625 26.039062 
" style="fill:none;stroke:#b0b0b0;stroke-linecap:square;stroke-width:0.8;"/>
     </g>
     <g id="text_12">
      <!-- 3500 -->
      <g transform="translate(484.754704 48.816276)scale(0.1 -0.1)">
       <use xlink:href="#DejaVuSans-51"/>
       <use x="63.623047" xlink:href="#DejaVuSans-53"/>
       <use x="127.246094" xlink:href="#DejaVuSans-48"/>
       <use x="190.869141" xlink:href="#DejaVuSans-48"/>
      </g>
     </g>
    </g>
   </g>
   <g id="line2d_13"/>
   <g id="line2d_14"/>
   <g id="line2d_15"/>
   <g id="line2d_16"/>
   <g id="line2d_17"/>
   <g id="line2d_18"/>
   <g id="line2d_19"/>
   <g id="line2d_20"/>
   <g id="line2d_21">
    <defs>
     <path d="M 0 1.5 
C 0.397805 1.5 0.77937 1.341951 1.06066 1.06066 
C 1.341951 0.77937 1.5 0.397805 1.5 0 
C 1.5 -0.397805 1.341951 -0.77937 1.06066 -1.06066 
C 0.77937 -1.341951 0.397805 -1.5 0 -1.5 
C -0.397805 -1.5 -0.77937 -1.341951 -1.06066 -1.06066 
C -1.341951 -0.77937 -1.5 -0.397805 -1.5 0 
C -1.5 0.397805 -1.341951 0.77937 -1.06066 1.06066 
C -0.77937 1.341951 -0.397805 1.5 0 1.5 
z
" id="m27b8ff0c91" style="stroke:#bf00bf;"/>
    </defs>
    <g clip-path="url(#pc53caf48a3)">
     <use style="fill:#bf00bf;stroke:#bf00bf;" x="360.215275" xlink:href="#m27b8ff0c91" y="353.919442"/>
     <use style="fill:#bf00bf;stroke:#bf00bf;" x="457.381997" xlink:href="#m27b8ff0c91" y="339.760224"/>
    </g>
   </g>
   <g id="line2d_22"/>
   <g id="patch_3">
    <path d="M 359.790625 26.039062 
C 316.908882 26.039062 274.44411 34.485831 234.826546 50.895963 
C 195.208982 67.306096 159.209086 91.360457 128.887115 121.682428 
C 98.565144 152.004399 74.510783 188.004294 58.100651 227.621859 
C 41.690518 267.239423 33.24375 309.704195 33.24375 352.585938 
C 33.24375 395.46768 41.690518 437.932452 58.100651 477.550016 
C 74.510783 517.167581 98.565144 553.167476 128.887115 583.489447 
C 159.209086 613.811418 195.208982 637.865779 234.826546 654.275912 
C 274.44411 670.686044 316.908882 679.132812 359.790625 679.132812 
C 402.672368 679.132812 445.13714 670.686044 484.754704 654.275912 
C 524.372268 637.865779 560.372164 613.811418 590.694135 583.489447 
C 621.016106 553.167476 645.070467 517.167581 661.480599 477.550016 
C 677.890732 437.932452 686.3375 395.46768 686.3375 352.585938 
C 686.3375 309.704195 677.890732 267.239423 661.480599 227.621859 
C 645.070467 188.004294 621.016106 152.004399 590.694135 121.682428 
C 560.372164 91.360457 524.372268 67.306096 484.754704 50.895963 
C 445.13714 34.485831 402.672368 26.039062 359.790625 26.039062 
" style="fill:none;stroke:#000000;stroke-linecap:square;stroke-linejoin:miter;stroke-width:0.8;"/>
   </g>
  </g>
 </g>
 <defs>
  <clipPath id="pc53caf48a3">
   <path d="M 686.3375 352.585938 
C 686.3375 309.704195 677.890732 267.239423 661.480599 227.621859 
C 645.070467 188.004294 621.016106 152.004399 590.694135 121.682428 
C 560.372164 91.360457 524.372268 67.306096 484.754704 50.895963 
C 445.13714 34.485831 402.672368 26.039062 359.790625 26.039062 
C 316.908882 26.039062 274.44411 34.485831 234.826546 50.895963 
C 195.208982 67.306096 159.209086 91.360457 128.887115 121.682428 
C 98.565144 152.004399 74.510783 188.004294 58.100651 227.621859 
C 41.690518 267.239423 33.24375 309.704195 33.24375 352.585937 
C 33.24375 395.46768 41.690518 437.932452 58.100651 477.550016 
C 74.510783 517.167581 98.565144 553.167476 128.887115 583.489447 
C 159.209086 613.811418 195.208982 637.865779 234.826546 654.275912 
C 274.44411 670.686044 316.908882 679.132812 359.790625 679.132812 
C 402.672368 679.132812 445.13714 670.686044 484.754704 654.275912 
C 524.372268 637.865779 560.372164 613.811418 590.694135 583.489447 
C 621.016106 553.167476 645.070467 517.167581 661.480599 477.550016 
C 677.890732 437.932452 686.3375 395.46768 686.3375 352.585938 
M 359.790625 352.585938 
C 359.790625 352.585938 359.790625 352.585938 359.790625 352.585938 
C 359.790625 352.585938 359.790625 352.585938 359.790625 352.585938 
C 359.790625 352.585938 359.790625 352.585938 359.790625 352.585938 
C 359.790625 352.585938 359.790625 352.585938 359.790625 352.585938 
C 359.790625 352.585938 359.790625 352.585938 359.790625 352.585938 
C 359.790625 352.585938 359.790625 352.585938 359.790625 352.585938 
C 359.790625 352.585938 359.790625 352.585938 359.790625 352.585938 
C 359.790625 352.585938 359.790625 352.585938 359.790625 352.585938 
C 359.790625 352.585938 359.790625 352.585938 359.790625 352.585938 
C 359.790625 352.585938 359.790625 352.585938 359.790625 352.585938 
C 359.790625 352.585938 359.790625 352.585938 359.790625 352.585938 
C 359.790625 352.585938 359.790625 352.585938 359.790625 352.585938 
C 359.790625 352.585938 359.790625 352.585938 359.790625 352.585938 
C 359.790625 352.585938 359.790625 352.585938 359.790625 352.585938 
C 359.790625 352.585938 359.790625 352.585938 359.790625 352.585938 
C 359.790625 352.585938 359.790625 352.585938 359.790625 352.585938 
M 686.3375 352.585938 
z
"/>
  </clipPath>
 </defs>
</svg>
